<svg width="55" height="40" viewBox="0 0 55 40" fill="none" xmlns="http://www.w3.org/2000/svg">
<g clip-path="url(#clip0_1_496)">
<path d="M26.5 38.9384C26.3838 38.8288 26.2181 38.6702 26.0077 38.4648C25.5254 37.994 24.9873 37.4512 24.4069 36.8442C22.7491 35.1096 21.0934 33.2152 19.5484 31.2208C16.8162 27.6936 14.7564 24.2756 13.5814 21.087C12.8637 19.1395 12.5 17.3341 12.5 15.6771C12.5 7.05208 18.5432 1 26.5 1C34.4568 1 40.5 7.05208 40.5 15.6771C40.5 17.3341 40.1364 19.1395 39.4186 21.087C38.2436 24.2756 36.1838 27.6936 33.4516 31.2208C31.9066 33.2152 30.251 35.1096 28.593 36.8442C28.0128 37.4512 27.4746 37.994 26.9922 38.4648C26.7818 38.6702 26.6162 38.8288 26.5 38.9384Z" fill="#05471C" stroke="#05471C" stroke-width="2"/>
<path d="M26.5 26C32.5751 26 37.5 21.0751 37.5 15C37.5 8.92487 32.5751 4 26.5 4C20.4249 4 15.5 8.92487 15.5 15C15.5 21.0751 20.4249 26 26.5 26Z" fill="white"/>
<path d="M19.2269 19.6L16.7298 10.8727H18.7454L20.19 16.9366H20.2624L21.8562 10.8727H23.582L25.1715 16.9494H25.2482L26.6928 10.8727H28.7085L26.2113 19.6H24.413L22.7511 13.894H22.6829L21.0252 19.6H19.2269ZM29.6449 19.6V18.2704L32.7514 15.394C33.0156 15.1383 33.2372 14.9082 33.4162 14.7037C33.598 14.4991 33.7358 14.2988 33.8295 14.1028C33.9233 13.904 33.9702 13.6895 33.9702 13.4594C33.9702 13.2037 33.9119 12.9835 33.7955 12.7988C33.679 12.6113 33.5199 12.4679 33.3182 12.3684C33.1165 12.2662 32.8878 12.215 32.6321 12.215C32.3651 12.215 32.1321 12.269 31.9332 12.377C31.7344 12.4849 31.581 12.6397 31.473 12.8415C31.3651 13.0432 31.3111 13.2832 31.3111 13.5616H29.5597C29.5597 12.9906 29.6889 12.4949 29.9474 12.0744C30.206 11.654 30.5682 11.3287 31.0341 11.0986C31.5 10.8684 32.0369 10.7534 32.6449 10.7534C33.2699 10.7534 33.8139 10.8642 34.277 11.0858C34.7429 11.3045 35.1051 11.6085 35.3636 11.9977C35.6222 12.3869 35.7514 12.8329 35.7514 13.3358C35.7514 13.6653 35.6861 13.9906 35.5554 14.3116C35.4276 14.6326 35.1989 14.9892 34.8693 15.3812C34.5398 15.7704 34.0753 16.2378 33.4759 16.7832L32.2017 18.0318V18.0915H35.8665V19.6H29.6449Z" fill="#05471C"/>
</g>
<defs>
<clipPath id="clip0_1_496">
<rect width="55" height="40" fill="white"/>
</clipPath>
</defs>
</svg>
