<svg width="55" height="40" viewBox="0 0 55 40" fill="none" xmlns="http://www.w3.org/2000/svg">
<g clip-path="url(#clip0_1_436)">
<path d="M26.5 38.9384C26.3838 38.8288 26.2181 38.6702 26.0077 38.4648C25.5254 37.994 24.9873 37.4512 24.4069 36.8442C22.7491 35.1096 21.0934 33.2152 19.5484 31.2208C16.8162 27.6936 14.7564 24.2756 13.5814 21.087C12.8637 19.1395 12.5 17.3341 12.5 15.6771C12.5 7.05208 18.5432 1 26.5 1C34.4568 1 40.5 7.05208 40.5 15.6771C40.5 17.3341 40.1364 19.1395 39.4186 21.087C38.2436 24.2756 36.1838 27.6936 33.4516 31.2208C31.9066 33.2152 30.251 35.1096 28.593 36.8442C28.0128 37.4512 27.4746 37.994 26.9922 38.4648C26.7818 38.6702 26.6162 38.8288 26.5 38.9384Z" fill="#05471C" stroke="#05471C" stroke-width="2"/>
<path d="M26.5 26C32.5751 26 37.5 21.0751 37.5 15C37.5 8.92487 32.5751 4 26.5 4C20.4249 4 15.5 8.92487 15.5 15C15.5 21.0751 20.4249 26 26.5 26Z" fill="white"/>
<path d="M24.1062 13.3826C24.0721 13.0389 23.9258 12.7719 23.6673 12.5815C23.4087 12.3912 23.0579 12.296 22.6147 12.296C22.3136 12.296 22.0593 12.3386 21.8519 12.4238C21.6445 12.5062 21.4854 12.6213 21.3746 12.769C21.2667 12.9167 21.2127 13.0844 21.2127 13.2719C21.207 13.4281 21.2397 13.5645 21.3107 13.6809C21.3846 13.7974 21.4854 13.8983 21.6133 13.9835C21.7411 14.0659 21.8888 14.1383 22.0565 14.2008C22.2241 14.2605 22.4031 14.3116 22.5934 14.3542L23.3775 14.5417C23.7582 14.627 24.1076 14.7406 24.4258 14.8826C24.744 15.0247 25.0195 15.1994 25.2525 15.4068C25.4854 15.6142 25.6658 15.8585 25.7937 16.1397C25.9244 16.421 25.9911 16.7434 25.994 17.1071C25.9911 17.6412 25.8548 18.1042 25.5849 18.4963C25.3178 18.8855 24.9315 19.188 24.4258 19.404C23.9229 19.617 23.3164 19.7236 22.6062 19.7236C21.9016 19.7236 21.288 19.6156 20.7653 19.3997C20.2454 19.1838 19.8391 18.8642 19.5465 18.4409C19.2567 18.0147 19.1048 17.4878 19.0906 16.8599H20.8761C20.896 17.1525 20.9798 17.3969 21.1275 17.5929C21.2781 17.7861 21.4783 17.9324 21.7283 18.0318C21.9812 18.1284 22.2667 18.1767 22.5849 18.1767C22.8974 18.1767 23.1687 18.1312 23.3988 18.0403C23.6317 17.9494 23.8121 17.823 23.94 17.6611C24.0678 17.4991 24.1317 17.313 24.1317 17.1028C24.1317 16.9068 24.0735 16.742 23.957 16.6085C23.8434 16.475 23.6758 16.3613 23.4542 16.2676C23.2354 16.1738 22.967 16.0886 22.6488 16.0119L21.6985 15.7733C20.9627 15.5943 20.3817 15.3145 19.9556 14.9338C19.5295 14.5531 19.3178 14.0403 19.3207 13.3954C19.3178 12.867 19.4585 12.4054 19.7425 12.0105C20.0295 11.6156 20.4229 11.3074 20.9229 11.0858C21.4229 10.8642 21.9911 10.7534 22.6275 10.7534C23.2752 10.7534 23.8406 10.8642 24.3235 11.0858C24.8093 11.3074 25.1871 11.6156 25.457 12.0105C25.7269 12.4054 25.8661 12.8628 25.8746 13.3826H24.1062ZM30.4098 19.7193C29.7734 19.7193 29.2067 19.6099 28.7095 19.3912C28.2152 19.1696 27.8246 18.8656 27.5376 18.4792C27.2536 18.09 27.1072 17.6412 27.0987 17.1326H28.9567C28.968 17.3457 29.0376 17.5332 29.1655 17.6951C29.2962 17.8542 29.4695 17.9778 29.6854 18.0659C29.9013 18.154 30.1442 18.198 30.4141 18.198C30.6953 18.198 30.9439 18.1483 31.1598 18.0488C31.3757 17.9494 31.5447 17.8116 31.6669 17.6355C31.7891 17.4594 31.8501 17.2562 31.8501 17.0261C31.8501 16.7932 31.7848 16.5872 31.6541 16.4082C31.5263 16.2264 31.3416 16.0844 31.1001 15.9821C30.8615 15.8798 30.5774 15.8287 30.2479 15.8287H29.4339V14.4736H30.2479C30.5263 14.4736 30.772 14.4253 30.9851 14.3287C31.201 14.2321 31.3686 14.0986 31.4879 13.9281C31.6072 13.7548 31.6669 13.5531 31.6669 13.323C31.6669 13.1042 31.6143 12.9125 31.5092 12.7477C31.407 12.5801 31.2621 12.4494 31.0746 12.3557C30.8899 12.2619 30.674 12.215 30.4268 12.215C30.1768 12.215 29.9482 12.2605 29.7408 12.3514C29.5334 12.4395 29.3672 12.5659 29.2422 12.7307C29.1172 12.8954 29.0504 13.0886 29.0419 13.3102H27.2734C27.282 12.8074 27.4254 12.3642 27.7038 11.9807C27.9822 11.5971 28.3572 11.2974 28.8288 11.0815C29.3033 10.8628 29.8388 10.7534 30.4354 10.7534C31.0376 10.7534 31.5646 10.8628 32.0163 11.0815C32.468 11.3003 32.8189 11.5957 33.0689 11.9679C33.3217 12.3372 33.4467 12.752 33.4439 13.2122C33.4467 13.7008 33.2947 14.1085 32.9879 14.4352C32.6839 14.7619 32.2876 14.9693 31.799 15.0574V15.1255C32.4411 15.2079 32.9297 15.4309 33.2649 15.7946C33.603 16.1554 33.7706 16.6071 33.7678 17.1497C33.7706 17.6469 33.6271 18.0886 33.3374 18.475C33.0504 18.8613 32.6541 19.1653 32.1484 19.3869C31.6428 19.6085 31.0632 19.7193 30.4098 19.7193Z" fill="#05471C"/>
</g>
<defs>
<clipPath id="clip0_1_436">
<rect width="55" height="40" fill="white"/>
</clipPath>
</defs>
</svg>
