<svg width="55" height="40" viewBox="0 0 55 40" fill="none" xmlns="http://www.w3.org/2000/svg">
<g clip-path="url(#clip0_1_428)">
<path d="M26.5 38.9384C26.3838 38.8288 26.2181 38.6702 26.0077 38.4648C25.5254 37.994 24.9873 37.4512 24.4069 36.8442C22.7491 35.1096 21.0934 33.2152 19.5484 31.2208C16.8162 27.6936 14.7564 24.2756 13.5814 21.087C12.8637 19.1395 12.5 17.3341 12.5 15.6771C12.5 7.05208 18.5432 1 26.5 1C34.4568 1 40.5 7.05208 40.5 15.6771C40.5 17.3341 40.1364 19.1395 39.4186 21.087C38.2436 24.2756 36.1838 27.6936 33.4516 31.2208C31.9066 33.2152 30.251 35.1096 28.593 36.8442C28.0128 37.4512 27.4746 37.994 26.9922 38.4648C26.7818 38.6702 26.6162 38.8288 26.5 38.9384Z" fill="#05471C" stroke="#05471C" stroke-width="2"/>
<path d="M26.5 26C32.5751 26 37.5 21.0751 37.5 15C37.5 8.92487 32.5751 4 26.5 4C20.4249 4 15.5 8.92487 15.5 15C15.5 21.0751 20.4249 26 26.5 26Z" fill="white"/>
<path d="M25.1257 13.3826C25.0916 13.0389 24.9453 12.7719 24.6868 12.5815C24.4283 12.3912 24.0774 12.296 23.6342 12.296C23.3331 12.296 23.0788 12.3386 22.8714 12.4238C22.6641 12.5062 22.505 12.6213 22.3942 12.769C22.2862 12.9167 22.2322 13.0844 22.2322 13.2719C22.2266 13.4281 22.2592 13.5645 22.3303 13.6809C22.4041 13.7974 22.505 13.8983 22.6328 13.9835C22.7607 14.0659 22.9084 14.1383 23.076 14.2008C23.2436 14.2605 23.4226 14.3116 23.6129 14.3542L24.397 14.5417C24.7777 14.627 25.1271 14.7406 25.4453 14.8826C25.7635 15.0247 26.0391 15.1994 26.272 15.4068C26.505 15.6142 26.6854 15.8585 26.8132 16.1397C26.9439 16.421 27.0107 16.7434 27.0135 17.1071C27.0107 17.6412 26.8743 18.1042 26.6044 18.4963C26.3374 18.8855 25.951 19.188 25.4453 19.404C24.9425 19.617 24.3359 19.7236 23.6257 19.7236C22.9212 19.7236 22.3075 19.6156 21.7848 19.3997C21.2649 19.1838 20.8587 18.8642 20.5661 18.4409C20.2763 18.0147 20.1243 17.4878 20.1101 16.8599H21.8956C21.9155 17.1525 21.9993 17.3969 22.147 17.5929C22.2976 17.7861 22.4979 17.9324 22.7479 18.0318C23.0007 18.1284 23.2862 18.1767 23.6044 18.1767C23.9169 18.1767 24.1882 18.1312 24.4183 18.0403C24.6513 17.9494 24.8317 17.823 24.9595 17.6611C25.0874 17.4991 25.1513 17.313 25.1513 17.1028C25.1513 16.9068 25.093 16.742 24.9766 16.6085C24.8629 16.475 24.6953 16.3613 24.4737 16.2676C24.255 16.1738 23.9865 16.0886 23.6683 16.0119L22.718 15.7733C21.9822 15.5943 21.4013 15.3145 20.9751 14.9338C20.549 14.5531 20.3374 14.0403 20.3402 13.3954C20.3374 12.867 20.478 12.4054 20.7621 12.0105C21.049 11.6156 21.4425 11.3074 21.9425 11.0858C22.4425 10.8642 23.0107 10.7534 23.647 10.7534C24.2947 10.7534 24.8601 10.8642 25.343 11.0858C25.8288 11.3074 26.2067 11.6156 26.4766 12.0105C26.7464 12.4054 26.8857 12.8628 26.8942 13.3826H25.1257ZM32.0004 10.8727V19.6H30.1552V12.6241H30.104L28.1055 13.877V12.2406L30.266 10.8727H32.0004Z" fill="#05471C"/>
</g>
<defs>
<clipPath id="clip0_1_428">
<rect width="55" height="40" fill="white"/>
</clipPath>
</defs>
</svg>
