<svg width="40" height="36" viewBox="0 0 20 20" fill="none" xmlns="http://www.w3.org/2000/svg">
<path d="M10 18.8365C9.94754 18.7875 9.87729 18.7211 9.79072 18.6379C9.56598 18.422 9.31513 18.173 9.0446 17.8944C8.27172 17.0984 7.49996 16.2291 6.77993 15.3141C5.50631 13.6957 4.54787 12.1294 4.00168 10.6704C3.66816 9.77948 3.5 8.95578 3.5 8.20166C3.5 4.26818 6.29899 1.5 10 1.5C13.701 1.5 16.5 4.26818 16.5 8.20166C16.5 8.95578 16.3318 9.77948 15.9983 10.6704C15.4521 12.1294 14.4937 13.6957 13.2201 15.3141C12.5 16.2291 11.7283 17.0984 10.9554 17.8944C10.6849 18.173 10.434 18.422 10.2093 18.6379C10.1227 18.7211 10.0525 18.7875 10 18.8365Z" fill="#0b983c" stroke="#0b983c"/>
<path d="M10 13C7.23858 13 5 10.7614 5 8C5 5.23858 7.23858 3 10 3C12.7614 3 15 5.23858 15 8C15 10.7614 12.7614 13 10 13Z" fill="white"/>
<path d="M9 10V6.05648H10.3294V6.74454H10.3809C10.471 6.49979 10.6223 6.31493 10.8348 6.18999C11.0472 6.06333 11.2918 6 11.5687 6C11.6373 6 11.7114 6.00342 11.7908 6.01027C11.8702 6.01712 11.9399 6.02653 12 6.03851V7.00899C11.9356 6.99358 11.8466 6.97989 11.7328 6.96791C11.6191 6.95593 11.515 6.94994 11.4206 6.94994C11.2189 6.94994 11.0386 6.98502 10.8798 7.0552C10.7232 7.12366 10.5987 7.21951 10.5064 7.34275C10.4163 7.46598 10.3712 7.60804 10.3712 7.76893V10H9Z" fill="#0b983c"/>
</svg>
