<svg width="40" height="26" viewBox="0 0 40 26" fill="none" xmlns="http://www.w3.org/2000/svg">
<g clip-path="url(#clip0_1_716)">
<path d="M19.35 25.31C19.2744 25.2387 19.1668 25.1357 19.03 25.0021C18.7165 24.6961 18.3667 24.3433 17.9895 23.9488C16.9119 22.8213 15.8357 21.5899 14.8315 20.2935C13.0555 18.0009 11.7167 15.7792 10.9529 13.7066C10.4864 12.4407 10.25 11.2672 10.25 10.1901C10.25 4.58388 14.1781 0.650024 19.35 0.650024C24.5219 0.650024 28.45 4.58388 28.45 10.1901C28.45 11.2672 28.2137 12.4407 27.7471 13.7066C26.9833 15.7792 25.6445 18.0009 23.8685 20.2935C22.8643 21.5899 21.7881 22.8213 20.7104 23.9488C20.3333 24.3433 19.9835 24.6961 19.6699 25.0021C19.5332 25.1357 19.4255 25.2387 19.35 25.31Z" fill="#0B983C" stroke="#0B983C" stroke-width="1.3"/>
<path d="M19.35 16.9C23.2988 16.9 26.5 13.6988 26.5 9.74998C26.5 5.80114 23.2988 2.59998 19.35 2.59998C15.4012 2.59998 12.2 5.80114 12.2 9.74998C12.2 13.6988 15.4012 16.9 19.35 16.9Z" fill="white"/>
<path d="M18.4067 7.89874C18.3845 7.6753 18.2894 7.50172 18.1214 7.378C17.9534 7.25428 17.7253 7.19242 17.4372 7.19242C17.2415 7.19242 17.0762 7.22012 16.9414 7.27551C16.8066 7.32907 16.7032 7.40385 16.6312 7.49987C16.561 7.5959 16.5259 7.70485 16.5259 7.82672C16.5223 7.92828 16.5435 8.01692 16.5897 8.09263C16.6377 8.16834 16.7032 8.23389 16.7863 8.28929C16.8694 8.34284 16.9654 8.38993 17.0744 8.43056C17.1833 8.46933 17.2997 8.50257 17.4234 8.53027L17.933 8.65215C18.1805 8.70755 18.4076 8.78141 18.6144 8.87374C18.8213 8.96607 19.0004 9.07963 19.1518 9.21443C19.3032 9.34924 19.4205 9.50804 19.5036 9.69085C19.5885 9.87367 19.6319 10.0833 19.6338 10.3196C19.6319 10.6668 19.5433 10.9678 19.3679 11.2226C19.1943 11.4756 18.9431 11.6722 18.6144 11.8126C18.2876 11.9511 17.8933 12.0203 17.4317 12.0203C16.9737 12.0203 16.5749 11.9502 16.2351 11.8098C15.8972 11.6695 15.6331 11.4617 15.4429 11.1866C15.2546 10.9096 15.1558 10.5671 15.1465 10.159H16.3071C16.3201 10.3492 16.3745 10.508 16.4705 10.6354C16.5684 10.761 16.6986 10.8561 16.8611 10.9207C17.0254 10.9835 17.211 11.0149 17.4179 11.0149C17.621 11.0149 17.7973 10.9853 17.9469 10.9262C18.0983 10.8671 18.2156 10.785 18.2987 10.6797C18.3818 10.5744 18.4233 10.4535 18.4233 10.3168C18.4233 10.1894 18.3855 10.0823 18.3098 9.99554C18.2359 9.90875 18.1269 9.83489 17.9829 9.77395C17.8407 9.71301 17.6662 9.65762 17.4594 9.60776L16.8417 9.45264C16.3634 9.33631 15.9858 9.15442 15.7088 8.90698C15.4318 8.65953 15.2943 8.32622 15.2961 7.90705C15.2943 7.56358 15.3857 7.26351 15.5703 7.00684C15.7568 6.75016 16.0126 6.5498 16.3376 6.40577C16.6626 6.26174 17.0319 6.18972 17.4455 6.18972C17.8666 6.18972 18.234 6.26174 18.548 6.40577C18.8637 6.5498 19.1093 6.75016 19.2848 7.00684C19.4602 7.26351 19.5507 7.56081 19.5562 7.89874H18.4067ZM22.8752 6.26728V11.94H21.6759V7.4057H21.6426L20.3435 8.22005V7.15641L21.7479 6.26728H22.8752Z" fill="#0B983C"/>
</g>
<defs>
<clipPath id="clip0_1_716">
<rect width="40" height="26" fill="white"/>
</clipPath>
</defs>
</svg>
