<svg width="55" height="40" viewBox="0 0 55 40" fill="none" xmlns="http://www.w3.org/2000/svg">
<g clip-path="url(#clip0_1_392)">
<path d="M26.5 38.9384C26.3838 38.8288 26.2181 38.6702 26.0077 38.4648C25.5254 37.994 24.9873 37.4512 24.4069 36.8442C22.7491 35.1096 21.0934 33.2152 19.5484 31.2208C16.8162 27.6936 14.7564 24.2756 13.5814 21.087C12.8637 19.1395 12.5 17.3341 12.5 15.6771C12.5 7.05208 18.5432 1 26.5 1C34.4568 1 40.5 7.05208 40.5 15.6771C40.5 17.3341 40.1364 19.1395 39.4186 21.087C38.2436 24.2756 36.1838 27.6936 33.4516 31.2208C31.9066 33.2152 30.251 35.1096 28.593 36.8442C28.0128 37.4512 27.4746 37.994 26.9922 38.4648C26.7818 38.6702 26.6162 38.8288 26.5 38.9384Z" fill="#05471C" stroke="#05471C" stroke-width="2"/>
<path d="M26.5 26C32.5751 26 37.5 21.0751 37.5 15C37.5 8.92487 32.5751 4 26.5 4C20.4249 4 15.5 8.92487 15.5 15C15.5 21.0751 20.4249 26 26.5 26Z" fill="white"/>
<path d="M25.8592 16.5659H27.4274L28.2157 17.5801L28.9913 18.4835L30.4529 20.3159H28.7314L27.7257 19.0801L27.21 18.3471L25.8592 16.5659ZM30.5851 15.2363C30.5851 16.188 30.4047 16.9977 30.0439 17.6653C29.6859 18.3329 29.1973 18.8429 28.5779 19.1951C27.9615 19.5446 27.2683 19.7193 26.4984 19.7193C25.7228 19.7193 25.0268 19.5432 24.4103 19.1909C23.7939 18.8386 23.3066 18.3287 22.9487 17.6611C22.5907 16.9934 22.4118 16.1852 22.4118 15.2363C22.4118 14.2846 22.5907 13.475 22.9487 12.8074C23.3066 12.1397 23.7939 11.6312 24.4103 11.2818C25.0268 10.9295 25.7228 10.7534 26.4984 10.7534C27.2683 10.7534 27.9615 10.9295 28.5779 11.2818C29.1973 11.6312 29.6859 12.1397 30.0439 12.8074C30.4047 13.475 30.5851 14.2846 30.5851 15.2363ZM28.7143 15.2363C28.7143 14.6199 28.622 14.1 28.4373 13.6767C28.2555 13.2534 27.9984 12.9324 27.666 12.7136C27.3336 12.4949 26.9444 12.3855 26.4984 12.3855C26.0524 12.3855 25.6632 12.4949 25.3308 12.7136C24.9984 12.9324 24.7399 13.2534 24.5552 13.6767C24.3734 14.1 24.2825 14.6199 24.2825 15.2363C24.2825 15.8528 24.3734 16.3727 24.5552 16.796C24.7399 17.2193 24.9984 17.5403 25.3308 17.7591C25.6632 17.9778 26.0524 18.0872 26.4984 18.0872C26.9444 18.0872 27.3336 17.9778 27.666 17.7591C27.9984 17.5403 28.2555 17.2193 28.4373 16.796C28.622 16.3727 28.7143 15.8528 28.7143 15.2363Z" fill="#05471C"/>
</g>
<defs>
<clipPath id="clip0_1_392">
<rect width="55" height="40" fill="white"/>
</clipPath>
</defs>
</svg>
