<svg width="40" height="26" viewBox="0 0 40 26" fill="none" xmlns="http://www.w3.org/2000/svg">
<g clip-path="url(#clip0_1_46)">
<path d="M19.35 25.31C19.2744 25.2387 19.1668 25.1357 19.03 25.0021C18.7165 24.6961 18.3667 24.3433 17.9895 23.9488C16.9119 22.8213 15.8357 21.5899 14.8315 20.2935C13.0555 18.0009 11.7167 15.7792 10.9529 13.7066C10.4864 12.4407 10.25 11.2672 10.25 10.1901C10.25 4.58388 14.1781 0.650024 19.35 0.650024C24.5219 0.650024 28.45 4.58388 28.45 10.1901C28.45 11.2672 28.2137 12.4407 27.7471 13.7066C26.9833 15.7792 25.6445 18.0009 23.8685 20.2935C22.8643 21.5899 21.7881 22.8213 20.7104 23.9488C20.3333 24.3433 19.9835 24.6961 19.6699 25.0021C19.5332 25.1357 19.4255 25.2387 19.35 25.31Z" fill="#0B983C" stroke="#0B983C" stroke-width="1.3"/>
<path d="M19.35 16.9C23.2988 16.9 26.5 13.6988 26.5 9.74998C26.5 5.80114 23.2988 2.59998 19.35 2.59998C15.4012 2.59998 12.2 5.80114 12.2 9.74998C12.2 13.6988 15.4012 16.9 19.35 16.9Z" fill="white"/>
<path d="M18.4948 8.25322H17.2816C17.2594 8.09626 17.2142 7.95684 17.1459 7.83497C17.0775 7.71125 16.9898 7.60599 16.8827 7.5192C16.7756 7.43241 16.6519 7.36594 16.5116 7.31977C16.3731 7.27361 16.2226 7.25052 16.0601 7.25052C15.7665 7.25052 15.5107 7.32346 15.2928 7.46934C15.0749 7.61338 14.906 7.82389 14.7859 8.10088C14.6659 8.37602 14.6059 8.71025 14.6059 9.10358C14.6059 9.50798 14.6659 9.84775 14.7859 10.1229C14.9078 10.398 15.0777 10.6058 15.2956 10.7461C15.5135 10.8865 15.7655 10.9566 16.0518 10.9566C16.2124 10.9566 16.3611 10.9354 16.4977 10.8929C16.6362 10.8505 16.759 10.7886 16.8661 10.7073C16.9732 10.6242 17.0619 10.5236 17.132 10.4054C17.204 10.2872 17.2539 10.1524 17.2816 10.001L18.4948 10.0066C18.4634 10.2669 18.3849 10.5181 18.2594 10.76C18.1356 11 17.9685 11.2152 17.758 11.4054C17.5494 11.5937 17.3001 11.7433 17.0101 11.8541C16.7221 11.963 16.3962 12.0175 16.0324 12.0175C15.5264 12.0175 15.074 11.903 14.6751 11.674C14.2781 11.4451 13.9642 11.1136 13.7334 10.6796C13.5044 10.2457 13.3899 9.72034 13.3899 9.10358C13.3899 8.48497 13.5062 7.95869 13.7389 7.52474C13.9716 7.09079 14.2873 6.76025 14.6862 6.53312C15.0851 6.30415 15.5338 6.18966 16.0324 6.18966C16.3611 6.18966 16.6658 6.23582 16.9464 6.32815C17.229 6.42048 17.4792 6.55528 17.6971 6.73255C17.915 6.90798 18.0922 7.12311 18.2289 7.37794C18.3674 7.63277 18.456 7.92453 18.4948 8.25322ZM21.4184 12.0175C21.0048 12.0175 20.6364 11.9464 20.3132 11.8042C19.9919 11.6602 19.738 11.4626 19.5515 11.2115C19.3669 10.9585 19.2718 10.6667 19.2662 10.3362H20.4739C20.4813 10.4747 20.5265 10.5965 20.6096 10.7018C20.6946 10.8052 20.8072 10.8855 20.9475 10.9428C21.0879 11 21.2458 11.0286 21.4212 11.0286C21.604 11.0286 21.7656 10.9963 21.9059 10.9317C22.0463 10.8671 22.1561 10.7775 22.2355 10.663C22.3149 10.5485 22.3546 10.4165 22.3546 10.2669C22.3546 10.1155 22.3122 9.98163 22.2272 9.8653C22.1441 9.74711 22.0241 9.65479 21.8671 9.58831C21.712 9.52183 21.5274 9.48859 21.3132 9.48859H20.7841V8.60777H21.3132C21.4941 8.60777 21.6539 8.57638 21.7924 8.51359C21.9327 8.45081 22.0416 8.36402 22.1192 8.25322C22.1968 8.14058 22.2355 8.00947 22.2355 7.8599C22.2355 7.71771 22.2014 7.59307 22.1331 7.48596C22.0666 7.37702 21.9724 7.29207 21.8505 7.23113C21.7305 7.1702 21.5902 7.13973 21.4295 7.13973C21.267 7.13973 21.1184 7.16927 20.9835 7.22836C20.8487 7.28561 20.7407 7.36778 20.6595 7.47488C20.5782 7.58199 20.5348 7.70755 20.5293 7.85159H19.3798C19.3853 7.52474 19.4786 7.23667 19.6595 6.98738C19.8405 6.73809 20.0843 6.54328 20.3908 6.40294C20.6992 6.26075 21.0473 6.18966 21.435 6.18966C21.8265 6.18966 22.1691 6.26075 22.4627 6.40294C22.7563 6.54513 22.9843 6.73717 23.1468 6.97907C23.3112 7.21913 23.3924 7.48873 23.3906 7.78788C23.3924 8.1055 23.2936 8.37048 23.0942 8.58284C22.8966 8.7952 22.639 8.93 22.3214 8.98724V9.03156C22.7387 9.08511 23.0563 9.23007 23.2742 9.46643C23.494 9.70095 23.6029 9.99456 23.6011 10.3473C23.6029 10.6704 23.5097 10.9576 23.3213 11.2087C23.1348 11.4598 22.8772 11.6574 22.5485 11.8014C22.2198 11.9455 21.8431 12.0175 21.4184 12.0175Z" fill="#0B983C"/>
</g>
<defs>
<clipPath id="clip0_1_46">
<rect width="40" height="26" fill="white"/>
</clipPath>
</defs>
</svg>
