<svg width="55" height="40" viewBox="0 0 55 40" fill="none" xmlns="http://www.w3.org/2000/svg">
<g clip-path="url(#clip0_1_512)">
<path d="M26.5 38.9384C26.3838 38.8288 26.2181 38.6702 26.0077 38.4648C25.5254 37.994 24.9873 37.4512 24.4069 36.8442C22.7491 35.1096 21.0934 33.2152 19.5484 31.2208C16.8162 27.6936 14.7564 24.2756 13.5814 21.087C12.8637 19.1395 12.5 17.3341 12.5 15.6771C12.5 7.05208 18.5432 1 26.5 1C34.4568 1 40.5 7.05208 40.5 15.6771C40.5 17.3341 40.1364 19.1395 39.4186 21.087C38.2436 24.2756 36.1838 27.6936 33.4516 31.2208C31.9066 33.2152 30.251 35.1096 28.593 36.8442C28.0128 37.4512 27.4746 37.994 26.9922 38.4648C26.7818 38.6702 26.6162 38.8288 26.5 38.9384Z" fill="#05471C" stroke="#05471C" stroke-width="2"/>
<path d="M26.5 26C32.5751 26 37.5 21.0751 37.5 15C37.5 8.92487 32.5751 4 26.5 4C20.4249 4 15.5 8.92487 15.5 15C15.5 21.0751 20.4249 26 26.5 26Z" fill="white"/>
<path d="M21.4203 10.8727L23.1802 13.8471H23.2484L25.0169 10.8727H27.1007L24.4373 15.2363L27.1603 19.6H25.0382L23.2484 16.6213H23.1802L21.3904 19.6H19.2768L22.0083 15.2363L19.3279 10.8727H21.4203ZM28.2172 19.6V18.2704L31.3237 15.394C31.5879 15.1383 31.8095 14.9082 31.9885 14.7037C32.1703 14.4991 32.3081 14.2988 32.4018 14.1028C32.4956 13.904 32.5424 13.6895 32.5424 13.4594C32.5424 13.2037 32.4842 12.9835 32.3677 12.7988C32.2512 12.6113 32.0922 12.4679 31.8904 12.3684C31.6887 12.2662 31.46 12.215 31.2044 12.215C30.9373 12.215 30.7044 12.269 30.5055 12.377C30.3066 12.4849 30.1532 12.6397 30.0453 12.8415C29.9373 13.0432 29.8833 13.2832 29.8833 13.5616H28.1319C28.1319 12.9906 28.2612 12.4949 28.5197 12.0744C28.7782 11.654 29.1404 11.3287 29.6064 11.0986C30.0723 10.8684 30.6092 10.7534 31.2172 10.7534C31.8422 10.7534 32.3862 10.8642 32.8493 11.0858C33.3152 11.3045 33.6774 11.6085 33.9359 11.9977C34.1944 12.3869 34.3237 12.8329 34.3237 13.3358C34.3237 13.6653 34.2583 13.9906 34.1277 14.3116C33.9998 14.6326 33.7711 14.9892 33.4416 15.3812C33.112 15.7704 32.6475 16.2378 32.0481 16.7832L30.774 18.0318V18.0915H34.4387V19.6H28.2172Z" fill="#05471C"/>
</g>
<defs>
<clipPath id="clip0_1_512">
<rect width="55" height="40" fill="white"/>
</clipPath>
</defs>
</svg>
