<svg width="40" height="26" viewBox="0 0 40 26" fill="none" xmlns="http://www.w3.org/2000/svg">
<g clip-path="url(#clip0_1_18)">
<path d="M19.35 25.31C19.2744 25.2387 19.1668 25.1357 19.03 25.0021C18.7165 24.6961 18.3667 24.3433 17.9895 23.9488C16.9119 22.8213 15.8357 21.5899 14.8315 20.2935C13.0555 18.0009 11.7167 15.7792 10.9529 13.7066C10.4864 12.4407 10.25 11.2672 10.25 10.1901C10.25 4.58388 14.1781 0.650024 19.35 0.650024C24.5219 0.650024 28.45 4.58388 28.45 10.1901C28.45 11.2672 28.2137 12.4407 27.7471 13.7066C26.9833 15.7792 25.6445 18.0009 23.8685 20.2935C22.8643 21.5899 21.7881 22.8213 20.7104 23.9488C20.3333 24.3433 19.9835 24.6961 19.6699 25.0021C19.5332 25.1357 19.4255 25.2387 19.35 25.31Z" fill="#0B983C" stroke="#0B983C" stroke-width="1.3"/>
<path d="M19.35 16.9C23.2988 16.9 26.5 13.6988 26.5 9.74998C26.5 5.80114 23.2988 2.59998 19.35 2.59998C15.4011 2.59998 12.2 5.80114 12.2 9.74998C12.2 13.6988 15.4011 16.9 19.35 16.9Z" fill="white"/>
<path d="M16.6646 11.9399V6.26721H18.9359C19.3533 6.26721 19.7013 6.32907 19.9802 6.4528C20.259 6.57652 20.4686 6.74825 20.6089 6.968C20.7493 7.18589 20.8195 7.43703 20.8195 7.7214C20.8195 7.943 20.7751 8.13781 20.6865 8.30585C20.5979 8.47204 20.476 8.60869 20.3209 8.71579C20.1676 8.82105 19.9922 8.89584 19.7946 8.94015V8.99555C20.0106 9.00479 20.2128 9.06572 20.4012 9.17836C20.5914 9.29101 20.7456 9.44889 20.8638 9.65202C20.982 9.85329 21.041 10.0934 21.041 10.3722C21.041 10.6732 20.9663 10.9419 20.8167 11.1782C20.669 11.4127 20.4501 11.5983 20.1602 11.735C19.8703 11.8716 19.513 11.9399 19.0883 11.9399H16.6646ZM17.864 10.9594H18.8418C19.176 10.9594 19.4197 10.8957 19.573 10.7683C19.7263 10.639 19.8029 10.4673 19.8029 10.2531C19.8029 10.0961 19.765 9.95763 19.6893 9.8376C19.6136 9.71757 19.5056 9.62339 19.3653 9.55507C19.2268 9.48675 19.0615 9.45258 18.8695 9.45258H17.864V10.9594ZM17.864 8.64101H18.7531C18.9175 8.64101 19.0633 8.61238 19.1908 8.55514C19.32 8.49605 19.4216 8.41295 19.4954 8.30585C19.5712 8.19875 19.609 8.07041 19.609 7.92084C19.609 7.71586 19.5361 7.55059 19.3902 7.42503C19.2462 7.29946 19.0412 7.23667 18.7753 7.23667H17.864V8.64101Z" fill="#0B983C"/>
</g>
<defs>
<clipPath id="clip0_1_18">
<rect width="40" height="26" fill="white"/>
</clipPath>
</defs>
</svg>
