<svg width="40" height="26" viewBox="0 0 40 26" fill="none" xmlns="http://www.w3.org/2000/svg">
<g clip-path="url(#clip0_1_756)">
<path d="M19.35 25.31C19.2744 25.2387 19.1668 25.1356 19.03 25.0021C18.7165 24.6961 18.3667 24.3433 17.9895 23.9487C16.9119 22.8212 15.8357 21.5899 14.8315 20.2935C13.0555 18.0008 11.7167 15.7791 10.9529 13.7065C10.4864 12.4407 10.25 11.2671 10.25 10.1901C10.25 4.58385 14.1781 0.649994 19.35 0.649994C24.5219 0.649994 28.45 4.58385 28.45 10.1901C28.45 11.2671 28.2137 12.4407 27.7471 13.7065C26.9833 15.7791 25.6445 18.0008 23.8685 20.2935C22.8643 21.5899 21.7881 22.8212 20.7104 23.9487C20.3333 24.3433 19.9835 24.6961 19.6699 25.0021C19.5332 25.1356 19.4255 25.2387 19.35 25.31Z" fill="#0B983C" stroke="#0B983C" stroke-width="1.3"/>
<path d="M19.35 16.9C23.2988 16.9 26.5 13.6988 26.5 9.75001C26.5 5.80117 23.2988 2.60001 19.35 2.60001C15.4012 2.60001 12.2 5.80117 12.2 9.75001C12.2 13.6988 15.4012 16.9 19.35 16.9Z" fill="white"/>
<path d="M17.5811 6.26728H18.7805V9.95122C18.7805 10.3649 18.6817 10.7268 18.4841 11.037C18.2884 11.3472 18.0142 11.5892 17.6615 11.7627C17.3088 11.9345 16.8979 12.0203 16.4289 12.0203C15.958 12.0203 15.5462 11.9345 15.1935 11.7627C14.8408 11.5892 14.5666 11.3472 14.3708 11.037C14.1751 10.7268 14.0772 10.3649 14.0772 9.95122V6.26728H15.2766V9.84874C15.2766 10.0648 15.3237 10.2568 15.4178 10.4249C15.5139 10.5929 15.6487 10.7249 15.8222 10.821C15.9958 10.917 16.198 10.965 16.4289 10.965C16.6615 10.965 16.8637 10.917 17.0355 10.821C17.209 10.7249 17.3429 10.5929 17.4371 10.4249C17.5331 10.2568 17.5811 10.0648 17.5811 9.84874V6.26728ZM21.8308 12.0176C21.4172 12.0176 21.0488 11.9465 20.7256 11.8043C20.4043 11.6602 20.1504 11.4627 19.9639 11.2115C19.7793 10.9585 19.6842 10.6668 19.6786 10.3362H20.8863C20.8937 10.4747 20.9389 10.5966 21.022 10.7019C21.107 10.8053 21.2196 10.8856 21.3599 10.9428C21.5003 11.0001 21.6582 11.0287 21.8336 11.0287C22.0164 11.0287 22.178 10.9964 22.3183 10.9318C22.4587 10.8671 22.5685 10.7776 22.6479 10.6631C22.7273 10.5486 22.767 10.4166 22.767 10.267C22.767 10.1156 22.7246 9.98169 22.6396 9.86536C22.5565 9.74718 22.4365 9.65485 22.2795 9.58837C22.1244 9.52189 21.9398 9.48865 21.7256 9.48865H21.1965V8.60783H21.7256C21.9065 8.60783 22.0663 8.57644 22.2048 8.51365C22.3451 8.45087 22.454 8.36408 22.5316 8.25328C22.6092 8.14064 22.6479 8.00953 22.6479 7.85996C22.6479 7.71777 22.6138 7.59313 22.5455 7.48603C22.479 7.37708 22.3848 7.29213 22.2629 7.2312C22.1429 7.17026 22.0026 7.13979 21.8419 7.13979C21.6794 7.13979 21.5308 7.16933 21.396 7.22843C21.2612 7.28567 21.1531 7.36784 21.0719 7.47495C20.9906 7.58205 20.9472 7.70762 20.9417 7.85165H19.7922C19.7977 7.5248 19.891 7.23674 20.0719 6.98745C20.2529 6.73816 20.4967 6.54334 20.8032 6.403C21.1116 6.26081 21.4597 6.18972 21.8474 6.18972C22.2389 6.18972 22.5815 6.26081 22.8751 6.403C23.1687 6.54519 23.3967 6.73723 23.5592 6.97914C23.7236 7.21919 23.8048 7.4888 23.803 7.78794C23.8048 8.10556 23.706 8.37054 23.5066 8.5829C23.309 8.79526 23.0514 8.93006 22.7338 8.9873V9.03162C23.1511 9.08517 23.4687 9.23013 23.6866 9.46649C23.9064 9.70101 24.0153 9.99462 24.0135 10.3473C24.0153 10.6705 23.9221 10.9576 23.7337 11.2088C23.5472 11.4599 23.2896 11.6575 22.9609 11.8015C22.6322 11.9455 22.2555 12.0176 21.8308 12.0176Z" fill="#0B983C"/>
</g>
<defs>
<clipPath id="clip0_1_756">
<rect width="40" height="26" fill="white"/>
</clipPath>
</defs>
</svg>
