<svg width="40" height="26" viewBox="0 0 40 26" fill="none" xmlns="http://www.w3.org/2000/svg">
<g clip-path="url(#clip0_1_81)">
<path d="M19.35 25.31C19.2744 25.2387 19.1668 25.1357 19.03 25.0021C18.7165 24.6961 18.3667 24.3433 17.9895 23.9488C16.9119 22.8213 15.8357 21.5899 14.8315 20.2935C13.0555 18.0009 11.7167 15.7792 10.9529 13.7066C10.4864 12.4407 10.25 11.2672 10.25 10.1901C10.25 4.58388 14.1781 0.650024 19.35 0.650024C24.5219 0.650024 28.45 4.58388 28.45 10.1901C28.45 11.2672 28.2137 12.4407 27.7471 13.7066C26.9833 15.7792 25.6445 18.0009 23.8685 20.2935C22.8643 21.5899 21.7881 22.8213 20.7104 23.9488C20.3333 24.3433 19.9835 24.6961 19.6699 25.0021C19.5332 25.1357 19.4255 25.2387 19.35 25.31Z" fill="#0B983C" stroke="#0B983C" stroke-width="1.3"/>
<path d="M19.35 16.9C23.2988 16.9 26.5 13.6988 26.5 9.74998C26.5 5.80114 23.2988 2.59998 19.35 2.59998C15.4012 2.59998 12.2 5.80114 12.2 9.74998C12.2 13.6988 15.4012 16.9 19.35 16.9Z" fill="white"/>
<path d="M14.6843 11.9399V6.26721H18.5067V7.25606H15.8836V8.60777H18.31V9.59662H15.8836V10.9511H18.5178V11.9399H14.6843ZM21.5238 12.0175C21.1102 12.0175 20.7418 11.9464 20.4186 11.8042C20.0973 11.6602 19.8434 11.4626 19.6569 11.2115C19.4722 10.9585 19.3771 10.6667 19.3716 10.3362H20.5793C20.5866 10.4747 20.6319 10.5965 20.715 10.7018C20.7999 10.8052 20.9126 10.8855 21.0529 10.9428C21.1933 11 21.3511 11.0286 21.5266 11.0286C21.7094 11.0286 21.871 10.9963 22.0113 10.9317C22.1516 10.8671 22.2615 10.7775 22.3409 10.663C22.4203 10.5485 22.46 10.4165 22.46 10.2669C22.46 10.1155 22.4175 9.98163 22.3326 9.8653C22.2495 9.74711 22.1295 9.65479 21.9725 9.58831C21.8174 9.52183 21.6327 9.48859 21.4185 9.48859H20.8895V8.60777H21.4185C21.5995 8.60777 21.7592 8.57638 21.8977 8.51359C22.0381 8.45081 22.147 8.36402 22.2246 8.25322C22.3021 8.14058 22.3409 8.00947 22.3409 7.8599C22.3409 7.71771 22.3067 7.59307 22.2384 7.48596C22.1719 7.37702 22.0778 7.29207 21.9559 7.23113C21.8359 7.1702 21.6955 7.13973 21.5349 7.13973C21.3724 7.13973 21.2237 7.16927 21.0889 7.22836C20.9541 7.28561 20.8461 7.36778 20.7648 7.47488C20.6836 7.58199 20.6402 7.70755 20.6347 7.85159H19.4852C19.4907 7.52474 19.584 7.23667 19.7649 6.98738C19.9459 6.73809 20.1896 6.54328 20.4962 6.40294C20.8045 6.26075 21.1526 6.18966 21.5404 6.18966C21.9319 6.18966 22.2744 6.26075 22.568 6.40294C22.8616 6.54513 23.0897 6.73717 23.2522 6.97907C23.4165 7.21913 23.4978 7.48873 23.496 7.78788C23.4978 8.1055 23.399 8.37048 23.1996 8.58284C23.002 8.7952 22.7444 8.93 22.4268 8.98724V9.03156C22.8441 9.08511 23.1617 9.23007 23.3796 9.46643C23.5994 9.70095 23.7083 9.99456 23.7065 10.3473C23.7083 10.6704 23.6151 10.9576 23.4267 11.2087C23.2402 11.4598 22.9826 11.6574 22.6539 11.8014C22.3252 11.9455 21.9485 12.0175 21.5238 12.0175Z" fill="#0B983C"/>
</g>
<defs>
<clipPath id="clip0_1_81">
<rect width="40" height="26" fill="white"/>
</clipPath>
</defs>
</svg>
