<svg width="40" height="26" viewBox="0 0 40 26" fill="none" xmlns="http://www.w3.org/2000/svg">
<g clip-path="url(#clip0_1_688)">
<path d="M19.35 25.31C19.2744 25.2387 19.1668 25.1357 19.03 25.0021C18.7165 24.6961 18.3667 24.3433 17.9895 23.9488C16.9119 22.8213 15.8357 21.5899 14.8315 20.2935C13.0555 18.0009 11.7167 15.7792 10.9529 13.7066C10.4864 12.4407 10.25 11.2672 10.25 10.1901C10.25 4.58388 14.1781 0.650024 19.35 0.650024C24.5219 0.650024 28.45 4.58388 28.45 10.1901C28.45 11.2672 28.2137 12.4407 27.7471 13.7066C26.9833 15.7792 25.6445 18.0009 23.8685 20.2935C22.8643 21.5899 21.7881 22.8213 20.7104 23.9488C20.3333 24.3433 19.9835 24.6961 19.6699 25.0021C19.5332 25.1357 19.4255 25.2387 19.35 25.31Z" fill="#0B983C" stroke="#0B983C" stroke-width="1.3"/>
<path d="M19.35 16.9C23.2988 16.9 26.5 13.6988 26.5 9.74998C26.5 5.80114 23.2988 2.59998 19.35 2.59998C15.4012 2.59998 12.2 5.80114 12.2 9.74998C12.2 13.6988 15.4012 16.9 19.35 16.9Z" fill="white"/>
<path d="M15.6269 9.96784H16.6463L17.1587 10.6271L17.6628 11.2143L18.6129 12.4053H17.4938L16.8401 11.6021L16.505 11.1257L15.6269 9.96784ZM18.6987 9.10364C18.6987 9.72225 18.5815 10.2485 18.347 10.6825C18.1143 11.1164 17.7967 11.4479 17.3941 11.6769C16.9934 11.904 16.5428 12.0176 16.0424 12.0176C15.5383 12.0176 15.0859 11.9031 14.6852 11.6741C14.2845 11.4451 13.9678 11.1137 13.7351 10.6797C13.5024 10.2458 13.3861 9.7204 13.3861 9.10364C13.3861 8.48503 13.5024 7.95875 13.7351 7.5248C13.9678 7.09085 14.2845 6.76031 14.6852 6.53318C15.0859 6.30421 15.5383 6.18972 16.0424 6.18972C16.5428 6.18972 16.9934 6.30421 17.3941 6.53318C17.7967 6.76031 18.1143 7.09085 18.347 7.5248C18.5815 7.95875 18.6987 8.48503 18.6987 9.10364ZM17.4828 9.10364C17.4828 8.70293 17.4227 8.365 17.3027 8.08986C17.1845 7.81472 17.0174 7.60605 16.8014 7.46387C16.5853 7.32168 16.3323 7.25059 16.0424 7.25059C15.7525 7.25059 15.4995 7.32168 15.2835 7.46387C15.0674 7.60605 14.8994 7.81472 14.7794 8.08986C14.6612 8.365 14.6021 8.70293 14.6021 9.10364C14.6021 9.50435 14.6612 9.84228 14.7794 10.1174C14.8994 10.3926 15.0674 10.6012 15.2835 10.7434C15.4995 10.8856 15.7525 10.9567 16.0424 10.9567C16.3323 10.9567 16.5853 10.8856 16.8014 10.7434C17.0174 10.6012 17.1845 10.3926 17.3027 10.1174C17.4227 9.84228 17.4828 9.50435 17.4828 9.10364ZM19.5539 11.94V11.0758L21.5732 9.20612C21.7449 9.03993 21.889 8.89036 22.0053 8.7574C22.1235 8.62445 22.213 8.49426 22.274 8.36685C22.3349 8.23759 22.3654 8.09817 22.3654 7.9486C22.3654 7.7824 22.3275 7.63929 22.2518 7.51926C22.1761 7.39739 22.0727 7.30414 21.9416 7.23951C21.8105 7.17303 21.6618 7.13979 21.4956 7.13979C21.3221 7.13979 21.1706 7.17487 21.0414 7.24505C20.9121 7.31522 20.8124 7.41585 20.7422 7.54696C20.6721 7.67807 20.637 7.83411 20.637 8.01507H19.4985C19.4985 7.64391 19.5826 7.32168 19.7506 7.04838C19.9186 6.77509 20.1541 6.56365 20.4569 6.41408C20.7598 6.26451 21.1088 6.18972 21.5039 6.18972C21.9102 6.18972 22.2638 6.26174 22.5648 6.40577C22.8676 6.54796 23.1031 6.74554 23.2711 6.99853C23.4392 7.25151 23.5232 7.54142 23.5232 7.86827C23.5232 8.08247 23.4807 8.29391 23.3958 8.50257C23.3127 8.71124 23.164 8.94299 22.9498 9.19782C22.7356 9.4508 22.4337 9.75456 22.0441 10.1091L21.2159 10.9207V10.9595H23.598V11.94H19.5539Z" fill="#0B983C"/>
</g>
<defs>
<clipPath id="clip0_1_688">
<rect width="40" height="26" fill="white"/>
</clipPath>
</defs>
</svg>
