<svg width="40" height="26" viewBox="0 0 40 26" fill="none" xmlns="http://www.w3.org/2000/svg">
<g clip-path="url(#clip0_1_62)">
<path d="M19.35 25.31C19.2744 25.2387 19.1668 25.1357 19.03 25.0021C18.7165 24.6961 18.3667 24.3433 17.9895 23.9488C16.9119 22.8213 15.8357 21.5899 14.8315 20.2935C13.0555 18.0009 11.7167 15.7792 10.9529 13.7066C10.4864 12.4407 10.25 11.2672 10.25 10.1901C10.25 4.58388 14.1781 0.650024 19.35 0.650024C24.5219 0.650024 28.45 4.58388 28.45 10.1901C28.45 11.2672 28.2137 12.4407 27.7471 13.7066C26.9833 15.7792 25.6445 18.0009 23.8685 20.2935C22.8643 21.5899 21.7881 22.8213 20.7104 23.9488C20.3333 24.3433 19.9835 24.6961 19.6699 25.0021C19.5332 25.1357 19.4255 25.2387 19.35 25.31Z" fill="#0B983C" stroke="#0B983C" stroke-width="1.3"/>
<path d="M19.35 16.9C23.2988 16.9 26.5 13.6988 26.5 9.74998C26.5 5.80114 23.2988 2.59998 19.35 2.59998C15.4012 2.59998 12.2 5.80114 12.2 9.74998C12.2 13.6988 15.4012 16.9 19.35 16.9Z" fill="white"/>
<path d="M16.0958 11.9399H14.0848V6.26721H16.1124C16.683 6.26721 17.1742 6.38078 17.586 6.60791C17.9978 6.83319 18.3145 7.15727 18.536 7.58014C18.7595 8.00301 18.8712 8.50898 18.8712 9.09804C18.8712 9.68895 18.7595 10.1968 18.536 10.6215C18.3145 11.0462 17.9959 11.3721 17.5804 11.5992C17.1668 11.8264 16.6719 11.9399 16.0958 11.9399ZM15.2842 10.9123H16.0459C16.4005 10.9123 16.6987 10.8495 16.9406 10.724C17.1843 10.5965 17.3672 10.3999 17.489 10.134C17.6127 9.86622 17.6746 9.52091 17.6746 9.09804C17.6746 8.67886 17.6127 8.33632 17.489 8.07041C17.3672 7.8045 17.1853 7.60876 16.9434 7.48319C16.7015 7.35763 16.4032 7.29484 16.0487 7.29484H15.2842V10.9123ZM21.8232 12.0175C21.4096 12.0175 21.0412 11.9464 20.718 11.8042C20.3967 11.6602 20.1428 11.4626 19.9563 11.2115C19.7716 10.9585 19.6765 10.6667 19.671 10.3362H20.8787C20.8861 10.4747 20.9313 10.5965 21.0144 10.7018C21.0993 10.8052 21.212 10.8855 21.3523 10.9428C21.4927 11 21.6506 11.0286 21.826 11.0286C22.0088 11.0286 22.1704 10.9963 22.3107 10.9317C22.451 10.8671 22.5609 10.7775 22.6403 10.663C22.7197 10.5485 22.7594 10.4165 22.7594 10.2669C22.7594 10.1155 22.717 9.98163 22.632 9.8653C22.5489 9.74711 22.4289 9.65479 22.2719 9.58831C22.1168 9.52183 21.9322 9.48859 21.718 9.48859H21.1889V8.60777H21.718C21.8989 8.60777 22.0586 8.57638 22.1971 8.51359C22.3375 8.45081 22.4464 8.36402 22.524 8.25322C22.6015 8.14058 22.6403 8.00947 22.6403 7.8599C22.6403 7.71771 22.6062 7.59307 22.5378 7.48596C22.4714 7.37702 22.3772 7.29207 22.2553 7.23113C22.1353 7.1702 21.9949 7.13973 21.8343 7.13973C21.6718 7.13973 21.5231 7.16927 21.3883 7.22836C21.2535 7.28561 21.1455 7.36778 21.0643 7.47488C20.983 7.58199 20.9396 7.70755 20.9341 7.85159H19.7846C19.7901 7.52474 19.8834 7.23667 20.0643 6.98738C20.2453 6.73809 20.489 6.54328 20.7956 6.40294C21.104 6.26075 21.452 6.18966 21.8398 6.18966C22.2313 6.18966 22.5738 6.26075 22.8675 6.40294C23.1611 6.54513 23.3891 6.73717 23.5516 6.97907C23.716 7.21913 23.7972 7.48873 23.7954 7.78788C23.7972 8.1055 23.6984 8.37048 23.499 8.58284C23.3014 8.7952 23.0438 8.93 22.7262 8.98724V9.03156C23.1435 9.08511 23.4611 9.23007 23.679 9.46643C23.8988 9.70095 24.0077 9.99456 24.0059 10.3473C24.0077 10.6704 23.9145 10.9576 23.7261 11.2087C23.5396 11.4598 23.282 11.6574 22.9533 11.8014C22.6246 11.9455 22.2479 12.0175 21.8232 12.0175Z" fill="#0B983C"/>
</g>
<defs>
<clipPath id="clip0_1_62">
<rect width="40" height="26" fill="white"/>
</clipPath>
</defs>
</svg>
