<svg width="40" height="26" viewBox="0 0 40 26" fill="none" xmlns="http://www.w3.org/2000/svg">
<g clip-path="url(#clip0_1_50)">
<path d="M19.35 25.31C19.2744 25.2387 19.1668 25.1357 19.03 25.0021C18.7165 24.6961 18.3667 24.3433 17.9895 23.9488C16.9119 22.8213 15.8357 21.5899 14.8315 20.2935C13.0555 18.0009 11.7167 15.7792 10.9529 13.7066C10.4864 12.4407 10.25 11.2672 10.25 10.1901C10.25 4.58388 14.1781 0.650024 19.35 0.650024C24.5219 0.650024 28.45 4.58388 28.45 10.1901C28.45 11.2672 28.2137 12.4407 27.7471 13.7066C26.9833 15.7792 25.6445 18.0009 23.8685 20.2935C22.8643 21.5899 21.7881 22.8213 20.7104 23.9488C20.3333 24.3433 19.9835 24.6961 19.6699 25.0021C19.5332 25.1357 19.4255 25.2387 19.35 25.31Z" fill="#0B983C" stroke="#0B983C" stroke-width="1.3"/>
<path d="M19.35 16.9C23.2988 16.9 26.5 13.6988 26.5 9.74998C26.5 5.80114 23.2988 2.59998 19.35 2.59998C15.4012 2.59998 12.2 5.80114 12.2 9.74998C12.2 13.6988 15.4012 16.9 19.35 16.9Z" fill="white"/>
<path d="M18.7666 11.9399H16.7556V6.26721H18.7832C19.3538 6.26721 19.845 6.38078 20.2567 6.60791C20.6685 6.83319 20.9852 7.15727 21.2068 7.58014C21.4303 8.00301 21.542 8.50898 21.542 9.09804C21.542 9.68895 21.4303 10.1968 21.2068 10.6215C20.9852 11.0462 20.6667 11.3721 20.2512 11.5992C19.8376 11.8264 19.3427 11.9399 18.7666 11.9399ZM17.955 10.9123H18.7167C19.0712 10.9123 19.3695 10.8495 19.6114 10.724C19.8551 10.5965 20.0379 10.3999 20.1598 10.134C20.2835 9.86622 20.3454 9.52091 20.3454 9.09804C20.3454 8.67886 20.2835 8.33632 20.1598 8.07041C20.0379 7.8045 19.856 7.60876 19.6141 7.48319C19.3722 7.35763 19.074 7.29484 18.7195 7.29484H17.955V10.9123Z" fill="#0B983C"/>
</g>
<defs>
<clipPath id="clip0_1_50">
<rect width="40" height="26" fill="white"/>
</clipPath>
</defs>
</svg>
