<svg width="55" height="40" viewBox="0 0 55 40" fill="none" xmlns="http://www.w3.org/2000/svg">
<g clip-path="url(#clip0_1_376)">
<path d="M26.5 38.9384C26.3838 38.8288 26.2181 38.6702 26.0077 38.4648C25.5254 37.994 24.9873 37.4512 24.4069 36.8442C22.7491 35.1096 21.0934 33.2152 19.5484 31.2208C16.8162 27.6936 14.7564 24.2756 13.5814 21.087C12.8637 19.1395 12.5 17.3341 12.5 15.6771C12.5 7.05208 18.5432 1 26.5 1C34.4568 1 40.5 7.05208 40.5 15.6771C40.5 17.3341 40.1364 19.1395 39.4186 21.087C38.2436 24.2756 36.1838 27.6936 33.4516 31.2208C31.9066 33.2152 30.251 35.1096 28.593 36.8442C28.0128 37.4512 27.4746 37.994 26.9922 38.4648C26.7818 38.6702 26.6162 38.8288 26.5 38.9384Z" fill="#05471C" stroke="#05471C" stroke-width="2"/>
<path d="M26.5 26C32.5751 26 37.5 21.0751 37.5 15C37.5 8.92487 32.5751 4 26.5 4C20.4249 4 15.5 8.92487 15.5 15C15.5 21.0751 20.4249 26 26.5 26Z" fill="white"/>
<path d="M23.3738 19.6V10.8727H26.8169C27.4789 10.8727 28.0428 10.9991 28.5087 11.252C28.9746 11.502 29.3297 11.85 29.574 12.296C29.8212 12.7392 29.9448 13.2505 29.9448 13.8301C29.9448 14.4096 29.8198 14.921 29.5698 15.3642C29.3198 15.8074 28.9576 16.1525 28.4831 16.3997C28.0115 16.6469 27.4405 16.7704 26.7701 16.7704H24.5755V15.2917H26.4718C26.8269 15.2917 27.1195 15.2307 27.3496 15.1085C27.5826 14.9835 27.7559 14.8116 27.8695 14.5929C27.986 14.3713 28.0442 14.117 28.0442 13.8301C28.0442 13.5403 27.986 13.2875 27.8695 13.0716C27.7559 12.8528 27.5826 12.6838 27.3496 12.5645C27.1167 12.4423 26.8212 12.3812 26.4632 12.3812H25.2189V19.6H23.3738Z" fill="#05471C"/>
</g>
<defs>
<clipPath id="clip0_1_376">
<rect width="55" height="40" fill="white"/>
</clipPath>
</defs>
</svg>
