<svg width="60" height="45" viewBox="0 0 21 20" fill="none" xmlns="http://www.w3.org/2000/svg">
<path d="M10 19.4692C9.94188 19.4144 9.85905 19.3351 9.75385 19.2324C9.51272 18.997 9.24363 18.7256 8.95347 18.4221C8.12453 17.5548 7.29668 16.6076 6.52421 15.6104C5.15811 13.8468 4.1282 12.1378 3.54068 10.5435C3.18183 9.56975 3 8.66704 3 7.83854C3 3.52604 6.02161 0.5 10 0.5C13.9784 0.5 17 3.52604 17 7.83854C17 8.66704 16.8182 9.56975 16.4593 10.5435C15.8718 12.1378 14.8419 13.8468 13.4758 15.6104C12.7033 16.6076 11.8755 17.5548 11.0465 18.4221C10.7564 18.7256 10.4873 18.997 10.2461 19.2324C10.1409 19.3351 10.0581 19.4144 10 19.4692Z" fill="#05471C" stroke="#05471C"/>
<path d="M10 13C6.96243 13 4.5 10.5376 4.5 7.5C4.5 4.46243 6.96243 2 10 2C13.0376 2 15.5 4.46243 15.5 7.5C15.5 10.5376 13.0376 13 10 13Z" fill="white"/>
<path d="M13.8153 7.36364C13.8153 8.15672 13.665 8.83144 13.3643 9.38778C13.0661 9.94413 12.6589 10.3691 12.1428 10.6626C11.629 10.9538 11.0514 11.0994 10.4098 11.0994C9.76349 11.0994 9.18348 10.9527 8.66974 10.6591C8.15601 10.3655 7.75 9.94058 7.4517 9.38423C7.15341 8.82789 7.00426 8.15436 7.00426 7.36364C7.00426 6.57055 7.15341 5.89583 7.4517 5.33949C7.75 4.78314 8.15601 4.35937 8.66974 4.06818C9.18348 3.77462 9.76349 3.62784 10.4098 3.62784C11.0514 3.62784 11.629 3.77462 12.1428 4.06818C12.6589 4.35937 13.0661 4.78314 13.3643 5.33949C13.665 5.89583 13.8153 6.57055 13.8153 7.36364ZM12.2564 7.36364C12.2564 6.84991 12.1795 6.41667 12.0256 6.06392C11.8741 5.71117 11.6598 5.44366 11.3828 5.26136C11.1058 5.07907 10.7815 4.98793 10.4098 4.98793C10.0381 4.98793 9.71378 5.07907 9.43679 5.26136C9.1598 5.44366 8.94437 5.71117 8.79048 6.06392C8.63897 6.41667 8.56321 6.84991 8.56321 7.36364C8.56321 7.87737 8.63897 8.31061 8.79048 8.66335C8.94437 9.0161 9.1598 9.28362 9.43679 9.46591C9.71378 9.6482 10.0381 9.73935 10.4098 9.73935C10.7815 9.73935 11.1058 9.6482 11.3828 9.46591C11.6598 9.28362 11.8741 9.0161 12.0256 8.66335C12.1795 8.31061 12.2564 7.87737 12.2564 7.36364Z" fill="#05471C"/>
</svg>
