<svg width="40" height="26" viewBox="0 0 40 26" fill="none" xmlns="http://www.w3.org/2000/svg">
<g clip-path="url(#clip0_1_38)">
<path d="M19.35 25.31C19.2744 25.2387 19.1668 25.1357 19.03 25.0021C18.7165 24.6961 18.3667 24.3433 17.9895 23.9488C16.9119 22.8213 15.8357 21.5899 14.8315 20.2935C13.0555 18.0009 11.7167 15.7792 10.9529 13.7066C10.4864 12.4407 10.25 11.2672 10.25 10.1901C10.25 4.58388 14.1781 0.650024 19.35 0.650024C24.5219 0.650024 28.45 4.58388 28.45 10.1901C28.45 11.2672 28.2137 12.4407 27.7471 13.7066C26.9833 15.7792 25.6445 18.0009 23.8685 20.2935C22.8643 21.5899 21.7881 22.8213 20.7104 23.9488C20.3333 24.3433 19.9835 24.6961 19.6699 25.0021C19.5332 25.1357 19.4255 25.2387 19.35 25.31Z" fill="#0B983C" stroke="#0B983C" stroke-width="1.3"/>
<path d="M19.35 16.9C23.2988 16.9 26.5 13.6988 26.5 9.74998C26.5 5.80114 23.2988 2.59998 19.35 2.59998C15.4012 2.59998 12.2 5.80114 12.2 9.74998C12.2 13.6988 15.4012 16.9 19.35 16.9Z" fill="white"/>
<path d="M19.8075 8.25322H18.5943C18.5722 8.09626 18.5269 7.95684 18.4586 7.83497C18.3903 7.71125 18.3026 7.60599 18.1955 7.5192C18.0884 7.43241 17.9646 7.36594 17.8243 7.31977C17.6858 7.27361 17.5353 7.25052 17.3728 7.25052C17.0792 7.25052 16.8234 7.32346 16.6055 7.46934C16.3876 7.61338 16.2187 7.82389 16.0986 8.10088C15.9786 8.37602 15.9186 8.71025 15.9186 9.10358C15.9186 9.50798 15.9786 9.84775 16.0986 10.1229C16.2205 10.398 16.3904 10.6058 16.6083 10.7461C16.8262 10.8865 17.0783 10.9566 17.3645 10.9566C17.5251 10.9566 17.6738 10.9354 17.8104 10.8929C17.9489 10.8505 18.0717 10.7886 18.1788 10.7073C18.2859 10.6242 18.3746 10.5236 18.4447 10.4054C18.5168 10.2872 18.5666 10.1524 18.5943 10.001L19.8075 10.0066C19.7761 10.2669 19.6977 10.5181 19.5721 10.76C19.4484 11 19.2812 11.2152 19.0707 11.4054C18.8621 11.5937 18.6128 11.7433 18.3229 11.8541C18.0348 11.963 17.7089 12.0175 17.3451 12.0175C16.8391 12.0175 16.3867 11.903 15.9879 11.674C15.5908 11.4451 15.2769 11.1136 15.0461 10.6796C14.8171 10.2457 14.7026 9.72034 14.7026 9.10358C14.7026 8.48497 14.819 7.95869 15.0516 7.52474C15.2843 7.09079 15.6001 6.76025 15.9989 6.53312C16.3978 6.30415 16.8465 6.18966 17.3451 6.18966C17.6738 6.18966 17.9785 6.23582 18.2592 6.32815C18.5417 6.42048 18.7919 6.55528 19.0098 6.73255C19.2277 6.90798 19.405 7.12311 19.5416 7.37794C19.6801 7.63277 19.7687 7.92453 19.8075 8.25322ZM23.1023 6.26721V11.9399H21.9029V7.40564H21.8697L20.5706 8.21998V7.15635L21.975 6.26721H23.1023Z" fill="#0B983C"/>
</g>
<defs>
<clipPath id="clip0_1_38">
<rect width="40" height="26" fill="white"/>
</clipPath>
</defs>
</svg>
