<svg width="80" height="62.3" viewBox="0 0 20 20" fill="none" xmlns="http://www.w3.org/2000/svg">
<path d="M10 18.8365C9.94754 18.7875 9.87729 18.7211 9.79072 18.6379C9.56598 18.422 9.31513 18.173 9.0446 17.8944C8.27172 17.0984 7.49996 16.2291 6.77993 15.3141C5.50631 13.6957 4.54787 12.1294 4.00168 10.6704C3.66816 9.77948 3.5 8.95578 3.5 8.20166C3.5 4.26818 6.29899 1.5 10 1.5C13.701 1.5 16.5 4.26818 16.5 8.20166C16.5 8.95578 16.3318 9.77948 15.9983 10.6704C15.4521 12.1294 14.4937 13.6957 13.2201 15.3141C12.5 16.2291 11.7283 17.0984 10.9554 17.8944C10.6849 18.173 10.434 18.422 10.2093 18.6379C10.1227 18.7211 10.0525 18.7875 10 18.8365Z" fill="#05471C" stroke="#05471C"/>
<path d="M10 13C7.23858 13 5 10.7614 5 8C5 5.23858 7.23858 3 10 3C12.7614 3 15 5.23858 15 8C15 10.7614 12.7614 13 10 13Z" fill="white"/>
<path d="M11.7828 6.70149V7.59702H9V6.70149H11.7828ZM9.63699 11V6.39086C9.63699 6.07929 9.70059 5.8209 9.82779 5.61567C9.95695 5.41045 10.1331 5.25653 10.3562 5.15392C10.5793 5.05131 10.8327 5 11.1164 5C11.3082 5 11.4834 5.01399 11.6419 5.04198C11.8023 5.06996 11.9217 5.09515 12 5.11754L11.7769 6.01306C11.728 5.99813 11.6673 5.98414 11.5949 5.97108C11.5245 5.95802 11.4521 5.95149 11.3777 5.95149C11.1937 5.95149 11.0656 5.99254 10.9932 6.07463C10.9207 6.15485 10.8845 6.26772 10.8845 6.41325V11H9.63699Z" fill="#05471C"/>
</svg>
