<svg width="60" height="45" viewBox="0 0 21 20" fill="none" xmlns="http://www.w3.org/2000/svg">
<path d="M10 19.4692C9.94188 19.4144 9.85905 19.3351 9.75385 19.2324C9.51272 18.997 9.24363 18.7256 8.95347 18.4221C8.12453 17.5548 7.29668 16.6076 6.52421 15.6104C5.15811 13.8468 4.1282 12.1378 3.54068 10.5435C3.18183 9.56975 3 8.66704 3 7.83854C3 3.52604 6.02161 0.5 10 0.5C13.9784 0.5 17 3.52604 17 7.83854C17 8.66704 16.8182 9.56975 16.4593 10.5435C15.8718 12.1378 14.8419 13.8468 13.4758 15.6104C12.7033 16.6076 11.8755 17.5548 11.0465 18.4221C10.7564 18.7256 10.4873 18.997 10.2461 19.2324C10.1409 19.3351 10.0581 19.4144 10 19.4692Z" fill="#05471C" stroke="#05471C"/>
<path d="M10 13C6.96243 13 4.5 10.5376 4.5 7.5C4.5 4.46243 6.96243 2 10 2C13.0376 2 15.5 4.46243 15.5 7.5C15.5 10.5376 13.0376 13 10 13Z" fill="white"/>
<path d="M8.38565 11H6.73793L9.24858 3.72727H11.2301L13.7372 11H12.0895L10.2678 5.3892H10.2109L8.38565 11ZM8.28267 8.14134H12.1747V9.34162H8.28267V8.14134Z" fill="#05471C"/>
</svg>
