<svg width="55" height="40" viewBox="0 0 55 40" fill="none" xmlns="http://www.w3.org/2000/svg">
<g clip-path="url(#clip0_1_173)">
<path d="M26.5 38.9384C26.3838 38.8288 26.2181 38.6702 26.0077 38.4648C25.5254 37.994 24.9873 37.4512 24.4069 36.8442C22.7491 35.1096 21.0934 33.2152 19.5484 31.2208C16.8162 27.6936 14.7564 24.2756 13.5814 21.087C12.8637 19.1395 12.5 17.3341 12.5 15.6771C12.5 7.05208 18.5432 1 26.5 1C34.4568 1 40.5 7.05208 40.5 15.6771C40.5 17.3341 40.1364 19.1395 39.4186 21.087C38.2436 24.2756 36.1838 27.6936 33.4516 31.2208C31.9066 33.2152 30.251 35.1096 28.593 36.8442C28.0128 37.4512 27.4746 37.994 26.9922 38.4648C26.7818 38.6702 26.6162 38.8288 26.5 38.9384Z" fill="#05471C" stroke="#05471C" stroke-width="2"/>
<path d="M26.5 26C32.5751 26 37.5 21.0751 37.5 15C37.5 8.92487 32.5751 4 26.5 4C20.4249 4 15.5 8.92487 15.5 15C15.5 21.0751 20.4249 26 26.5 26Z" fill="white"/>
<path d="M27.1678 13.9281H25.3013C25.2672 13.6866 25.1976 13.4721 25.0925 13.2846C24.9874 13.0943 24.8525 12.9324 24.6877 12.7988C24.5229 12.6653 24.3326 12.563 24.1167 12.492C23.9036 12.421 23.6721 12.3855 23.4221 12.3855C22.9703 12.3855 22.5769 12.4977 22.2417 12.7221C21.9064 12.9437 21.6465 13.2676 21.4618 13.6937C21.2772 14.117 21.1848 14.6312 21.1848 15.2363C21.1848 15.8585 21.2772 16.3812 21.4618 16.8045C21.6493 17.2278 21.9107 17.5474 22.2459 17.7633C22.5811 17.9792 22.9689 18.0872 23.4093 18.0872C23.6564 18.0872 23.8851 18.0545 24.0953 17.9892C24.3084 17.9238 24.4973 17.8287 24.6621 17.7037C24.8269 17.5758 24.9632 17.421 25.0712 17.2392C25.182 17.0574 25.2587 16.85 25.3013 16.617L27.1678 16.6255C27.1195 17.0261 26.9988 17.4125 26.8056 17.7846C26.6152 18.154 26.3581 18.4849 26.0343 18.7775C25.7132 19.0673 25.3297 19.2974 24.8837 19.4679C24.4405 19.6355 23.9391 19.7193 23.3794 19.7193C22.601 19.7193 21.905 19.5432 21.2914 19.1909C20.6806 18.8386 20.1976 18.3287 19.8425 17.6611C19.4902 16.9934 19.3141 16.1852 19.3141 15.2363C19.3141 14.2846 19.4931 13.475 19.851 12.8074C20.209 12.1397 20.6948 11.6312 21.3084 11.2818C21.9221 10.9295 22.6124 10.7534 23.3794 10.7534C23.8851 10.7534 24.3539 10.8244 24.7857 10.9665C25.2203 11.1085 25.6053 11.3159 25.9405 11.5886C26.2757 11.8585 26.5485 12.1895 26.7587 12.5815C26.9718 12.9736 27.1081 13.4224 27.1678 13.9281ZM28.4398 19.6V18.2704L31.5463 15.394C31.8105 15.1383 32.0321 14.9082 32.2111 14.7037C32.3929 14.4991 32.5307 14.2988 32.6245 14.1028C32.7182 13.904 32.7651 13.6895 32.7651 13.4594C32.7651 13.2037 32.7069 12.9835 32.5904 12.7988C32.4739 12.6113 32.3148 12.4679 32.1131 12.3684C31.9114 12.2662 31.6827 12.215 31.427 12.215C31.16 12.215 30.927 12.269 30.7282 12.377C30.5293 12.4849 30.3759 12.6397 30.2679 12.8415C30.16 13.0432 30.106 13.2832 30.106 13.5616H28.3546C28.3546 12.9906 28.4838 12.4949 28.7424 12.0744C29.0009 11.654 29.3631 11.3287 29.829 11.0986C30.2949 10.8684 30.8319 10.7534 31.4398 10.7534C32.0648 10.7534 32.6088 10.8642 33.0719 11.0858C33.5378 11.3045 33.9 11.6085 34.1586 11.9977C34.4171 12.3869 34.5463 12.8329 34.5463 13.3358C34.5463 13.6653 34.481 13.9906 34.3503 14.3116C34.2225 14.6326 33.9938 14.9892 33.6642 15.3812C33.3347 15.7704 32.8702 16.2378 32.2708 16.7832L30.9966 18.0318V18.0915H34.6614V19.6H28.4398Z" fill="#05471C"/>
</g>
<defs>
<clipPath id="clip0_1_173">
<rect width="55" height="40" fill="white"/>
</clipPath>
</defs>
</svg>
