<svg width="55" height="40" viewBox="0 0 55 40" fill="none" xmlns="http://www.w3.org/2000/svg">
<g clip-path="url(#clip0_1_416)">
<path d="M26.5 38.9384C26.3838 38.8288 26.2181 38.6702 26.0077 38.4648C25.5254 37.994 24.9873 37.4512 24.4069 36.8442C22.7491 35.1096 21.0934 33.2152 19.5484 31.2208C16.8162 27.6936 14.7564 24.2756 13.5814 21.087C12.8637 19.1395 12.5 17.3341 12.5 15.6771C12.5 7.05208 18.5432 1 26.5 1C34.4568 1 40.5 7.05208 40.5 15.6771C40.5 17.3341 40.1364 19.1395 39.4186 21.087C38.2436 24.2756 36.1838 27.6936 33.4516 31.2208C31.9066 33.2152 30.251 35.1096 28.593 36.8442C28.0128 37.4512 27.4746 37.994 26.9922 38.4648C26.7818 38.6702 26.6162 38.8288 26.5 38.9384Z" fill="#05471C" stroke="#05471C" stroke-width="2"/>
<path d="M26.5 26C32.5751 26 37.5 21.0751 37.5 15C37.5 8.92487 32.5751 4 26.5 4C20.4249 4 15.5 8.92487 15.5 15C15.5 21.0751 20.4249 26 26.5 26Z" fill="white"/>
<path d="M19.5417 19.6V10.8727H22.9849C23.644 10.8727 24.2065 10.9906 24.6724 11.2264C25.1412 11.4594 25.4977 11.7903 25.742 12.2193C25.9892 12.6454 26.1127 13.1469 26.1127 13.7236C26.1127 14.3031 25.9877 14.8017 25.7377 15.2193C25.4877 15.6341 25.1255 15.9522 24.6511 16.1738C24.1795 16.3954 23.6085 16.5062 22.938 16.5062H20.6326V15.0233H22.6397C22.992 15.0233 23.2846 14.975 23.5176 14.8784C23.7505 14.7818 23.9238 14.6369 24.0375 14.4437C24.1539 14.2505 24.2122 14.0105 24.2122 13.7236C24.2122 13.4338 24.1539 13.1895 24.0375 12.9906C23.9238 12.7917 23.7491 12.6412 23.5133 12.5389C23.2804 12.4338 22.9863 12.3812 22.6312 12.3812H21.3869V19.6H19.5417ZM24.2548 15.6284L26.4238 19.6H24.3869L22.2647 15.6284H24.2548ZM27.3656 19.6V18.2704L30.4721 15.394C30.7363 15.1383 30.9579 14.9082 31.1369 14.7037C31.3187 14.4991 31.4565 14.2988 31.5502 14.1028C31.644 13.904 31.6909 13.6895 31.6909 13.4594C31.6909 13.2037 31.6326 12.9835 31.5162 12.7988C31.3997 12.6113 31.2406 12.4679 31.0389 12.3684C30.8372 12.2662 30.6085 12.215 30.3528 12.215C30.0858 12.215 29.8528 12.269 29.6539 12.377C29.4551 12.4849 29.3017 12.6397 29.1937 12.8415C29.0858 13.0432 29.0318 13.2832 29.0318 13.5616H27.2804C27.2804 12.9906 27.4096 12.4949 27.6681 12.0744C27.9267 11.654 28.2889 11.3287 28.7548 11.0986C29.2207 10.8684 29.7576 10.7534 30.3656 10.7534C30.9906 10.7534 31.5346 10.8642 31.9977 11.0858C32.4636 11.3045 32.8258 11.6085 33.0843 11.9977C33.3429 12.3869 33.4721 12.8329 33.4721 13.3358C33.4721 13.6653 33.4068 13.9906 33.2761 14.3116C33.1483 14.6326 32.9196 14.9892 32.59 15.3812C32.2605 15.7704 31.796 16.2378 31.1966 16.7832L29.9224 18.0318V18.0915H33.5872V19.6H27.3656Z" fill="#05471C"/>
</g>
<defs>
<clipPath id="clip0_1_416">
<rect width="55" height="40" fill="white"/>
</clipPath>
</defs>
</svg>
