<svg width="40" height="26" viewBox="0 0 40 26" fill="none" xmlns="http://www.w3.org/2000/svg">
<g clip-path="url(#clip0_1_672)">
<path d="M19.35 25.31C19.2744 25.2387 19.1668 25.1357 19.03 25.0021C18.7165 24.6961 18.3667 24.3433 17.9895 23.9488C16.9119 22.8213 15.8357 21.5899 14.8315 20.2935C13.0555 18.0009 11.7167 15.7792 10.9529 13.7066C10.4864 12.4407 10.25 11.2672 10.25 10.1901C10.25 4.58388 14.1781 0.650024 19.35 0.650024C24.5219 0.650024 28.45 4.58388 28.45 10.1901C28.45 11.2672 28.2137 12.4407 27.7471 13.7066C26.9833 15.7792 25.6445 18.0009 23.8685 20.2935C22.8643 21.5899 21.7881 22.8213 20.7104 23.9488C20.3333 24.3433 19.9835 24.6961 19.6699 25.0021C19.5332 25.1357 19.4255 25.2387 19.35 25.31Z" fill="#0B983C" stroke="#0B983C" stroke-width="1.3"/>
<path d="M19.35 16.9C23.2988 16.9 26.5 13.6988 26.5 9.74998C26.5 5.80114 23.2988 2.59998 19.35 2.59998C15.4012 2.59998 12.2 5.80114 12.2 9.74998C12.2 13.6988 15.4012 16.9 19.35 16.9Z" fill="white"/>
<path d="M14.6614 11.94V6.26728H16.8995C17.3297 6.26728 17.6963 6.34945 17.9991 6.5138C18.302 6.6763 18.5328 6.9025 18.6916 7.19242C18.8523 7.48049 18.9326 7.81287 18.9326 8.18958C18.9326 8.56628 18.8513 8.89867 18.6888 9.18674C18.5263 9.4748 18.2909 9.69916 17.9825 9.85982C17.676 10.0205 17.3048 10.1008 16.869 10.1008H15.4425V9.13965H16.6751C16.906 9.13965 17.0962 9.09995 17.2457 9.02054C17.3971 8.93929 17.5098 8.82757 17.5837 8.68539C17.6594 8.54135 17.6972 8.37608 17.6972 8.18958C17.6972 8.00122 17.6594 7.83688 17.5837 7.69654C17.5098 7.55435 17.3971 7.44448 17.2457 7.36692C17.0943 7.28752 16.9023 7.24782 16.6696 7.24782H15.8608V11.94H14.6614ZM19.6784 11.94V11.0758L21.6976 9.20612C21.8694 9.03993 22.0134 8.89036 22.1297 8.7574C22.2479 8.62445 22.3375 8.49426 22.3984 8.36685C22.4593 8.23759 22.4898 8.09817 22.4898 7.9486C22.4898 7.7824 22.452 7.63929 22.3762 7.51926C22.3005 7.39739 22.1971 7.30414 22.066 7.23951C21.9349 7.17303 21.7863 7.13979 21.6201 7.13979C21.4465 7.13979 21.2951 7.17487 21.1658 7.24505C21.0365 7.31522 20.9368 7.41585 20.8667 7.54696C20.7965 7.67807 20.7614 7.83411 20.7614 8.01507H19.623C19.623 7.64391 19.707 7.32168 19.875 7.04838C20.0431 6.77509 20.2785 6.56365 20.5814 6.41408C20.8842 6.26451 21.2332 6.18972 21.6284 6.18972C22.0346 6.18972 22.3883 6.26174 22.6892 6.40577C22.9921 6.54796 23.2275 6.74554 23.3956 6.99853C23.5636 7.25151 23.6476 7.54142 23.6476 7.86827C23.6476 8.08247 23.6052 8.29391 23.5202 8.50257C23.4371 8.71124 23.2885 8.94299 23.0743 9.19782C22.8601 9.4508 22.5581 9.75456 22.1685 10.1091L21.3403 10.9207V10.9595H23.7224V11.94H19.6784Z" fill="#0B983C"/>
</g>
<defs>
<clipPath id="clip0_1_672">
<rect width="40" height="26" fill="white"/>
</clipPath>
</defs>
</svg>
