<svg width="55" height="40" viewBox="0 0 55 40" fill="none" xmlns="http://www.w3.org/2000/svg">
<g clip-path="url(#clip0_1_232)">
<path d="M26.5 38.9384C26.3838 38.8288 26.2181 38.6702 26.0077 38.4648C25.5254 37.994 24.9873 37.4512 24.4069 36.8442C22.7491 35.1096 21.0934 33.2152 19.5484 31.2208C16.8162 27.6936 14.7564 24.2756 13.5814 21.087C12.8637 19.1395 12.5 17.3341 12.5 15.6771C12.5 7.05208 18.5432 1 26.5 1C34.4568 1 40.5 7.05208 40.5 15.6771C40.5 17.3341 40.1364 19.1395 39.4186 21.087C38.2436 24.2756 36.1838 27.6936 33.4516 31.2208C31.9066 33.2152 30.251 35.1096 28.593 36.8442C28.0128 37.4512 27.4746 37.994 26.9922 38.4648C26.7818 38.6702 26.6162 38.8288 26.5 38.9384Z" fill="#05471C" stroke="#05471C" stroke-width="2"/>
<path d="M26.5 26C32.5751 26 37.5 21.0751 37.5 15C37.5 8.92487 32.5751 4 26.5 4C20.4249 4 15.5 8.92487 15.5 15C15.5 21.0751 20.4249 26 26.5 26Z" fill="white"/>
<path d="M28.481 13.6937C28.4213 13.4863 28.3375 13.3031 28.2296 13.144C28.1216 12.9821 27.9895 12.8457 27.8333 12.7349C27.6799 12.6213 27.5037 12.5346 27.3049 12.475C27.1088 12.4153 26.8915 12.3855 26.6529 12.3855C26.2069 12.3855 25.8148 12.4963 25.4767 12.7179C25.1415 12.9395 24.8801 13.2619 24.6926 13.6852C24.5051 14.1057 24.4114 14.6199 24.4114 15.2278C24.4114 15.8358 24.5037 16.3528 24.6884 16.779C24.873 17.2051 25.1344 17.5304 25.4725 17.7548C25.8105 17.9764 26.2097 18.0872 26.6699 18.0872C27.0875 18.0872 27.4441 18.0133 27.7395 17.8656C28.0378 17.715 28.2651 17.5034 28.4213 17.2307C28.5804 16.9579 28.66 16.6355 28.66 16.2633L29.035 16.3187H26.785V14.9295H30.437V16.029C30.437 16.796 30.275 17.4551 29.9512 18.0062C29.6273 18.5545 29.1813 18.9778 28.6131 19.2761C28.0449 19.5716 27.3944 19.7193 26.6614 19.7193C25.8432 19.7193 25.1245 19.5389 24.5051 19.1781C23.8858 18.8145 23.4029 18.2988 23.0563 17.6312C22.7125 16.9608 22.5407 16.1653 22.5407 15.2449C22.5407 14.5375 22.6429 13.9068 22.8475 13.3528C23.0549 12.796 23.3446 12.3244 23.7168 11.938C24.089 11.5517 24.5222 11.2576 25.0165 11.0559C25.5108 10.8542 26.0463 10.7534 26.623 10.7534C27.1174 10.7534 27.5776 10.8258 28.0037 10.9707C28.4299 11.1128 28.8077 11.3145 29.1373 11.5758C29.4696 11.8372 29.7409 12.1483 29.9512 12.5091C30.1614 12.867 30.2963 13.2619 30.356 13.6937H28.481Z" fill="#05471C"/>
</g>
<defs>
<clipPath id="clip0_1_232">
<rect width="55" height="40" fill="white"/>
</clipPath>
</defs>
</svg>
