<svg width="40" height="26" viewBox="0 0 40 26" fill="none" xmlns="http://www.w3.org/2000/svg">
<g clip-path="url(#clip0_1_580)">
<path d="M19.35 25.31C19.2744 25.2387 19.1668 25.1357 19.03 25.0021C18.7165 24.6961 18.3667 24.3433 17.9895 23.9488C16.9119 22.8213 15.8357 21.5899 14.8315 20.2935C13.0555 18.0009 11.7167 15.7792 10.9529 13.7066C10.4864 12.4407 10.25 11.2672 10.25 10.1901C10.25 4.58388 14.1781 0.650024 19.35 0.650024C24.5219 0.650024 28.45 4.58388 28.45 10.1901C28.45 11.2672 28.2137 12.4407 27.7471 13.7066C26.9833 15.7792 25.6445 18.0009 23.8685 20.2935C22.8643 21.5899 21.7881 22.8213 20.7104 23.9488C20.3333 24.3433 19.9835 24.6961 19.6699 25.0021C19.5332 25.1357 19.4255 25.2387 19.35 25.31Z" fill="#0B983C" stroke="#0B983C" stroke-width="1.3"/>
<path d="M19.35 16.9C23.2988 16.9 26.5 13.6988 26.5 9.74998C26.5 5.80114 23.2988 2.59998 19.35 2.59998C15.4012 2.59998 12.2 5.80114 12.2 9.74998C12.2 13.6988 15.4012 16.9 19.35 16.9Z" fill="white"/>
<path d="M17.1193 6.26728H18.3048V10.2227C18.3048 10.5883 18.2227 10.9059 18.0583 11.1755C17.8958 11.4451 17.6696 11.6529 17.3797 11.7987C17.0898 11.9446 16.7528 12.0176 16.3687 12.0176C16.0271 12.0176 15.7168 11.9575 15.438 11.8375C15.161 11.7156 14.9413 11.531 14.7788 11.2835C14.6163 11.0342 14.5359 10.7213 14.5378 10.3445H15.7316C15.7353 10.4941 15.7658 10.6225 15.823 10.7296C15.8821 10.8348 15.9624 10.9161 16.064 10.9733C16.1674 11.0287 16.2893 11.0564 16.4296 11.0564C16.5773 11.0564 16.702 11.025 16.8036 10.9622C16.907 10.8976 16.9854 10.8034 17.039 10.6797C17.0925 10.556 17.1193 10.4036 17.1193 10.2227V6.26728ZM21.36 12.0176C20.9464 12.0176 20.578 11.9465 20.2548 11.8043C19.9335 11.6602 19.6796 11.4627 19.4931 11.2115C19.3085 10.9585 19.2134 10.6668 19.2078 10.3362H20.4155C20.4229 10.4747 20.4681 10.5966 20.5512 10.7019C20.6362 10.8053 20.7488 10.8856 20.8891 10.9428C21.0295 11.0001 21.1874 11.0287 21.3628 11.0287C21.5456 11.0287 21.7072 10.9964 21.8475 10.9318C21.9879 10.8671 22.0977 10.7776 22.1771 10.6631C22.2565 10.5486 22.2962 10.4166 22.2962 10.267C22.2962 10.1156 22.2538 9.98169 22.1688 9.86536C22.0857 9.74718 21.9657 9.65485 21.8087 9.58837C21.6536 9.52189 21.469 9.48865 21.2548 9.48865H20.7257V8.60783H21.2548C21.4357 8.60783 21.5955 8.57644 21.734 8.51365C21.8743 8.45087 21.9832 8.36408 22.0608 8.25328C22.1384 8.14064 22.1771 8.00953 22.1771 7.85996C22.1771 7.71777 22.143 7.59313 22.0746 7.48603C22.0082 7.37708 21.914 7.29213 21.7921 7.2312C21.6721 7.17026 21.5318 7.13979 21.3711 7.13979C21.2086 7.13979 21.0599 7.16933 20.9251 7.22843C20.7903 7.28567 20.6823 7.36784 20.6011 7.47495C20.5198 7.58205 20.4764 7.70762 20.4709 7.85165H19.3214C19.3269 7.5248 19.4202 7.23674 19.6011 6.98745C19.7821 6.73816 20.0259 6.54334 20.3324 6.403C20.6408 6.26081 20.9889 6.18972 21.3766 6.18972C21.7681 6.18972 22.1107 6.26081 22.4043 6.403C22.6979 6.54519 22.9259 6.73723 23.0884 6.97914C23.2528 7.21919 23.334 7.4888 23.3322 7.78794C23.334 8.10556 23.2352 8.37054 23.0358 8.5829C22.8382 8.79526 22.5806 8.93006 22.263 8.9873V9.03162C22.6803 9.08517 22.9979 9.23013 23.2158 9.46649C23.4356 9.70101 23.5445 9.99462 23.5427 10.3473C23.5445 10.6705 23.4513 10.9576 23.2629 11.2088C23.0764 11.4599 22.8188 11.6575 22.4901 11.8015C22.1614 11.9455 21.7847 12.0176 21.36 12.0176Z" fill="#0B983C"/>
</g>
<defs>
<clipPath id="clip0_1_580">
<rect width="40" height="26" fill="white"/>
</clipPath>
</defs>
</svg>
