<svg width="40" height="26" viewBox="0 0 40 26" fill="none" xmlns="http://www.w3.org/2000/svg">
<g clip-path="url(#clip0_1_592)">
<path d="M19.35 25.31C19.2744 25.2387 19.1668 25.1357 19.03 25.0021C18.7165 24.6961 18.3667 24.3433 17.9895 23.9488C16.9119 22.8213 15.8357 21.5899 14.8315 20.2935C13.0555 18.0009 11.7167 15.7792 10.9529 13.7066C10.4864 12.4407 10.25 11.2672 10.25 10.1901C10.25 4.58388 14.1781 0.650024 19.35 0.650024C24.5219 0.650024 28.45 4.58388 28.45 10.1901C28.45 11.2672 28.2137 12.4407 27.7471 13.7066C26.9833 15.7792 25.6445 18.0009 23.8685 20.2935C22.8643 21.5899 21.7881 22.8213 20.7104 23.9488C20.3333 24.3433 19.9835 24.6961 19.6699 25.0021C19.5332 25.1357 19.4255 25.2387 19.35 25.31Z" fill="#0B983C" stroke="#0B983C" stroke-width="1.3"/>
<path d="M19.35 16.9C23.2988 16.9 26.5 13.6988 26.5 9.74998C26.5 5.80114 23.2988 2.59998 19.35 2.59998C15.4012 2.59998 12.2 5.80114 12.2 9.74998C12.2 13.6988 15.4012 16.9 19.35 16.9Z" fill="white"/>
<path d="M14.9976 11.94V6.26728H16.197V8.76848H16.2718L18.3132 6.26728H19.7508L17.6456 8.80726L19.7757 11.94H18.3409L16.787 9.60776L16.197 10.3279V11.94H14.9976ZM20.3421 11.94V11.0758L22.3614 9.20612C22.5331 9.03993 22.6771 8.89036 22.7935 8.7574C22.9117 8.62445 23.0012 8.49426 23.0622 8.36685C23.1231 8.23759 23.1536 8.09817 23.1536 7.9486C23.1536 7.7824 23.1157 7.63929 23.04 7.51926C22.9643 7.39739 22.8609 7.30414 22.7298 7.23951C22.5987 7.17303 22.45 7.13979 22.2838 7.13979C22.1102 7.13979 21.9588 7.17487 21.8296 7.24505C21.7003 7.31522 21.6006 7.41585 21.5304 7.54696C21.4602 7.67807 21.4252 7.83411 21.4252 8.01507H20.2867C20.2867 7.64391 20.3707 7.32168 20.5388 7.04838C20.7068 6.77509 20.9423 6.56365 21.2451 6.41408C21.548 6.26451 21.897 6.18972 22.2921 6.18972C22.6984 6.18972 23.052 6.26174 23.353 6.40577C23.6558 6.54796 23.8913 6.74554 24.0593 6.99853C24.2274 7.25151 24.3114 7.54142 24.3114 7.86827C24.3114 8.08247 24.2689 8.29391 24.184 8.50257C24.1009 8.71124 23.9522 8.94299 23.738 9.19782C23.5238 9.4508 23.2219 9.75456 22.8323 10.1091L22.0041 10.9207V10.9595H24.3862V11.94H20.3421Z" fill="#0B983C"/>
</g>
<defs>
<clipPath id="clip0_1_592">
<rect width="40" height="26" fill="white"/>
</clipPath>
</defs>
</svg>
