<svg width="40" height="26" viewBox="0 0 40 26" fill="none" xmlns="http://www.w3.org/2000/svg">
<g clip-path="url(#clip0_1_22)">
<path d="M19.35 25.31C19.2744 25.2387 19.1668 25.1357 19.03 25.0021C18.7165 24.6961 18.3667 24.3433 17.9895 23.9488C16.9119 22.8213 15.8357 21.5899 14.8315 20.2935C13.0555 18.0009 11.7167 15.7792 10.9529 13.7066C10.4864 12.4407 10.25 11.2672 10.25 10.1901C10.25 4.58388 14.1781 0.650024 19.35 0.650024C24.5219 0.650024 28.45 4.58388 28.45 10.1901C28.45 11.2672 28.2137 12.4407 27.7471 13.7066C26.9833 15.7792 25.6445 18.0009 23.8685 20.2935C22.8643 21.5899 21.7881 22.8213 20.7104 23.9488C20.3333 24.3433 19.9835 24.6961 19.6699 25.0021C19.5332 25.1357 19.4255 25.2387 19.35 25.31Z" fill="#0B983C" stroke="#0B983C" stroke-width="1.3"/>
<path d="M19.35 16.9C23.2988 16.9 26.5 13.6988 26.5 9.74998C26.5 5.80114 23.2988 2.59998 19.35 2.59998C15.4011 2.59998 12.2 5.80114 12.2 9.74998C12.2 13.6988 15.4011 16.9 19.35 16.9Z" fill="white"/>
<path d="M15.3066 11.9399V6.26721H17.5779C17.9952 6.26721 18.3433 6.32907 18.6221 6.4528C18.901 6.57652 19.1105 6.74825 19.2509 6.968C19.3912 7.18589 19.4614 7.43703 19.4614 7.7214C19.4614 7.943 19.4171 8.13781 19.3284 8.30585C19.2398 8.47204 19.1179 8.60869 18.9628 8.71579C18.8095 8.82105 18.6341 8.89584 18.4365 8.94015V8.99555C18.6526 9.00479 18.8548 9.06572 19.0431 9.17836C19.2333 9.29101 19.3875 9.44889 19.5057 9.65202C19.6239 9.85329 19.683 10.0934 19.683 10.3722C19.683 10.6732 19.6082 10.9419 19.4586 11.1782C19.3109 11.4127 19.0921 11.5983 18.8022 11.735C18.5122 11.8716 18.1549 11.9399 17.7302 11.9399H15.3066ZM16.5059 10.9594H17.4837C17.8179 10.9594 18.0617 10.8957 18.2149 10.7683C18.3682 10.639 18.4448 10.4673 18.4448 10.2531C18.4448 10.0961 18.407 9.95763 18.3313 9.8376C18.2556 9.71757 18.1475 9.62339 18.0072 9.55507C17.8687 9.48675 17.7034 9.45258 17.5114 9.45258H16.5059V10.9594ZM16.5059 8.64101H17.3951C17.5594 8.64101 17.7053 8.61238 17.8327 8.55514C17.962 8.49605 18.0635 8.41295 18.1374 8.30585C18.2131 8.19875 18.251 8.07041 18.251 7.92084C18.251 7.71586 18.178 7.55059 18.0321 7.42503C17.8881 7.29946 17.6831 7.23667 17.4172 7.23667H16.5059V8.64101ZM22.8981 6.26721V11.9399H21.6988V7.40564H21.6655L20.3665 8.21998V7.15635L21.7708 6.26721H22.8981Z" fill="#0B983C"/>
</g>
<defs>
<clipPath id="clip0_1_22">
<rect width="40" height="26" fill="white"/>
</clipPath>
</defs>
</svg>
