<svg width="55" height="40" viewBox="0 0 55 40" fill="none" xmlns="http://www.w3.org/2000/svg">
<g clip-path="url(#clip0_1_380)">
<path d="M26.5 38.9384C26.3838 38.8288 26.2181 38.6702 26.0077 38.4648C25.5254 37.994 24.9873 37.4512 24.4069 36.8442C22.7491 35.1096 21.0934 33.2152 19.5484 31.2208C16.8162 27.6936 14.7564 24.2756 13.5814 21.087C12.8637 19.1395 12.5 17.3341 12.5 15.6771C12.5 7.05208 18.5432 1 26.5 1C34.4568 1 40.5 7.05208 40.5 15.6771C40.5 17.3341 40.1364 19.1395 39.4186 21.087C38.2436 24.2756 36.1838 27.6936 33.4516 31.2208C31.9066 33.2152 30.251 35.1096 28.593 36.8442C28.0128 37.4512 27.4746 37.994 26.9922 38.4648C26.7818 38.6702 26.6162 38.8288 26.5 38.9384Z" fill="#05471C" stroke="#05471C" stroke-width="2"/>
<path d="M26.5 26C32.5751 26 37.5 21.0751 37.5 15C37.5 8.92487 32.5751 4 26.5 4C20.4249 4 15.5 8.92487 15.5 15C15.5 21.0751 20.4249 26 26.5 26Z" fill="white"/>
<path d="M20.4382 19.6V10.8727H23.8814C24.5433 10.8727 25.1072 10.9991 25.5732 11.252C26.0391 11.502 26.3942 11.85 26.6385 12.296C26.8857 12.7392 27.0092 13.2505 27.0092 13.8301C27.0092 14.4096 26.8842 14.921 26.6342 15.3642C26.3842 15.8074 26.022 16.1525 25.5476 16.3997C25.076 16.6469 24.505 16.7704 23.8345 16.7704H21.6399V15.2917H23.5362C23.8913 15.2917 24.1839 15.2307 24.4141 15.1085C24.647 14.9835 24.8203 14.8116 24.9339 14.5929C25.0504 14.3713 25.1087 14.117 25.1087 13.8301C25.1087 13.5403 25.0504 13.2875 24.9339 13.0716C24.8203 12.8528 24.647 12.6838 24.4141 12.5645C24.1811 12.4423 23.8857 12.3812 23.5277 12.3812H22.2834V19.6H20.4382ZM31.9535 10.8727V19.6H30.1083V12.6241H30.0572L28.0586 13.877V12.2406L30.2191 10.8727H31.9535Z" fill="#05471C"/>
</g>
<defs>
<clipPath id="clip0_1_380">
<rect width="55" height="40" fill="white"/>
</clipPath>
</defs>
</svg>
