<svg width="40" height="26" viewBox="0 0 40 26" fill="none" xmlns="http://www.w3.org/2000/svg">
<g clip-path="url(#clip0_1_26)">
<path d="M19.35 25.31C19.2744 25.2387 19.1668 25.1357 19.03 25.0021C18.7165 24.6961 18.3667 24.3433 17.9895 23.9488C16.9119 22.8213 15.8357 21.5899 14.8315 20.2935C13.0555 18.0009 11.7167 15.7792 10.9529 13.7066C10.4864 12.4407 10.25 11.2672 10.25 10.1901C10.25 4.58388 14.1781 0.650024 19.35 0.650024C24.5219 0.650024 28.45 4.58388 28.45 10.1901C28.45 11.2672 28.2137 12.4407 27.7471 13.7066C26.9833 15.7792 25.6445 18.0009 23.8685 20.2935C22.8643 21.5899 21.7881 22.8213 20.7104 23.9488C20.3333 24.3433 19.9835 24.6961 19.6699 25.0021C19.5332 25.1357 19.4255 25.2387 19.35 25.31Z" fill="#0B983C" stroke="#0B983C" stroke-width="1.3"/>
<path d="M19.35 16.9C23.2988 16.9 26.5 13.6988 26.5 9.74998C26.5 5.80114 23.2988 2.59998 19.35 2.59998C15.4011 2.59998 12.2 5.80114 12.2 9.74998C12.2 13.6988 15.4011 16.9 19.35 16.9Z" fill="white"/>
<path d="M15.1081 11.9399V6.26721H17.3794C17.7967 6.26721 18.1448 6.32907 18.4237 6.4528C18.7025 6.57652 18.9121 6.74825 19.0524 6.968C19.1928 7.18589 19.2629 7.43703 19.2629 7.7214C19.2629 7.943 19.2186 8.13781 19.13 8.30585C19.0413 8.47204 18.9195 8.60869 18.7644 8.71579C18.6111 8.82105 18.4357 8.89584 18.2381 8.94015V8.99555C18.4541 9.00479 18.6563 9.06572 18.8447 9.17836C19.0349 9.29101 19.1891 9.44889 19.3073 9.65202C19.4254 9.85329 19.4845 10.0934 19.4845 10.3722C19.4845 10.6732 19.4097 10.9419 19.2602 11.1782C19.1124 11.4127 18.8936 11.5983 18.6037 11.735C18.3138 11.8716 17.9565 11.9399 17.5318 11.9399H15.1081ZM16.3075 10.9594H17.2852C17.6195 10.9594 17.8632 10.8957 18.0165 10.7683C18.1698 10.639 18.2464 10.4673 18.2464 10.2531C18.2464 10.0961 18.2085 9.95763 18.1328 9.8376C18.0571 9.71757 17.9491 9.62339 17.8087 9.55507C17.6702 9.48675 17.505 9.45258 17.3129 9.45258H16.3075V10.9594ZM16.3075 8.64101H17.1966C17.3609 8.64101 17.5068 8.61238 17.6342 8.55514C17.7635 8.49605 17.8651 8.41295 17.9389 8.30585C18.0146 8.19875 18.0525 8.07041 18.0525 7.92084C18.0525 7.71586 17.9796 7.55059 17.8337 7.42503C17.6896 7.29946 17.4847 7.23667 17.2188 7.23667H16.3075V8.64101ZM20.2317 11.9399V11.0757L22.2509 9.20606C22.4227 9.03987 22.5667 8.8903 22.683 8.75734C22.8012 8.62439 22.8908 8.4942 22.9517 8.36679C23.0127 8.23753 23.0431 8.09811 23.0431 7.94854C23.0431 7.78234 23.0053 7.63923 22.9296 7.5192C22.8539 7.39733 22.7505 7.30407 22.6193 7.23944C22.4882 7.17297 22.3396 7.13973 22.1734 7.13973C21.9998 7.13973 21.8484 7.17481 21.7191 7.24498C21.5899 7.31515 21.4902 7.41579 21.42 7.5469C21.3498 7.67801 21.3147 7.83405 21.3147 8.01501H20.1763C20.1763 7.64385 20.2603 7.32162 20.4284 7.04832C20.5964 6.77503 20.8318 6.56359 21.1347 6.41402C21.4375 6.26444 21.7865 6.18966 22.1817 6.18966C22.588 6.18966 22.9416 6.26167 23.2426 6.40571C23.5454 6.5479 23.7808 6.74548 23.9489 6.99846C24.1169 7.25145 24.2009 7.54136 24.2009 7.86821C24.2009 8.08241 24.1585 8.29385 24.0735 8.50251C23.9904 8.71118 23.8418 8.94292 23.6276 9.19775C23.4134 9.45074 23.1115 9.7545 22.7218 10.109L21.8936 10.9206V10.9594H24.2757V11.9399H20.2317Z" fill="#0B983C"/>
</g>
<defs>
<clipPath id="clip0_1_26">
<rect width="40" height="26" fill="white"/>
</clipPath>
</defs>
</svg>
