<svg width="40" height="26" viewBox="0 0 40 26" fill="none" xmlns="http://www.w3.org/2000/svg">
<g clip-path="url(#clip0_1_564)">
<path d="M19.35 25.31C19.2744 25.2387 19.1668 25.1357 19.03 25.0021C18.7165 24.6961 18.3667 24.3433 17.9895 23.9488C16.9119 22.8213 15.8357 21.5899 14.8315 20.2935C13.0555 18.0009 11.7167 15.7792 10.9529 13.7066C10.4864 12.4407 10.25 11.2672 10.25 10.1901C10.25 4.58388 14.1781 0.650024 19.35 0.650024C24.5219 0.650024 28.45 4.58388 28.45 10.1901C28.45 11.2672 28.2137 12.4407 27.7471 13.7066C26.9833 15.7792 25.6445 18.0009 23.8685 20.2935C22.8643 21.5899 21.7881 22.8213 20.7104 23.9488C20.3333 24.3433 19.9835 24.6961 19.6699 25.0021C19.5332 25.1357 19.4255 25.2387 19.35 25.31Z" fill="#0B983C" stroke="#0B983C" stroke-width="1.3"/>
<path d="M19.35 16.9C23.2988 16.9 26.5 13.6988 26.5 9.74998C26.5 5.80114 23.2988 2.59998 19.35 2.59998C15.4012 2.59998 12.2 5.80114 12.2 9.74998C12.2 13.6988 15.4012 16.9 19.35 16.9Z" fill="white"/>
<path d="M16.4785 6.26728V11.94H15.2792V6.26728H16.4785ZM19.5289 12.0176C19.1152 12.0176 18.7469 11.9465 18.4237 11.8043C18.1024 11.6602 17.8485 11.4627 17.662 11.2115C17.4773 10.9585 17.3822 10.6668 17.3767 10.3362H18.5844C18.5917 10.4747 18.637 10.5966 18.7201 10.7019C18.805 10.8053 18.9177 10.8856 19.058 10.9428C19.1983 11.0001 19.3562 11.0287 19.5317 11.0287C19.7145 11.0287 19.876 10.9964 20.0164 10.9318C20.1567 10.8671 20.2666 10.7776 20.346 10.6631C20.4254 10.5486 20.4651 10.4166 20.4651 10.267C20.4651 10.1156 20.4226 9.98169 20.3377 9.86536C20.2546 9.74718 20.1346 9.65485 19.9776 9.58837C19.8225 9.52189 19.6378 9.48865 19.4236 9.48865H18.8946V8.60783H19.4236C19.6046 8.60783 19.7643 8.57644 19.9028 8.51365C20.0432 8.45087 20.1521 8.36408 20.2297 8.25328C20.3072 8.14064 20.346 8.00953 20.346 7.85996C20.346 7.71777 20.3118 7.59313 20.2435 7.48603C20.177 7.37708 20.0829 7.29213 19.961 7.2312C19.841 7.17026 19.7006 7.13979 19.54 7.13979C19.3775 7.13979 19.2288 7.16933 19.094 7.22843C18.9592 7.28567 18.8512 7.36784 18.7699 7.47495C18.6887 7.58205 18.6453 7.70762 18.6397 7.85165H17.4902C17.4958 7.5248 17.589 7.23674 17.77 6.98745C17.951 6.73816 18.1947 6.54334 18.5013 6.403C18.8096 6.26081 19.1577 6.18972 19.5455 6.18972C19.937 6.18972 20.2795 6.26081 20.5731 6.403C20.8667 6.54519 21.0948 6.73723 21.2573 6.97914C21.4216 7.21919 21.5029 7.4888 21.501 7.78794C21.5029 8.10556 21.4041 8.37054 21.2047 8.5829C21.0071 8.79526 20.7495 8.93006 20.4319 8.9873V9.03162C20.8492 9.08517 21.1668 9.23013 21.3847 9.46649C21.6045 9.70101 21.7134 9.99462 21.7116 10.3473C21.7134 10.6705 21.6201 10.9576 21.4318 11.2088C21.2453 11.4599 20.9877 11.6575 20.659 11.8015C20.3303 11.9455 19.9536 12.0176 19.5289 12.0176Z" fill="#0B983C"/>
</g>
<defs>
<clipPath id="clip0_1_564">
<rect width="40" height="26" fill="white"/>
</clipPath>
</defs>
</svg>
