<svg width="40" height="26" viewBox="0 0 40 26" fill="none" xmlns="http://www.w3.org/2000/svg">
<g clip-path="url(#clip0_1_34)">
<path d="M19.35 25.31C19.2744 25.2387 19.1668 25.1357 19.03 25.0021C18.7165 24.6961 18.3667 24.3433 17.9895 23.9488C16.9119 22.8213 15.8357 21.5899 14.8315 20.2935C13.0555 18.0009 11.7167 15.7792 10.9529 13.7066C10.4864 12.4407 10.25 11.2672 10.25 10.1901C10.25 4.58388 14.1781 0.650024 19.35 0.650024C24.5219 0.650024 28.45 4.58388 28.45 10.1901C28.45 11.2672 28.2137 12.4407 27.7471 13.7066C26.9833 15.7792 25.6445 18.0009 23.8685 20.2935C22.8643 21.5899 21.7881 22.8213 20.7104 23.9488C20.3333 24.3433 19.9835 24.6961 19.6699 25.0021C19.5332 25.1357 19.4255 25.2387 19.35 25.31Z" fill="#0B983C" stroke="#0B983C" stroke-width="1.3"/>
<path d="M19.35 16.9C23.2988 16.9 26.5 13.6988 26.5 9.74998C26.5 5.80114 23.2988 2.59998 19.35 2.59998C15.4012 2.59998 12.2 5.80114 12.2 9.74998C12.2 13.6988 15.4012 16.9 19.35 16.9Z" fill="white"/>
<path d="M21.6656 8.25322H20.4524C20.4302 8.09626 20.385 7.95684 20.3166 7.83497C20.2483 7.71125 20.1606 7.60599 20.0535 7.5192C19.9464 7.43241 19.8227 7.36594 19.6823 7.31977C19.5438 7.27361 19.3934 7.25052 19.2309 7.25052C18.9372 7.25052 18.6815 7.32346 18.4636 7.46934C18.2457 7.61338 18.0767 7.82389 17.9567 8.10088C17.8367 8.37602 17.7767 8.71025 17.7767 9.10358C17.7767 9.50798 17.8367 9.84775 17.9567 10.1229C18.0786 10.398 18.2485 10.6058 18.4664 10.7461C18.6843 10.8865 18.9363 10.9566 19.2225 10.9566C19.3832 10.9566 19.5318 10.9354 19.6685 10.8929C19.807 10.8505 19.9298 10.7886 20.0369 10.7073C20.144 10.6242 20.2326 10.5236 20.3028 10.4054C20.3748 10.2872 20.4247 10.1524 20.4524 10.001L21.6656 10.0066C21.6342 10.2669 21.5557 10.5181 21.4301 10.76C21.3064 11 21.1393 11.2152 20.9288 11.4054C20.7201 11.5937 20.4708 11.7433 20.1809 11.8541C19.8929 11.963 19.5669 12.0175 19.2032 12.0175C18.6972 12.0175 18.2448 11.903 17.8459 11.674C17.4489 11.4451 17.135 11.1136 16.9041 10.6796C16.6752 10.2457 16.5607 9.72034 16.5607 9.10358C16.5607 8.48497 16.677 7.95869 16.9097 7.52474C17.1424 7.09079 17.4581 6.76025 17.857 6.53312C18.2559 6.30415 18.7046 6.18966 19.2032 6.18966C19.5318 6.18966 19.8365 6.23582 20.1172 6.32815C20.3997 6.42048 20.65 6.55528 20.8679 6.73255C21.0858 6.90798 21.263 7.12311 21.3997 7.37794C21.5382 7.63277 21.6268 7.92453 21.6656 8.25322Z" fill="#0B983C"/>
</g>
<defs>
<clipPath id="clip0_1_34">
<rect width="40" height="26" fill="white"/>
</clipPath>
</defs>
</svg>
