<svg width="40" height="26" viewBox="0 0 40 26" fill="none" xmlns="http://www.w3.org/2000/svg">
<g clip-path="url(#clip0_1_101)">
<path d="M19.35 25.31C19.2744 25.2387 19.1668 25.1357 19.03 25.0021C18.7165 24.6961 18.3667 24.3433 17.9895 23.9488C16.9119 22.8213 15.8357 21.5899 14.8315 20.2935C13.0555 18.0009 11.7167 15.7792 10.9529 13.7066C10.4864 12.4407 10.25 11.2672 10.25 10.1901C10.25 4.58388 14.1781 0.650024 19.35 0.650024C24.5219 0.650024 28.45 4.58388 28.45 10.1901C28.45 11.2672 28.2137 12.4407 27.7471 13.7066C26.9833 15.7792 25.6445 18.0009 23.8685 20.2935C22.8643 21.5899 21.7881 22.8213 20.7104 23.9488C20.3333 24.3433 19.9835 24.6961 19.6699 25.0021C19.5332 25.1357 19.4255 25.2387 19.35 25.31Z" fill="#0B983C" stroke="#0B983C" stroke-width="1.3"/>
<path d="M19.35 16.9C23.2988 16.9 26.5 13.6988 26.5 9.74998C26.5 5.80114 23.2988 2.59998 19.35 2.59998C15.4012 2.59998 12.2 5.80114 12.2 9.74998C12.2 13.6988 15.4012 16.9 19.35 16.9Z" fill="white"/>
<path d="M20.3877 8.10088C20.3489 7.96608 20.2944 7.84697 20.2242 7.74356C20.1541 7.63831 20.0682 7.54967 19.9666 7.47765C19.8669 7.40379 19.7524 7.34747 19.6232 7.30869C19.4958 7.26991 19.3545 7.25052 19.1994 7.25052C18.9095 7.25052 18.6546 7.32254 18.4349 7.46657C18.217 7.61061 18.0471 7.8202 17.9252 8.09534C17.8034 8.36863 17.7424 8.70287 17.7424 9.09804C17.7424 9.49321 17.8024 9.82929 17.9225 10.1063C18.0425 10.3833 18.2124 10.5947 18.4321 10.7406C18.6519 10.8846 18.9113 10.9566 19.2105 10.9566C19.4819 10.9566 19.7137 10.9086 19.9057 10.8126C20.0996 10.7147 20.2473 10.5772 20.3489 10.3999C20.4523 10.2226 20.504 10.013 20.504 9.77112L20.7477 9.80713H19.2852V8.90415H21.659V9.61878C21.659 10.1174 21.5538 10.5458 21.3433 10.904C21.1328 11.2604 20.8428 11.5355 20.4735 11.7294C20.1042 11.9215 19.6813 12.0175 19.2049 12.0175C18.6731 12.0175 18.2059 11.9002 17.8034 11.6657C17.4008 11.4294 17.0869 11.0942 16.8616 10.6603C16.6382 10.2245 16.5264 9.70741 16.5264 9.10912C16.5264 8.64932 16.5929 8.23937 16.7259 7.87929C16.8607 7.51736 17.049 7.21082 17.2909 6.95969C17.5328 6.70855 17.8144 6.51743 18.1357 6.38632C18.457 6.25521 18.8051 6.18966 19.18 6.18966C19.5013 6.18966 19.8004 6.23675 20.0774 6.33092C20.3544 6.42325 20.6 6.55436 20.8142 6.72425C21.0303 6.89413 21.2066 7.09633 21.3433 7.33085C21.4799 7.56352 21.5676 7.8202 21.6064 8.10088H20.3877Z" fill="#0B983C"/>
</g>
<defs>
<clipPath id="clip0_1_101">
<rect width="40" height="26" fill="white"/>
</clipPath>
</defs>
</svg>
