<svg width="40" height="26" viewBox="0 0 40 26" fill="none" xmlns="http://www.w3.org/2000/svg">
<g clip-path="url(#clip0_1_704)">
<path d="M19.35 25.31C19.2744 25.2387 19.1668 25.1357 19.03 25.0021C18.7165 24.6961 18.3667 24.3433 17.9895 23.9488C16.9119 22.8213 15.8357 21.5899 14.8315 20.2935C13.0555 18.0009 11.7167 15.7792 10.9529 13.7066C10.4864 12.4407 10.25 11.2672 10.25 10.1901C10.25 4.58388 14.1781 0.650024 19.35 0.650024C24.5219 0.650024 28.45 4.58388 28.45 10.1901C28.45 11.2672 28.2137 12.4407 27.7471 13.7066C26.9833 15.7792 25.6445 18.0009 23.8685 20.2935C22.8643 21.5899 21.7881 22.8213 20.7104 23.9488C20.3333 24.3433 19.9835 24.6961 19.6699 25.0021C19.5332 25.1357 19.4255 25.2387 19.35 25.31Z" fill="#0B983C" stroke="#0B983C" stroke-width="1.3"/>
<path d="M19.35 16.9C23.2988 16.9 26.5 13.6988 26.5 9.74998C26.5 5.80114 23.2988 2.59998 19.35 2.59998C15.4012 2.59998 12.2 5.80114 12.2 9.74998C12.2 13.6988 15.4012 16.9 19.35 16.9Z" fill="white"/>
<path d="M15.1271 11.94V6.26728H17.3652C17.7936 6.26728 18.1592 6.34391 18.4621 6.49718C18.7668 6.6486 18.9985 6.86372 19.1573 7.14256C19.318 7.41955 19.3983 7.74547 19.3983 8.12033C19.3983 8.49703 19.317 8.82111 19.1545 9.09256C18.992 9.36216 18.7566 9.56898 18.4482 9.71301C18.1417 9.85705 17.7705 9.92907 17.3347 9.92907H15.8362V8.96514H17.1408C17.3698 8.96514 17.56 8.93375 17.7114 8.87097C17.8628 8.80818 17.9755 8.71401 18.0494 8.58844C18.1251 8.46287 18.1629 8.30683 18.1629 8.12033C18.1629 7.93198 18.1251 7.77317 18.0494 7.64391C17.9755 7.51465 17.8619 7.41678 17.7087 7.3503C17.5572 7.28198 17.3661 7.24782 17.1353 7.24782H16.3265V11.94H15.1271ZM18.1906 9.35847L19.6005 11.94H18.2765L16.8971 9.35847H18.1906ZM20.2126 11.94V11.0758L22.2319 9.20612C22.4036 9.03993 22.5476 8.89036 22.664 8.7574C22.7822 8.62445 22.8717 8.49426 22.9327 8.36685C22.9936 8.23759 23.0241 8.09817 23.0241 7.9486C23.0241 7.7824 22.9862 7.63929 22.9105 7.51926C22.8348 7.39739 22.7314 7.30414 22.6003 7.23951C22.4692 7.17303 22.3205 7.13979 22.1543 7.13979C21.9807 7.13979 21.8293 7.17487 21.7001 7.24505C21.5708 7.31522 21.4711 7.41585 21.4009 7.54696C21.3307 7.67807 21.2957 7.83411 21.2957 8.01507H20.1572C20.1572 7.64391 20.2413 7.32168 20.4093 7.04838C20.5773 6.77509 20.8128 6.56365 21.1156 6.41408C21.4185 6.26451 21.7675 6.18972 22.1626 6.18972C22.5689 6.18972 22.9225 6.26174 23.2235 6.40577C23.5263 6.54796 23.7618 6.74554 23.9298 6.99853C24.0979 7.25151 24.1819 7.54142 24.1819 7.86827C24.1819 8.08247 24.1394 8.29391 24.0545 8.50257C23.9714 8.71124 23.8227 8.94299 23.6085 9.19782C23.3943 9.4508 23.0924 9.75456 22.7028 10.1091L21.8746 10.9207V10.9595H24.2567V11.94H20.2126Z" fill="#0B983C"/>
</g>
<defs>
<clipPath id="clip0_1_704">
<rect width="40" height="26" fill="white"/>
</clipPath>
</defs>
</svg>
