<svg width="55" height="40" viewBox="0 0 55 40" fill="none" xmlns="http://www.w3.org/2000/svg">
<g clip-path="url(#clip0_1_224)">
<path d="M26.5 38.9384C26.3838 38.8288 26.2181 38.6702 26.0077 38.4648C25.5254 37.994 24.9873 37.4512 24.4069 36.8442C22.7491 35.1096 21.0934 33.2152 19.5484 31.2208C16.8162 27.6936 14.7564 24.2756 13.5814 21.087C12.8637 19.1395 12.5 17.3341 12.5 15.6771C12.5 7.05208 18.5432 1 26.5 1C34.4568 1 40.5 7.05208 40.5 15.6771C40.5 17.3341 40.1364 19.1395 39.4186 21.087C38.2436 24.2756 36.1838 27.6936 33.4516 31.2208C31.9066 33.2152 30.251 35.1096 28.593 36.8442C28.0128 37.4512 27.4746 37.994 26.9922 38.4648C26.7818 38.6702 26.6162 38.8288 26.5 38.9384Z" fill="#05471C" stroke="#05471C" stroke-width="2"/>
<path d="M26.5 26C32.5751 26 37.5 21.0751 37.5 15C37.5 8.92487 32.5751 4 26.5 4C20.4249 4 15.5 8.92487 15.5 15C15.5 21.0751 20.4249 26 26.5 26Z" fill="white"/>
<path d="M20.4695 19.6V10.8727H26.2479V12.394H22.3146V14.4736H25.8643V15.9949H22.3146V19.6H20.4695ZM27.4379 19.6V18.2704L30.5444 15.394C30.8086 15.1383 31.0302 14.9082 31.2092 14.7037C31.391 14.4991 31.5288 14.2988 31.6225 14.1028C31.7163 13.904 31.7631 13.6895 31.7631 13.4594C31.7631 13.2037 31.7049 12.9835 31.5884 12.7988C31.4719 12.6113 31.3129 12.4679 31.1112 12.3684C30.9094 12.2662 30.6808 12.215 30.4251 12.215C30.158 12.215 29.9251 12.269 29.7262 12.377C29.5273 12.4849 29.3739 12.6397 29.266 12.8415C29.158 13.0432 29.104 13.2832 29.104 13.5616H27.3526C27.3526 12.9906 27.4819 12.4949 27.7404 12.0744C27.9989 11.654 28.3612 11.3287 28.8271 11.0986C29.293 10.8684 29.8299 10.7534 30.4379 10.7534C31.0629 10.7534 31.6069 10.8642 32.07 11.0858C32.5359 11.3045 32.8981 11.6085 33.1566 11.9977C33.4151 12.3869 33.5444 12.8329 33.5444 13.3358C33.5444 13.6653 33.479 13.9906 33.3484 14.3116C33.2205 14.6326 32.9918 14.9892 32.6623 15.3812C32.3327 15.7704 31.8683 16.2378 31.2688 16.7832L29.9947 18.0318V18.0915H33.6594V19.6H27.4379Z" fill="#05471C"/>
</g>
<defs>
<clipPath id="clip0_1_224">
<rect width="55" height="40" fill="white"/>
</clipPath>
</defs>
</svg>
