<svg width="55" height="40" viewBox="0 0 55 40" fill="none" xmlns="http://www.w3.org/2000/svg">
<g clip-path="url(#clip0_1_468)">
<path d="M26.5 38.9384C26.3838 38.8288 26.2181 38.6702 26.0077 38.4648C25.5254 37.994 24.9873 37.4512 24.4069 36.8442C22.7491 35.1096 21.0934 33.2152 19.5484 31.2208C16.8162 27.6936 14.7564 24.2756 13.5814 21.087C12.8637 19.1395 12.5 17.3341 12.5 15.6771C12.5 7.05208 18.5432 1 26.5 1C34.4568 1 40.5 7.05208 40.5 15.6771C40.5 17.3341 40.1364 19.1395 39.4186 21.087C38.2436 24.2756 36.1838 27.6936 33.4516 31.2208C31.9066 33.2152 30.251 35.1096 28.593 36.8442C28.0128 37.4512 27.4746 37.994 26.9922 38.4648C26.7818 38.6702 26.6162 38.8288 26.5 38.9384Z" fill="#05471C" stroke="#05471C" stroke-width="2"/>
<path d="M26.5 26C32.5751 26 37.5 21.0751 37.5 15C37.5 8.92487 32.5751 4 26.5 4C20.4249 4 15.5 8.92487 15.5 15C15.5 21.0751 20.4249 26 26.5 26Z" fill="white"/>
<path d="M24.8171 10.8727H26.6623V16.5403C26.6623 17.1767 26.5103 17.7335 26.2063 18.2108C25.9052 18.688 25.4833 19.0602 24.9407 19.3272C24.3981 19.5915 23.766 19.7236 23.0444 19.7236C22.32 19.7236 21.6864 19.5915 21.1438 19.3272C20.6012 19.0602 20.1793 18.688 19.8782 18.2108C19.5771 17.7335 19.4265 17.1767 19.4265 16.5403V10.8727H21.2717V16.3826C21.2717 16.715 21.3441 17.0105 21.489 17.269C21.6367 17.5275 21.8441 17.7307 22.1112 17.8784C22.3782 18.0261 22.6893 18.1 23.0444 18.1C23.4023 18.1 23.7134 18.0261 23.9776 17.8784C24.2447 17.7307 24.4506 17.5275 24.5955 17.269C24.7433 17.0105 24.8171 16.715 24.8171 16.3826V10.8727ZM31.3551 19.7193C30.7188 19.7193 30.152 19.6099 29.6548 19.3912C29.1605 19.1696 28.7699 18.8656 28.483 18.4792C28.1989 18.09 28.0526 17.6412 28.044 17.1326H29.902C29.9134 17.3457 29.983 17.5332 30.1108 17.6951C30.2415 17.8542 30.4148 17.9778 30.6307 18.0659C30.8466 18.154 31.0895 18.198 31.3594 18.198C31.6406 18.198 31.8892 18.1483 32.1051 18.0488C32.321 17.9494 32.4901 17.8116 32.6122 17.6355C32.7344 17.4594 32.7955 17.2562 32.7955 17.0261C32.7955 16.7932 32.7301 16.5872 32.5994 16.4082C32.4716 16.2264 32.2869 16.0844 32.0455 15.9821C31.8068 15.8798 31.5227 15.8287 31.1932 15.8287H30.3793V14.4736H31.1932C31.4716 14.4736 31.7173 14.4253 31.9304 14.3287C32.1463 14.2321 32.3139 14.0986 32.4332 13.9281C32.5526 13.7548 32.6122 13.5531 32.6122 13.323C32.6122 13.1042 32.5597 12.9125 32.4545 12.7477C32.3523 12.5801 32.2074 12.4494 32.0199 12.3557C31.8352 12.2619 31.6193 12.215 31.3722 12.215C31.1222 12.215 30.8935 12.2605 30.6861 12.3514C30.4787 12.4395 30.3125 12.5659 30.1875 12.7307C30.0625 12.8954 29.9957 13.0886 29.9872 13.3102H28.2188C28.2273 12.8074 28.3707 12.3642 28.6491 11.9807C28.9276 11.5971 29.3026 11.2974 29.7741 11.0815C30.2486 10.8628 30.7841 10.7534 31.3807 10.7534C31.983 10.7534 32.5099 10.8628 32.9616 11.0815C33.4134 11.3003 33.7642 11.5957 34.0142 11.9679C34.267 12.3372 34.392 12.752 34.3892 13.2122C34.392 13.7008 34.2401 14.1085 33.9332 14.4352C33.6293 14.7619 33.233 14.9693 32.7443 15.0574V15.1255C33.3864 15.2079 33.875 15.4309 34.2102 15.7946C34.5483 16.1554 34.7159 16.6071 34.7131 17.1497C34.7159 17.6469 34.5724 18.0886 34.2827 18.475C33.9957 18.8613 33.5994 19.1653 33.0938 19.3869C32.5881 19.6085 32.0085 19.7193 31.3551 19.7193Z" fill="#05471C"/>
</g>
<defs>
<clipPath id="clip0_1_468">
<rect width="55" height="40" fill="white"/>
</clipPath>
</defs>
</svg>
