<svg width="55" height="40" viewBox="0 0 55 40" fill="none" xmlns="http://www.w3.org/2000/svg">
<g clip-path="url(#clip0_1_408)">
<path d="M26.5 38.9384C26.3838 38.8288 26.2181 38.6702 26.0077 38.4648C25.5254 37.994 24.9873 37.4512 24.4069 36.8442C22.7491 35.1096 21.0934 33.2152 19.5484 31.2208C16.8162 27.6936 14.7564 24.2756 13.5814 21.087C12.8637 19.1395 12.5 17.3341 12.5 15.6771C12.5 7.05208 18.5432 1 26.5 1C34.4568 1 40.5 7.05208 40.5 15.6771C40.5 17.3341 40.1364 19.1395 39.4186 21.087C38.2436 24.2756 36.1838 27.6936 33.4516 31.2208C31.9066 33.2152 30.251 35.1096 28.593 36.8442C28.0128 37.4512 27.4746 37.994 26.9922 38.4648C26.7818 38.6702 26.6162 38.8288 26.5 38.9384Z" fill="#05471C" stroke="#05471C" stroke-width="2"/>
<path d="M26.5 26C32.5751 26 37.5 21.0751 37.5 15C37.5 8.92487 32.5751 4 26.5 4C20.4249 4 15.5 8.92487 15.5 15C15.5 21.0751 20.4249 26 26.5 26Z" fill="white"/>
<path d="M23.321 19.6V10.8727H26.7642C27.4233 10.8727 27.9858 10.9906 28.4517 11.2264C28.9205 11.4594 29.277 11.7903 29.5213 12.2193C29.7685 12.6454 29.892 13.1469 29.892 13.7236C29.892 14.3031 29.767 14.8017 29.517 15.2193C29.267 15.6341 28.9048 15.9522 28.4304 16.1738C27.9588 16.3954 27.3878 16.5062 26.7173 16.5062H24.4119V15.0233H26.419C26.7713 15.0233 27.0639 14.975 27.2969 14.8784C27.5298 14.7818 27.7031 14.6369 27.8168 14.4437C27.9332 14.2505 27.9915 14.0105 27.9915 13.7236C27.9915 13.4338 27.9332 13.1895 27.8168 12.9906C27.7031 12.7917 27.5284 12.6412 27.2926 12.5389C27.0597 12.4338 26.7656 12.3812 26.4105 12.3812H25.1662V19.6H23.321ZM28.0341 15.6284L30.2031 19.6H28.1662L26.044 15.6284H28.0341Z" fill="#05471C"/>
</g>
<defs>
<clipPath id="clip0_1_408">
<rect width="55" height="40" fill="white"/>
</clipPath>
</defs>
</svg>
