<svg width="80" height="62.3" viewBox="0 0 20 20" fill="none" xmlns="http://www.w3.org/2000/svg">
<path d="M10 18.8365C9.94754 18.7875 9.87729 18.7211 9.79072 18.6379C9.56598 18.422 9.31513 18.173 9.0446 17.8944C8.27172 17.0984 7.49996 16.2291 6.77993 15.3141C5.50631 13.6957 4.54787 12.1294 4.00168 10.6704C3.66816 9.77948 3.5 8.95578 3.5 8.20166C3.5 4.26818 6.29899 1.5 10 1.5C13.701 1.5 16.5 4.26818 16.5 8.20166C16.5 8.95578 16.3318 9.77948 15.9983 10.6704C15.4521 12.1294 14.4937 13.6957 13.2201 15.3141C12.5 16.2291 11.7283 17.0984 10.9554 17.8944C10.6849 18.173 10.434 18.422 10.2093 18.6379C10.1227 18.7211 10.0525 18.7875 10 18.8365Z" fill="#05471C" stroke="#05471C"/>
<path d="M10 13C7.23858 13 5 10.7614 5 8C5 5.23858 7.23858 3 10 3C12.7614 3 15 5.23858 15 8C15 10.7614 12.7614 13 10 13Z" fill="white"/>
<path d="M10.0777 10C9.6469 10 9.27607 9.91929 8.96524 9.75788C8.65621 9.59479 8.41809 9.36444 8.25085 9.06683C8.08362 8.76755 8 8.41362 8 8.00504C8 7.60656 8.08362 7.25683 8.25085 6.95586C8.41809 6.6549 8.65349 6.42034 8.95706 6.25221C9.26244 6.08407 9.62054 6 10.0314 6C10.3077 6 10.5649 6.04119 10.803 6.12358C11.0429 6.20429 11.252 6.32619 11.4301 6.48928C11.6101 6.65237 11.7501 6.8575 11.85 7.10467C11.95 7.35015 12 7.63766 12 7.96721V8.2623H8.46353V7.59647H10.9066C10.9066 7.44178 10.8703 7.30475 10.7975 7.18537C10.7248 7.06599 10.6239 6.97268 10.4949 6.90542C10.3676 6.83649 10.2195 6.80202 10.0504 6.80202C9.87412 6.80202 9.71779 6.83985 9.58146 6.91551C9.44694 6.98949 9.34151 7.08953 9.26517 7.21564C9.18882 7.34006 9.14974 7.47877 9.14792 7.63178V8.26482C9.14792 8.45649 9.18609 8.62211 9.26244 8.76166C9.3406 8.90122 9.45058 9.00883 9.59237 9.08449C9.73415 9.16015 9.90229 9.19798 10.0968 9.19798C10.2259 9.19798 10.344 9.18117 10.4513 9.14754C10.5585 9.11391 10.6503 9.06347 10.7267 8.99622C10.803 8.92896 10.8612 8.84657 10.9012 8.74905L11.9755 8.81463C11.9209 9.05338 11.8091 9.26188 11.6401 9.4401C11.4728 9.61665 11.2565 9.75452 10.9911 9.85372C10.7276 9.95124 10.4231 10 10.0777 10Z" fill="#05471C"/>
</svg>
