<svg width="40" height="26" viewBox="0 0 40 26" fill="none" xmlns="http://www.w3.org/2000/svg">
<g clip-path="url(#clip0_1_568)">
<path d="M19.35 25.31C19.2744 25.2387 19.1668 25.1357 19.03 25.0021C18.7165 24.6961 18.3667 24.3433 17.9895 23.9488C16.9119 22.8213 15.8357 21.5899 14.8315 20.2935C13.0555 18.0009 11.7167 15.7792 10.9529 13.7066C10.4864 12.4407 10.25 11.2672 10.25 10.1901C10.25 4.58388 14.1781 0.650024 19.35 0.650024C24.5219 0.650024 28.45 4.58388 28.45 10.1901C28.45 11.2672 28.2137 12.4407 27.7471 13.7066C26.9833 15.7792 25.6445 18.0009 23.8685 20.2935C22.8643 21.5899 21.7881 22.8213 20.7104 23.9488C20.3333 24.3433 19.9835 24.6961 19.6699 25.0021C19.5332 25.1357 19.4255 25.2387 19.35 25.31Z" fill="#0B983C" stroke="#0B983C" stroke-width="1.3"/>
<path d="M19.35 16.9C23.2988 16.9 26.5 13.6988 26.5 9.74998C26.5 5.80114 23.2988 2.59998 19.35 2.59998C15.4012 2.59998 12.2 5.80114 12.2 9.74998C12.2 13.6988 15.4012 16.9 19.35 16.9Z" fill="white"/>
<path d="M19.7901 6.26728H20.9756V10.2227C20.9756 10.5883 20.8935 10.9059 20.7291 11.1755C20.5666 11.4451 20.3404 11.6529 20.0505 11.7987C19.7606 11.9446 19.4236 12.0176 19.0395 12.0176C18.6979 12.0176 18.3876 11.9575 18.1088 11.8375C17.8318 11.7156 17.6121 11.531 17.4496 11.2835C17.2871 11.0342 17.2067 10.7213 17.2086 10.3445H18.4024C18.4061 10.4941 18.4366 10.6225 18.4938 10.7296C18.5529 10.8348 18.6332 10.9161 18.7348 10.9733C18.8382 11.0287 18.9601 11.0564 19.1004 11.0564C19.2482 11.0564 19.3728 11.025 19.4744 10.9622C19.5778 10.8976 19.6563 10.8034 19.7098 10.6797C19.7634 10.556 19.7901 10.4036 19.7901 10.2227V6.26728Z" fill="#0B983C"/>
</g>
<defs>
<clipPath id="clip0_1_568">
<rect width="40" height="26" fill="white"/>
</clipPath>
</defs>
</svg>
