<svg width="55" height="40" viewBox="0 0 55 40" fill="none" xmlns="http://www.w3.org/2000/svg">
<g clip-path="url(#clip0_1_516)">
<path d="M26.5 38.9384C26.3838 38.8288 26.2181 38.6702 26.0077 38.4648C25.5254 37.994 24.9873 37.4512 24.4069 36.8442C22.7491 35.1096 21.0934 33.2152 19.5484 31.2208C16.8162 27.6936 14.7564 24.2756 13.5814 21.087C12.8637 19.1395 12.5 17.3341 12.5 15.6771C12.5 7.05208 18.5432 1 26.5 1C34.4568 1 40.5 7.05208 40.5 15.6771C40.5 17.3341 40.1364 19.1395 39.4186 21.087C38.2436 24.2756 36.1838 27.6936 33.4516 31.2208C31.9066 33.2152 30.251 35.1096 28.593 36.8442C28.0128 37.4512 27.4746 37.994 26.9922 38.4648C26.7818 38.6702 26.6162 38.8288 26.5 38.9384Z" fill="#05471C" stroke="#05471C" stroke-width="2"/>
<path d="M26.5 26C32.5751 26 37.5 21.0751 37.5 15C37.5 8.92487 32.5751 4 26.5 4C20.4249 4 15.5 8.92487 15.5 15C15.5 21.0751 20.4249 26 26.5 26Z" fill="white"/>
<path d="M21.2445 10.8727L23.0044 13.8471H23.0726L24.8411 10.8727H26.9249L24.2615 15.2363L26.9846 19.6H24.8624L23.0726 16.6213H23.0044L21.2147 19.6H19.101L21.8326 15.2363L19.1522 10.8727H21.2445ZM31.2672 19.7193C30.6309 19.7193 30.0641 19.6099 29.5669 19.3912C29.0726 19.1696 28.682 18.8656 28.3951 18.4792C28.111 18.09 27.9647 17.6412 27.9561 17.1326H29.8141C29.8255 17.3457 29.8951 17.5332 30.0229 17.6951C30.1536 17.8542 30.3269 17.9778 30.5428 18.0659C30.7587 18.154 31.0016 18.198 31.2715 18.198C31.5527 18.198 31.8013 18.1483 32.0172 18.0488C32.2331 17.9494 32.4022 17.8116 32.5243 17.6355C32.6465 17.4594 32.7076 17.2562 32.7076 17.0261C32.7076 16.7932 32.6422 16.5872 32.5115 16.4082C32.3837 16.2264 32.199 16.0844 31.9576 15.9821C31.7189 15.8798 31.4348 15.8287 31.1053 15.8287H30.2914V14.4736H31.1053C31.3837 14.4736 31.6294 14.4253 31.8425 14.3287C32.0584 14.2321 32.226 14.0986 32.3453 13.9281C32.4647 13.7548 32.5243 13.5531 32.5243 13.323C32.5243 13.1042 32.4718 12.9125 32.3667 12.7477C32.2644 12.5801 32.1195 12.4494 31.932 12.3557C31.7473 12.2619 31.5314 12.215 31.2843 12.215C31.0343 12.215 30.8056 12.2605 30.5982 12.3514C30.3908 12.4395 30.2246 12.5659 30.0996 12.7307C29.9746 12.8954 29.9078 13.0886 29.8993 13.3102H28.1309C28.1394 12.8074 28.2828 12.3642 28.5613 11.9807C28.8397 11.5971 29.2147 11.2974 29.6863 11.0815C30.1607 10.8628 30.6962 10.7534 31.2928 10.7534C31.8951 10.7534 32.4221 10.8628 32.8738 11.0815C33.3255 11.3003 33.6763 11.5957 33.9263 11.9679C34.1792 12.3372 34.3042 12.752 34.3013 13.2122C34.3042 13.7008 34.1522 14.1085 33.8453 14.4352C33.5414 14.7619 33.1451 14.9693 32.6564 15.0574V15.1255C33.2985 15.2079 33.7871 15.4309 34.1223 15.7946C34.4604 16.1554 34.628 16.6071 34.6252 17.1497C34.628 17.6469 34.4846 18.0886 34.1948 18.475C33.9078 18.8613 33.5115 19.1653 33.0059 19.3869C32.5002 19.6085 31.9206 19.7193 31.2672 19.7193Z" fill="#05471C"/>
</g>
<defs>
<clipPath id="clip0_1_516">
<rect width="55" height="40" fill="white"/>
</clipPath>
</defs>
</svg>
