<svg width="40" height="26" viewBox="0 0 21 20" fill="none" xmlns="http://www.w3.org/2000/svg">
  <path d="M10 19.4692C9.94188 19.4144 9.85905 19.3351 9.75385 19.2324C9.51272 18.997 9.24363 18.7256 8.95347 18.4221C8.12453 17.5548 7.29668 16.6076 6.52421 15.6104C5.15811 13.8468 4.1282 12.1378 3.54068 10.5435C3.18183 9.56975 3 8.66704 3 7.83854C3 3.52604 6.02161 0.5 10 0.5C13.9784 0.5 17 3.52604 17 7.83854C17 8.66704 16.8182 9.56975 16.4593 10.5435C15.8718 12.1378 14.8419 13.8468 13.4758 15.6104C12.7033 16.6076 11.8755 17.5548 11.0465 18.4221C10.7564 18.7256 10.4873 18.997 10.2461 19.2324C10.1409 19.3351 10.0581 19.4144 10 19.4692Z" fill="#0b983c" stroke="#0b983c"/>
    <circle cx="10" cy="7.5" r="5.5" fill="white"/>
 <text font-weight="800" x="10" y="8" font-size="6" text-anchor="middle" fill="#0b983c" font-family="Arial" dy=".3em">Y3</text>
</svg>

