<svg width="55" height="40" viewBox="0 0 55 40" fill="none" xmlns="http://www.w3.org/2000/svg">
<g clip-path="url(#clip0_1_388)">
<path d="M26.5 38.9384C26.3838 38.8288 26.2181 38.6702 26.0077 38.4648C25.5254 37.994 24.9873 37.4512 24.4069 36.8442C22.7491 35.1096 21.0934 33.2152 19.5484 31.2208C16.8162 27.6936 14.7564 24.2756 13.5814 21.087C12.8637 19.1395 12.5 17.3341 12.5 15.6771C12.5 7.05208 18.5432 1 26.5 1C34.4568 1 40.5 7.05208 40.5 15.6771C40.5 17.3341 40.1364 19.1395 39.4186 21.087C38.2436 24.2756 36.1838 27.6936 33.4516 31.2208C31.9066 33.2152 30.251 35.1096 28.593 36.8442C28.0128 37.4512 27.4746 37.994 26.9922 38.4648C26.7818 38.6702 26.6162 38.8288 26.5 38.9384Z" fill="#05471C" stroke="#05471C" stroke-width="2"/>
<path d="M26.5 26C32.5751 26 37.5 21.0751 37.5 15C37.5 8.92487 32.5751 4 26.5 4C20.4249 4 15.5 8.92487 15.5 15C15.5 21.0751 20.4249 26 26.5 26Z" fill="white"/>
<path d="M19.4187 19.6V10.8727H22.8619C23.5238 10.8727 24.0877 10.9991 24.5536 11.252C25.0195 11.502 25.3746 11.85 25.619 12.296C25.8661 12.7392 25.9897 13.2505 25.9897 13.8301C25.9897 14.4096 25.8647 14.921 25.6147 15.3642C25.3647 15.8074 25.0025 16.1525 24.5281 16.3997C24.0565 16.6469 23.4854 16.7704 22.815 16.7704H20.6204V15.2917H22.5167C22.8718 15.2917 23.1644 15.2307 23.3945 15.1085C23.6275 14.9835 23.8008 14.8116 23.9144 14.5929C24.0309 14.3713 24.0891 14.117 24.0891 13.8301C24.0891 13.5403 24.0309 13.2875 23.9144 13.0716C23.8008 12.8528 23.6275 12.6838 23.3945 12.5645C23.1616 12.4423 22.8661 12.3812 22.5082 12.3812H21.2638V19.6H19.4187ZM30.3629 19.7193C29.7266 19.7193 29.1598 19.6099 28.6626 19.3912C28.1683 19.1696 27.7777 18.8656 27.4908 18.4792C27.2067 18.09 27.0604 17.6412 27.0518 17.1326H28.9098C28.9212 17.3457 28.9908 17.5332 29.1186 17.6951C29.2493 17.8542 29.4226 17.9778 29.6385 18.0659C29.8544 18.154 30.0973 18.198 30.3672 18.198C30.6484 18.198 30.897 18.1483 31.1129 18.0488C31.3288 17.9494 31.4979 17.8116 31.62 17.6355C31.7422 17.4594 31.8033 17.2562 31.8033 17.0261C31.8033 16.7932 31.7379 16.5872 31.6072 16.4082C31.4794 16.2264 31.2947 16.0844 31.0533 15.9821C30.8146 15.8798 30.5305 15.8287 30.201 15.8287H29.3871V14.4736H30.201C30.4794 14.4736 30.7251 14.4253 30.9382 14.3287C31.1541 14.2321 31.3217 14.0986 31.4411 13.9281C31.5604 13.7548 31.62 13.5531 31.62 13.323C31.62 13.1042 31.5675 12.9125 31.4624 12.7477C31.3601 12.5801 31.2152 12.4494 31.0277 12.3557C30.843 12.2619 30.6271 12.215 30.38 12.215C30.13 12.215 29.9013 12.2605 29.6939 12.3514C29.4865 12.4395 29.3203 12.5659 29.1953 12.7307C29.0703 12.8954 29.0036 13.0886 28.995 13.3102H27.2266C27.2351 12.8074 27.3786 12.3642 27.657 11.9807C27.9354 11.5971 28.3104 11.2974 28.782 11.0815C29.2564 10.8628 29.7919 10.7534 30.3885 10.7534C30.9908 10.7534 31.5178 10.8628 31.9695 11.0815C32.4212 11.3003 32.772 11.5957 33.022 11.9679C33.2749 12.3372 33.3999 12.752 33.397 13.2122C33.3999 13.7008 33.2479 14.1085 32.9411 14.4352C32.6371 14.7619 32.2408 14.9693 31.7521 15.0574V15.1255C32.3942 15.2079 32.8828 15.4309 33.218 15.7946C33.5561 16.1554 33.7237 16.6071 33.7209 17.1497C33.7237 17.6469 33.5803 18.0886 33.2905 18.475C33.0036 18.8613 32.6072 19.1653 32.1016 19.3869C31.5959 19.6085 31.0163 19.7193 30.3629 19.7193Z" fill="#05471C"/>
</g>
<defs>
<clipPath id="clip0_1_388">
<rect width="55" height="40" fill="white"/>
</clipPath>
</defs>
</svg>
