<svg width="40" height="26" viewBox="0 0 20 20" fill="none" xmlns="http://www.w3.org/2000/svg">
<path d="M9.5 19.4692C9.44188 19.4144 9.35905 19.3351 9.25385 19.2324C9.01272 18.997 8.74363 18.7256 8.45347 18.4221C7.62453 17.5548 6.79668 16.6076 6.02421 15.6104C4.65811 13.8468 3.6282 12.1378 3.04068 10.5435C2.68183 9.56975 2.5 8.66704 2.5 7.83854C2.5 3.52604 5.52161 0.5 9.5 0.5C13.4784 0.5 16.5 3.52604 16.5 7.83854C16.5 8.66704 16.3182 9.56975 15.9593 10.5435C15.3718 12.1378 14.3419 13.8468 12.9758 15.6104C12.2033 16.6076 11.3755 17.5548 10.5465 18.4221C10.2564 18.7256 9.98728 18.997 9.74615 19.2324C9.64095 19.3351 9.55812 19.4144 9.5 19.4692Z" fill="#0b983c" stroke="#0b983c"/>
<path d="M9.5 13C6.46243 13 4 10.5376 4 7.5C4 4.46243 6.46243 2 9.5 2C12.5376 2 15 4.46243 15 7.5C15 10.5376 12.5376 13 9.5 13Z" fill="white"/>
<path d="M9.21023 11H6.6321V3.72727H9.23153C9.96307 3.72727 10.5928 3.87287 11.1207 4.16406C11.6487 4.45289 12.0547 4.86837 12.3388 5.41051C12.6252 5.95265 12.7685 6.60133 12.7685 7.35653C12.7685 8.11411 12.6252 8.76515 12.3388 9.30966C12.0547 9.85417 11.6463 10.272 11.1136 10.5632C10.5833 10.8544 9.94886 11 9.21023 11ZM8.16974 9.68253H9.14631C9.60085 9.68253 9.98319 9.60204 10.2933 9.44105C10.6058 9.2777 10.8402 9.02557 10.9964 8.68466C11.1551 8.34138 11.2344 7.89867 11.2344 7.35653C11.2344 6.81913 11.1551 6.37997 10.9964 6.03906C10.8402 5.69815 10.607 5.44721 10.2969 5.28622C9.98674 5.12524 9.6044 5.04474 9.14986 5.04474H8.16974V9.68253Z" fill="#0b983c"/>
</svg>
