<svg width="55" height="40" viewBox="0 0 55 40" fill="none" xmlns="http://www.w3.org/2000/svg">
<g clip-path="url(#clip0_1_256)">
<path d="M26.5 38.9384C26.3838 38.8288 26.2181 38.6702 26.0077 38.4648C25.5254 37.994 24.9873 37.4512 24.4069 36.8442C22.7491 35.1096 21.0934 33.2152 19.5484 31.2208C16.8162 27.6936 14.7564 24.2756 13.5814 21.087C12.8637 19.1395 12.5 17.3341 12.5 15.6771C12.5 7.05208 18.5432 1 26.5 1C34.4568 1 40.5 7.05208 40.5 15.6771C40.5 17.3341 40.1364 19.1395 39.4186 21.087C38.2436 24.2756 36.1838 27.6936 33.4516 31.2208C31.9066 33.2152 30.251 35.1096 28.593 36.8442C28.0128 37.4512 27.4746 37.994 26.9922 38.4648C26.7818 38.6702 26.6162 38.8288 26.5 38.9384Z" fill="#05471C" stroke="#05471C" stroke-width="2"/>
<path d="M26.5 26C32.5751 26 37.5 21.0751 37.5 15C37.5 8.92487 32.5751 4 26.5 4C20.4249 4 15.5 8.92487 15.5 15C15.5 21.0751 20.4249 26 26.5 26Z" fill="white"/>
<path d="M19.5027 19.6V10.8727H21.3478V14.4736H25.0936V10.8727H26.9345V19.6H25.0936V15.9949H21.3478V19.6H19.5027ZM28.4047 19.6V18.2704L31.5112 15.394C31.7754 15.1383 31.997 14.9082 32.176 14.7037C32.3578 14.4991 32.4956 14.2988 32.5893 14.1028C32.6831 13.904 32.7299 13.6895 32.7299 13.4594C32.7299 13.2037 32.6717 12.9835 32.5552 12.7988C32.4387 12.6113 32.2797 12.4679 32.0779 12.3684C31.8762 12.2662 31.6475 12.215 31.3919 12.215C31.1248 12.215 30.8919 12.269 30.693 12.377C30.4941 12.4849 30.3407 12.6397 30.2328 12.8415C30.1248 13.0432 30.0708 13.2832 30.0708 13.5616H28.3194C28.3194 12.9906 28.4487 12.4949 28.7072 12.0744C28.9657 11.654 29.3279 11.3287 29.7939 11.0986C30.2598 10.8684 30.7967 10.7534 31.4047 10.7534C32.0297 10.7534 32.5737 10.8642 33.0368 11.0858C33.5027 11.3045 33.8649 11.6085 34.1234 11.9977C34.3819 12.3869 34.5112 12.8329 34.5112 13.3358C34.5112 13.6653 34.4458 13.9906 34.3152 14.3116C34.1873 14.6326 33.9586 14.9892 33.6291 15.3812C33.2995 15.7704 32.835 16.2378 32.2356 16.7832L30.9615 18.0318V18.0915H34.6262V19.6H28.4047Z" fill="#05471C"/>
</g>
<defs>
<clipPath id="clip0_1_256">
<rect width="55" height="40" fill="white"/>
</clipPath>
</defs>
</svg>
