<svg width="40" height="26" viewBox="0 0 40 26" fill="none" xmlns="http://www.w3.org/2000/svg">
<g clip-path="url(#clip0_1_772)">
<path d="M19.35 25.31C19.2744 25.2387 19.1668 25.1356 19.03 25.0021C18.7165 24.6961 18.3667 24.3433 17.9895 23.9487C16.9119 22.8212 15.8357 21.5899 14.8315 20.2935C13.0555 18.0008 11.7167 15.7791 10.9529 13.7065C10.4864 12.4407 10.25 11.2671 10.25 10.1901C10.25 4.58385 14.1781 0.649994 19.35 0.649994C24.5219 0.649994 28.45 4.58385 28.45 10.1901C28.45 11.2671 28.2137 12.4407 27.7471 13.7065C26.9833 15.7791 25.6445 18.0008 23.8685 20.2935C22.8643 21.5899 21.7881 22.8212 20.7104 23.9487C20.3333 24.3433 19.9835 24.6961 19.6699 25.0021C19.5332 25.1356 19.4255 25.2387 19.35 25.31Z" fill="#0B983C" stroke="#0B983C" stroke-width="1.3"/>
<path d="M19.35 16.9C23.2988 16.9 26.5 13.6988 26.5 9.75001C26.5 5.80117 23.2988 2.60001 19.35 2.60001C15.4012 2.60001 12.2 5.80117 12.2 9.75001C12.2 13.6988 15.4012 16.9 19.35 16.9Z" fill="white"/>
<path d="M15.0297 6.26728L16.4008 10.5772H16.4534L17.8273 6.26728H19.1568L17.2013 11.94H15.6557L13.6974 6.26728H15.0297ZM21.9032 12.0176C21.4896 12.0176 21.1212 11.9465 20.798 11.8043C20.4767 11.6602 20.2228 11.4627 20.0363 11.2115C19.8516 10.9585 19.7565 10.6668 19.751 10.3362H20.9587C20.966 10.4747 21.0113 10.5966 21.0944 10.7019C21.1793 10.8053 21.292 10.8856 21.4323 10.9428C21.5726 11.0001 21.7305 11.0287 21.906 11.0287C22.0888 11.0287 22.2503 10.9964 22.3907 10.9318C22.531 10.8671 22.6409 10.7776 22.7203 10.6631C22.7997 10.5486 22.8394 10.4166 22.8394 10.267C22.8394 10.1156 22.7969 9.98169 22.712 9.86536C22.6289 9.74718 22.5089 9.65485 22.3519 9.58837C22.1968 9.52189 22.0121 9.48865 21.7979 9.48865H21.2689V8.60783H21.7979C21.9789 8.60783 22.1386 8.57644 22.2771 8.51365C22.4175 8.45087 22.5264 8.36408 22.604 8.25328C22.6815 8.14064 22.7203 8.00953 22.7203 7.85996C22.7203 7.71777 22.6861 7.59313 22.6178 7.48603C22.5513 7.37708 22.4572 7.29213 22.3353 7.2312C22.2153 7.17026 22.0749 7.13979 21.9143 7.13979C21.7518 7.13979 21.6031 7.16933 21.4683 7.22843C21.3335 7.28567 21.2255 7.36784 21.1442 7.47495C21.063 7.58205 21.0196 7.70762 21.0141 7.85165H19.8646C19.8701 7.5248 19.9633 7.23674 20.1443 6.98745C20.3253 6.73816 20.569 6.54334 20.8756 6.403C21.1839 6.26081 21.532 6.18972 21.9198 6.18972C22.3113 6.18972 22.6538 6.26081 22.9474 6.403C23.241 6.54519 23.4691 6.73723 23.6316 6.97914C23.7959 7.21919 23.8772 7.4888 23.8753 7.78794C23.8772 8.10556 23.7784 8.37054 23.579 8.5829C23.3814 8.79526 23.1238 8.93006 22.8062 8.9873V9.03162C23.2235 9.08517 23.5411 9.23013 23.759 9.46649C23.9788 9.70101 24.0877 9.99462 24.0859 10.3473C24.0877 10.6705 23.9945 10.9576 23.8061 11.2088C23.6196 11.4599 23.362 11.6575 23.0333 11.8015C22.7046 11.9455 22.3279 12.0176 21.9032 12.0176Z" fill="#0B983C"/>
</g>
<defs>
<clipPath id="clip0_1_772">
<rect width="40" height="26" fill="white"/>
</clipPath>
</defs>
</svg>
