<svg width="40" height="26" viewBox="0 0 40 26" fill="none" xmlns="http://www.w3.org/2000/svg">
<g clip-path="url(#clip0_1_14)">
<path d="M19.35 25.31C19.2744 25.2387 19.1668 25.1357 19.03 25.0021C18.7165 24.6961 18.3667 24.3433 17.9895 23.9488C16.9119 22.8213 15.8357 21.5899 14.8315 20.2935C13.0555 18.0009 11.7167 15.7792 10.9529 13.7066C10.4864 12.4407 10.25 11.2672 10.25 10.1901C10.25 4.58388 14.1781 0.650024 19.35 0.650024C24.5219 0.650024 28.45 4.58388 28.45 10.1901C28.45 11.2672 28.2137 12.4407 27.7471 13.7066C26.9833 15.7792 25.6445 18.0009 23.8685 20.2935C22.8643 21.5899 21.7881 22.8213 20.7104 23.9488C20.3333 24.3433 19.9835 24.6961 19.6699 25.0021C19.5332 25.1357 19.4255 25.2387 19.35 25.31Z" fill="#0B983C" stroke="#0B983C" stroke-width="1.3"/>
<path d="M19.35 16.9C23.2988 16.9 26.5 13.6988 26.5 9.74998C26.5 5.80114 23.2988 2.59998 19.35 2.59998C15.4011 2.59998 12.2 5.80114 12.2 9.74998C12.2 13.6988 15.4011 16.9 19.35 16.9Z" fill="white"/>
<path d="M14.9826 11.9399H13.6974L15.6557 6.26721H17.2013L19.1568 11.9399H17.8716L16.4507 7.56352H16.4063L14.9826 11.9399ZM14.9023 9.71018H17.9381V10.6464H14.9023V9.71018ZM21.9032 12.0175C21.4896 12.0175 21.1212 11.9464 20.798 11.8042C20.4767 11.6602 20.2228 11.4626 20.0363 11.2115C19.8516 10.9585 19.7565 10.6667 19.751 10.3362H20.9587C20.966 10.4747 21.0113 10.5965 21.0944 10.7018C21.1793 10.8052 21.292 10.8855 21.4323 10.9428C21.5726 11 21.7305 11.0286 21.906 11.0286C22.0888 11.0286 22.2503 10.9963 22.3907 10.9317C22.531 10.8671 22.6409 10.7775 22.7203 10.663C22.7997 10.5485 22.8394 10.4165 22.8394 10.2669C22.8394 10.1155 22.7969 9.98163 22.712 9.8653C22.6289 9.74711 22.5089 9.65479 22.3519 9.58831C22.1968 9.52183 22.0121 9.48859 21.7979 9.48859H21.2689V8.60777H21.7979C21.9789 8.60777 22.1386 8.57638 22.2771 8.51359C22.4175 8.45081 22.5264 8.36402 22.604 8.25322C22.6815 8.14058 22.7203 8.00947 22.7203 7.8599C22.7203 7.71771 22.6861 7.59307 22.6178 7.48596C22.5513 7.37702 22.4572 7.29207 22.3353 7.23113C22.2153 7.1702 22.0749 7.13973 21.9143 7.13973C21.7518 7.13973 21.6031 7.16927 21.4683 7.22836C21.3335 7.28561 21.2255 7.36778 21.1442 7.47488C21.063 7.58199 21.0196 7.70755 21.0141 7.85159H19.8646C19.8701 7.52474 19.9633 7.23667 20.1443 6.98738C20.3253 6.73809 20.569 6.54328 20.8756 6.40294C21.1839 6.26075 21.532 6.18966 21.9198 6.18966C22.3113 6.18966 22.6538 6.26075 22.9474 6.40294C23.241 6.54513 23.4691 6.73717 23.6316 6.97907C23.7959 7.21913 23.8772 7.48873 23.8753 7.78788C23.8772 8.1055 23.7784 8.37048 23.579 8.58284C23.3814 8.7952 23.1238 8.93 22.8062 8.98724V9.03156C23.2235 9.08511 23.5411 9.23007 23.759 9.46643C23.9788 9.70095 24.0877 9.99456 24.0859 10.3473C24.0877 10.6704 23.9945 10.9576 23.8061 11.2087C23.6196 11.4598 23.362 11.6574 23.0333 11.8014C22.7046 11.9455 22.3279 12.0175 21.9032 12.0175Z" fill="#0B983C"/>
</g>
<defs>
<clipPath id="clip0_1_14">
<rect width="40" height="26" fill="white"/>
</clipPath>
</defs>
</svg>
