<svg width="55" height="40" viewBox="0 0 55 40" fill="none" xmlns="http://www.w3.org/2000/svg">
<g clip-path="url(#clip0_1_432)">
<path d="M26.5 38.9384C26.3838 38.8288 26.2181 38.6702 26.0077 38.4648C25.5254 37.994 24.9873 37.4512 24.4069 36.8442C22.7491 35.1096 21.0934 33.2152 19.5484 31.2208C16.8162 27.6936 14.7564 24.2756 13.5814 21.087C12.8637 19.1395 12.5 17.3341 12.5 15.6771C12.5 7.05208 18.5432 1 26.5 1C34.4568 1 40.5 7.05208 40.5 15.6771C40.5 17.3341 40.1364 19.1395 39.4186 21.087C38.2436 24.2756 36.1838 27.6936 33.4516 31.2208C31.9066 33.2152 30.251 35.1096 28.593 36.8442C28.0128 37.4512 27.4746 37.994 26.9922 38.4648C26.7818 38.6702 26.6162 38.8288 26.5 38.9384Z" fill="#05471C" stroke="#05471C" stroke-width="2"/>
<path d="M26.5 26C32.5751 26 37.5 21.0751 37.5 15C37.5 8.92487 32.5751 4 26.5 4C20.4249 4 15.5 8.92487 15.5 15C15.5 21.0751 20.4249 26 26.5 26Z" fill="white"/>
<path d="M24.282 13.3826C24.2479 13.0389 24.1016 12.7719 23.843 12.5815C23.5845 12.3912 23.2337 12.296 22.7905 12.296C22.4893 12.296 22.2351 12.3386 22.0277 12.4238C21.8203 12.5062 21.6612 12.6213 21.5504 12.769C21.4425 12.9167 21.3885 13.0844 21.3885 13.2719C21.3828 13.4281 21.4155 13.5645 21.4865 13.6809C21.5604 13.7974 21.6612 13.8983 21.7891 13.9835C21.9169 14.0659 22.0646 14.1383 22.2322 14.2008C22.3999 14.2605 22.5788 14.3116 22.7692 14.3542L23.5533 14.5417C23.9339 14.627 24.2834 14.7406 24.6016 14.8826C24.9197 15.0247 25.1953 15.1994 25.4283 15.4068C25.6612 15.6142 25.8416 15.8585 25.9695 16.1397C26.1001 16.421 26.1669 16.7434 26.1697 17.1071C26.1669 17.6412 26.0305 18.1042 25.7607 18.4963C25.4936 18.8855 25.1072 19.188 24.6016 19.404C24.0987 19.617 23.4922 19.7236 22.782 19.7236C22.0774 19.7236 21.4638 19.6156 20.9411 19.3997C20.4212 19.1838 20.0149 18.8642 19.7223 18.4409C19.4325 18.0147 19.2805 17.4878 19.2663 16.8599H21.0518C21.0717 17.1525 21.1555 17.3969 21.3033 17.5929C21.4538 17.7861 21.6541 17.9324 21.9041 18.0318C22.157 18.1284 22.4425 18.1767 22.7607 18.1767C23.0732 18.1767 23.3445 18.1312 23.5746 18.0403C23.8075 17.9494 23.9879 17.823 24.1158 17.6611C24.2436 17.4991 24.3075 17.313 24.3075 17.1028C24.3075 16.9068 24.2493 16.742 24.1328 16.6085C24.0192 16.475 23.8516 16.3613 23.63 16.2676C23.4112 16.1738 23.1428 16.0886 22.8246 16.0119L21.8743 15.7733C21.1385 15.5943 20.5575 15.3145 20.1314 14.9338C19.7053 14.5531 19.4936 14.0403 19.4964 13.3954C19.4936 12.867 19.6342 12.4054 19.9183 12.0105C20.2053 11.6156 20.5987 11.3074 21.0987 11.0858C21.5987 10.8642 22.1669 10.7534 22.8033 10.7534C23.451 10.7534 24.0163 10.8642 24.4993 11.0858C24.9851 11.3074 25.3629 11.6156 25.6328 12.0105C25.9027 12.4054 26.0419 12.8628 26.0504 13.3826H24.282ZM27.3597 19.6V18.2704L30.4663 15.394C30.7305 15.1383 30.9521 14.9082 31.131 14.7037C31.3129 14.4991 31.4506 14.2988 31.5444 14.1028C31.6381 13.904 31.685 13.6895 31.685 13.4594C31.685 13.2037 31.6268 12.9835 31.5103 12.7988C31.3938 12.6113 31.2347 12.4679 31.033 12.3684C30.8313 12.2662 30.6026 12.215 30.3469 12.215C30.0799 12.215 29.8469 12.269 29.6481 12.377C29.4492 12.4849 29.2958 12.6397 29.1879 12.8415C29.0799 13.0432 29.0259 13.2832 29.0259 13.5616H27.2745C27.2745 12.9906 27.4038 12.4949 27.6623 12.0744C27.9208 11.654 28.283 11.3287 28.7489 11.0986C29.2148 10.8684 29.7518 10.7534 30.3597 10.7534C30.9847 10.7534 31.5288 10.8642 31.9918 11.0858C32.4577 11.3045 32.82 11.6085 33.0785 11.9977C33.337 12.3869 33.4663 12.8329 33.4663 13.3358C33.4663 13.6653 33.4009 13.9906 33.2702 14.3116C33.1424 14.6326 32.9137 14.9892 32.5842 15.3812C32.2546 15.7704 31.7901 16.2378 31.1907 16.7832L29.9165 18.0318V18.0915H33.5813V19.6H27.3597Z" fill="#05471C"/>
</g>
<defs>
<clipPath id="clip0_1_432">
<rect width="55" height="40" fill="white"/>
</clipPath>
</defs>
</svg>
