<svg width="40" height="26" viewBox="0 0 40 26" fill="none" xmlns="http://www.w3.org/2000/svg">
<g clip-path="url(#clip0_1_740)">
<path d="M19.35 25.31C19.2744 25.2387 19.1668 25.1356 19.03 25.0021C18.7165 24.6961 18.3667 24.3433 17.9895 23.9487C16.9119 22.8212 15.8357 21.5899 14.8315 20.2935C13.0555 18.0008 11.7167 15.7791 10.9529 13.7065C10.4864 12.4407 10.25 11.2671 10.25 10.1901C10.25 4.58385 14.1781 0.649994 19.35 0.649994C24.5219 0.649994 28.45 4.58385 28.45 10.1901C28.45 11.2671 28.2137 12.4407 27.7471 13.7065C26.9833 15.7791 25.6445 18.0008 23.8685 20.2935C22.8643 21.5899 21.7881 22.8212 20.7104 23.9487C20.3333 24.3433 19.9835 24.6961 19.6699 25.0021C19.5332 25.1356 19.4255 25.2387 19.35 25.31Z" fill="#0B983C" stroke="#0B983C" stroke-width="1.3"/>
<path d="M19.35 16.9C23.2988 16.9 26.5 13.6988 26.5 9.75001C26.5 5.80117 23.2988 2.60001 19.35 2.60001C15.4011 2.60001 12.2 5.80117 12.2 9.75001C12.2 13.6988 15.4011 16.9 19.35 16.9Z" fill="white"/>
<path d="M14.7511 7.25612V6.26728H19.4101V7.25612H17.6734V11.94H16.4879V7.25612H14.7511ZM22.2409 12.0176C21.8273 12.0176 21.4589 11.9465 21.1357 11.8043C20.8144 11.6602 20.5605 11.4627 20.374 11.2115C20.1893 10.9585 20.0942 10.6668 20.0887 10.3362H21.2964C21.3038 10.4747 21.349 10.5966 21.4321 10.7019C21.517 10.8053 21.6297 10.8856 21.77 10.9428C21.9104 11.0001 22.0683 11.0287 22.2437 11.0287C22.4265 11.0287 22.5881 10.9964 22.7284 10.9318C22.8687 10.8671 22.9786 10.7776 23.058 10.6631C23.1374 10.5486 23.1771 10.4166 23.1771 10.267C23.1771 10.1156 23.1347 9.98169 23.0497 9.86536C22.9666 9.74718 22.8466 9.65485 22.6896 9.58837C22.5345 9.52189 22.3499 9.48865 22.1357 9.48865H21.6066V8.60783H22.1357C22.3166 8.60783 22.4763 8.57644 22.6148 8.51365C22.7552 8.45087 22.8641 8.36408 22.9417 8.25328C23.0192 8.14064 23.058 8.00953 23.058 7.85996C23.058 7.71777 23.0239 7.59313 22.9555 7.48603C22.8891 7.37708 22.7949 7.29213 22.673 7.2312C22.553 7.17026 22.4126 7.13979 22.252 7.13979C22.0895 7.13979 21.9408 7.16933 21.806 7.22843C21.6712 7.28567 21.5632 7.36784 21.482 7.47495C21.4007 7.58205 21.3573 7.70762 21.3518 7.85165H20.2023C20.2078 7.5248 20.3011 7.23674 20.482 6.98745C20.663 6.73816 20.9067 6.54334 21.2133 6.403C21.5217 6.26081 21.8697 6.18972 22.2575 6.18972C22.649 6.18972 22.9915 6.26081 23.2852 6.403C23.5788 6.54519 23.8068 6.73723 23.9693 6.97914C24.1337 7.21919 24.2149 7.4888 24.2131 7.78794C24.2149 8.10556 24.1161 8.37054 23.9167 8.5829C23.7191 8.79526 23.4615 8.93006 23.1439 8.9873V9.03162C23.5612 9.08517 23.8788 9.23013 24.0967 9.46649C24.3165 9.70101 24.4254 9.99462 24.4236 10.3473C24.4254 10.6705 24.3322 10.9576 24.1438 11.2088C23.9573 11.4599 23.6997 11.6575 23.371 11.8015C23.0423 11.9455 22.6656 12.0176 22.2409 12.0176Z" fill="#0B983C"/>
</g>
<defs>
<clipPath id="clip0_1_740">
<rect width="40" height="26" fill="white"/>
</clipPath>
</defs>
</svg>
