<svg width="40" height="26" viewBox="0 0 40 26" fill="none" xmlns="http://www.w3.org/2000/svg">
<g clip-path="url(#clip0_1_736)">
<path d="M19.35 25.31C19.2744 25.2387 19.1668 25.1356 19.03 25.0021C18.7165 24.6961 18.3667 24.3433 17.9895 23.9487C16.9119 22.8212 15.8357 21.5899 14.8315 20.2935C13.0555 18.0008 11.7167 15.7791 10.9529 13.7065C10.4864 12.4407 10.25 11.2671 10.25 10.1901C10.25 4.58385 14.1781 0.649994 19.35 0.649994C24.5219 0.649994 28.45 4.58385 28.45 10.1901C28.45 11.2671 28.2137 12.4407 27.7471 13.7065C26.9833 15.7791 25.6445 18.0008 23.8685 20.2935C22.8643 21.5899 21.7881 22.8212 20.7104 23.9487C20.3333 24.3433 19.9835 24.6961 19.6699 25.0021C19.5332 25.1356 19.4255 25.2387 19.35 25.31Z" fill="#0B983C" stroke="#0B983C" stroke-width="1.3"/>
<path d="M19.35 16.9C23.2988 16.9 26.5 13.6988 26.5 9.75001C26.5 5.80117 23.2988 2.60001 19.35 2.60001C15.4011 2.60001 12.2 5.80117 12.2 9.75001C12.2 13.6988 15.4011 16.9 19.35 16.9Z" fill="white"/>
<path d="M14.8654 7.25612V6.26728H19.5243V7.25612H17.7876V11.94H16.6021V7.25612H14.8654ZM20.2584 11.94V11.0758L22.2776 9.20612C22.4493 9.03993 22.5934 8.89036 22.7097 8.7574C22.8279 8.62445 22.9175 8.49426 22.9784 8.36685C23.0393 8.23759 23.0698 8.09817 23.0698 7.9486C23.0698 7.7824 23.0319 7.63929 22.9562 7.51926C22.8805 7.39739 22.7771 7.30414 22.646 7.23951C22.5149 7.17303 22.3662 7.13979 22.2001 7.13979C22.0265 7.13979 21.8751 7.17487 21.7458 7.24505C21.6165 7.31522 21.5168 7.41585 21.4466 7.54696C21.3765 7.67807 21.3414 7.83411 21.3414 8.01507H20.203C20.203 7.64391 20.287 7.32168 20.455 7.04838C20.6231 6.77509 20.8585 6.56365 21.1613 6.41408C21.4642 6.26451 21.8132 6.18972 22.2084 6.18972C22.6146 6.18972 22.9682 6.26174 23.2692 6.40577C23.5721 6.54796 23.8075 6.74554 23.9755 6.99853C24.1436 7.25151 24.2276 7.54142 24.2276 7.86827C24.2276 8.08247 24.1851 8.29391 24.1002 8.50257C24.0171 8.71124 23.8684 8.94299 23.6542 9.19782C23.44 9.4508 23.1381 9.75456 22.7485 10.1091L21.9203 10.9207V10.9595H24.3024V11.94H20.2584Z" fill="#0B983C"/>
</g>
<defs>
<clipPath id="clip0_1_736">
<rect width="40" height="26" fill="white"/>
</clipPath>
</defs>
</svg>
