<svg width="40" height="26" viewBox="0 0 40 26" fill="none" xmlns="http://www.w3.org/2000/svg">
<g clip-path="url(#clip0_1_820)">
<path d="M19.35 25.31C19.2744 25.2387 19.1668 25.1356 19.03 25.0021C18.7165 24.6961 18.3667 24.3433 17.9895 23.9487C16.9119 22.8212 15.8357 21.5899 14.8315 20.2935C13.0555 18.0008 11.7167 15.7791 10.9529 13.7065C10.4864 12.4407 10.25 11.2671 10.25 10.1901C10.25 4.58385 14.1781 0.649994 19.35 0.649994C24.5219 0.649994 28.45 4.58385 28.45 10.1901C28.45 11.2671 28.2137 12.4407 27.7471 13.7065C26.9833 15.7791 25.6445 18.0008 23.8685 20.2935C22.8643 21.5899 21.7881 22.8212 20.7104 23.9487C20.3333 24.3433 19.9835 24.6961 19.6699 25.0021C19.5332 25.1356 19.4255 25.2387 19.35 25.31Z" fill="#0B983C" stroke="#0B983C" stroke-width="1.3"/>
<path d="M19.35 16.9C23.2988 16.9 26.5 13.6988 26.5 9.75001C26.5 5.80117 23.2988 2.60001 19.35 2.60001C15.4012 2.60001 12.2 5.80117 12.2 9.75001C12.2 13.6988 15.4012 16.9 19.35 16.9Z" fill="white"/>
<path d="M13.7639 6.26728H15.1073L16.4008 8.71032H16.4562L17.7497 6.26728H19.0931L17.024 9.9346V11.94H15.833V9.9346L13.7639 6.26728ZM21.8118 12.0176C21.3981 12.0176 21.0297 11.9465 20.7066 11.8043C20.3853 11.6602 20.1314 11.4627 19.9449 11.2115C19.7602 10.9585 19.6651 10.6668 19.6596 10.3362H20.8672C20.8746 10.4747 20.9199 10.5966 21.003 10.7019C21.0879 10.8053 21.2006 10.8856 21.3409 10.9428C21.4812 11.0001 21.6391 11.0287 21.8146 11.0287C21.9974 11.0287 22.1589 10.9964 22.2993 10.9318C22.4396 10.8671 22.5495 10.7776 22.6289 10.6631C22.7083 10.5486 22.748 10.4166 22.748 10.267C22.748 10.1156 22.7055 9.98169 22.6206 9.86536C22.5375 9.74718 22.4175 9.65485 22.2605 9.58837C22.1054 9.52189 21.9207 9.48865 21.7065 9.48865H21.1775V8.60783H21.7065C21.8875 8.60783 22.0472 8.57644 22.1857 8.51365C22.3261 8.45087 22.435 8.36408 22.5126 8.25328C22.5901 8.14064 22.6289 8.00953 22.6289 7.85996C22.6289 7.71777 22.5947 7.59313 22.5264 7.48603C22.4599 7.37708 22.3658 7.29213 22.2439 7.2312C22.1239 7.17026 21.9835 7.13979 21.8229 7.13979C21.6604 7.13979 21.5117 7.16933 21.3769 7.22843C21.2421 7.28567 21.1341 7.36784 21.0528 7.47495C20.9716 7.58205 20.9282 7.70762 20.9226 7.85165H19.7731C19.7787 7.5248 19.8719 7.23674 20.0529 6.98745C20.2339 6.73816 20.4776 6.54334 20.7842 6.403C21.0925 6.26081 21.4406 6.18972 21.8284 6.18972C22.2199 6.18972 22.5624 6.26081 22.856 6.403C23.1496 6.54519 23.3777 6.73723 23.5402 6.97914C23.7045 7.21919 23.7858 7.4888 23.7839 7.78794C23.7858 8.10556 23.687 8.37054 23.4876 8.5829C23.29 8.79526 23.0324 8.93006 22.7148 8.9873V9.03162C23.1321 9.08517 23.4497 9.23013 23.6676 9.46649C23.8873 9.70101 23.9963 9.99462 23.9945 10.3473C23.9963 10.6705 23.903 10.9576 23.7147 11.2088C23.5282 11.4599 23.2706 11.6575 22.9419 11.8015C22.6132 11.9455 22.2365 12.0176 21.8118 12.0176Z" fill="#0B983C"/>
</g>
<defs>
<clipPath id="clip0_1_820">
<rect width="40" height="26" fill="white"/>
</clipPath>
</defs>
</svg>
