<svg width="55" height="40" viewBox="0 0 55 40" fill="none" xmlns="http://www.w3.org/2000/svg">
<g clip-path="url(#clip0_1_304)">
<path d="M26.5 38.9384C26.3838 38.8288 26.2181 38.6702 26.0077 38.4648C25.5254 37.994 24.9873 37.4512 24.4069 36.8442C22.7491 35.1096 21.0934 33.2152 19.5484 31.2208C16.8162 27.6936 14.7564 24.2756 13.5814 21.087C12.8637 19.1395 12.5 17.3341 12.5 15.6771C12.5 7.05208 18.5432 1 26.5 1C34.4568 1 40.5 7.05208 40.5 15.6771C40.5 17.3341 40.1364 19.1395 39.4186 21.087C38.2436 24.2756 36.1838 27.6936 33.4516 31.2208C31.9066 33.2152 30.251 35.1096 28.593 36.8442C28.0128 37.4512 27.4746 37.994 26.9922 38.4648C26.7818 38.6702 26.6162 38.8288 26.5 38.9384Z" fill="#05471C" stroke="#05471C" stroke-width="2"/>
<path d="M26.5 26C32.5751 26 37.5 21.0751 37.5 15C37.5 8.92487 32.5751 4 26.5 4C20.4249 4 15.5 8.92487 15.5 15C15.5 21.0751 20.4249 26 26.5 26Z" fill="white"/>
<path d="M19.3425 19.6V10.8727H21.1877V14.7207H21.3027L24.4434 10.8727H26.655L23.4164 14.7804L26.6934 19.6H24.486L22.0953 16.0119L21.1877 17.1199V19.6H19.3425ZM27.5648 19.6V18.2704L30.6713 15.394C30.9355 15.1383 31.1571 14.9082 31.3361 14.7037C31.5179 14.4991 31.6557 14.2988 31.7495 14.1028C31.8432 13.904 31.8901 13.6895 31.8901 13.4594C31.8901 13.2037 31.8319 12.9835 31.7154 12.7988C31.5989 12.6113 31.4398 12.4679 31.2381 12.3684C31.0364 12.2662 30.8077 12.215 30.552 12.215C30.285 12.215 30.052 12.269 29.8532 12.377C29.6543 12.4849 29.5009 12.6397 29.3929 12.8415C29.285 13.0432 29.231 13.2832 29.231 13.5616H27.4796C27.4796 12.9906 27.6088 12.4949 27.8674 12.0744C28.1259 11.654 28.4881 11.3287 28.954 11.0986C29.4199 10.8684 29.9569 10.7534 30.5648 10.7534C31.1898 10.7534 31.7338 10.8642 32.1969 11.0858C32.6628 11.3045 33.025 11.6085 33.2836 11.9977C33.5421 12.3869 33.6713 12.8329 33.6713 13.3358C33.6713 13.6653 33.606 13.9906 33.4753 14.3116C33.3475 14.6326 33.1188 14.9892 32.7892 15.3812C32.4597 15.7704 31.9952 16.2378 31.3958 16.7832L30.1216 18.0318V18.0915H33.7864V19.6H27.5648Z" fill="#05471C"/>
</g>
<defs>
<clipPath id="clip0_1_304">
<rect width="55" height="40" fill="white"/>
</clipPath>
</defs>
</svg>
