<svg width="80" height="62.3" viewBox="0 0 20 20" fill="none" xmlns="http://www.w3.org/2000/svg">
<path d="M10 18.8365C9.94754 18.7875 9.87729 18.7211 9.79072 18.6379C9.56598 18.422 9.31513 18.173 9.0446 17.8944C8.27172 17.0984 7.49996 16.2291 6.77993 15.3141C5.50631 13.6957 4.54787 12.1294 4.00168 10.6704C3.66816 9.77948 3.5 8.95578 3.5 8.20166C3.5 4.26818 6.29899 1.5 10 1.5C13.701 1.5 16.5 4.26818 16.5 8.20166C16.5 8.95578 16.3318 9.77948 15.9983 10.6704C15.4521 12.1294 14.4937 13.6957 13.2201 15.3141C12.5 16.2291 11.7283 17.0984 10.9554 17.8944C10.6849 18.173 10.434 18.422 10.2093 18.6379C10.1227 18.7211 10.0525 18.7875 10 18.8365Z" fill="#05471C" stroke="#05471C"/>
<path d="M10 13C7.23858 13 5 10.7614 5 8C5 5.23858 7.23858 3 10 3C12.7614 3 15 5.23858 15 8C15 10.7614 12.7614 13 10 13Z" fill="white"/>
<path d="M10.0971 10C9.66066 10 9.28525 9.91593 8.97087 9.74779C8.65834 9.57797 8.41794 9.34258 8.24965 9.04161C8.08322 8.74065 8 8.39428 8 8.00252C8 7.60572 8.08414 7.25767 8.25243 6.95839C8.42256 6.65742 8.66389 6.42287 8.97642 6.25473C9.28895 6.08491 9.66066 6 10.0915 6C10.4632 6 10.7887 6.06137 11.068 6.18411C11.3472 6.30685 11.5682 6.47919 11.7309 6.70113C11.8937 6.92308 11.9834 7.18369 12 7.48298H10.8849C10.8534 7.28962 10.7702 7.13409 10.6352 7.01639C10.5021 6.89702 10.3273 6.83733 10.111 6.83733C9.92788 6.83733 9.76792 6.88272 9.63107 6.97352C9.49607 7.06263 9.39066 7.19294 9.31484 7.36444C9.23902 7.53594 9.20111 7.74359 9.20111 7.98739C9.20111 8.23455 9.2381 8.44472 9.31207 8.61791C9.38789 8.79109 9.49422 8.92308 9.63107 9.01387C9.76792 9.10467 9.92788 9.15006 10.111 9.15006C10.246 9.15006 10.3671 9.12484 10.4743 9.0744C10.5834 9.02396 10.6731 8.95082 10.7434 8.85498C10.8155 8.75746 10.8627 8.64061 10.8849 8.50441H12C11.9815 8.80034 11.8927 9.06095 11.7337 9.28625C11.5765 9.50988 11.3592 9.68474 11.0818 9.81085C10.8044 9.93695 10.4762 10 10.0971 10Z" fill="#05471C"/>
</svg>
