<svg width="40" height="26" viewBox="0 0 40 26" fill="none" xmlns="http://www.w3.org/2000/svg">
<g clip-path="url(#clip0_1_93)">
<path d="M19.35 25.31C19.2744 25.2387 19.1668 25.1357 19.03 25.0021C18.7165 24.6961 18.3667 24.3433 17.9895 23.9488C16.9119 22.8213 15.8357 21.5899 14.8315 20.2935C13.0555 18.0009 11.7167 15.7792 10.9529 13.7066C10.4864 12.4407 10.25 11.2672 10.25 10.1901C10.25 4.58388 14.1781 0.650024 19.35 0.650024C24.5219 0.650024 28.45 4.58388 28.45 10.1901C28.45 11.2672 28.2137 12.4407 27.7471 13.7066C26.9833 15.7792 25.6445 18.0009 23.8685 20.2935C22.8643 21.5899 21.7881 22.8213 20.7104 23.9488C20.3333 24.3433 19.9835 24.6961 19.6699 25.0021C19.5332 25.1357 19.4255 25.2387 19.35 25.31Z" fill="#0B983C" stroke="#0B983C" stroke-width="1.3"/>
<path d="M19.35 16.9C23.2988 16.9 26.5 13.6988 26.5 9.74998C26.5 5.80114 23.2988 2.59998 19.35 2.59998C15.4012 2.59998 12.2 5.80114 12.2 9.74998C12.2 13.6988 15.4012 16.9 19.35 16.9Z" fill="white"/>
<path d="M14.9051 11.9399V6.26721H18.6611V7.25606H16.1045V8.60777H18.4118V9.59662H16.1045V11.9399H14.9051ZM19.4346 11.9399V11.0757L21.4538 9.20606C21.6256 9.03987 21.7696 8.8903 21.8859 8.75734C22.0041 8.62439 22.0937 8.4942 22.1546 8.36679C22.2156 8.23753 22.246 8.09811 22.246 7.94854C22.246 7.78234 22.2082 7.63923 22.1325 7.5192C22.0568 7.39733 21.9533 7.30407 21.8222 7.23944C21.6911 7.17297 21.5425 7.13973 21.3763 7.13973C21.2027 7.13973 21.0513 7.17481 20.922 7.24498C20.7928 7.31515 20.6931 7.41579 20.6229 7.5469C20.5527 7.67801 20.5176 7.83405 20.5176 8.01501H19.3792C19.3792 7.64385 19.4632 7.32162 19.6313 7.04832C19.7993 6.77503 20.0347 6.56359 20.3376 6.41402C20.6404 6.26444 20.9894 6.18966 21.3846 6.18966C21.7908 6.18966 22.1445 6.26167 22.4455 6.40571C22.7483 6.5479 22.9837 6.74548 23.1518 6.99846C23.3198 7.25145 23.4038 7.54136 23.4038 7.86821C23.4038 8.08241 23.3614 8.29385 23.2764 8.50251C23.1933 8.71118 23.0447 8.94292 22.8305 9.19775C22.6163 9.45074 22.3144 9.7545 21.9247 10.109L21.0965 10.9206V10.9594H23.4786V11.9399H19.4346Z" fill="#0B983C"/>
</g>
<defs>
<clipPath id="clip0_1_93">
<rect width="40" height="26" fill="white"/>
</clipPath>
</defs>
</svg>
