<svg width="55" height="40" viewBox="0 0 55 40" fill="none" xmlns="http://www.w3.org/2000/svg">
<g clip-path="url(#clip0_1_548)">
<path d="M26.5 38.9384C26.3838 38.8288 26.2181 38.6702 26.0077 38.4648C25.5254 37.994 24.9873 37.4512 24.4069 36.8442C22.7491 35.1096 21.0934 33.2152 19.5484 31.2208C16.8162 27.6936 14.7564 24.2756 13.5814 21.087C12.8637 19.1395 12.5 17.3341 12.5 15.6771C12.5 7.05208 18.5432 1 26.5 1C34.4568 1 40.5 7.05208 40.5 15.6771C40.5 17.3341 40.1364 19.1395 39.4186 21.087C38.2436 24.2756 36.1838 27.6936 33.4516 31.2208C31.9066 33.2152 30.251 35.1096 28.593 36.8442C28.0128 37.4512 27.4746 37.994 26.9922 38.4648C26.7818 38.6702 26.6162 38.8288 26.5 38.9384Z" fill="#05471C" stroke="#05471C" stroke-width="2"/>
<path d="M26.5 26C32.5751 26 37.5 21.0751 37.5 15C37.5 8.92487 32.5751 4 26.5 4C20.4249 4 15.5 8.92487 15.5 15C15.5 21.0751 20.4249 26 26.5 26Z" fill="white"/>
<path d="M19.2077 19.6V18.5048L23.5629 12.394H19.1992V10.8727H25.881V11.9679L21.5217 18.0787H25.8896V19.6H19.2077ZM30.4801 19.7193C29.8438 19.7193 29.277 19.6099 28.7798 19.3912C28.2855 19.1696 27.8949 18.8656 27.608 18.4792C27.3239 18.09 27.1776 17.6412 27.169 17.1326H29.027C29.0384 17.3457 29.108 17.5332 29.2358 17.6951C29.3665 17.8542 29.5398 17.9778 29.7557 18.0659C29.9716 18.154 30.2145 18.198 30.4844 18.198C30.7656 18.198 31.0142 18.1483 31.2301 18.0488C31.446 17.9494 31.6151 17.8116 31.7372 17.6355C31.8594 17.4594 31.9205 17.2562 31.9205 17.0261C31.9205 16.7932 31.8551 16.5872 31.7244 16.4082C31.5966 16.2264 31.4119 16.0844 31.1705 15.9821C30.9318 15.8798 30.6477 15.8287 30.3182 15.8287H29.5043V14.4736H30.3182C30.5966 14.4736 30.8423 14.4253 31.0554 14.3287C31.2713 14.2321 31.4389 14.0986 31.5582 13.9281C31.6776 13.7548 31.7372 13.5531 31.7372 13.323C31.7372 13.1042 31.6847 12.9125 31.5795 12.7477C31.4773 12.5801 31.3324 12.4494 31.1449 12.3557C30.9602 12.2619 30.7443 12.215 30.4972 12.215C30.2472 12.215 30.0185 12.2605 29.8111 12.3514C29.6037 12.4395 29.4375 12.5659 29.3125 12.7307C29.1875 12.8954 29.1207 13.0886 29.1122 13.3102H27.3438C27.3523 12.8074 27.4957 12.3642 27.7741 11.9807C28.0526 11.5971 28.4276 11.2974 28.8991 11.0815C29.3736 10.8628 29.9091 10.7534 30.5057 10.7534C31.108 10.7534 31.6349 10.8628 32.0866 11.0815C32.5384 11.3003 32.8892 11.5957 33.1392 11.9679C33.392 12.3372 33.517 12.752 33.5142 13.2122C33.517 13.7008 33.3651 14.1085 33.0582 14.4352C32.7543 14.7619 32.358 14.9693 31.8693 15.0574V15.1255C32.5114 15.2079 33 15.4309 33.3352 15.7946C33.6733 16.1554 33.8409 16.6071 33.8381 17.1497C33.8409 17.6469 33.6974 18.0886 33.4077 18.475C33.1207 18.8613 32.7244 19.1653 32.2188 19.3869C31.7131 19.6085 31.1335 19.7193 30.4801 19.7193Z" fill="#05471C"/>
</g>
<defs>
<clipPath id="clip0_1_548">
<rect width="55" height="40" fill="white"/>
</clipPath>
</defs>
</svg>
