<svg width="40" height="26" viewBox="0 0 40 26" fill="none" xmlns="http://www.w3.org/2000/svg">
<g clip-path="url(#clip0_1_744)">
<path d="M19.35 25.31C19.2744 25.2387 19.1668 25.1356 19.03 25.0021C18.7165 24.6961 18.3667 24.3433 17.9895 23.9487C16.9119 22.8212 15.8357 21.5899 14.8315 20.2935C13.0555 18.0008 11.7167 15.7791 10.9529 13.7065C10.4864 12.4407 10.25 11.2671 10.25 10.1901C10.25 4.58385 14.1781 0.649994 19.35 0.649994C24.5219 0.649994 28.45 4.58385 28.45 10.1901C28.45 11.2671 28.2137 12.4407 27.7471 13.7065C26.9833 15.7791 25.6445 18.0008 23.8685 20.2935C22.8643 21.5899 21.7881 22.8212 20.7104 23.9487C20.3333 24.3433 19.9835 24.6961 19.6699 25.0021C19.5332 25.1356 19.4255 25.2387 19.35 25.31Z" fill="#0B983C" stroke="#0B983C" stroke-width="1.3"/>
<path d="M19.35 16.9C23.2988 16.9 26.5 13.6988 26.5 9.75001C26.5 5.80117 23.2988 2.60001 19.35 2.60001C15.4011 2.60001 12.2 5.80117 12.2 9.75001C12.2 13.6988 15.4011 16.9 19.35 16.9Z" fill="white"/>
<path d="M20.2519 6.26728H21.4513V9.95122C21.4513 10.3649 21.3525 10.7268 21.1549 11.037C20.9591 11.3472 20.6849 11.5892 20.3322 11.7627C19.9795 11.9345 19.5687 12.0203 19.0996 12.0203C18.6287 12.0203 18.217 11.9345 17.8643 11.7627C17.5116 11.5892 17.2373 11.3472 17.0416 11.037C16.8459 10.7268 16.748 10.3649 16.748 9.95122V6.26728H17.9474V9.84874C17.9474 10.0648 17.9944 10.2568 18.0886 10.4249C18.1846 10.5929 18.3194 10.7249 18.493 10.821C18.6666 10.917 18.8688 10.965 19.0996 10.965C19.3323 10.965 19.5345 10.917 19.7062 10.821C19.8798 10.7249 20.0137 10.5929 20.1079 10.4249C20.2039 10.2568 20.2519 10.0648 20.2519 9.84874V6.26728Z" fill="#0B983C"/>
</g>
<defs>
<clipPath id="clip0_1_744">
<rect width="40" height="26" fill="white"/>
</clipPath>
</defs>
</svg>
