<svg width="40" height="26" viewBox="0 0 40 26" fill="none" xmlns="http://www.w3.org/2000/svg">
<g clip-path="url(#clip0_1_97)">
<path d="M19.35 25.31C19.2744 25.2387 19.1668 25.1357 19.03 25.0021C18.7165 24.6961 18.3667 24.3433 17.9895 23.9488C16.9119 22.8213 15.8357 21.5899 14.8315 20.2935C13.0555 18.0009 11.7167 15.7792 10.9529 13.7066C10.4864 12.4407 10.25 11.2672 10.25 10.1901C10.25 4.58388 14.1781 0.650024 19.35 0.650024C24.5219 0.650024 28.45 4.58388 28.45 10.1901C28.45 11.2672 28.2137 12.4407 27.7471 13.7066C26.9833 15.7792 25.6445 18.0009 23.8685 20.2935C22.8643 21.5899 21.7881 22.8213 20.7104 23.9488C20.3333 24.3433 19.9835 24.6961 19.6699 25.0021C19.5332 25.1357 19.4255 25.2387 19.35 25.31Z" fill="#0B983C" stroke="#0B983C" stroke-width="1.3"/>
<path d="M19.35 16.9C23.2988 16.9 26.5 13.6988 26.5 9.74998C26.5 5.80114 23.2988 2.59998 19.35 2.59998C15.4012 2.59998 12.2 5.80114 12.2 9.74998C12.2 13.6988 15.4012 16.9 19.35 16.9Z" fill="white"/>
<path d="M14.7909 11.9399V6.26721H18.5469V7.25606H15.9902V8.60777H18.2976V9.59662H15.9902V11.9399H14.7909ZM21.4171 12.0175C21.0035 12.0175 20.6351 11.9464 20.312 11.8042C19.9907 11.6602 19.7367 11.4626 19.5502 11.2115C19.3656 10.9585 19.2705 10.6667 19.2649 10.3362H20.4726C20.48 10.4747 20.5252 10.5965 20.6083 10.7018C20.6933 10.8052 20.8059 10.8855 20.9463 10.9428C21.0866 11 21.2445 11.0286 21.4199 11.0286C21.6027 11.0286 21.7643 10.9963 21.9046 10.9317C22.045 10.8671 22.1549 10.7775 22.2343 10.663C22.3137 10.5485 22.3534 10.4165 22.3534 10.2669C22.3534 10.1155 22.3109 9.98163 22.226 9.8653C22.1429 9.74711 22.0228 9.65479 21.8659 9.58831C21.7108 9.52183 21.5261 9.48859 21.3119 9.48859H20.7828V8.60777H21.3119C21.4929 8.60777 21.6526 8.57638 21.7911 8.51359C21.9314 8.45081 22.0404 8.36402 22.1179 8.25322C22.1955 8.14058 22.2343 8.00947 22.2343 7.8599C22.2343 7.71771 22.2001 7.59307 22.1318 7.48596C22.0653 7.37702 21.9711 7.29207 21.8492 7.23113C21.7292 7.1702 21.5889 7.13973 21.4282 7.13973C21.2657 7.13973 21.1171 7.16927 20.9823 7.22836C20.8475 7.28561 20.7394 7.36778 20.6582 7.47488C20.5769 7.58199 20.5336 7.70755 20.528 7.85159H19.3785C19.384 7.52474 19.4773 7.23667 19.6583 6.98738C19.8392 6.73809 20.083 6.54328 20.3895 6.40294C20.6979 6.26075 21.046 6.18966 21.4338 6.18966C21.8252 6.18966 22.1678 6.26075 22.4614 6.40294C22.755 6.54513 22.9831 6.73717 23.1456 6.97907C23.3099 7.21913 23.3912 7.48873 23.3893 7.78788C23.3912 8.1055 23.2924 8.37048 23.0929 8.58284C22.8953 8.7952 22.6377 8.93 22.3201 8.98724V9.03156C22.7375 9.08511 23.0551 9.23007 23.273 9.46643C23.4927 9.70095 23.6017 9.99456 23.5998 10.3473C23.6017 10.6704 23.5084 10.9576 23.3201 11.2087C23.1336 11.4598 22.876 11.6574 22.5473 11.8014C22.2186 11.9455 21.8419 12.0175 21.4171 12.0175Z" fill="#0B983C"/>
</g>
<defs>
<clipPath id="clip0_1_97">
<rect width="40" height="26" fill="white"/>
</clipPath>
</defs>
</svg>
