<svg width="80" height="62.3" viewBox="0 0 20 20" fill="none" xmlns="http://www.w3.org/2000/svg">
<path d="M10 18.8365C9.94754 18.7875 9.87729 18.7211 9.79072 18.6379C9.56598 18.422 9.31513 18.173 9.0446 17.8944C8.27172 17.0984 7.49996 16.2291 6.77993 15.3141C5.50631 13.6957 4.54787 12.1294 4.00168 10.6704C3.66816 9.77948 3.5 8.95578 3.5 8.20166C3.5 4.26818 6.29899 1.5 10 1.5C13.701 1.5 16.5 4.26818 16.5 8.20166C16.5 8.95578 16.3318 9.77948 15.9983 10.6704C15.4521 12.1294 14.4937 13.6957 13.2201 15.3141C12.5 16.2291 11.7283 17.0984 10.9554 17.8944C10.6849 18.173 10.434 18.422 10.2093 18.6379C10.1227 18.7211 10.0525 18.7875 10 18.8365Z" fill="#05471C" stroke="#05471C"/>
<path d="M10 13C7.23858 13 5 10.7614 5 8C5 5.23858 7.23858 3 10 3C12.7614 3 15 5.23858 15 8C15 10.7614 12.7614 13 10 13Z" fill="white"/>
<path d="M9.1983 7.83203V10H8V5H9.16454V6.91162H9.21518C9.31269 6.69027 9.47021 6.51693 9.68775 6.3916C9.90528 6.26465 10.1781 6.20117 10.5063 6.20117C10.8063 6.20117 11.0679 6.25814 11.2911 6.37207C11.5161 6.48437 11.6905 6.64632 11.8143 6.85791C11.94 7.06787 12.0018 7.31934 12 7.6123V10H10.8017V7.79785C10.8035 7.56673 10.736 7.38688 10.5991 7.2583C10.4641 7.12972 10.2747 7.06543 10.0309 7.06543C9.86777 7.06543 9.72338 7.09554 9.59773 7.15576C9.47396 7.21598 9.37645 7.30387 9.30519 7.41943C9.23581 7.53337 9.20017 7.6709 9.1983 7.83203Z" fill="#05471C"/>
</svg>
