<svg width="55" height="40" viewBox="0 0 55 40" fill="none" xmlns="http://www.w3.org/2000/svg">
<g clip-path="url(#clip0_1_404)">
<path d="M26.5 38.9384C26.3838 38.8288 26.2181 38.6702 26.0077 38.4648C25.5254 37.994 24.9873 37.4512 24.4069 36.8442C22.7491 35.1096 21.0934 33.2152 19.5484 31.2208C16.8162 27.6936 14.7564 24.2756 13.5814 21.087C12.8637 19.1395 12.5 17.3341 12.5 15.6771C12.5 7.05208 18.5432 1 26.5 1C34.4568 1 40.5 7.05208 40.5 15.6771C40.5 17.3341 40.1364 19.1395 39.4186 21.087C38.2436 24.2756 36.1838 27.6936 33.4516 31.2208C31.9066 33.2152 30.251 35.1096 28.593 36.8442C28.0128 37.4512 27.4746 37.994 26.9922 38.4648C26.7818 38.6702 26.6162 38.8288 26.5 38.9384Z" fill="#05471C" stroke="#05471C" stroke-width="2"/>
<path d="M26.5 26C32.5751 26 37.5 21.0751 37.5 15C37.5 8.92487 32.5751 4 26.5 4C20.4249 4 15.5 8.92487 15.5 15C15.5 21.0751 20.4249 26 26.5 26Z" fill="white"/>
<path d="M21.9041 16.5659H23.4723L24.2607 17.5801L25.0362 18.4835L26.4979 20.3159H24.7763L23.7706 19.0801L23.255 18.3471L21.9041 16.5659ZM26.63 15.2363C26.63 16.188 26.4496 16.9977 26.0888 17.6653C25.7308 18.3329 25.2422 18.8429 24.6229 19.1951C24.0064 19.5446 23.3132 19.7193 22.5433 19.7193C21.7678 19.7193 21.0717 19.5432 20.4553 19.1909C19.8388 18.8386 19.3516 18.3287 18.9936 17.6611C18.6357 16.9934 18.4567 16.1852 18.4567 15.2363C18.4567 14.2846 18.6357 13.475 18.9936 12.8074C19.3516 12.1397 19.8388 11.6312 20.4553 11.2818C21.0717 10.9295 21.7678 10.7534 22.5433 10.7534C23.3132 10.7534 24.0064 10.9295 24.6229 11.2818C25.2422 11.6312 25.7308 12.1397 26.0888 12.8074C26.4496 13.475 26.63 14.2846 26.63 15.2363ZM24.7592 15.2363C24.7592 14.6199 24.6669 14.1 24.4822 13.6767C24.3004 13.2534 24.0433 12.9324 23.7109 12.7136C23.3786 12.4949 22.9893 12.3855 22.5433 12.3855C22.0973 12.3855 21.7081 12.4949 21.3757 12.7136C21.0433 12.9324 20.7848 13.2534 20.6001 13.6767C20.4183 14.1 20.3274 14.6199 20.3274 15.2363C20.3274 15.8528 20.4183 16.3727 20.6001 16.796C20.7848 17.2193 21.0433 17.5403 21.3757 17.7591C21.7081 17.9778 22.0973 18.0872 22.5433 18.0872C22.9893 18.0872 23.3786 17.9778 23.7109 17.7591C24.0433 17.5403 24.3004 17.2193 24.4822 16.796C24.6669 16.3727 24.7592 15.8528 24.7592 15.2363ZM31.1715 19.7193C30.5352 19.7193 29.9684 19.6099 29.4712 19.3912C28.9769 19.1696 28.5863 18.8656 28.2994 18.4792C28.0153 18.09 27.869 17.6412 27.8604 17.1326H29.7184C29.7298 17.3457 29.7994 17.5332 29.9272 17.6951C30.0579 17.8542 30.2312 17.9778 30.4471 18.0659C30.663 18.154 30.9059 18.198 31.1758 18.198C31.457 18.198 31.7056 18.1483 31.9215 18.0488C32.1374 17.9494 32.3065 17.8116 32.4286 17.6355C32.5508 17.4594 32.6119 17.2562 32.6119 17.0261C32.6119 16.7932 32.5465 16.5872 32.4158 16.4082C32.288 16.2264 32.1033 16.0844 31.8619 15.9821C31.6232 15.8798 31.3391 15.8287 31.0096 15.8287H30.1957V14.4736H31.0096C31.288 14.4736 31.5337 14.4253 31.7468 14.3287C31.9627 14.2321 32.1303 14.0986 32.2496 13.9281C32.369 13.7548 32.4286 13.5531 32.4286 13.323C32.4286 13.1042 32.3761 12.9125 32.271 12.7477C32.1687 12.5801 32.0238 12.4494 31.8363 12.3557C31.6516 12.2619 31.4357 12.215 31.1886 12.215C30.9386 12.215 30.7099 12.2605 30.5025 12.3514C30.2951 12.4395 30.1289 12.5659 30.0039 12.7307C29.8789 12.8954 29.8121 13.0886 29.8036 13.3102H28.0352C28.0437 12.8074 28.1871 12.3642 28.4656 11.9807C28.744 11.5971 29.119 11.2974 29.5906 11.0815C30.065 10.8628 30.6005 10.7534 31.1971 10.7534C31.7994 10.7534 32.3263 10.8628 32.7781 11.0815C33.2298 11.3003 33.5806 11.5957 33.8306 11.9679C34.0835 12.3372 34.2085 12.752 34.2056 13.2122C34.2085 13.7008 34.0565 14.1085 33.7496 14.4352C33.4457 14.7619 33.0494 14.9693 32.5607 15.0574V15.1255C33.2028 15.2079 33.6914 15.4309 34.0266 15.7946C34.3647 16.1554 34.5323 16.6071 34.5295 17.1497C34.5323 17.6469 34.3888 18.0886 34.0991 18.475C33.8121 18.8613 33.4158 19.1653 32.9102 19.3869C32.4045 19.6085 31.8249 19.7193 31.1715 19.7193Z" fill="#05471C"/>
</g>
<defs>
<clipPath id="clip0_1_404">
<rect width="55" height="40" fill="white"/>
</clipPath>
</defs>
</svg>
