<svg width="55" height="40" viewBox="0 0 55 40" fill="none" xmlns="http://www.w3.org/2000/svg">
<g clip-path="url(#clip0_1_145)">
<path d="M26.5 38.9384C26.3838 38.8288 26.2181 38.6702 26.0077 38.4648C25.5254 37.994 24.9873 37.4512 24.4069 36.8442C22.7491 35.1096 21.0934 33.2152 19.5484 31.2208C16.8162 27.6936 14.7564 24.2756 13.5814 21.087C12.8637 19.1395 12.5 17.3341 12.5 15.6771C12.5 7.05208 18.5432 1 26.5 1C34.4568 1 40.5 7.05208 40.5 15.6771C40.5 17.3341 40.1364 19.1395 39.4186 21.087C38.2436 24.2756 36.1838 27.6936 33.4516 31.2208C31.9066 33.2152 30.251 35.1096 28.593 36.8442C28.0128 37.4512 27.4746 37.994 26.9922 38.4648C26.7818 38.6702 26.6162 38.8288 26.5 38.9384Z" fill="#05471C" stroke="#05471C" stroke-width="2"/>
<path d="M26.5 26C32.5751 26 37.5 21.0751 37.5 15C37.5 8.92487 32.5751 4 26.5 4C20.4249 4 15.5 8.92487 15.5 15C15.5 21.0751 20.4249 26 26.5 26Z" fill="white"/>
<path d="M20.8194 19.6H18.8422L21.8549 10.8727H24.2328L27.2413 19.6H25.264L23.0779 12.867H23.0098L20.8194 19.6ZM20.6958 16.1696H25.3663V17.6099H20.6958V16.1696ZM31.4664 19.7193C30.8301 19.7193 30.2633 19.6099 29.7662 19.3912C29.2718 19.1696 28.8812 18.8656 28.5943 18.4792C28.3102 18.09 28.1639 17.6412 28.1554 17.1326H30.0133C30.0247 17.3457 30.0943 17.5332 30.2221 17.6951C30.3528 17.8542 30.5261 17.9778 30.742 18.0659C30.9579 18.154 31.2008 18.198 31.4707 18.198C31.752 18.198 32.0005 18.1483 32.2164 18.0488C32.4324 17.9494 32.6014 17.8116 32.7235 17.6355C32.8457 17.4594 32.9068 17.2562 32.9068 17.0261C32.9068 16.7932 32.8414 16.5872 32.7108 16.4082C32.5829 16.2264 32.3983 16.0844 32.1568 15.9821C31.9181 15.8798 31.6341 15.8287 31.3045 15.8287H30.4906V14.4736H31.3045C31.5829 14.4736 31.8287 14.4253 32.0417 14.3287C32.2576 14.2321 32.4252 14.0986 32.5446 13.9281C32.6639 13.7548 32.7235 13.5531 32.7235 13.323C32.7235 13.1042 32.671 12.9125 32.5659 12.7477C32.4636 12.5801 32.3187 12.4494 32.1312 12.3557C31.9466 12.2619 31.7306 12.215 31.4835 12.215C31.2335 12.215 31.0048 12.2605 30.7974 12.3514C30.59 12.4395 30.4238 12.5659 30.2988 12.7307C30.1738 12.8954 30.1071 13.0886 30.0985 13.3102H28.3301C28.3386 12.8074 28.4821 12.3642 28.7605 11.9807C29.0389 11.5971 29.4139 11.2974 29.8855 11.0815C30.3599 10.8628 30.8954 10.7534 31.492 10.7534C32.0943 10.7534 32.6213 10.8628 33.073 11.0815C33.5247 11.3003 33.8755 11.5957 34.1255 11.9679C34.3784 12.3372 34.5034 12.752 34.5005 13.2122C34.5034 13.7008 34.3514 14.1085 34.0446 14.4352C33.7406 14.7619 33.3443 14.9693 32.8556 15.0574V15.1255C33.4977 15.2079 33.9863 15.4309 34.3216 15.7946C34.6596 16.1554 34.8272 16.6071 34.8244 17.1497C34.8272 17.6469 34.6838 18.0886 34.394 18.475C34.1071 18.8613 33.7108 19.1653 33.2051 19.3869C32.6994 19.6085 32.1199 19.7193 31.4664 19.7193Z" fill="#05471C"/>
</g>
<defs>
<clipPath id="clip0_1_145">
<rect width="55" height="40" fill="white"/>
</clipPath>
</defs>
</svg>
