<svg width="40" height="26" viewBox="0 0 40 26" fill="none" xmlns="http://www.w3.org/2000/svg">
<g clip-path="url(#clip0_1_42)">
<path d="M19.35 25.31C19.2744 25.2387 19.1668 25.1357 19.03 25.0021C18.7165 24.6961 18.3667 24.3433 17.9895 23.9488C16.9119 22.8213 15.8357 21.5899 14.8315 20.2935C13.0555 18.0009 11.7167 15.7792 10.9529 13.7066C10.4864 12.4407 10.25 11.2672 10.25 10.1901C10.25 4.58388 14.1781 0.650024 19.35 0.650024C24.5219 0.650024 28.45 4.58388 28.45 10.1901C28.45 11.2672 28.2137 12.4407 27.7471 13.7066C26.9833 15.7792 25.6445 18.0009 23.8685 20.2935C22.8643 21.5899 21.7881 22.8213 20.7104 23.9488C20.3333 24.3433 19.9835 24.6961 19.6699 25.0021C19.5332 25.1357 19.4255 25.2387 19.35 25.31Z" fill="#0B983C" stroke="#0B983C" stroke-width="1.3"/>
<path d="M19.35 16.9C23.2988 16.9 26.5 13.6988 26.5 9.74998C26.5 5.80114 23.2988 2.59998 19.35 2.59998C15.4012 2.59998 12.2 5.80114 12.2 9.74998C12.2 13.6988 15.4012 16.9 19.35 16.9Z" fill="white"/>
<path d="M19.1091 8.25322H17.8959C17.8737 8.09626 17.8285 7.95684 17.7601 7.83497C17.6918 7.71125 17.6041 7.60599 17.497 7.5192C17.3899 7.43241 17.2662 7.36594 17.1258 7.31977C16.9873 7.27361 16.8368 7.25052 16.6743 7.25052C16.3807 7.25052 16.125 7.32346 15.9071 7.46934C15.6892 7.61338 15.5202 7.82389 15.4002 8.10088C15.2802 8.37602 15.2201 8.71025 15.2201 9.10358C15.2201 9.50798 15.2802 9.84775 15.4002 10.1229C15.5221 10.398 15.6919 10.6058 15.9098 10.7461C16.1277 10.8865 16.3798 10.9566 16.666 10.9566C16.8267 10.9566 16.9753 10.9354 17.112 10.8929C17.2505 10.8505 17.3733 10.7886 17.4804 10.7073C17.5875 10.6242 17.6761 10.5236 17.7463 10.4054C17.8183 10.2872 17.8682 10.1524 17.8959 10.001L19.1091 10.0066C19.0777 10.2669 18.9992 10.5181 18.8736 10.76C18.7499 11 18.5828 11.2152 18.3723 11.4054C18.1636 11.5937 17.9143 11.7433 17.6244 11.8541C17.3363 11.963 17.0104 12.0175 16.6466 12.0175C16.1407 12.0175 15.6883 11.903 15.2894 11.674C14.8924 11.4451 14.5785 11.1136 14.3476 10.6796C14.1187 10.2457 14.0042 9.72034 14.0042 9.10358C14.0042 8.48497 14.1205 7.95869 14.3532 7.52474C14.5858 7.09079 14.9016 6.76025 15.3005 6.53312C15.6993 6.30415 16.1481 6.18966 16.6466 6.18966C16.9753 6.18966 17.28 6.23582 17.5607 6.32815C17.8432 6.42048 18.0934 6.55528 18.3113 6.73255C18.5292 6.90798 18.7065 7.12311 18.8432 7.37794C18.9816 7.63277 19.0703 7.92453 19.1091 8.25322ZM19.9359 11.9399V11.0757L21.9551 9.20606C22.1269 9.03987 22.2709 8.8903 22.3872 8.75734C22.5054 8.62439 22.595 8.4942 22.6559 8.36679C22.7168 8.23753 22.7473 8.09811 22.7473 7.94854C22.7473 7.78234 22.7095 7.63923 22.6337 7.5192C22.558 7.39733 22.4546 7.30407 22.3235 7.23944C22.1924 7.17297 22.0438 7.13973 21.8776 7.13973C21.704 7.13973 21.5526 7.17481 21.4233 7.24498C21.294 7.31515 21.1943 7.41579 21.1242 7.5469C21.054 7.67801 21.0189 7.83405 21.0189 8.01501H19.8805C19.8805 7.64385 19.9645 7.32162 20.1325 7.04832C20.3006 6.77503 20.536 6.56359 20.8389 6.41402C21.1417 6.26444 21.4907 6.18966 21.8859 6.18966C22.2921 6.18966 22.6457 6.26167 22.9467 6.40571C23.2496 6.5479 23.485 6.74548 23.6531 6.99846C23.8211 7.25145 23.9051 7.54136 23.9051 7.86821C23.9051 8.08241 23.8627 8.29385 23.7777 8.50251C23.6946 8.71118 23.546 8.94292 23.3318 9.19775C23.1176 9.45074 22.8156 9.7545 22.426 10.109L21.5978 10.9206V10.9594H23.9799V11.9399H19.9359Z" fill="#0B983C"/>
</g>
<defs>
<clipPath id="clip0_1_42">
<rect width="40" height="26" fill="white"/>
</clipPath>
</defs>
</svg>
