<svg width="40" height="26" viewBox="0 0 20 20" fill="none" xmlns="http://www.w3.org/2000/svg">
<path d="M9.5 19.4692C9.44188 19.4144 9.35905 19.3351 9.25385 19.2324C9.01272 18.997 8.74363 18.7256 8.45347 18.4221C7.62453 17.5548 6.79668 16.6076 6.02421 15.6104C4.65811 13.8468 3.6282 12.1378 3.04068 10.5435C2.68183 9.56975 2.5 8.66704 2.5 7.83854C2.5 3.52604 5.52161 0.5 9.5 0.5C13.4784 0.5 16.5 3.52604 16.5 7.83854C16.5 8.66704 16.3182 9.56975 15.9593 10.5435C15.3718 12.1378 14.3419 13.8468 12.9758 15.6104C12.2033 16.6076 11.3755 17.5548 10.5465 18.4221C10.2564 18.7256 9.98728 18.997 9.74615 19.2324C9.64095 19.3351 9.55812 19.4144 9.5 19.4692Z" fill="#0b983c" stroke="#0b983c"/>
<path d="M9.5 13C6.46243 13 4 10.5376 4 7.5C4 4.46243 6.46243 2 9.5 2C12.5376 2 15 4.46243 15 7.5C15 10.5376 12.5376 13 9.5 13Z" fill="white"/>
<path d="M6.6321 11V3.72727H9.50142C10.053 3.72727 10.523 3.83262 10.9112 4.04332C11.2995 4.25166 11.5954 4.54167 11.799 4.91335C12.005 5.28267 12.108 5.70881 12.108 6.19176C12.108 6.67472 12.0038 7.10085 11.7955 7.47017C11.5871 7.83949 11.2853 8.12713 10.8899 8.3331C10.4969 8.53906 10.0211 8.64205 9.46236 8.64205H7.63352V7.4098H9.21378C9.50971 7.4098 9.75355 7.3589 9.94531 7.2571C10.1394 7.15294 10.2839 7.00971 10.3786 6.82741C10.4756 6.64276 10.5241 6.43087 10.5241 6.19176C10.5241 5.95028 10.4756 5.73958 10.3786 5.55966C10.2839 5.37737 10.1394 5.23651 9.94531 5.13707C9.75118 5.03527 9.50497 4.98438 9.20668 4.98438H8.16974V11H6.6321Z" fill="#0b983c"/>
</svg>
