<svg width="80" height="62.3" viewBox="0 0 20 20" fill="none" xmlns="http://www.w3.org/2000/svg">
<path d="M10 18.8365C9.94754 18.7875 9.87729 18.7211 9.79072 18.6379C9.56598 18.422 9.31513 18.173 9.0446 17.8944C8.27172 17.0984 7.49996 16.2291 6.77993 15.3141C5.50631 13.6957 4.54787 12.1294 4.00168 10.6704C3.66816 9.77948 3.5 8.95578 3.5 8.20166C3.5 4.26818 6.29899 1.5 10 1.5C13.701 1.5 16.5 4.26818 16.5 8.20166C16.5 8.95578 16.3318 9.77948 15.9983 10.6704C15.4521 12.1294 14.4937 13.6957 13.2201 15.3141C12.5 16.2291 11.7283 17.0984 10.9554 17.8944C10.6849 18.173 10.434 18.422 10.2093 18.6379C10.1227 18.7211 10.0525 18.7875 10 18.8365Z" fill="#05471C" stroke="#05471C"/>
<path d="M10 13C7.23858 13 5 10.7614 5 8C5 5.23858 7.23858 3 10 3C12.7614 3 15 5.23858 15 8C15 10.7614 12.7614 13 10 13Z" fill="white"/>
<path d="M8 10.9276V5H9.13752V7.22865H9.17223C9.22207 7.10902 9.29417 6.98746 9.38852 6.86397C9.48465 6.73854 9.60926 6.63435 9.76235 6.55138C9.91722 6.46647 10.1095 6.42402 10.3391 6.42402C10.6382 6.42402 10.9141 6.50892 11.1669 6.67873C11.4197 6.8466 11.6217 7.10034 11.773 7.43994C11.9243 7.77762 12 8.20116 12 8.71056C12 9.20646 11.9261 9.62518 11.7784 9.96671C11.6324 10.3063 11.433 10.5639 11.1802 10.7395C10.9292 10.9132 10.648 11 10.3364 11C10.1157 11 9.9279 10.9604 9.77303 10.8813C9.61994 10.8022 9.49444 10.7028 9.39653 10.5832C9.29862 10.4616 9.22385 10.3391 9.17223 10.2156H9.1215V10.9276H8ZM9.11348 8.70478C9.11348 8.96913 9.14731 9.19971 9.21495 9.39653C9.2826 9.59334 9.38051 9.74674 9.50868 9.85673C9.63685 9.96479 9.79261 10.0188 9.97597 10.0188C10.1611 10.0188 10.3178 9.96382 10.4459 9.85383C10.5741 9.74192 10.6711 9.58755 10.737 9.39074C10.8046 9.19199 10.8385 8.96334 10.8385 8.70478C10.8385 8.44814 10.8055 8.22238 10.7397 8.0275C10.6738 7.83261 10.5768 7.68017 10.4486 7.57019C10.3204 7.4602 10.1629 7.40521 9.97597 7.40521C9.79083 7.40521 9.63418 7.45827 9.50601 7.5644C9.37962 7.67053 9.2826 7.82103 9.21495 8.01592C9.14731 8.21081 9.11348 8.44042 9.11348 8.70478Z" fill="#05471C"/>
</svg>
