<svg width="40" height="26" viewBox="0 0 40 26" fill="none" xmlns="http://www.w3.org/2000/svg">
<g clip-path="url(#clip0_1_768)">
<path d="M19.35 25.31C19.2744 25.2387 19.1668 25.1356 19.03 25.0021C18.7165 24.6961 18.3667 24.3433 17.9895 23.9487C16.9119 22.8212 15.8357 21.5899 14.8315 20.2935C13.0555 18.0008 11.7167 15.7791 10.9529 13.7065C10.4864 12.4407 10.25 11.2671 10.25 10.1901C10.25 4.58385 14.1781 0.649994 19.35 0.649994C24.5219 0.649994 28.45 4.58385 28.45 10.1901C28.45 11.2671 28.2137 12.4407 27.7471 13.7065C26.9833 15.7791 25.6445 18.0008 23.8685 20.2935C22.8643 21.5899 21.7881 22.8212 20.7104 23.9487C20.3333 24.3433 19.9835 24.6961 19.6699 25.0021C19.5332 25.1356 19.4255 25.2387 19.35 25.31Z" fill="#0B983C" stroke="#0B983C" stroke-width="1.3"/>
<path d="M19.35 16.9C23.2988 16.9 26.5 13.6988 26.5 9.75001C26.5 5.80117 23.2988 2.60001 19.35 2.60001C15.4012 2.60001 12.2 5.80117 12.2 9.75001C12.2 13.6988 15.4012 16.9 19.35 16.9Z" fill="white"/>
<path d="M15.144 6.26728L16.5151 10.5772H16.5677L17.9416 6.26728H19.2711L17.3156 11.94H15.77L13.8117 6.26728H15.144ZM19.9206 11.94V11.0758L21.9399 9.20612C22.1116 9.03993 22.2557 8.89036 22.372 8.7574C22.4902 8.62445 22.5797 8.49426 22.6407 8.36685C22.7016 8.23759 22.7321 8.09817 22.7321 7.9486C22.7321 7.7824 22.6942 7.63929 22.6185 7.51926C22.5428 7.39739 22.4394 7.30414 22.3083 7.23951C22.1772 7.17303 22.0285 7.13979 21.8623 7.13979C21.6888 7.13979 21.5373 7.17487 21.4081 7.24505C21.2788 7.31522 21.1791 7.41585 21.1089 7.54696C21.0388 7.67807 21.0037 7.83411 21.0037 8.01507H19.8652C19.8652 7.64391 19.9493 7.32168 20.1173 7.04838C20.2853 6.77509 20.5208 6.56365 20.8236 6.41408C21.1265 6.26451 21.4755 6.18972 21.8706 6.18972C22.2769 6.18972 22.6305 6.26174 22.9315 6.40577C23.2343 6.54796 23.4698 6.74554 23.6378 6.99853C23.8059 7.25151 23.8899 7.54142 23.8899 7.86827C23.8899 8.08247 23.8474 8.29391 23.7625 8.50257C23.6794 8.71124 23.5307 8.94299 23.3165 9.19782C23.1023 9.4508 22.8004 9.75456 22.4108 10.1091L21.5826 10.9207V10.9595H23.9647V11.94H19.9206Z" fill="#0B983C"/>
</g>
<defs>
<clipPath id="clip0_1_768">
<rect width="40" height="26" fill="white"/>
</clipPath>
</defs>
</svg>
