<svg width="40" height="26" viewBox="0 0 40 26" fill="none" xmlns="http://www.w3.org/2000/svg">
<g clip-path="url(#clip0_1_668)">
<path d="M19.35 25.31C19.2744 25.2387 19.1668 25.1357 19.03 25.0021C18.7165 24.6961 18.3667 24.3433 17.9895 23.9488C16.9119 22.8213 15.8357 21.5899 14.8315 20.2935C13.0555 18.0009 11.7167 15.7792 10.9529 13.7066C10.4864 12.4407 10.25 11.2672 10.25 10.1901C10.25 4.58388 14.1781 0.650024 19.35 0.650024C24.5219 0.650024 28.45 4.58388 28.45 10.1901C28.45 11.2672 28.2137 12.4407 27.7471 13.7066C26.9833 15.7792 25.6445 18.0009 23.8685 20.2935C22.8643 21.5899 21.7881 22.8213 20.7104 23.9488C20.3333 24.3433 19.9835 24.6961 19.6699 25.0021C19.5332 25.1357 19.4255 25.2387 19.35 25.31Z" fill="#0B983C" stroke="#0B983C" stroke-width="1.3"/>
<path d="M19.35 16.9C23.2988 16.9 26.5 13.6988 26.5 9.74998C26.5 5.80114 23.2988 2.59998 19.35 2.59998C15.4012 2.59998 12.2 5.80114 12.2 9.74998C12.2 13.6988 15.4012 16.9 19.35 16.9Z" fill="white"/>
<path d="M15.3598 11.94V6.26728H17.5979C18.0281 6.26728 18.3947 6.34945 18.6975 6.5138C19.0004 6.6763 19.2312 6.9025 19.39 7.19242C19.5507 7.48049 19.631 7.81287 19.631 8.18958C19.631 8.56628 19.5497 8.89867 19.3872 9.18674C19.2247 9.4748 18.9893 9.69916 18.6809 9.85982C18.3744 10.0205 18.0032 10.1008 17.5674 10.1008H16.1409V9.13965H17.3735C17.6044 9.13965 17.7946 9.09995 17.9441 9.02054C18.0955 8.93929 18.2082 8.82757 18.2821 8.68539C18.3578 8.54135 18.3956 8.37608 18.3956 8.18958C18.3956 8.00122 18.3578 7.83688 18.2821 7.69654C18.2082 7.55435 18.0955 7.44448 17.9441 7.36692C17.7927 7.28752 17.6007 7.24782 17.368 7.24782H16.5592V11.94H15.3598ZM22.8448 6.26728V11.94H21.6454V7.4057H21.6122L20.3131 8.22005V7.15641L21.7174 6.26728H22.8448Z" fill="#0B983C"/>
</g>
<defs>
<clipPath id="clip0_1_668">
<rect width="40" height="26" fill="white"/>
</clipPath>
</defs>
</svg>
