<svg width="60" height="45" viewBox="0 0 48 63" fill="none" xmlns="http://www.w3.org/2000/svg">
<path d="M24.8765 62.1281C24.3816 62.5857 23.6184 62.5857 23.1235 62.1281C22.9435 61.9615 22.6132 61.6481 22.1542 61.1994C21.3933 60.4558 20.5465 59.601 19.6353 58.6466C17.033 55.9213 14.4309 52.9411 11.9997 49.7992C7.7079 44.2528 4.41662 38.809 2.52171 33.6615C1.36229 30.5119 0.75 27.5266 0.75 24.7306C0.75 10.5414 10.7611 0.405273 24 0.405273C37.2389 0.405273 47.25 10.5414 47.25 24.7306C47.25 27.5266 46.6377 30.5119 45.4783 33.6615C43.5834 38.809 40.2921 44.2528 36.0003 49.7992C33.5691 52.9411 30.967 55.9213 28.3647 58.6466C27.4535 59.601 26.6067 60.4558 25.8458 61.1994C25.3868 61.6481 25.0565 61.9615 24.8765 62.1281Z" fill="#05471C"/>
<path d="M23.9997 34.0239C16.866 34.0239 11.083 28.2348 11.083 21.0935C11.083 13.9522 16.866 8.16309 23.9997 8.16309C31.1334 8.16309 36.9163 13.9522 36.9163 21.0935C36.9163 28.2348 31.1334 34.0239 23.9997 34.0239Z" fill="white"/>
</svg>
