<svg width="55" height="40" viewBox="0 0 55 40" fill="none" xmlns="http://www.w3.org/2000/svg">
<g clip-path="url(#clip0_1_181)">
<path d="M26.5 38.9384C26.3838 38.8288 26.2181 38.6702 26.0077 38.4648C25.5254 37.994 24.9873 37.4512 24.4069 36.8442C22.7491 35.1096 21.0934 33.2152 19.5484 31.2208C16.8162 27.6936 14.7564 24.2756 13.5814 21.087C12.8637 19.1395 12.5 17.3341 12.5 15.6771C12.5 7.05208 18.5432 1 26.5 1C34.4568 1 40.5 7.05208 40.5 15.6771C40.5 17.3341 40.1364 19.1395 39.4186 21.087C38.2436 24.2756 36.1838 27.6936 33.4516 31.2208C31.9066 33.2152 30.251 35.1096 28.593 36.8442C28.0128 37.4512 27.4746 37.994 26.9922 38.4648C26.7818 38.6702 26.6162 38.8288 26.5 38.9384Z" fill="#05471C" stroke="#05471C" stroke-width="2"/>
<path d="M26.5 26C32.5751 26 37.5 21.0751 37.5 15C37.5 8.92487 32.5751 4 26.5 4C20.4249 4 15.5 8.92487 15.5 15C15.5 21.0751 20.4249 26 26.5 26Z" fill="white"/>
<path d="M26.487 19.6H23.3933V10.8727H26.5126C27.3904 10.8727 28.1461 11.0474 28.7797 11.3969C29.4132 11.7434 29.9004 12.242 30.2413 12.8926C30.5851 13.5432 30.7569 14.3216 30.7569 15.2278C30.7569 16.1369 30.5851 16.9182 30.2413 17.5716C29.9004 18.225 29.4103 18.7264 28.7711 19.0758C28.1348 19.4253 27.3734 19.6 26.487 19.6ZM25.2385 18.019H26.4103C26.9558 18.019 27.4146 17.9224 27.7868 17.7292C28.1618 17.5332 28.443 17.2307 28.6305 16.8216C28.8208 16.4096 28.916 15.8784 28.916 15.2278C28.916 14.5829 28.8208 14.0559 28.6305 13.6469C28.443 13.2378 28.1632 12.9366 27.791 12.7434C27.4189 12.5503 26.96 12.4537 26.4146 12.4537H25.2385V18.019Z" fill="#05471C"/>
</g>
<defs>
<clipPath id="clip0_1_181">
<rect width="55" height="40" fill="white"/>
</clipPath>
</defs>
</svg>
