<svg width="40" height="26" viewBox="0 0 20 20" fill="none" xmlns="http://www.w3.org/2000/svg">
<path d="M9.5 19.4692C9.44188 19.4144 9.35905 19.3351 9.25385 19.2324C9.01272 18.997 8.74363 18.7256 8.45347 18.4221C7.62453 17.5548 6.79668 16.6076 6.02421 15.6104C4.65811 13.8468 3.6282 12.1378 3.04068 10.5435C2.68183 9.56975 2.5 8.66704 2.5 7.83854C2.5 3.52604 5.52161 0.5 9.5 0.5C13.4784 0.5 16.5 3.52604 16.5 7.83854C16.5 8.66704 16.3182 9.56975 15.9593 10.5435C15.3718 12.1378 14.3419 13.8468 12.9758 15.6104C12.2033 16.6076 11.3755 17.5548 10.5465 18.4221C10.2564 18.7256 9.98728 18.997 9.74615 19.2324C9.64095 19.3351 9.55812 19.4144 9.5 19.4692Z" fill="#0b983c" stroke="#0b983c"/>
<path d="M9.5 13C6.46243 13 4 10.5376 4 7.5C4 4.46243 6.46243 2 9.5 2C12.5376 2 15 4.46243 15 7.5C15 10.5376 12.5376 13 9.5 13Z" fill="white"/>
<path d="M10.544 3.72727H12.0639V8.7983C12.0639 9.26705 11.9586 9.67424 11.7479 10.0199C11.5395 10.3655 11.2495 10.6319 10.8778 10.8189C10.5062 11.0059 10.0741 11.0994 9.58168 11.0994C9.1437 11.0994 8.74598 11.0225 8.38849 10.8686C8.03338 10.7124 7.75166 10.4756 7.54332 10.1584C7.33499 9.83878 7.23201 9.4375 7.23438 8.95455H8.76491C8.76965 9.14631 8.80871 9.31084 8.8821 9.44815C8.95786 9.5831 9.06084 9.68726 9.19105 9.76065C9.32363 9.83168 9.47988 9.86719 9.6598 9.86719C9.8492 9.86719 10.009 9.82694 10.1392 9.74645C10.2718 9.66359 10.3724 9.54285 10.4411 9.38423C10.5097 9.22562 10.544 9.0303 10.544 8.7983V3.72727Z" fill="#0b983c"/>
</svg>
