<svg width="40" height="26" viewBox="0 0 40 26" fill="none" xmlns="http://www.w3.org/2000/svg">
<g clip-path="url(#clip0_1_664)">
<path d="M19.35 25.31C19.2744 25.2387 19.1668 25.1357 19.03 25.0021C18.7165 24.6961 18.3667 24.3433 17.9895 23.9488C16.9119 22.8213 15.8357 21.5899 14.8315 20.2935C13.0555 18.0009 11.7167 15.7792 10.9529 13.7066C10.4864 12.4407 10.25 11.2672 10.25 10.1901C10.25 4.58388 14.1781 0.650024 19.35 0.650024C24.5219 0.650024 28.45 4.58388 28.45 10.1901C28.45 11.2672 28.2137 12.4407 27.7471 13.7066C26.9833 15.7792 25.6445 18.0009 23.8685 20.2935C22.8643 21.5899 21.7881 22.8213 20.7104 23.9488C20.3333 24.3433 19.9835 24.6961 19.6699 25.0021C19.5332 25.1357 19.4255 25.2387 19.35 25.31Z" fill="#0B983C" stroke="#0B983C" stroke-width="1.3"/>
<path d="M19.35 16.9C23.2988 16.9 26.5 13.6988 26.5 9.74998C26.5 5.80114 23.2988 2.59998 19.35 2.59998C15.4012 2.59998 12.2 5.80114 12.2 9.74998C12.2 13.6988 15.4012 16.9 19.35 16.9Z" fill="white"/>
<path d="M16.7179 11.94V6.26728H18.956C19.3863 6.26728 19.7528 6.34945 20.0557 6.5138C20.3585 6.6763 20.5893 6.9025 20.7481 7.19242C20.9088 7.48049 20.9891 7.81287 20.9891 8.18958C20.9891 8.56628 20.9079 8.89867 20.7454 9.18674C20.5829 9.4748 20.3474 9.69916 20.039 9.85982C19.7325 10.0205 19.3613 10.1008 18.9255 10.1008H17.4991V9.13965H18.7316C18.9625 9.13965 19.1527 9.09995 19.3022 9.02054C19.4537 8.93929 19.5663 8.82757 19.6402 8.68539C19.7159 8.54135 19.7537 8.37608 19.7537 8.18958C19.7537 8.00122 19.7159 7.83688 19.6402 7.69654C19.5663 7.55435 19.4537 7.44448 19.3022 7.36692C19.1508 7.28752 18.9588 7.24782 18.7261 7.24782H17.9173V11.94H16.7179Z" fill="#0B983C"/>
</g>
<defs>
<clipPath id="clip0_1_664">
<rect width="40" height="26" fill="white"/>
</clipPath>
</defs>
</svg>
