<svg width="40" height="26" viewBox="0 0 40 26" fill="none" xmlns="http://www.w3.org/2000/svg">
<g clip-path="url(#clip0_1_700)">
<path d="M19.35 25.31C19.2744 25.2387 19.1668 25.1357 19.03 25.0021C18.7165 24.6961 18.3667 24.3433 17.9895 23.9488C16.9119 22.8213 15.8357 21.5899 14.8315 20.2935C13.0555 18.0009 11.7167 15.7792 10.9529 13.7066C10.4864 12.4407 10.25 11.2672 10.25 10.1901C10.25 4.58388 14.1781 0.650024 19.35 0.650024C24.5219 0.650024 28.45 4.58388 28.45 10.1901C28.45 11.2672 28.2137 12.4407 27.7471 13.7066C26.9833 15.7792 25.6445 18.0009 23.8685 20.2935C22.8643 21.5899 21.7881 22.8213 20.7104 23.9488C20.3333 24.3433 19.9835 24.6961 19.6699 25.0021C19.5332 25.1357 19.4255 25.2387 19.35 25.31Z" fill="#0B983C" stroke="#0B983C" stroke-width="1.3"/>
<path d="M19.35 16.9C23.2988 16.9 26.5 13.6988 26.5 9.74998C26.5 5.80114 23.2988 2.59998 19.35 2.59998C15.4012 2.59998 12.2 5.80114 12.2 9.74998C12.2 13.6988 15.4012 16.9 19.35 16.9Z" fill="white"/>
<path d="M15.3256 11.94V6.26728H17.5636C17.992 6.26728 18.3577 6.34391 18.6605 6.49718C18.9652 6.6486 19.1969 6.86372 19.3557 7.14256C19.5164 7.41955 19.5967 7.74547 19.5967 8.12033C19.5967 8.49703 19.5155 8.82111 19.353 9.09256C19.1905 9.36216 18.955 9.56898 18.6467 9.71301C18.3401 9.85705 17.969 9.92907 17.5332 9.92907H16.0347V8.96514H17.3393C17.5682 8.96514 17.7584 8.93375 17.9099 8.87097C18.0613 8.80818 18.1739 8.71401 18.2478 8.58844C18.3235 8.46287 18.3614 8.30683 18.3614 8.12033C18.3614 7.93198 18.3235 7.77317 18.2478 7.64391C18.1739 7.51465 18.0604 7.41678 17.9071 7.3503C17.7557 7.28198 17.5646 7.24782 17.3337 7.24782H16.5249V11.94H15.3256ZM18.3891 9.35847L19.7989 11.94H18.4749L17.0955 9.35847H18.3891ZM22.879 6.26728V11.94H21.6797V7.4057H21.6464L20.3474 8.22005V7.15641L21.7517 6.26728H22.879Z" fill="#0B983C"/>
</g>
<defs>
<clipPath id="clip0_1_700">
<rect width="40" height="26" fill="white"/>
</clipPath>
</defs>
</svg>
