<svg width="40" height="26" viewBox="0 0 40 26" fill="none" xmlns="http://www.w3.org/2000/svg">
<g clip-path="url(#clip0_1_58)">
<path d="M19.35 25.31C19.2744 25.2387 19.1668 25.1357 19.03 25.0021C18.7165 24.6961 18.3667 24.3433 17.9895 23.9488C16.9119 22.8213 15.8357 21.5899 14.8315 20.2935C13.0555 18.0009 11.7167 15.7792 10.9529 13.7066C10.4864 12.4407 10.25 11.2672 10.25 10.1901C10.25 4.58388 14.1781 0.650024 19.35 0.650024C24.5219 0.650024 28.45 4.58388 28.45 10.1901C28.45 11.2672 28.2137 12.4407 27.7471 13.7066C26.9833 15.7792 25.6445 18.0009 23.8685 20.2935C22.8643 21.5899 21.7881 22.8213 20.7104 23.9488C20.3333 24.3433 19.9835 24.6961 19.6699 25.0021C19.5332 25.1357 19.4255 25.2387 19.35 25.31Z" fill="#0B983C" stroke="#0B983C" stroke-width="1.3"/>
<path d="M19.35 16.9C23.2988 16.9 26.5 13.6988 26.5 9.74998C26.5 5.80114 23.2988 2.59998 19.35 2.59998C15.4012 2.59998 12.2 5.80114 12.2 9.74998C12.2 13.6988 15.4012 16.9 19.35 16.9Z" fill="white"/>
<path d="M16.21 11.9399H14.1991V6.26721H16.2267C16.7972 6.26721 17.2884 6.38078 17.7002 6.60791C18.112 6.83319 18.4287 7.15727 18.6503 7.58014C18.8737 8.00301 18.9855 8.50898 18.9855 9.09804C18.9855 9.68895 18.8737 10.1968 18.6503 10.6215C18.4287 11.0462 18.1102 11.3721 17.6947 11.5992C17.2811 11.8264 16.7862 11.9399 16.21 11.9399ZM15.3985 10.9123H16.1602C16.5147 10.9123 16.8129 10.8495 17.0548 10.724C17.2986 10.5965 17.4814 10.3999 17.6033 10.134C17.727 9.86622 17.7889 9.52091 17.7889 9.09804C17.7889 8.67886 17.727 8.33632 17.6033 8.07041C17.4814 7.8045 17.2995 7.60876 17.0576 7.48319C16.8157 7.35763 16.5175 7.29484 16.1629 7.29484H15.3985V10.9123ZM19.8407 11.9399V11.0757L21.8599 9.20606C22.0316 9.03987 22.1757 8.8903 22.292 8.75734C22.4102 8.62439 22.4998 8.4942 22.5607 8.36679C22.6216 8.23753 22.6521 8.09811 22.6521 7.94854C22.6521 7.78234 22.6142 7.63923 22.5385 7.5192C22.4628 7.39733 22.3594 7.30407 22.2283 7.23944C22.0972 7.17297 21.9485 7.13973 21.7824 7.13973C21.6088 7.13973 21.4574 7.17481 21.3281 7.24498C21.1988 7.31515 21.0991 7.41579 21.0289 7.5469C20.9588 7.67801 20.9237 7.83405 20.9237 8.01501H19.7853C19.7853 7.64385 19.8693 7.32162 20.0373 7.04832C20.2054 6.77503 20.4408 6.56359 20.7436 6.41402C21.0465 6.26444 21.3955 6.18966 21.7907 6.18966C22.1969 6.18966 22.5505 6.26167 22.8515 6.40571C23.1544 6.5479 23.3898 6.74548 23.5578 6.99846C23.7259 7.25145 23.8099 7.54136 23.8099 7.86821C23.8099 8.08241 23.7674 8.29385 23.6825 8.50251C23.5994 8.71118 23.4507 8.94292 23.2365 9.19775C23.0223 9.45074 22.7204 9.7545 22.3308 10.109L21.5026 10.9206V10.9594H23.8847V11.9399H19.8407Z" fill="#0B983C"/>
</g>
<defs>
<clipPath id="clip0_1_58">
<rect width="40" height="26" fill="white"/>
</clipPath>
</defs>
</svg>
