<svg width="55" height="40" viewBox="0 0 55 40" fill="none" xmlns="http://www.w3.org/2000/svg">
<g clip-path="url(#clip0_1_308)">
<path d="M26.5 38.9384C26.3838 38.8288 26.2181 38.6702 26.0077 38.4648C25.5254 37.994 24.9873 37.4512 24.4069 36.8442C22.7491 35.1096 21.0934 33.2152 19.5484 31.2208C16.8162 27.6936 14.7564 24.2756 13.5814 21.087C12.8637 19.1395 12.5 17.3341 12.5 15.6771C12.5 7.05208 18.5432 1 26.5 1C34.4568 1 40.5 7.05208 40.5 15.6771C40.5 17.3341 40.1364 19.1395 39.4186 21.087C38.2436 24.2756 36.1838 27.6936 33.4516 31.2208C31.9066 33.2152 30.251 35.1096 28.593 36.8442C28.0128 37.4512 27.4746 37.994 26.9922 38.4648C26.7818 38.6702 26.6162 38.8288 26.5 38.9384Z" fill="#05471C" stroke="#05471C" stroke-width="2"/>
<path d="M26.5 26C32.5751 26 37.5 21.0751 37.5 15C37.5 8.92487 32.5751 4 26.5 4C20.4249 4 15.5 8.92487 15.5 15C15.5 21.0751 20.4249 26 26.5 26Z" fill="white"/>
<path d="M19.6667 19.6V10.8727H21.5119V14.7207H21.627L24.7676 10.8727H26.9792L23.7406 14.7804L27.0176 19.6H24.8102L22.4196 16.0119L21.5119 17.1199V19.6H19.6667ZM31.1149 19.7193C30.4785 19.7193 29.9118 19.6099 29.4146 19.3912C28.9203 19.1696 28.5297 18.8656 28.2427 18.4792C27.9586 18.09 27.8123 17.6412 27.8038 17.1326H29.6618C29.6731 17.3457 29.7427 17.5332 29.8706 17.6951C30.0012 17.8542 30.1745 17.9778 30.3904 18.0659C30.6064 18.154 30.8493 18.198 31.1191 18.198C31.4004 18.198 31.649 18.1483 31.8649 18.0488C32.0808 17.9494 32.2498 17.8116 32.372 17.6355C32.4941 17.4594 32.5552 17.2562 32.5552 17.0261C32.5552 16.7932 32.4899 16.5872 32.3592 16.4082C32.2314 16.2264 32.0467 16.0844 31.8052 15.9821C31.5666 15.8798 31.2825 15.8287 30.9529 15.8287H30.139V14.4736H30.9529C31.2314 14.4736 31.4771 14.4253 31.6902 14.3287C31.9061 14.2321 32.0737 14.0986 32.193 13.9281C32.3123 13.7548 32.372 13.5531 32.372 13.323C32.372 13.1042 32.3194 12.9125 32.2143 12.7477C32.112 12.5801 31.9672 12.4494 31.7797 12.3557C31.595 12.2619 31.3791 12.215 31.1319 12.215C30.8819 12.215 30.6532 12.2605 30.4458 12.3514C30.2385 12.4395 30.0723 12.5659 29.9473 12.7307C29.8223 12.8954 29.7555 13.0886 29.747 13.3102H27.9785C27.987 12.8074 28.1305 12.3642 28.4089 11.9807C28.6873 11.5971 29.0623 11.2974 29.5339 11.0815C30.0083 10.8628 30.5439 10.7534 31.1404 10.7534C31.7427 10.7534 32.2697 10.8628 32.7214 11.0815C33.1731 11.3003 33.524 11.5957 33.774 11.9679C34.0268 12.3372 34.1518 12.752 34.149 13.2122C34.1518 13.7008 33.9998 14.1085 33.693 14.4352C33.389 14.7619 32.9927 14.9693 32.5041 15.0574V15.1255C33.1461 15.2079 33.6348 15.4309 33.97 15.7946C34.3081 16.1554 34.4757 16.6071 34.4728 17.1497C34.4757 17.6469 34.3322 18.0886 34.0424 18.475C33.7555 18.8613 33.3592 19.1653 32.8535 19.3869C32.3478 19.6085 31.7683 19.7193 31.1149 19.7193Z" fill="#05471C"/>
</g>
<defs>
<clipPath id="clip0_1_308">
<rect width="55" height="40" fill="white"/>
</clipPath>
</defs>
</svg>
