<svg width="40" height="26" viewBox="0 0 40 26" fill="none" xmlns="http://www.w3.org/2000/svg">
<g clip-path="url(#clip0_1_30)">
<path d="M19.35 25.31C19.2744 25.2387 19.1668 25.1357 19.03 25.0021C18.7165 24.6961 18.3667 24.3433 17.9895 23.9488C16.9119 22.8213 15.8357 21.5899 14.8315 20.2935C13.0555 18.0009 11.7167 15.7792 10.9529 13.7066C10.4864 12.4407 10.25 11.2672 10.25 10.1901C10.25 4.58388 14.1781 0.650024 19.35 0.650024C24.5219 0.650024 28.45 4.58388 28.45 10.1901C28.45 11.2672 28.2137 12.4407 27.7471 13.7066C26.9833 15.7792 25.6445 18.0009 23.8685 20.2935C22.8643 21.5899 21.7881 22.8213 20.7104 23.9488C20.3333 24.3433 19.9835 24.6961 19.6699 25.0021C19.5332 25.1357 19.4255 25.2387 19.35 25.31Z" fill="#0B983C" stroke="#0B983C" stroke-width="1.3"/>
<path d="M19.35 16.9C23.2988 16.9 26.5 13.6988 26.5 9.74998C26.5 5.80114 23.2988 2.59998 19.35 2.59998C15.4012 2.59998 12.2 5.80114 12.2 9.74998C12.2 13.6988 15.4012 16.9 19.35 16.9Z" fill="white"/>
<path d="M14.9938 11.9399V6.26721H17.2652C17.6825 6.26721 18.0306 6.32907 18.3094 6.4528C18.5882 6.57652 18.7978 6.74825 18.9382 6.968C19.0785 7.18589 19.1487 7.43703 19.1487 7.7214C19.1487 7.943 19.1044 8.13781 19.0157 8.30585C18.9271 8.47204 18.8052 8.60869 18.6501 8.71579C18.4968 8.82105 18.3214 8.89584 18.1238 8.94015V8.99555C18.3399 9.00479 18.5421 9.06572 18.7304 9.17836C18.9206 9.29101 19.0748 9.44889 19.193 9.65202C19.3112 9.85329 19.3703 10.0934 19.3703 10.3722C19.3703 10.6732 19.2955 10.9419 19.1459 11.1782C18.9982 11.4127 18.7794 11.5983 18.4894 11.735C18.1995 11.8716 17.8422 11.9399 17.4175 11.9399H14.9938ZM16.1932 10.9594H17.171C17.5052 10.9594 17.749 10.8957 17.9022 10.7683C18.0555 10.639 18.1321 10.4673 18.1321 10.2531C18.1321 10.0961 18.0943 9.95763 18.0186 9.8376C17.9429 9.71757 17.8348 9.62339 17.6945 9.55507C17.556 9.48675 17.3907 9.45258 17.1987 9.45258H16.1932V10.9594ZM16.1932 8.64101H17.0823C17.2467 8.64101 17.3926 8.61238 17.52 8.55514C17.6492 8.49605 17.7508 8.41295 17.8247 8.30585C17.9004 8.19875 17.9382 8.07041 17.9382 7.92084C17.9382 7.71586 17.8653 7.55059 17.7194 7.42503C17.5754 7.29946 17.3704 7.23667 17.1045 7.23667H16.1932V8.64101ZM22.2142 12.0175C21.8006 12.0175 21.4322 11.9464 21.1091 11.8042C20.7878 11.6602 20.5338 11.4626 20.3473 11.2115C20.1627 10.9585 20.0676 10.6667 20.062 10.3362H21.2697C21.2771 10.4747 21.3223 10.5965 21.4054 10.7018C21.4904 10.8052 21.603 10.8855 21.7434 10.9428C21.8837 11 22.0416 11.0286 22.217 11.0286C22.3998 11.0286 22.5614 10.9963 22.7017 10.9317C22.8421 10.8671 22.952 10.7775 23.0314 10.663C23.1108 10.5485 23.1505 10.4165 23.1505 10.2669C23.1505 10.1155 23.108 9.98163 23.0231 9.8653C22.94 9.74711 22.8199 9.65479 22.663 9.58831C22.5079 9.52183 22.3232 9.48859 22.109 9.48859H21.5799V8.60777H22.109C22.29 8.60777 22.4497 8.57638 22.5882 8.51359C22.7285 8.45081 22.8375 8.36402 22.915 8.25322C22.9926 8.14058 23.0314 8.00947 23.0314 7.8599C23.0314 7.71771 22.9972 7.59307 22.9289 7.48596C22.8624 7.37702 22.7682 7.29207 22.6463 7.23113C22.5263 7.1702 22.386 7.13973 22.2253 7.13973C22.0628 7.13973 21.9142 7.16927 21.7794 7.22836C21.6446 7.28561 21.5365 7.36778 21.4553 7.47488C21.374 7.58199 21.3307 7.70755 21.3251 7.85159H20.1756C20.1811 7.52474 20.2744 7.23667 20.4554 6.98738C20.6363 6.73809 20.8801 6.54328 21.1866 6.40294C21.495 6.26075 21.8431 6.18966 22.2309 6.18966C22.6223 6.18966 22.9649 6.26075 23.2585 6.40294C23.5521 6.54513 23.7802 6.73717 23.9427 6.97907C24.107 7.21913 24.1883 7.48873 24.1864 7.78788C24.1883 8.1055 24.0895 8.37048 23.89 8.58284C23.6924 8.7952 23.4348 8.93 23.1172 8.98724V9.03156C23.5346 9.08511 23.8522 9.23007 24.0701 9.46643C24.2898 9.70095 24.3988 9.99456 24.3969 10.3473C24.3988 10.6704 24.3055 10.9576 24.1172 11.2087C23.9307 11.4598 23.6731 11.6574 23.3444 11.8014C23.0157 11.9455 22.639 12.0175 22.2142 12.0175Z" fill="#0B983C"/>
</g>
<defs>
<clipPath id="clip0_1_30">
<rect width="40" height="26" fill="white"/>
</clipPath>
</defs>
</svg>
