<svg width="60" height="45" viewBox="0 0 21 20" fill="none" xmlns="http://www.w3.org/2000/svg">
<path d="M10 19.4692C9.94188 19.4144 9.85905 19.3351 9.75385 19.2324C9.51272 18.997 9.24363 18.7256 8.95347 18.4221C8.12453 17.5548 7.29668 16.6076 6.52421 15.6104C5.15811 13.8468 4.1282 12.1378 3.54068 10.5435C3.18183 9.56975 3 8.66704 3 7.83854C3 3.52604 6.02161 0.5 10 0.5C13.9784 0.5 17 3.52604 17 7.83854C17 8.66704 16.8182 9.56975 16.4593 10.5435C15.8718 12.1378 14.8419 13.8468 13.4758 15.6104C12.7033 16.6076 11.8755 17.5548 11.0465 18.4221C10.7564 18.7256 10.4873 18.997 10.2461 19.2324C10.1409 19.3351 10.0581 19.4144 10 19.4692Z" fill="#05471C" stroke="#05471C"/>
<path d="M10 13C6.96243 13 4.5 10.5376 4.5 7.5C4.5 4.46243 6.96243 2 10 2C13.0376 2 15.5 4.46243 15.5 7.5C15.5 10.5376 13.0376 13 10 13Z" fill="white"/>
<path d="M11.9545 6.07812C11.9048 5.9053 11.835 5.7526 11.745 5.62003C11.6551 5.48509 11.545 5.37145 11.4148 5.27912C11.2869 5.18442 11.1402 5.11222 10.9744 5.0625C10.8111 5.01278 10.63 4.98793 10.4311 4.98793C10.0594 4.98793 9.73272 5.08026 9.45099 5.26491C9.17164 5.44957 8.95384 5.71828 8.79759 6.07102C8.64134 6.4214 8.56321 6.84991 8.56321 7.35653C8.56321 7.86316 8.64015 8.29403 8.79403 8.64915C8.94792 9.00426 9.16572 9.27533 9.44744 9.46236C9.72917 9.64702 10.0618 9.73935 10.4453 9.73935C10.7933 9.73935 11.0904 9.67779 11.3366 9.55469C11.5852 9.42921 11.7746 9.25284 11.9048 9.02557C12.0374 8.7983 12.1037 8.52959 12.1037 8.21946L12.4162 8.26562H10.5412V7.10795H13.5845V8.02415C13.5845 8.66335 13.4496 9.21259 13.1797 9.67188C12.9098 10.1288 12.5381 10.4815 12.0646 10.7301C11.5911 10.9763 11.049 11.0994 10.4382 11.0994C9.75639 11.0994 9.15743 10.9491 8.64134 10.6484C8.12524 10.3454 7.72277 9.91572 7.43395 9.35938C7.14749 8.80066 7.00426 8.13778 7.00426 7.37074C7.00426 6.78125 7.08949 6.25568 7.25994 5.79403C7.43277 5.33002 7.67424 4.93703 7.98438 4.61506C8.29451 4.29309 8.65554 4.04806 9.06747 3.87997C9.4794 3.71188 9.92566 3.62784 10.4062 3.62784C10.8182 3.62784 11.2017 3.68821 11.5568 3.80895C11.9119 3.92732 12.2268 4.09541 12.5014 4.31321C12.7784 4.53101 13.0045 4.79025 13.1797 5.09091C13.3549 5.3892 13.4673 5.71828 13.517 6.07812H11.9545Z" fill="#05471C"/>
</svg>
