<svg width="40" height="26" viewBox="0 0 40 26" fill="none" xmlns="http://www.w3.org/2000/svg">
<g clip-path="url(#clip0_1_54)">
<path d="M19.35 25.31C19.2744 25.2387 19.1668 25.1357 19.03 25.0021C18.7165 24.6961 18.3667 24.3433 17.9895 23.9488C16.9119 22.8213 15.8357 21.5899 14.8315 20.2935C13.0555 18.0009 11.7167 15.7792 10.9529 13.7066C10.4864 12.4407 10.25 11.2672 10.25 10.1901C10.25 4.58388 14.1781 0.650024 19.35 0.650024C24.5219 0.650024 28.45 4.58388 28.45 10.1901C28.45 11.2672 28.2137 12.4407 27.7471 13.7066C26.9833 15.7792 25.6445 18.0009 23.8685 20.2935C22.8643 21.5899 21.7881 22.8213 20.7104 23.9488C20.3333 24.3433 19.9835 24.6961 19.6699 25.0021C19.5332 25.1357 19.4255 25.2387 19.35 25.31Z" fill="#0B983C" stroke="#0B983C" stroke-width="1.3"/>
<path d="M19.35 16.9C23.2988 16.9 26.5 13.6988 26.5 9.74998C26.5 5.80114 23.2988 2.59998 19.35 2.59998C15.4012 2.59998 12.2 5.80114 12.2 9.74998C12.2 13.6988 15.4012 16.9 19.35 16.9Z" fill="white"/>
<path d="M16.9085 11.9399H14.8975V6.26721H16.9251C17.4957 6.26721 17.9869 6.38078 18.3987 6.60791C18.8105 6.83319 19.1271 7.15727 19.3487 7.58014C19.5722 8.00301 19.6839 8.50898 19.6839 9.09804C19.6839 9.68895 19.5722 10.1968 19.3487 10.6215C19.1271 11.0462 18.8086 11.3721 18.3931 11.5992C17.9795 11.8264 17.4846 11.9399 16.9085 11.9399ZM16.0969 10.9123H16.8586C17.2132 10.9123 17.5114 10.8495 17.7533 10.724C17.997 10.5965 18.1798 10.3999 18.3017 10.134C18.4254 9.86622 18.4873 9.52091 18.4873 9.09804C18.4873 8.67886 18.4254 8.33632 18.3017 8.07041C18.1798 7.8045 17.998 7.60876 17.756 7.48319C17.5141 7.35763 17.2159 7.29484 16.8614 7.29484H16.0969V10.9123ZM23.0071 6.26721V11.9399H21.8077V7.40564H21.7745L20.4754 8.21998V7.15635L21.8797 6.26721H23.0071Z" fill="#0B983C"/>
</g>
<defs>
<clipPath id="clip0_1_54">
<rect width="40" height="26" fill="white"/>
</clipPath>
</defs>
</svg>
