<svg width="55" height="40" viewBox="0 0 55 40" fill="none" xmlns="http://www.w3.org/2000/svg">
<g clip-path="url(#clip0_1_340)">
<path d="M26.5 38.9384C26.3838 38.8288 26.2181 38.6702 26.0077 38.4648C25.5254 37.994 24.9873 37.4512 24.4069 36.8442C22.7491 35.1096 21.0934 33.2152 19.5484 31.2208C16.8162 27.6936 14.7564 24.2756 13.5814 21.087C12.8637 19.1395 12.5 17.3341 12.5 15.6771C12.5 7.05208 18.5432 1 26.5 1C34.4568 1 40.5 7.05208 40.5 15.6771C40.5 17.3341 40.1364 19.1395 39.4186 21.087C38.2436 24.2756 36.1838 27.6936 33.4516 31.2208C31.9066 33.2152 30.251 35.1096 28.593 36.8442C28.0128 37.4512 27.4746 37.994 26.9922 38.4648C26.7818 38.6702 26.6162 38.8288 26.5 38.9384Z" fill="#05471C" stroke="#05471C" stroke-width="2"/>
<path d="M26.5 26C32.5751 26 37.5 21.0751 37.5 15C37.5 8.92487 32.5751 4 26.5 4C20.4249 4 15.5 8.92487 15.5 15C15.5 21.0751 20.4249 26 26.5 26Z" fill="white"/>
<path d="M18.3132 10.8727H20.5888L22.9922 16.7363H23.0945L25.4979 10.8727H27.7734V19.6H25.9837V13.9196H25.9112L23.6527 19.5574H22.4339L20.1754 13.8983H20.103V19.6H18.3132V10.8727ZM32.4684 19.7193C31.832 19.7193 31.2653 19.6099 30.7681 19.3912C30.2738 19.1696 29.8832 18.8656 29.5962 18.4792C29.3121 18.09 29.1658 17.6412 29.1573 17.1326H31.0153C31.0266 17.3457 31.0962 17.5332 31.2241 17.6951C31.3548 17.8542 31.5281 17.9778 31.744 18.0659C31.9599 18.154 32.2028 18.198 32.4727 18.198C32.7539 18.198 33.0025 18.1483 33.2184 18.0488C33.4343 17.9494 33.6033 17.8116 33.7255 17.6355C33.8477 17.4594 33.9087 17.2562 33.9087 17.0261C33.9087 16.7932 33.8434 16.5872 33.7127 16.4082C33.5849 16.2264 33.4002 16.0844 33.1587 15.9821C32.9201 15.8798 32.636 15.8287 32.3065 15.8287H31.4925V14.4736H32.3065C32.5849 14.4736 32.8306 14.4253 33.0437 14.3287C33.2596 14.2321 33.4272 14.0986 33.5465 13.9281C33.6658 13.7548 33.7255 13.5531 33.7255 13.323C33.7255 13.1042 33.6729 12.9125 33.5678 12.7477C33.4656 12.5801 33.3207 12.4494 33.1332 12.3557C32.9485 12.2619 32.7326 12.215 32.4854 12.215C32.2354 12.215 32.0067 12.2605 31.7994 12.3514C31.592 12.4395 31.4258 12.5659 31.3008 12.7307C31.1758 12.8954 31.109 13.0886 31.1005 13.3102H29.332C29.3406 12.8074 29.484 12.3642 29.7624 11.9807C30.0408 11.5971 30.4158 11.2974 30.8874 11.0815C31.3619 10.8628 31.8974 10.7534 32.494 10.7534C33.0962 10.7534 33.6232 10.8628 34.0749 11.0815C34.5266 11.3003 34.8775 11.5957 35.1275 11.9679C35.3803 12.3372 35.5053 12.752 35.5025 13.2122C35.5053 13.7008 35.3533 14.1085 35.0465 14.4352C34.7425 14.7619 34.3462 14.9693 33.8576 15.0574V15.1255C34.4996 15.2079 34.9883 15.4309 35.3235 15.7946C35.6616 16.1554 35.8292 16.6071 35.8263 17.1497C35.8292 17.6469 35.6857 18.0886 35.396 18.475C35.109 18.8613 34.7127 19.1653 34.207 19.3869C33.7013 19.6085 33.1218 19.7193 32.4684 19.7193Z" fill="#05471C"/>
</g>
<defs>
<clipPath id="clip0_1_340">
<rect width="55" height="40" fill="white"/>
</clipPath>
</defs>
</svg>
