<svg width="55" height="40" viewBox="0 0 55 40" fill="none" xmlns="http://www.w3.org/2000/svg">
<g clip-path="url(#clip0_1_384)">
<path d="M26.5 38.9384C26.3838 38.8288 26.2181 38.6702 26.0077 38.4648C25.5254 37.994 24.9873 37.4512 24.4069 36.8442C22.7491 35.1096 21.0934 33.2152 19.5484 31.2208C16.8162 27.6936 14.7564 24.2756 13.5814 21.087C12.8637 19.1395 12.5 17.3341 12.5 15.6771C12.5 7.05208 18.5432 1 26.5 1C34.4568 1 40.5 7.05208 40.5 15.6771C40.5 17.3341 40.1364 19.1395 39.4186 21.087C38.2436 24.2756 36.1838 27.6936 33.4516 31.2208C31.9066 33.2152 30.251 35.1096 28.593 36.8442C28.0128 37.4512 27.4746 37.994 26.9922 38.4648C26.7818 38.6702 26.6162 38.8288 26.5 38.9384Z" fill="#05471C" stroke="#05471C" stroke-width="2"/>
<path d="M26.5 26C32.5751 26 37.5 21.0751 37.5 15C37.5 8.92487 32.5751 4 26.5 4C20.4249 4 15.5 8.92487 15.5 15C15.5 21.0751 20.4249 26 26.5 26Z" fill="white"/>
<path d="M19.5945 19.6V10.8727H23.0376C23.6996 10.8727 24.2635 10.9991 24.7294 11.252C25.1953 11.502 25.5504 11.85 25.7947 12.296C26.0419 12.7392 26.1655 13.2505 26.1655 13.8301C26.1655 14.4096 26.0405 14.921 25.7905 15.3642C25.5405 15.8074 25.1783 16.1525 24.7038 16.3997C24.2322 16.6469 23.6612 16.7704 22.9908 16.7704H20.7962V15.2917H22.6925C23.0476 15.2917 23.3402 15.2307 23.5703 15.1085C23.8033 14.9835 23.9766 14.8116 24.0902 14.5929C24.2067 14.3713 24.2649 14.117 24.2649 13.8301C24.2649 13.5403 24.2067 13.2875 24.0902 13.0716C23.9766 12.8528 23.8033 12.6838 23.5703 12.5645C23.3374 12.4423 23.0419 12.3812 22.6839 12.3812H21.4396V19.6H19.5945ZM27.3129 19.6V18.2704L30.4194 15.394C30.6836 15.1383 30.9052 14.9082 31.0842 14.7037C31.266 14.4991 31.4038 14.2988 31.4975 14.1028C31.5913 13.904 31.6381 13.6895 31.6381 13.4594C31.6381 13.2037 31.5799 12.9835 31.4634 12.7988C31.3469 12.6113 31.1879 12.4679 30.9862 12.3684C30.7844 12.2662 30.5558 12.215 30.3001 12.215C30.033 12.215 29.8001 12.269 29.6012 12.377C29.4023 12.4849 29.2489 12.6397 29.141 12.8415C29.033 13.0432 28.979 13.2832 28.979 13.5616H27.2276C27.2276 12.9906 27.3569 12.4949 27.6154 12.0744C27.8739 11.654 28.2362 11.3287 28.7021 11.0986C29.168 10.8684 29.7049 10.7534 30.3129 10.7534C30.9379 10.7534 31.4819 10.8642 31.945 11.0858C32.4109 11.3045 32.7731 11.6085 33.0316 11.9977C33.2901 12.3869 33.4194 12.8329 33.4194 13.3358C33.4194 13.6653 33.354 13.9906 33.2234 14.3116C33.0955 14.6326 32.8668 14.9892 32.5373 15.3812C32.2077 15.7704 31.7433 16.2378 31.1438 16.7832L29.8697 18.0318V18.0915H33.5344V19.6H27.3129Z" fill="#05471C"/>
</g>
<defs>
<clipPath id="clip0_1_384">
<rect width="55" height="40" fill="white"/>
</clipPath>
</defs>
</svg>
