<svg width="80" height="62.3" viewBox="0 0 20 20" fill="none" xmlns="http://www.w3.org/2000/svg">
<path d="M10 18.8365C9.94754 18.7875 9.87729 18.7211 9.79072 18.6379C9.56598 18.422 9.31513 18.173 9.0446 17.8944C8.27172 17.0984 7.49996 16.2291 6.77993 15.3141C5.50631 13.6957 4.54787 12.1294 4.00168 10.6704C3.66816 9.77948 3.5 8.95578 3.5 8.20166C3.5 4.26818 6.29899 1.5 10 1.5C13.701 1.5 16.5 4.26818 16.5 8.20166C16.5 8.95578 16.3318 9.77948 15.9983 10.6704C15.4521 12.1294 14.4937 13.6957 13.2201 15.3141C12.5 16.2291 11.7283 17.0984 10.9554 17.8944C10.6849 18.173 10.434 18.422 10.2093 18.6379C10.1227 18.7211 10.0525 18.7875 10 18.8365Z" fill="#FF2F48" stroke="#FF2F48"/>
<path d="M10 13C7.23858 13 5 10.7614 5 8C5 5.23858 7.23858 3 10 3C12.7614 3 15 5.23858 15 8C15 10.7614 12.7614 13 10 13Z" fill="white"/>
<path d="M9.99733 11C9.62933 11 9.31378 10.9473 9.05067 10.842C8.78933 10.7384 8.58133 10.597 8.42667 10.4177C8.272 10.2384 8.17156 10.037 8.12533 9.81331L9.176 9.66636C9.208 9.75139 9.25867 9.83087 9.328 9.90481C9.39733 9.97874 9.48889 10.0379 9.60267 10.0823C9.71822 10.1285 9.85867 10.1516 10.024 10.1516C10.2711 10.1516 10.4747 10.0887 10.6347 9.96303C10.7964 9.83919 10.8773 9.63124 10.8773 9.33919V8.56007H10.8293C10.7796 8.67837 10.7049 8.7902 10.6053 8.89556C10.5058 9.00092 10.3778 9.08688 10.2213 9.15342C10.0649 9.21996 9.87822 9.25323 9.66133 9.25323C9.35378 9.25323 9.07378 9.1793 8.82133 9.03142C8.57067 8.8817 8.37067 8.65342 8.22133 8.34658C8.07378 8.03789 8 7.64787 8 7.17652C8 6.69408 8.07556 6.29113 8.22667 5.96765C8.37778 5.64418 8.57867 5.40203 8.82933 5.24122C9.08178 5.08041 9.35822 5 9.65867 5C9.888 5 10.08 5.04067 10.2347 5.122C10.3893 5.20148 10.5138 5.30129 10.608 5.42144C10.704 5.53974 10.7778 5.65619 10.8293 5.77079H10.872V5.05545H12V9.35582C12 9.71811 11.9147 10.0213 11.744 10.2652C11.5733 10.5092 11.3369 10.6922 11.0347 10.8142C10.7342 10.9381 10.3884 11 9.99733 11ZM10.0213 8.36599C10.2044 8.36599 10.3591 8.31885 10.4853 8.22458C10.6133 8.12847 10.7111 7.99168 10.7787 7.81423C10.848 7.63493 10.8827 7.42052 10.8827 7.17098C10.8827 6.92144 10.8489 6.70518 10.7813 6.52218C10.7138 6.33734 10.616 6.19408 10.488 6.09242C10.36 5.99076 10.2044 5.93993 10.0213 5.93993C9.83467 5.93993 9.67733 5.99261 9.54933 6.09797C9.42133 6.20148 9.32444 6.34566 9.25867 6.5305C9.19289 6.71534 9.16 6.92884 9.16 7.17098C9.16 7.41682 9.19289 7.62939 9.25867 7.80869C9.32622 7.98614 9.42311 8.12384 9.54933 8.22181C9.67733 8.31793 9.83467 8.36599 10.0213 8.36599Z" fill="#FF2F48"/>
</svg>
