<svg width="40" height="36" viewBox="0 0 20 20" fill="none" xmlns="http://www.w3.org/2000/svg">
<path d="M10 18.8365C9.94754 18.7875 9.87729 18.7211 9.79072 18.6379C9.56598 18.422 9.31513 18.173 9.0446 17.8944C8.27172 17.0984 7.49996 16.2291 6.77993 15.3141C5.50631 13.6957 4.54787 12.1294 4.00168 10.6704C3.66816 9.77948 3.5 8.95578 3.5 8.20166C3.5 4.26818 6.29899 1.5 10 1.5C13.701 1.5 16.5 4.26818 16.5 8.20166C16.5 8.95578 16.3318 9.77948 15.9983 10.6704C15.4521 12.1294 14.4937 13.6957 13.2201 15.3141C12.5 16.2291 11.7283 17.0984 10.9554 17.8944C10.6849 18.173 10.434 18.422 10.2093 18.6379C10.1227 18.7211 10.0525 18.7875 10 18.8365Z" fill="#ff8b99" stroke="#ff8b99"/>
<path d="M10 13C7.23858 13 5 10.7614 5 8C5 5.23858 7.23858 3 10 3C12.7614 3 15 5.23858 15 8C15 10.7614 12.7614 13 10 13Z" fill="white"/>
<path d="M9.48364 10C9.19855 10 8.94449 9.94637 8.72145 9.83912C8.49842 9.72976 8.32194 9.56887 8.192 9.35647C8.064 9.14196 8 8.87487 8 8.5552C8 8.28601 8.04558 8.05994 8.13673 7.87697C8.22788 7.69401 8.352 7.54679 8.50909 7.43533C8.66618 7.32387 8.84461 7.23975 9.04436 7.18296C9.24606 7.12618 9.45745 7.08622 9.67855 7.06309C9.93842 7.03365 10.1479 7.00631 10.3069 6.98107C10.4659 6.95373 10.5813 6.91378 10.6531 6.8612C10.7248 6.80862 10.7607 6.73081 10.7607 6.62776V6.60883C10.7607 6.40904 10.7025 6.25447 10.5862 6.14511C10.4718 6.03575 10.3088 5.98107 10.0975 5.98107C9.87442 5.98107 9.69697 6.0347 9.56509 6.14196C9.43321 6.24711 9.34594 6.3796 9.30327 6.53943L8.15709 6.43849C8.21527 6.14406 8.3297 5.88959 8.50036 5.67508C8.67103 5.45846 8.89115 5.29232 9.16073 5.17666C9.43224 5.05889 9.74642 5 10.1033 5C10.3515 5 10.5891 5.03155 10.816 5.09464C11.0448 5.15773 11.2475 5.25552 11.424 5.38801C11.6024 5.5205 11.743 5.69085 11.8458 5.89905C11.9486 6.10515 12 6.35226 12 6.64038V9.90852H10.8247V9.23659H10.7898C10.7181 9.38801 10.6221 9.52156 10.5018 9.63722C10.3816 9.75079 10.2371 9.84017 10.0684 9.90536C9.89964 9.96845 9.70473 10 9.48364 10ZM9.83855 9.07256C10.0208 9.07256 10.1818 9.03365 10.3215 8.95584C10.4611 8.87592 10.5707 8.76866 10.6502 8.63407C10.7297 8.49947 10.7695 8.347 10.7695 8.17666V7.66246C10.7307 7.6898 10.6773 7.71504 10.6095 7.73817C10.5435 7.7592 10.4688 7.77918 10.3855 7.79811C10.3021 7.81493 10.2187 7.8307 10.1353 7.84543C10.0519 7.85804 9.97624 7.86961 9.90836 7.88013C9.76291 7.90326 9.63588 7.94006 9.52727 7.99054C9.41867 8.04101 9.3343 8.10936 9.27418 8.19558C9.21406 8.27971 9.184 8.38486 9.184 8.51104C9.184 8.69401 9.24509 8.83386 9.36727 8.9306C9.49139 9.02524 9.64849 9.07256 9.83855 9.07256Z" fill="#ff8b99"/>
</svg>
