<svg width="55" height="40" viewBox="0 0 55 40" fill="none" xmlns="http://www.w3.org/2000/svg">
<g clip-path="url(#clip0_1_1258)">
<path d="M26.5 38.9384C26.3838 38.8288 26.2181 38.6702 26.0077 38.4648C25.5254 37.994 24.9873 37.4512 24.4069 36.8442C22.7491 35.1096 21.0934 33.2152 19.5484 31.2208C16.8162 27.6936 14.7564 24.2756 13.5814 21.087C12.8637 19.1395 12.5 17.3341 12.5 15.6771C12.5 7.05208 18.5432 1 26.5 1C34.4568 1 40.5 7.05208 40.5 15.6771C40.5 17.3341 40.1364 19.1395 39.4186 21.087C38.2436 24.2756 36.1838 27.6936 33.4516 31.2208C31.9066 33.2152 30.251 35.1096 28.593 36.8442C28.0128 37.4512 27.4746 37.994 26.9922 38.4648C26.7818 38.6702 26.6162 38.8288 26.5 38.9384Z" fill="#FF2F48" stroke="#FF2F48" stroke-width="2"/>
<path d="M26.5 26C32.5751 26 37.5 21.0751 37.5 15C37.5 8.92487 32.5751 4 26.5 4C20.4249 4 15.5 8.92487 15.5 15C15.5 21.0751 20.4249 26 26.5 26Z" fill="white"/>
<path d="M19.3659 19.6V10.8727H22.8091C23.4682 10.8727 24.0307 10.9906 24.4966 11.2264C24.9654 11.4594 25.3219 11.7903 25.5662 12.2193C25.8134 12.6455 25.937 13.1469 25.937 13.7236C25.937 14.3031 25.812 14.8017 25.562 15.2193C25.312 15.6341 24.9498 15.9523 24.4753 16.1739C24.0037 16.3955 23.4327 16.5062 22.7623 16.5062H20.4569V15.0233H22.464C22.8162 15.0233 23.1088 14.975 23.3418 14.8784C23.5748 14.7818 23.748 14.6369 23.8617 14.4437C23.9782 14.2506 24.0364 14.0105 24.0364 13.7236C24.0364 13.4338 23.9782 13.1895 23.8617 12.9906C23.748 12.7918 23.5733 12.6412 23.3375 12.5389C23.1046 12.4338 22.8105 12.3812 22.4554 12.3812H21.2111V19.6H19.3659ZM24.079 15.6284L26.248 19.6H24.2111L22.089 15.6284H24.079ZM30.4157 19.7193C29.7793 19.7193 29.2125 19.6099 28.7154 19.3912C28.2211 19.1696 27.8304 18.8656 27.5435 18.4793C27.2594 18.0901 27.1131 17.6412 27.1046 17.1327H28.9625C28.9739 17.3457 29.0435 17.5332 29.1713 17.6952C29.302 17.8543 29.4753 17.9778 29.6912 18.0659C29.9071 18.154 30.15 18.198 30.4199 18.198C30.7012 18.198 30.9498 18.1483 31.1657 18.0489C31.3816 17.9494 31.5506 17.8116 31.6728 17.6355C31.7949 17.4594 31.856 17.2562 31.856 17.0261C31.856 16.7932 31.7907 16.5872 31.66 16.4082C31.5321 16.2264 31.3475 16.0844 31.106 15.9821C30.8674 15.8798 30.5833 15.8287 30.2537 15.8287H29.4398V14.4736H30.2537C30.5321 14.4736 30.7779 14.4253 30.9909 14.3287C31.2069 14.2321 31.3745 14.0986 31.4938 13.9281C31.6131 13.7548 31.6728 13.5531 31.6728 13.323C31.6728 13.1043 31.6202 12.9125 31.5151 12.7477C31.4128 12.5801 31.2679 12.4494 31.0804 12.3557C30.8958 12.2619 30.6799 12.2151 30.4327 12.2151C30.1827 12.2151 29.954 12.2605 29.7466 12.3514C29.5392 12.4395 29.373 12.5659 29.248 12.7307C29.123 12.8955 29.0563 13.0886 29.0478 13.3102H27.2793C27.2878 12.8074 27.4313 12.3642 27.7097 11.9807C27.9881 11.5972 28.3631 11.2974 28.8347 11.0815C29.3091 10.8628 29.8446 10.7534 30.4412 10.7534C31.0435 10.7534 31.5705 10.8628 32.0222 11.0815C32.4739 11.3003 32.8248 11.5957 33.0748 11.9679C33.3276 12.3372 33.4526 12.752 33.4498 13.2122C33.4526 13.7009 33.3006 14.1085 32.9938 14.4352C32.6898 14.7619 32.2935 14.9693 31.8049 15.0574V15.1256C32.4469 15.208 32.9355 15.431 33.2708 15.7946C33.6088 16.1554 33.7765 16.6071 33.7736 17.1497C33.7765 17.6469 33.633 18.0886 33.3432 18.475C33.0563 18.8614 32.66 19.1653 32.1543 19.3869C31.6486 19.6085 31.0691 19.7193 30.4157 19.7193Z" fill="#FF2F48"/>
</g>
<defs>
<clipPath id="clip0_1_1258">
<rect width="55" height="40" fill="white"/>
</clipPath>
</defs>
</svg>
