<svg width="60" height="45" viewBox="0 0 20 20" fill="none" xmlns="http://www.w3.org/2000/svg">
<path d="M9.5 19.4692C9.44188 19.4144 9.35905 19.3351 9.25385 19.2324C9.01272 18.997 8.74363 18.7256 8.45347 18.4221C7.62453 17.5548 6.79668 16.6076 6.02421 15.6104C4.65811 13.8468 3.6282 12.1378 3.04068 10.5435C2.68183 9.56975 2.5 8.66704 2.5 7.83854C2.5 3.52604 5.52161 0.5 9.5 0.5C13.4784 0.5 16.5 3.52604 16.5 7.83854C16.5 8.66704 16.3182 9.56975 15.9593 10.5435C15.3718 12.1378 14.3419 13.8468 12.9758 15.6104C12.2033 16.6076 11.3755 17.5548 10.5465 18.4221C10.2564 18.7256 9.98728 18.997 9.74615 19.2324C9.64095 19.3351 9.55812 19.4144 9.5 19.4692Z" fill="#FF2F48" stroke="#FF2F48"/>
<path d="M9.5 13C6.46243 13 4 10.5376 4 7.5C4 4.46243 6.46243 2 9.5 2C12.5376 2 15 4.46243 15 7.5C15 10.5376 12.5376 13 9.5 13Z" fill="white"/>
<path d="M8.07386 3.72727L9.54048 6.20597H9.5973L11.071 3.72727H12.8075L10.5881 7.36364L12.8572 11H11.0888L9.5973 8.51776H9.54048L8.04901 11H6.28764L8.56392 7.36364L6.33026 3.72727H8.07386Z" fill="#FF2F48"/>
</svg>
