<svg width="40" height="26" viewBox="0 0 40 26" fill="none" xmlns="http://www.w3.org/2000/svg">
<g clip-path="url(#clip0_1_880)">
<path d="M19.35 25.31C19.2744 25.2387 19.1668 25.1356 19.03 25.0021C18.7165 24.6961 18.3667 24.3433 17.9895 23.9487C16.9119 22.8212 15.8357 21.5899 14.8315 20.2935C13.0555 18.0008 11.7167 15.7791 10.9529 13.7065C10.4864 12.4407 10.25 11.2671 10.25 10.1901C10.25 4.58385 14.1781 0.649994 19.35 0.649994C24.5219 0.649994 28.45 4.58385 28.45 10.1901C28.45 11.2671 28.2137 12.4407 27.7471 13.7065C26.9833 15.7791 25.6445 18.0008 23.8685 20.2935C22.8643 21.5899 21.7881 22.8212 20.7104 23.9487C20.3333 24.3433 19.9835 24.6961 19.6699 25.0021C19.5332 25.1356 19.4255 25.2387 19.35 25.31Z" fill="#FF8B99" stroke="#FF8B99" stroke-width="1.3"/>
<path d="M19.35 16.9C23.2988 16.9 26.5 13.6988 26.5 9.75001C26.5 5.80117 23.2988 2.60001 19.35 2.60001C15.4012 2.60001 12.2 5.80117 12.2 9.75001C12.2 13.6988 15.4012 16.9 19.35 16.9Z" fill="white"/>
<path d="M19.1091 8.25328H17.8959C17.8737 8.09632 17.8285 7.95691 17.7601 7.83503C17.6918 7.71131 17.6041 7.60605 17.497 7.51926C17.3899 7.43247 17.2662 7.366 17.1258 7.31983C16.9873 7.27367 16.8368 7.25059 16.6743 7.25059C16.3807 7.25059 16.125 7.32353 15.9071 7.46941C15.6892 7.61344 15.5202 7.82395 15.4002 8.10094C15.2802 8.37608 15.2201 8.71031 15.2201 9.10364C15.2201 9.50804 15.2802 9.84781 15.4002 10.123C15.5221 10.3981 15.6919 10.6058 15.9098 10.7462C16.1277 10.8865 16.3798 10.9567 16.666 10.9567C16.8267 10.9567 16.9753 10.9355 17.112 10.893C17.2505 10.8505 17.3733 10.7887 17.4804 10.7074C17.5875 10.6243 17.6761 10.5237 17.7463 10.4055C17.8183 10.2873 17.8682 10.1525 17.8959 10.0011L19.1091 10.0066C19.0777 10.267 18.9992 10.5181 18.8736 10.76C18.7499 11.0001 18.5828 11.2152 18.3723 11.4054C18.1636 11.5938 17.9143 11.7433 17.6244 11.8541C17.3363 11.9631 17.0104 12.0176 16.6466 12.0176C16.1407 12.0176 15.6883 11.9031 15.2894 11.6741C14.8924 11.4451 14.5785 11.1137 14.3476 10.6797C14.1187 10.2458 14.0042 9.7204 14.0042 9.10364C14.0042 8.48503 14.1205 7.95875 14.3532 7.5248C14.5858 7.09085 14.9016 6.76031 15.3005 6.53318C15.6993 6.30421 16.1481 6.18972 16.6466 6.18972C16.9753 6.18972 17.28 6.23588 17.5607 6.32821C17.8432 6.42054 18.0934 6.55534 18.3113 6.73262C18.5292 6.90804 18.7065 7.12317 18.8432 7.378C18.9816 7.63283 19.0703 7.92459 19.1091 8.25328ZM19.9359 11.94V11.0758L21.9551 9.20612C22.1269 9.03993 22.2709 8.89036 22.3872 8.7574C22.5054 8.62445 22.595 8.49426 22.6559 8.36685C22.7168 8.23759 22.7473 8.09817 22.7473 7.9486C22.7473 7.7824 22.7095 7.63929 22.6337 7.51926C22.558 7.39739 22.4546 7.30414 22.3235 7.23951C22.1924 7.17303 22.0438 7.13979 21.8776 7.13979C21.704 7.13979 21.5526 7.17487 21.4233 7.24505C21.294 7.31522 21.1943 7.41585 21.1242 7.54696C21.054 7.67807 21.0189 7.83411 21.0189 8.01507H19.8805C19.8805 7.64391 19.9645 7.32168 20.1325 7.04838C20.3006 6.77509 20.536 6.56365 20.8389 6.41408C21.1417 6.26451 21.4907 6.18972 21.8859 6.18972C22.2921 6.18972 22.6457 6.26174 22.9467 6.40577C23.2496 6.54796 23.485 6.74554 23.6531 6.99853C23.8211 7.25151 23.9051 7.54142 23.9051 7.86827C23.9051 8.08247 23.8627 8.29391 23.7777 8.50257C23.6946 8.71124 23.546 8.94299 23.3318 9.19782C23.1176 9.4508 22.8156 9.75456 22.426 10.1091L21.5978 10.9207V10.9595H23.9799V11.94H19.9359Z" fill="#FF8B99"/>
</g>
<defs>
<clipPath id="clip0_1_880">
<rect width="40" height="26" fill="white"/>
</clipPath>
</defs>
</svg>
