<svg width="55" height="40" viewBox="0 0 55 40" fill="none" xmlns="http://www.w3.org/2000/svg">
<g clip-path="url(#clip0_1_1023)">
<path d="M26.5 38.9384C26.3838 38.8288 26.2181 38.6702 26.0077 38.4648C25.5254 37.994 24.9873 37.4512 24.4069 36.8442C22.7491 35.1096 21.0934 33.2152 19.5484 31.2208C16.8162 27.6936 14.7564 24.2756 13.5814 21.087C12.8637 19.1395 12.5 17.3341 12.5 15.6771C12.5 7.05208 18.5432 1 26.5 1C34.4568 1 40.5 7.05208 40.5 15.6771C40.5 17.3341 40.1364 19.1395 39.4186 21.087C38.2436 24.2756 36.1838 27.6936 33.4516 31.2208C31.9066 33.2152 30.251 35.1096 28.593 36.8442C28.0128 37.4512 27.4746 37.994 26.9922 38.4648C26.7818 38.6702 26.6162 38.8288 26.5 38.9384Z" fill="#FF2F48" stroke="#FF2F48" stroke-width="2"/>
<path d="M26.5 26C32.5751 26 37.5 21.0751 37.5 15C37.5 8.92487 32.5751 4 26.5 4C20.4249 4 15.5 8.92487 15.5 15C15.5 21.0751 20.4249 26 26.5 26Z" fill="white"/>
<path d="M23.5515 19.6H20.4577V10.8727H23.5771C24.4549 10.8727 25.2106 11.0474 25.8441 11.3969C26.4776 11.7435 26.9648 12.2421 27.3058 12.8926C27.6495 13.5432 27.8214 14.3216 27.8214 15.2278C27.8214 16.1369 27.6495 16.9182 27.3058 17.5716C26.9648 18.225 26.4748 18.7264 25.8356 19.0759C25.1992 19.4253 24.4379 19.6 23.5515 19.6ZM22.3029 18.019H23.4748C24.0202 18.019 24.479 17.9224 24.8512 17.7293C25.2262 17.5332 25.5075 17.2307 25.695 16.8216C25.8853 16.4097 25.9805 15.8784 25.9805 15.2278C25.9805 14.583 25.8853 14.056 25.695 13.6469C25.5075 13.2378 25.2276 12.9367 24.8555 12.7435C24.4833 12.5503 24.0245 12.4537 23.479 12.4537H22.3029V18.019ZM32.9339 10.8727V19.6H31.0888V12.6242H31.0376L29.0391 13.877V12.2406L31.1996 10.8727H32.9339Z" fill="#FF2F48"/>
</g>
<defs>
<clipPath id="clip0_1_1023">
<rect width="55" height="40" fill="white"/>
</clipPath>
</defs>
</svg>
