<svg width="40" height="26" viewBox="0 0 40 26" fill="none" xmlns="http://www.w3.org/2000/svg">
<g clip-path="url(#clip0_1_1586)">
<path d="M19.35 25.31C19.2744 25.2387 19.1668 25.1356 19.03 25.0021C18.7165 24.6961 18.3667 24.3433 17.9895 23.9487C16.9119 22.8212 15.8357 21.5899 14.8315 20.2935C13.0555 18.0008 11.7167 15.7791 10.9529 13.7066C10.4864 12.4407 10.25 11.2672 10.25 10.1901C10.25 4.58385 14.1781 0.650002 19.35 0.650002C24.5219 0.650002 28.45 4.58385 28.45 10.1901C28.45 11.2672 28.2137 12.4407 27.7471 13.7066C26.9833 15.7791 25.6445 18.0008 23.8685 20.2935C22.8643 21.5899 21.7881 22.8212 20.7104 23.9487C20.3333 24.3433 19.9835 24.6961 19.6699 25.0021C19.5332 25.1356 19.4255 25.2387 19.35 25.31Z" fill="#FF8B99" stroke="#FF8B99" stroke-width="1.3"/>
<path d="M19.35 16.9C23.2988 16.9 26.5 13.6988 26.5 9.75C26.5 5.80116 23.2988 2.6 19.35 2.6C15.4012 2.6 12.2 5.80116 12.2 9.75C12.2 13.6988 15.4012 16.9 19.35 16.9Z" fill="white"/>
<path d="M18.3938 6.26728H19.5932V9.95122C19.5932 10.3649 19.4944 10.7268 19.2968 11.037C19.1011 11.3472 18.8269 11.5892 18.4742 11.7627C18.1215 11.9345 17.7106 12.0203 17.2416 12.0203C16.7707 12.0203 16.3589 11.9345 16.0062 11.7627C15.6535 11.5892 15.3793 11.3472 15.1835 11.037C14.9878 10.7268 14.8899 10.3649 14.8899 9.95122V6.26728H16.0893V9.84874C16.0893 10.0648 16.1364 10.2568 16.2306 10.4249C16.3266 10.5929 16.4614 10.7249 16.635 10.821C16.8085 10.917 17.0107 10.965 17.2416 10.965C17.4742 10.965 17.6764 10.917 17.8482 10.821C18.0218 10.7249 18.1556 10.5929 18.2498 10.4249C18.3458 10.2568 18.3938 10.0648 18.3938 9.84874V6.26728ZM23.0147 6.26728V11.94H21.8153V7.4057H21.7821L20.483 8.22005V7.15641L21.8874 6.26728H23.0147Z" fill="#FF8B99"/>
</g>
<defs>
<clipPath id="clip0_1_1586">
<rect width="40" height="26" fill="white"/>
</clipPath>
</defs>
</svg>
