<svg width="55" height="40" viewBox="0 0 55 40" fill="none" xmlns="http://www.w3.org/2000/svg">
<g clip-path="url(#clip0_1_1294)">
<path d="M26.5 38.9384C26.3838 38.8288 26.2181 38.6702 26.0077 38.4648C25.5254 37.994 24.9873 37.4512 24.4069 36.8442C22.7491 35.1096 21.0934 33.2152 19.5484 31.2208C16.8162 27.6936 14.7564 24.2756 13.5814 21.087C12.8637 19.1395 12.5 17.3341 12.5 15.6771C12.5 7.05208 18.5432 1 26.5 1C34.4568 1 40.5 7.05208 40.5 15.6771C40.5 17.3341 40.1364 19.1395 39.4186 21.087C38.2436 24.2756 36.1838 27.6936 33.4516 31.2208C31.9066 33.2152 30.251 35.1096 28.593 36.8442C28.0128 37.4512 27.4746 37.994 26.9922 38.4648C26.7818 38.6702 26.6162 38.8288 26.5 38.9384Z" fill="#FF2F48" stroke="#FF2F48" stroke-width="2"/>
<path d="M26.5 26C32.5751 26 37.5 21.0751 37.5 15C37.5 8.92487 32.5751 4 26.5 4C20.4249 4 15.5 8.92487 15.5 15C15.5 21.0751 20.4249 26 26.5 26Z" fill="white"/>
<path d="M28.7722 10.8727H30.6174V16.5403C30.6174 17.1767 30.4654 17.7335 30.1614 18.2108C29.8603 18.6881 29.4384 19.0602 28.8958 19.3273C28.3532 19.5915 27.7211 19.7236 26.9995 19.7236C26.275 19.7236 25.6415 19.5915 25.0989 19.3273C24.5563 19.0602 24.1344 18.6881 23.8333 18.2108C23.5321 17.7335 23.3816 17.1767 23.3816 16.5403V10.8727H25.2267V16.3827C25.2267 16.7151 25.2992 17.0105 25.4441 17.269C25.5918 17.5276 25.7992 17.7307 26.0662 17.8784C26.3333 18.0261 26.6444 18.1 26.9995 18.1C27.3574 18.1 27.6685 18.0261 27.9327 17.8784C28.1998 17.7307 28.4057 17.5276 28.5506 17.269C28.6983 17.0105 28.7722 16.7151 28.7722 16.3827V10.8727Z" fill="#FF2F48"/>
</g>
<defs>
<clipPath id="clip0_1_1294">
<rect width="55" height="40" fill="white"/>
</clipPath>
</defs>
</svg>
