<svg width="55" height="40" viewBox="0 0 55 40" fill="none" xmlns="http://www.w3.org/2000/svg">
<g clip-path="url(#clip0_1_1162)">
<path d="M26.5 38.9384C26.3838 38.8288 26.2181 38.6702 26.0077 38.4648C25.5254 37.994 24.9873 37.4512 24.4069 36.8442C22.7491 35.1096 21.0934 33.2152 19.5484 31.2208C16.8162 27.6936 14.7564 24.2756 13.5814 21.087C12.8637 19.1395 12.5 17.3341 12.5 15.6771C12.5 7.05208 18.5432 1 26.5 1C34.4568 1 40.5 7.05208 40.5 15.6771C40.5 17.3341 40.1364 19.1395 39.4186 21.087C38.2436 24.2756 36.1838 27.6936 33.4516 31.2208C31.9066 33.2152 30.251 35.1096 28.593 36.8442C28.0128 37.4512 27.4746 37.994 26.9922 38.4648C26.7818 38.6702 26.6162 38.8288 26.5 38.9384Z" fill="#FF2F48" stroke="#FF2F48" stroke-width="2"/>
<path d="M26.5 26C32.5751 26 37.5 21.0751 37.5 15C37.5 8.92487 32.5751 4 26.5 4C20.4249 4 15.5 8.92487 15.5 15C15.5 21.0751 20.4249 26 26.5 26Z" fill="white"/>
<path d="M20.3991 19.6V10.8727H22.2443V18.0787H25.9858V19.6H20.3991ZM30.3825 19.7193C29.7461 19.7193 29.1793 19.6099 28.6822 19.3912C28.1879 19.1696 27.7972 18.8656 27.5103 18.4793C27.2262 18.0901 27.0799 17.6412 27.0714 17.1327H28.9293C28.9407 17.3457 29.0103 17.5332 29.1381 17.6952C29.2688 17.8543 29.4421 17.9778 29.658 18.0659C29.8739 18.154 30.1168 18.198 30.3867 18.198C30.668 18.198 30.9165 18.1483 31.1325 18.0489C31.3484 17.9494 31.5174 17.8117 31.6396 17.6355C31.7617 17.4594 31.8228 17.2563 31.8228 17.0261C31.8228 16.7932 31.7575 16.5872 31.6268 16.4082C31.4989 16.2264 31.3143 16.0844 31.0728 15.9821C30.8342 15.8798 30.5501 15.8287 30.2205 15.8287H29.4066V14.4736H30.2205C30.4989 14.4736 30.7447 14.4253 30.9577 14.3287C31.1737 14.2321 31.3413 14.0986 31.4606 13.9281C31.5799 13.7548 31.6396 13.5531 31.6396 13.323C31.6396 13.1043 31.587 12.9125 31.4819 12.7477C31.3796 12.5801 31.2347 12.4494 31.0472 12.3557C30.8626 12.2619 30.6467 12.2151 30.3995 12.2151C30.1495 12.2151 29.9208 12.2605 29.7134 12.3514C29.506 12.4395 29.3398 12.5659 29.2148 12.7307C29.0898 12.8955 29.0231 13.0886 29.0146 13.3102H27.2461C27.2546 12.8074 27.3981 12.3642 27.6765 11.9807C27.9549 11.5972 28.3299 11.2974 28.8015 11.0815C29.2759 10.8628 29.8114 10.7534 30.408 10.7534C31.0103 10.7534 31.5373 10.8628 31.989 11.0815C32.4407 11.3003 32.7915 11.5957 33.0415 11.9679C33.2944 12.3372 33.4194 12.752 33.4165 13.2122C33.4194 13.7009 33.2674 14.1085 32.9606 14.4352C32.6566 14.7619 32.2603 14.9693 31.7717 15.0574V15.1256C32.4137 15.208 32.9023 15.431 33.2376 15.7946C33.5756 16.1554 33.7433 16.6071 33.7404 17.1497C33.7433 17.6469 33.5998 18.0886 33.31 18.475C33.0231 18.8614 32.6268 19.1653 32.1211 19.3869C31.6154 19.6085 31.0359 19.7193 30.3825 19.7193Z" fill="#FF2F48"/>
</g>
<defs>
<clipPath id="clip0_1_1162">
<rect width="55" height="40" fill="white"/>
</clipPath>
</defs>
</svg>
