<svg width="40" height="26" viewBox="0 0 40 26" fill="none" xmlns="http://www.w3.org/2000/svg">
<g clip-path="url(#clip0_1_1414)">
<path d="M19.35 25.31C19.2744 25.2387 19.1668 25.1356 19.03 25.0021C18.7165 24.6961 18.3667 24.3433 17.9895 23.9487C16.9119 22.8212 15.8357 21.5899 14.8315 20.2935C13.0555 18.0008 11.7167 15.7791 10.9529 13.7066C10.4864 12.4407 10.25 11.2672 10.25 10.1901C10.25 4.58385 14.1781 0.650002 19.35 0.650002C24.5219 0.650002 28.45 4.58385 28.45 10.1901C28.45 11.2672 28.2137 12.4407 27.7471 13.7066C26.9833 15.7791 25.6445 18.0008 23.8685 20.2935C22.8643 21.5899 21.7881 22.8212 20.7104 23.9487C20.3333 24.3433 19.9835 24.6961 19.6699 25.0021C19.5332 25.1356 19.4255 25.2387 19.35 25.31Z" fill="#FF8B99" stroke="#FF8B99" stroke-width="1.3"/>
<path d="M19.35 16.9C23.2988 16.9 26.5 13.6988 26.5 9.75C26.5 5.80116 23.2988 2.6 19.35 2.6C15.4012 2.6 12.2 5.80116 12.2 9.75C12.2 13.6988 15.4012 16.9 19.35 16.9Z" fill="white"/>
<path d="M17.2336 6.26727H18.4191V10.2227C18.4191 10.5883 18.3369 10.9059 18.1726 11.1755C18.0101 11.4451 17.7839 11.6529 17.494 11.7987C17.204 11.9446 16.867 12.0176 16.4829 12.0176C16.1413 12.0176 15.8311 11.9575 15.5523 11.8375C15.2753 11.7156 15.0555 11.531 14.893 11.2835C14.7305 11.0342 14.6502 10.7212 14.6521 10.3445H15.8459C15.8496 10.4941 15.88 10.6225 15.9373 10.7296C15.9964 10.8348 16.0767 10.9161 16.1783 10.9733C16.2817 11.0287 16.4035 11.0564 16.5439 11.0564C16.6916 11.0564 16.8163 11.025 16.9178 10.9622C17.0212 10.8976 17.0997 10.8034 17.1533 10.6797C17.2068 10.556 17.2336 10.4036 17.2336 10.2227V6.26727ZM19.3775 11.94V11.0758L21.3967 9.20612C21.5685 9.03993 21.7125 8.89035 21.8288 8.7574C21.947 8.62444 22.0366 8.49426 22.0975 8.36685C22.1584 8.23758 22.1889 8.09817 22.1889 7.94859C22.1889 7.7824 22.1511 7.63929 22.0753 7.51926C21.9996 7.39739 21.8962 7.30413 21.7651 7.2395C21.634 7.17302 21.4854 7.13979 21.3192 7.13979C21.1456 7.13979 20.9942 7.17487 20.8649 7.24504C20.7356 7.31521 20.6359 7.41585 20.5658 7.54696C20.4956 7.67807 20.4605 7.8341 20.4605 8.01507H19.3221C19.3221 7.6439 19.4061 7.32167 19.5741 7.04838C19.7422 6.77508 19.9776 6.56365 20.2805 6.41408C20.5833 6.2645 20.9323 6.18971 21.3275 6.18971C21.7337 6.18971 22.0874 6.26173 22.3883 6.40577C22.6912 6.54795 22.9266 6.74554 23.0947 6.99852C23.2627 7.2515 23.3467 7.54142 23.3467 7.86827C23.3467 8.08247 23.3043 8.2939 23.2193 8.50257C23.1362 8.71123 22.9876 8.94298 22.7734 9.19781C22.5592 9.45079 22.2572 9.75456 21.8676 10.1091L21.0394 10.9207V10.9595H23.4215V11.94H19.3775Z" fill="#FF8B99"/>
</g>
<defs>
<clipPath id="clip0_1_1414">
<rect width="40" height="26" fill="white"/>
</clipPath>
</defs>
</svg>
