<svg width="40" height="26" viewBox="0 0 40 26" fill="none" xmlns="http://www.w3.org/2000/svg">
<g clip-path="url(#clip0_1_1526)">
<path d="M19.35 25.31C19.2744 25.2387 19.1668 25.1356 19.03 25.0021C18.7165 24.6961 18.3667 24.3433 17.9895 23.9487C16.9119 22.8212 15.8357 21.5899 14.8315 20.2935C13.0555 18.0008 11.7167 15.7791 10.9529 13.7066C10.4864 12.4407 10.25 11.2672 10.25 10.1901C10.25 4.58385 14.1781 0.650002 19.35 0.650002C24.5219 0.650002 28.45 4.58385 28.45 10.1901C28.45 11.2672 28.2137 12.4407 27.7471 13.7066C26.9833 15.7791 25.6445 18.0008 23.8685 20.2935C22.8643 21.5899 21.7881 22.8212 20.7104 23.9487C20.3333 24.3433 19.9835 24.6961 19.6699 25.0021C19.5332 25.1356 19.4255 25.2387 19.35 25.31Z" fill="#FF8B99" stroke="#FF8B99" stroke-width="1.3"/>
<path d="M19.35 16.9C23.2988 16.9 26.5 13.6988 26.5 9.75C26.5 5.80116 23.2988 2.6 19.35 2.6C15.4012 2.6 12.2 5.80116 12.2 9.75C12.2 13.6988 15.4012 16.9 19.35 16.9Z" fill="white"/>
<path d="M15.6269 9.96784H16.6463L17.1587 10.6271L17.6628 11.2143L18.6129 12.4053H17.4938L16.8401 11.6021L16.505 11.1257L15.6269 9.96784ZM18.6987 9.10364C18.6987 9.72224 18.5815 10.2485 18.347 10.6825C18.1143 11.1164 17.7967 11.4479 17.3941 11.6769C16.9934 11.904 16.5428 12.0176 16.0424 12.0176C15.5383 12.0176 15.0859 11.9031 14.6852 11.6741C14.2845 11.4451 13.9678 11.1136 13.7351 10.6797C13.5024 10.2458 13.3861 9.7204 13.3861 9.10364C13.3861 8.48503 13.5024 7.95875 13.7351 7.5248C13.9678 7.09085 14.2845 6.76031 14.6852 6.53318C15.0859 6.3042 15.5383 6.18971 16.0424 6.18971C16.5428 6.18971 16.9934 6.3042 17.3941 6.53318C17.7967 6.76031 18.1143 7.09085 18.347 7.5248C18.5815 7.95875 18.6987 8.48503 18.6987 9.10364ZM17.4828 9.10364C17.4828 8.70292 17.4227 8.365 17.3027 8.08986C17.1845 7.81471 17.0174 7.60605 16.8014 7.46386C16.5853 7.32168 16.3323 7.25058 16.0424 7.25058C15.7525 7.25058 15.4995 7.32168 15.2835 7.46386C15.0674 7.60605 14.8994 7.81471 14.7794 8.08986C14.6612 8.365 14.6021 8.70292 14.6021 9.10364C14.6021 9.50435 14.6612 9.84227 14.7794 10.1174C14.8994 10.3926 15.0674 10.6012 15.2835 10.7434C15.4995 10.8856 15.7525 10.9567 16.0424 10.9567C16.3323 10.9567 16.5853 10.8856 16.8014 10.7434C17.0174 10.6012 17.1845 10.3926 17.3027 10.1174C17.4227 9.84227 17.4828 9.50435 17.4828 9.10364ZM19.5539 11.94V11.0758L21.5732 9.20612C21.7449 9.03993 21.889 8.89035 22.0053 8.7574C22.1235 8.62444 22.213 8.49426 22.274 8.36685C22.3349 8.23758 22.3654 8.09817 22.3654 7.94859C22.3654 7.7824 22.3275 7.63929 22.2518 7.51926C22.1761 7.39739 22.0727 7.30413 21.9416 7.2395C21.8105 7.17302 21.6618 7.13979 21.4956 7.13979C21.3221 7.13979 21.1706 7.17487 21.0414 7.24504C20.9121 7.31521 20.8124 7.41585 20.7422 7.54696C20.6721 7.67807 20.637 7.8341 20.637 8.01507H19.4985C19.4985 7.6439 19.5826 7.32167 19.7506 7.04838C19.9186 6.77508 20.1541 6.56365 20.4569 6.41408C20.7598 6.2645 21.1088 6.18971 21.5039 6.18971C21.9102 6.18971 22.2638 6.26173 22.5648 6.40577C22.8676 6.54795 23.1031 6.74554 23.2711 6.99852C23.4392 7.2515 23.5232 7.54142 23.5232 7.86827C23.5232 8.08247 23.4807 8.2939 23.3958 8.50257C23.3127 8.71123 23.164 8.94298 22.9498 9.19781C22.7356 9.45079 22.4337 9.75456 22.0441 10.1091L21.2159 10.9207V10.9595H23.598V11.94H19.5539Z" fill="#FF8B99"/>
</g>
<defs>
<clipPath id="clip0_1_1526">
<rect width="40" height="26" fill="white"/>
</clipPath>
</defs>
</svg>
