<svg width="40" height="26" viewBox="0 0 40 26" fill="none" xmlns="http://www.w3.org/2000/svg">
<g clip-path="url(#clip0_1_896)">
<path d="M19.35 25.31C19.2744 25.2387 19.1668 25.1356 19.03 25.0021C18.7165 24.6961 18.3667 24.3433 17.9895 23.9487C16.9119 22.8212 15.8357 21.5899 14.8315 20.2935C13.0555 18.0008 11.7167 15.7791 10.9529 13.7065C10.4864 12.4407 10.25 11.2671 10.25 10.1901C10.25 4.58385 14.1781 0.649994 19.35 0.649994C24.5219 0.649994 28.45 4.58385 28.45 10.1901C28.45 11.2671 28.2137 12.4407 27.7471 13.7065C26.9833 15.7791 25.6445 18.0008 23.8685 20.2935C22.8643 21.5899 21.7881 22.8212 20.7104 23.9487C20.3333 24.3433 19.9835 24.6961 19.6699 25.0021C19.5332 25.1356 19.4255 25.2387 19.35 25.31Z" fill="#FF8B99" stroke="#FF8B99" stroke-width="1.3"/>
<path d="M19.35 16.9C23.2988 16.9 26.5 13.6988 26.5 9.75001C26.5 5.80117 23.2988 2.60001 19.35 2.60001C15.4012 2.60001 12.2 5.80117 12.2 9.75001C12.2 13.6988 15.4012 16.9 19.35 16.9Z" fill="white"/>
<path d="M16.21 11.94H14.1991V6.26728H16.2267C16.7972 6.26728 17.2884 6.38084 17.7002 6.60797C18.112 6.83326 18.4287 7.15733 18.6503 7.5802C18.8737 8.00307 18.9855 8.50904 18.9855 9.0981C18.9855 9.68901 18.8737 10.1968 18.6503 10.6215C18.4287 11.0463 18.1102 11.3722 17.6947 11.5993C17.2811 11.8264 16.7862 11.94 16.21 11.94ZM15.3985 10.9124H16.1602C16.5147 10.9124 16.8129 10.8496 17.0548 10.724C17.2986 10.5966 17.4814 10.3999 17.6033 10.134C17.727 9.86628 17.7889 9.52097 17.7889 9.0981C17.7889 8.67892 17.727 8.33638 17.6033 8.07047C17.4814 7.80456 17.2995 7.60882 17.0576 7.48326C16.8157 7.35769 16.5175 7.2949 16.1629 7.2949H15.3985V10.9124ZM19.8407 11.94V11.0758L21.8599 9.20612C22.0316 9.03993 22.1757 8.89036 22.292 8.7574C22.4102 8.62445 22.4998 8.49426 22.5607 8.36685C22.6216 8.23759 22.6521 8.09817 22.6521 7.9486C22.6521 7.7824 22.6142 7.63929 22.5385 7.51926C22.4628 7.39739 22.3594 7.30414 22.2283 7.23951C22.0972 7.17303 21.9485 7.13979 21.7824 7.13979C21.6088 7.13979 21.4574 7.17487 21.3281 7.24505C21.1988 7.31522 21.0991 7.41585 21.0289 7.54696C20.9588 7.67807 20.9237 7.83411 20.9237 8.01507H19.7853C19.7853 7.64391 19.8693 7.32168 20.0373 7.04838C20.2054 6.77509 20.4408 6.56365 20.7436 6.41408C21.0465 6.26451 21.3955 6.18972 21.7907 6.18972C22.1969 6.18972 22.5505 6.26174 22.8515 6.40577C23.1544 6.54796 23.3898 6.74554 23.5578 6.99853C23.7259 7.25151 23.8099 7.54142 23.8099 7.86827C23.8099 8.08247 23.7674 8.29391 23.6825 8.50257C23.5994 8.71124 23.4507 8.94299 23.2365 9.19782C23.0223 9.4508 22.7204 9.75456 22.3308 10.1091L21.5026 10.9207V10.9595H23.8847V11.94H19.8407Z" fill="#FF8B99"/>
</g>
<defs>
<clipPath id="clip0_1_896">
<rect width="40" height="26" fill="white"/>
</clipPath>
</defs>
</svg>
