<svg width="55" height="40" viewBox="0 0 55 40" fill="none" xmlns="http://www.w3.org/2000/svg">
<g clip-path="url(#clip0_1_1194)">
<path d="M26.5 38.9384C26.3838 38.8288 26.2181 38.6702 26.0077 38.4648C25.5254 37.994 24.9873 37.4512 24.4069 36.8442C22.7491 35.1096 21.0934 33.2152 19.5484 31.2208C16.8162 27.6936 14.7564 24.2756 13.5814 21.087C12.8637 19.1395 12.5 17.3341 12.5 15.6771C12.5 7.05208 18.5432 1 26.5 1C34.4568 1 40.5 7.05208 40.5 15.6771C40.5 17.3341 40.1364 19.1395 39.4186 21.087C38.2436 24.2756 36.1838 27.6936 33.4516 31.2208C31.9066 33.2152 30.251 35.1096 28.593 36.8442C28.0128 37.4512 27.4746 37.994 26.9922 38.4648C26.7818 38.6702 26.6162 38.8288 26.5 38.9384Z" fill="#FF2F48" stroke="#FF2F48" stroke-width="2"/>
<path d="M26.5 26C32.5751 26 37.5 21.0751 37.5 15C37.5 8.92487 32.5751 4 26.5 4C20.4249 4 15.5 8.92487 15.5 15C15.5 21.0751 20.4249 26 26.5 26Z" fill="white"/>
<path d="M26.6911 10.8727V19.6H25.0973L21.3004 14.1071H21.2365V19.6H19.3913V10.8727H21.0107L24.7777 16.3614H24.8544V10.8727H26.6911ZM31.3903 19.7193C30.7539 19.7193 30.1871 19.6099 29.69 19.3912C29.1957 19.1696 28.805 18.8656 28.5181 18.4793C28.234 18.0901 28.0877 17.6412 28.0792 17.1327H29.9371C29.9485 17.3457 30.0181 17.5332 30.146 17.6952C30.2766 17.8543 30.4499 17.9778 30.6658 18.0659C30.8817 18.154 31.1246 18.198 31.3945 18.198C31.6758 18.198 31.9244 18.1483 32.1403 18.0489C32.3562 17.9494 32.5252 17.8117 32.6474 17.6355C32.7695 17.4594 32.8306 17.2563 32.8306 17.0261C32.8306 16.7932 32.7653 16.5872 32.6346 16.4082C32.5067 16.2264 32.3221 16.0844 32.0806 15.9821C31.842 15.8798 31.5579 15.8287 31.2283 15.8287H30.4144V14.4736H31.2283C31.5067 14.4736 31.7525 14.4253 31.9656 14.3287C32.1815 14.2321 32.3491 14.0986 32.4684 13.9281C32.5877 13.7548 32.6474 13.5531 32.6474 13.323C32.6474 13.1043 32.5948 12.9125 32.4897 12.7477C32.3874 12.5801 32.2425 12.4494 32.055 12.3557C31.8704 12.2619 31.6545 12.2151 31.4073 12.2151C31.1573 12.2151 30.9286 12.2605 30.7212 12.3514C30.5138 12.4395 30.3477 12.5659 30.2227 12.7307C30.0977 12.8955 30.0309 13.0886 30.0224 13.3102H28.2539C28.2624 12.8074 28.4059 12.3642 28.6843 11.9807C28.9627 11.5972 29.3377 11.2974 29.8093 11.0815C30.2837 10.8628 30.8192 10.7534 31.4158 10.7534C32.0181 10.7534 32.5451 10.8628 32.9968 11.0815C33.4485 11.3003 33.7994 11.5957 34.0494 11.9679C34.3022 12.3372 34.4272 12.752 34.4244 13.2122C34.4272 13.7009 34.2752 14.1085 33.9684 14.4352C33.6644 14.7619 33.2681 14.9693 32.7795 15.0574V15.1256C33.4215 15.208 33.9102 15.431 34.2454 15.7946C34.5835 16.1554 34.7511 16.6071 34.7482 17.1497C34.7511 17.6469 34.6076 18.0886 34.3178 18.475C34.0309 18.8614 33.6346 19.1653 33.1289 19.3869C32.6232 19.6085 32.0437 19.7193 31.3903 19.7193Z" fill="#FF2F48"/>
</g>
<defs>
<clipPath id="clip0_1_1194">
<rect width="55" height="40" fill="white"/>
</clipPath>
</defs>
</svg>
