<svg width="55" height="40" viewBox="0 0 55 40" fill="none" xmlns="http://www.w3.org/2000/svg">
<g clip-path="url(#clip0_1_1234)">
<path d="M26.5 38.9384C26.3838 38.8288 26.2181 38.6702 26.0077 38.4648C25.5254 37.994 24.9873 37.4512 24.4069 36.8442C22.7491 35.1096 21.0934 33.2152 19.5484 31.2208C16.8162 27.6936 14.7564 24.2756 13.5814 21.087C12.8637 19.1395 12.5 17.3341 12.5 15.6771C12.5 7.05208 18.5432 1 26.5 1C34.4568 1 40.5 7.05208 40.5 15.6771C40.5 17.3341 40.1364 19.1395 39.4186 21.087C38.2436 24.2756 36.1838 27.6936 33.4516 31.2208C31.9066 33.2152 30.251 35.1096 28.593 36.8442C28.0128 37.4512 27.4746 37.994 26.9922 38.4648C26.7818 38.6702 26.6162 38.8288 26.5 38.9384Z" fill="#FF2F48" stroke="#FF2F48" stroke-width="2"/>
<path d="M26.5 26C32.5751 26 37.5 21.0751 37.5 15C37.5 8.92487 32.5751 4 26.5 4C20.4249 4 15.5 8.92487 15.5 15C15.5 21.0751 20.4249 26 26.5 26Z" fill="white"/>
<path d="M22.9237 16.5659H24.4918L25.2802 17.5801L26.0558 18.4835L27.5174 20.3159H25.7958L24.7901 19.0801L24.2745 18.3472L22.9237 16.5659ZM27.6495 15.2364C27.6495 16.1881 27.4691 16.9977 27.1083 17.6653C26.7504 18.333 26.2617 18.8429 25.6424 19.1952C25.0259 19.5446 24.3327 19.7193 23.5629 19.7193C22.7873 19.7193 22.0913 19.5432 21.4748 19.1909C20.8583 18.8386 20.3711 18.3287 20.0131 17.6611C19.6552 16.9935 19.4762 16.1852 19.4762 15.2364C19.4762 14.2847 19.6552 13.475 20.0131 12.8074C20.3711 12.1398 20.8583 11.6313 21.4748 11.2818C22.0913 10.9296 22.7873 10.7534 23.5629 10.7534C24.3327 10.7534 25.0259 10.9296 25.6424 11.2818C26.2617 11.6313 26.7504 12.1398 27.1083 12.8074C27.4691 13.475 27.6495 14.2847 27.6495 15.2364ZM25.7788 15.2364C25.7788 14.6199 25.6864 14.1 25.5018 13.6767C25.32 13.2534 25.0629 12.9324 24.7305 12.7136C24.3981 12.4949 24.0089 12.3855 23.5629 12.3855C23.1168 12.3855 22.7276 12.4949 22.3952 12.7136C22.0629 12.9324 21.8043 13.2534 21.6197 13.6767C21.4379 14.1 21.3469 14.6199 21.3469 15.2364C21.3469 15.8528 21.4379 16.3727 21.6197 16.796C21.8043 17.2193 22.0629 17.5403 22.3952 17.7591C22.7276 17.9778 23.1168 18.0872 23.5629 18.0872C24.0089 18.0872 24.3981 17.9778 24.7305 17.7591C25.0629 17.5403 25.32 17.2193 25.5018 16.796C25.6864 16.3727 25.7788 15.8528 25.7788 15.2364ZM32.7621 10.8727V19.6H30.9169V12.6242H30.8658L28.8672 13.877V12.2406L31.0277 10.8727H32.7621Z" fill="#FF2F48"/>
</g>
<defs>
<clipPath id="clip0_1_1234">
<rect width="55" height="40" fill="white"/>
</clipPath>
</defs>
</svg>
