<svg width="40" height="26" viewBox="0 0 21 20" fill="none" xmlns="http://www.w3.org/2000/svg">
<path d="M10 19.4692C9.94188 19.4144 9.85905 19.3351 9.75385 19.2324C9.51272 18.997 9.24363 18.7256 8.95347 18.4221C8.12453 17.5548 7.29668 16.6076 6.52421 15.6104C5.15811 13.8468 4.1282 12.1378 3.54068 10.5435C3.18183 9.56975 3 8.66704 3 7.83854C3 3.52604 6.02161 0.5 10 0.5C13.9784 0.5 17 3.52604 17 7.83854C17 8.66704 16.8182 9.56975 16.4593 10.5435C15.8718 12.1378 14.8419 13.8468 13.4758 15.6104C12.7033 16.6076 11.8755 17.5548 11.0465 18.4221C10.7564 18.7256 10.4873 18.997 10.2461 19.2324C10.1409 19.3351 10.0581 19.4144 10 19.4692Z" fill="#ff8b99" stroke="#ff8b99"/>
<path d="M10 13C6.96243 13 4.5 10.5376 4.5 7.5C4.5 4.46243 6.96243 2 10 2C13.0376 2 15.5 4.46243 15.5 7.5C15.5 10.5376 13.0376 13 10 13Z" fill="white"/>
<path d="M11.6243 3.72727H13.1619V8.45028C13.1619 8.98059 13.0353 9.4446 12.782 9.84233C12.531 10.2401 12.1795 10.5502 11.7273 10.7727C11.2751 10.9929 10.7483 11.103 10.147 11.103C9.54332 11.103 9.01539 10.9929 8.56321 10.7727C8.11103 10.5502 7.75947 10.2401 7.50852 9.84233C7.25758 9.4446 7.1321 8.98059 7.1321 8.45028V3.72727H8.66974V8.31889C8.66974 8.59588 8.73011 8.84209 8.85085 9.05753C8.97396 9.27296 9.14678 9.44223 9.36932 9.56534C9.59186 9.68845 9.85109 9.75 10.147 9.75C10.4453 9.75 10.7045 9.68845 10.9247 9.56534C11.1473 9.44223 11.3189 9.27296 11.4396 9.05753C11.5627 8.84209 11.6243 8.59588 11.6243 8.31889V3.72727Z" fill="#ff8b99"/>
</svg>
