<svg width="55" height="40" viewBox="0 0 55 40" fill="none" xmlns="http://www.w3.org/2000/svg">
<g clip-path="url(#clip0_1_1338)">
<path d="M26.5 38.9384C26.3838 38.8288 26.2181 38.6702 26.0077 38.4648C25.5254 37.994 24.9873 37.4512 24.4069 36.8442C22.7491 35.1096 21.0934 33.2152 19.5484 31.2208C16.8162 27.6936 14.7564 24.2756 13.5814 21.087C12.8637 19.1395 12.5 17.3341 12.5 15.6771C12.5 7.05208 18.5432 1 26.5 1C34.4568 1 40.5 7.05208 40.5 15.6771C40.5 17.3341 40.1364 19.1395 39.4186 21.087C38.2436 24.2756 36.1838 27.6936 33.4516 31.2208C31.9066 33.2152 30.251 35.1096 28.593 36.8442C28.0128 37.4512 27.4746 37.994 26.9922 38.4648C26.7818 38.6702 26.6162 38.8288 26.5 38.9384Z" fill="#FF2F48" stroke="#FF2F48" stroke-width="2"/>
<path d="M26.5 26C32.5751 26 37.5 21.0751 37.5 15C37.5 8.92487 32.5751 4 26.5 4C20.4249 4 15.5 8.92487 15.5 15C15.5 21.0751 20.4249 26 26.5 26Z" fill="white"/>
<path d="M19.5511 19.6L17.054 10.8727H19.0696L20.5142 16.9366H20.5866L22.1804 10.8727H23.9062L25.4957 16.9494H25.5724L27.017 10.8727H29.0327L26.5355 19.6H24.7372L23.0753 13.894H23.0071L21.3494 19.6H19.5511ZM33.195 19.7193C32.5586 19.7193 31.9918 19.6099 31.4947 19.3912C31.0004 19.1696 30.6097 18.8656 30.3228 18.4793C30.0387 18.0901 29.8924 17.6412 29.8839 17.1327H31.7418C31.7532 17.3457 31.8228 17.5332 31.9506 17.6952C32.0813 17.8543 32.2546 17.9778 32.4705 18.0659C32.6864 18.154 32.9293 18.198 33.1992 18.198C33.4805 18.198 33.729 18.1483 33.945 18.0489C34.1609 17.9494 34.3299 17.8116 34.4521 17.6355C34.5742 17.4594 34.6353 17.2562 34.6353 17.0261C34.6353 16.7932 34.57 16.5872 34.4393 16.4082C34.3114 16.2264 34.1268 16.0844 33.8853 15.9821C33.6467 15.8798 33.3626 15.8287 33.033 15.8287H32.2191V14.4736H33.033C33.3114 14.4736 33.5572 14.4253 33.7702 14.3287C33.9862 14.2321 34.1538 14.0986 34.2731 13.9281C34.3924 13.7548 34.4521 13.5531 34.4521 13.323C34.4521 13.1043 34.3995 12.9125 34.2944 12.7477C34.1921 12.5801 34.0472 12.4494 33.8597 12.3557C33.6751 12.2619 33.4592 12.2151 33.212 12.2151C32.962 12.2151 32.7333 12.2605 32.5259 12.3514C32.3185 12.4395 32.1523 12.5659 32.0273 12.7307C31.9023 12.8955 31.8356 13.0886 31.8271 13.3102H30.0586C30.0671 12.8074 30.2106 12.3642 30.489 11.9807C30.7674 11.5972 31.1424 11.2974 31.614 11.0815C32.0884 10.8628 32.6239 10.7534 33.2205 10.7534C33.8228 10.7534 34.3498 10.8628 34.8015 11.0815C35.2532 11.3003 35.604 11.5957 35.854 11.9679C36.1069 12.3372 36.2319 12.752 36.229 13.2122C36.2319 13.7009 36.0799 14.1085 35.7731 14.4352C35.4691 14.7619 35.0728 14.9693 34.5842 15.0574V15.1256C35.2262 15.208 35.7148 15.431 36.0501 15.7946C36.3881 16.1554 36.5558 16.6071 36.5529 17.1497C36.5558 17.6469 36.4123 18.0886 36.1225 18.475C35.8356 18.8614 35.4393 19.1653 34.9336 19.3869C34.4279 19.6085 33.8484 19.7193 33.195 19.7193Z" fill="#FF2F48"/>
</g>
<defs>
<clipPath id="clip0_1_1338">
<rect width="55" height="40" fill="white"/>
</clipPath>
</defs>
</svg>
