<svg width="55" height="40" viewBox="0 0 55 40" fill="none" xmlns="http://www.w3.org/2000/svg">
<g clip-path="url(#clip0_1_1015)">
<path d="M26.5 38.9384C26.3838 38.8288 26.2181 38.6702 26.0077 38.4648C25.5254 37.994 24.9873 37.4512 24.4069 36.8442C22.7491 35.1096 21.0934 33.2152 19.5484 31.2208C16.8162 27.6936 14.7564 24.2756 13.5814 21.087C12.8637 19.1395 12.5 17.3341 12.5 15.6771C12.5 7.05208 18.5432 1 26.5 1C34.4568 1 40.5 7.05208 40.5 15.6771C40.5 17.3341 40.1364 19.1395 39.4186 21.087C38.2436 24.2756 36.1838 27.6936 33.4516 31.2208C31.9066 33.2152 30.251 35.1096 28.593 36.8442C28.0128 37.4512 27.4746 37.994 26.9922 38.4648C26.7818 38.6702 26.6162 38.8288 26.5 38.9384Z" fill="#FF2F48" stroke="#FF2F48" stroke-width="2"/>
<path d="M26.5 26C32.5751 26 37.5 21.0751 37.5 15C37.5 8.92487 32.5751 4 26.5 4C20.4249 4 15.5 8.92487 15.5 15C15.5 21.0751 20.4249 26 26.5 26Z" fill="white"/>
<path d="M26.992 13.9281H25.1255C25.0914 13.6867 25.0218 13.4722 24.9167 13.2847C24.8116 13.0943 24.6767 12.9324 24.5119 12.7989C24.3471 12.6653 24.1568 12.5631 23.9409 12.4921C23.7278 12.421 23.4963 12.3855 23.2463 12.3855C22.7946 12.3855 22.4011 12.4977 22.0659 12.7222C21.7306 12.9438 21.4707 13.2676 21.286 13.6938C21.1014 14.1171 21.0091 14.6313 21.0091 15.2364C21.0091 15.8585 21.1014 16.3813 21.286 16.8046C21.4735 17.2278 21.7349 17.5474 22.0701 17.7634C22.4054 17.9793 22.7931 18.0872 23.2335 18.0872C23.4806 18.0872 23.7093 18.0546 23.9196 17.9892C24.1326 17.9239 24.3216 17.8287 24.4863 17.7037C24.6511 17.5759 24.7875 17.421 24.8954 17.2392C25.0062 17.0574 25.0829 16.85 25.1255 16.6171L26.992 16.6256C26.9437 17.0261 26.823 17.4125 26.6298 17.7847C26.4395 18.154 26.1824 18.4849 25.8585 18.7776C25.5375 19.0673 25.1539 19.2974 24.7079 19.4679C24.2647 19.6355 23.7633 19.7193 23.2037 19.7193C22.4252 19.7193 21.7292 19.5432 21.1156 19.1909C20.5048 18.8386 20.0218 18.3287 19.6667 17.6611C19.3145 16.9935 19.1383 16.1852 19.1383 15.2364C19.1383 14.2847 19.3173 13.475 19.6752 12.8074C20.0332 12.1398 20.519 11.6313 21.1326 11.2818C21.7463 10.9296 22.4366 10.7534 23.2037 10.7534C23.7093 10.7534 24.1781 10.8244 24.6099 10.9665C25.0446 11.1085 25.4295 11.3159 25.7647 11.5886C26.1 11.8585 26.3727 12.1895 26.5829 12.5815C26.796 12.9736 26.9324 13.4224 26.992 13.9281ZM31.4899 19.7193C30.8535 19.7193 30.2868 19.6099 29.7896 19.3912C29.2953 19.1696 28.9047 18.8656 28.6177 18.4793C28.3336 18.0901 28.1873 17.6412 28.1788 17.1327H30.0368C30.0481 17.3457 30.1177 17.5332 30.2456 17.6952C30.3762 17.8543 30.5495 17.9778 30.7654 18.0659C30.9814 18.154 31.2243 18.198 31.4941 18.198C31.7754 18.198 32.024 18.1483 32.2399 18.0489C32.4558 17.9494 32.6248 17.8117 32.747 17.6355C32.8691 17.4594 32.9302 17.2563 32.9302 17.0261C32.9302 16.7932 32.8649 16.5872 32.7342 16.4082C32.6064 16.2264 32.4217 16.0844 32.1802 15.9821C31.9416 15.8798 31.6575 15.8287 31.3279 15.8287H30.514V14.4736H31.3279C31.6064 14.4736 31.8521 14.4253 32.0652 14.3287C32.2811 14.2321 32.4487 14.0986 32.568 13.9281C32.6873 13.7548 32.747 13.5531 32.747 13.323C32.747 13.1043 32.6944 12.9125 32.5893 12.7477C32.487 12.5801 32.3422 12.4494 32.1547 12.3557C31.97 12.2619 31.7541 12.2151 31.5069 12.2151C31.2569 12.2151 31.0282 12.2605 30.8208 12.3514C30.6135 12.4395 30.4473 12.5659 30.3223 12.7307C30.1973 12.8955 30.1305 13.0886 30.122 13.3102H28.3535C28.362 12.8074 28.5055 12.3642 28.7839 11.9807C29.0623 11.5972 29.4373 11.2974 29.9089 11.0815C30.3833 10.8628 30.9189 10.7534 31.5154 10.7534C32.1177 10.7534 32.6447 10.8628 33.0964 11.0815C33.5481 11.3003 33.899 11.5957 34.149 11.9679C34.4018 12.3372 34.5268 12.752 34.524 13.2122C34.5268 13.7009 34.3748 14.1085 34.068 14.4352C33.764 14.7619 33.3677 14.9693 32.8791 15.0574V15.1256C33.5211 15.208 34.0098 15.431 34.345 15.7946C34.6831 16.1554 34.8507 16.6071 34.8478 17.1497C34.8507 17.6469 34.7072 18.0886 34.4174 18.475C34.1305 18.8614 33.7342 19.1653 33.2285 19.3869C32.7228 19.6085 32.1433 19.7193 31.4899 19.7193Z" fill="#FF2F48"/>
</g>
<defs>
<clipPath id="clip0_1_1015">
<rect width="55" height="40" fill="white"/>
</clipPath>
</defs>
</svg>
