<svg width="55" height="40" viewBox="0 0 55 40" fill="none" xmlns="http://www.w3.org/2000/svg">
<g clip-path="url(#clip0_1_1066)">
<path d="M26.5 38.9384C26.3838 38.8288 26.2181 38.6702 26.0077 38.4648C25.5254 37.994 24.9873 37.4512 24.4069 36.8442C22.7491 35.1096 21.0934 33.2152 19.5484 31.2208C16.8162 27.6936 14.7564 24.2756 13.5814 21.087C12.8637 19.1395 12.5 17.3341 12.5 15.6771C12.5 7.05208 18.5432 1 26.5 1C34.4568 1 40.5 7.05208 40.5 15.6771C40.5 17.3341 40.1364 19.1395 39.4186 21.087C38.2436 24.2756 36.1838 27.6936 33.4516 31.2208C31.9066 33.2152 30.251 35.1096 28.593 36.8442C28.0128 37.4512 27.4746 37.994 26.9922 38.4648C26.7818 38.6702 26.6162 38.8288 26.5 38.9384Z" fill="#FF2F48" stroke="#FF2F48" stroke-width="2"/>
<path d="M26.5 26C32.5751 26 37.5 21.0751 37.5 15C37.5 8.92487 32.5751 4 26.5 4C20.4249 4 15.5 8.92487 15.5 15C15.5 21.0751 20.4249 26 26.5 26Z" fill="white"/>
<path d="M20.2937 19.6V10.8727H26.0721V12.394H22.1388V14.4736H25.6886V15.9949H22.1388V19.6H20.2937ZM30.4879 19.7193C29.8516 19.7193 29.2848 19.6099 28.7876 19.3912C28.2933 19.1696 27.9027 18.8656 27.6158 18.4793C27.3317 18.0901 27.1854 17.6412 27.1768 17.1327H29.0348C29.0462 17.3457 29.1158 17.5332 29.2436 17.6952C29.3743 17.8543 29.5476 17.9778 29.7635 18.0659C29.9794 18.154 30.2223 18.198 30.4922 18.198C30.7734 18.198 31.022 18.1483 31.2379 18.0489C31.4538 17.9494 31.6229 17.8117 31.745 17.6355C31.8672 17.4594 31.9283 17.2563 31.9283 17.0261C31.9283 16.7932 31.8629 16.5872 31.7322 16.4082C31.6044 16.2264 31.4197 16.0844 31.1783 15.9821C30.9396 15.8798 30.6555 15.8287 30.326 15.8287H29.5121V14.4736H30.326C30.6044 14.4736 30.8501 14.4253 31.0632 14.3287C31.2791 14.2321 31.4467 14.0986 31.5661 13.9281C31.6854 13.7548 31.745 13.5531 31.745 13.323C31.745 13.1043 31.6925 12.9125 31.5874 12.7477C31.4851 12.5801 31.3402 12.4494 31.1527 12.3557C30.968 12.2619 30.7521 12.2151 30.505 12.2151C30.255 12.2151 30.0263 12.2605 29.8189 12.3514C29.6115 12.4395 29.4453 12.5659 29.3203 12.7307C29.1953 12.8955 29.1286 13.0886 29.12 13.3102H27.3516C27.3601 12.8074 27.5036 12.3642 27.782 11.9807C28.0604 11.5972 28.4354 11.2974 28.907 11.0815C29.3814 10.8628 29.9169 10.7534 30.5135 10.7534C31.1158 10.7534 31.6428 10.8628 32.0945 11.0815C32.5462 11.3003 32.897 11.5957 33.147 11.9679C33.3999 12.3372 33.5249 12.752 33.522 13.2122C33.5249 13.7009 33.3729 14.1085 33.0661 14.4352C32.7621 14.7619 32.3658 14.9693 31.8771 15.0574V15.1256C32.5192 15.208 33.0078 15.431 33.343 15.7946C33.6811 16.1554 33.8487 16.6071 33.8459 17.1497C33.8487 17.6469 33.7053 18.0886 33.4155 18.475C33.1286 18.8614 32.7322 19.1653 32.2266 19.3869C31.7209 19.6085 31.1413 19.7193 30.4879 19.7193Z" fill="#FF2F48"/>
</g>
<defs>
<clipPath id="clip0_1_1066">
<rect width="55" height="40" fill="white"/>
</clipPath>
</defs>
</svg>
