<svg width="40" height="26" viewBox="0 0 40 26" fill="none" xmlns="http://www.w3.org/2000/svg">
<g clip-path="url(#clip0_1_864)">
<path d="M19.35 25.31C19.2744 25.2387 19.1668 25.1356 19.03 25.0021C18.7165 24.6961 18.3667 24.3433 17.9895 23.9487C16.9119 22.8212 15.8357 21.5899 14.8315 20.2935C13.0555 18.0008 11.7167 15.7791 10.9529 13.7065C10.4864 12.4407 10.25 11.2671 10.25 10.1901C10.25 4.58385 14.1781 0.649994 19.35 0.649994C24.5219 0.649994 28.45 4.58385 28.45 10.1901C28.45 11.2671 28.2137 12.4407 27.7471 13.7065C26.9833 15.7791 25.6445 18.0008 23.8685 20.2935C22.8643 21.5899 21.7881 22.8212 20.7104 23.9487C20.3333 24.3433 19.9835 24.6961 19.6699 25.0021C19.5332 25.1356 19.4255 25.2387 19.35 25.31Z" fill="#FF8B99" stroke="#FF8B99" stroke-width="1.3"/>
<path d="M19.35 16.9C23.2988 16.9 26.5 13.6988 26.5 9.75001C26.5 5.80117 23.2988 2.60001 19.35 2.60001C15.4012 2.60001 12.2 5.80117 12.2 9.75001C12.2 13.6988 15.4012 16.9 19.35 16.9Z" fill="white"/>
<path d="M15.1081 11.94V6.26728H17.3794C17.7967 6.26728 18.1448 6.32914 18.4237 6.45286C18.7025 6.57658 18.9121 6.74831 19.0524 6.96806C19.1928 7.18595 19.2629 7.43709 19.2629 7.72147C19.2629 7.94306 19.2186 8.13787 19.13 8.30591C19.0413 8.4721 18.9195 8.60875 18.7644 8.71585C18.6111 8.82111 18.4357 8.8959 18.2381 8.94022V8.99561C18.4541 9.00485 18.6563 9.06578 18.8447 9.17843C19.0349 9.29107 19.1891 9.44895 19.3073 9.65208C19.4254 9.85335 19.4845 10.0934 19.4845 10.3722C19.4845 10.6732 19.4097 10.9419 19.2602 11.1783C19.1124 11.4128 18.8936 11.5984 18.6037 11.735C18.3138 11.8717 17.9565 11.94 17.5318 11.94H15.1081ZM16.3075 10.9595H17.2852C17.6195 10.9595 17.8632 10.8958 18.0165 10.7683C18.1698 10.6391 18.2464 10.4673 18.2464 10.2531C18.2464 10.0962 18.2085 9.95769 18.1328 9.83766C18.0571 9.71763 17.9491 9.62345 17.8087 9.55513C17.6702 9.48681 17.505 9.45264 17.3129 9.45264H16.3075V10.9595ZM16.3075 8.64107H17.1966C17.3609 8.64107 17.5068 8.61245 17.6342 8.5552C17.7635 8.49611 17.8651 8.41301 17.9389 8.30591C18.0146 8.19881 18.0525 8.07047 18.0525 7.9209C18.0525 7.71593 17.9796 7.55066 17.8337 7.42509C17.6896 7.29952 17.4847 7.23674 17.2188 7.23674H16.3075V8.64107ZM20.2317 11.94V11.0758L22.2509 9.20612C22.4227 9.03993 22.5667 8.89036 22.683 8.7574C22.8012 8.62445 22.8908 8.49426 22.9517 8.36685C23.0127 8.23759 23.0431 8.09817 23.0431 7.9486C23.0431 7.7824 23.0053 7.63929 22.9296 7.51926C22.8539 7.39739 22.7505 7.30414 22.6193 7.23951C22.4882 7.17303 22.3396 7.13979 22.1734 7.13979C21.9998 7.13979 21.8484 7.17487 21.7191 7.24505C21.5899 7.31522 21.4902 7.41585 21.42 7.54696C21.3498 7.67807 21.3147 7.83411 21.3147 8.01507H20.1763C20.1763 7.64391 20.2603 7.32168 20.4284 7.04838C20.5964 6.77509 20.8318 6.56365 21.1347 6.41408C21.4375 6.26451 21.7865 6.18972 22.1817 6.18972C22.588 6.18972 22.9416 6.26174 23.2426 6.40577C23.5454 6.54796 23.7808 6.74554 23.9489 6.99853C24.1169 7.25151 24.2009 7.54142 24.2009 7.86827C24.2009 8.08247 24.1585 8.29391 24.0735 8.50257C23.9904 8.71124 23.8418 8.94299 23.6276 9.19782C23.4134 9.4508 23.1115 9.75456 22.7218 10.1091L21.8936 10.9207V10.9595H24.2757V11.94H20.2317Z" fill="#FF8B99"/>
</g>
<defs>
<clipPath id="clip0_1_864">
<rect width="40" height="26" fill="white"/>
</clipPath>
</defs>
</svg>
