<svg width="55" height="40" viewBox="0 0 55 40" fill="none" xmlns="http://www.w3.org/2000/svg">
<g clip-path="url(#clip0_1_991)">
<path d="M26.5 38.9384C26.3838 38.8288 26.2181 38.6702 26.0077 38.4648C25.5254 37.994 24.9873 37.4512 24.4069 36.8442C22.7491 35.1096 21.0934 33.2152 19.5484 31.2208C16.8162 27.6936 14.7564 24.2756 13.5814 21.087C12.8637 19.1395 12.5 17.3341 12.5 15.6771C12.5 7.05208 18.5432 1 26.5 1C34.4568 1 40.5 7.05208 40.5 15.6771C40.5 17.3341 40.1364 19.1395 39.4186 21.087C38.2436 24.2756 36.1838 27.6936 33.4516 31.2208C31.9066 33.2152 30.251 35.1096 28.593 36.8442C28.0128 37.4512 27.4746 37.994 26.9922 38.4648C26.7818 38.6702 26.6162 38.8288 26.5 38.9384Z" fill="#FF2F48" stroke="#FF2F48" stroke-width="2"/>
<path d="M26.5 26C32.5751 26 37.5 21.0751 37.5 15C37.5 8.92487 32.5751 4 26.5 4C20.4249 4 15.5 8.92487 15.5 15C15.5 21.0751 20.4249 26 26.5 26Z" fill="white"/>
<path d="M20.3562 19.6V10.8727H23.8505C24.4925 10.8727 25.0281 10.9679 25.457 11.1582C25.886 11.3486 26.2085 11.6128 26.4244 11.9509C26.6403 12.2861 26.7482 12.6724 26.7482 13.1099C26.7482 13.4509 26.68 13.7506 26.5437 14.0091C26.4073 14.2648 26.2198 14.475 25.9812 14.6398C25.7454 14.8017 25.4755 14.9168 25.1715 14.9849V15.0702C25.5039 15.0844 25.815 15.1781 26.1048 15.3514C26.3974 15.5247 26.6346 15.7676 26.8164 16.0801C26.9982 16.3898 27.0891 16.7591 27.0891 17.1881C27.0891 17.6511 26.9741 18.0645 26.744 18.4281C26.5167 18.7889 26.18 19.0744 25.734 19.2847C25.288 19.4949 24.7383 19.6 24.0849 19.6H20.3562ZM22.2013 18.0915H23.7056C24.2198 18.0915 24.5948 17.9935 24.8306 17.7974C25.0664 17.5986 25.1843 17.3344 25.1843 17.0048C25.1843 16.7634 25.1261 16.5503 25.0096 16.3656C24.8931 16.181 24.7269 16.0361 24.511 15.931C24.2979 15.8259 24.0437 15.7733 23.7482 15.7733H22.2013V18.0915ZM22.2013 14.5247H23.5692C23.8221 14.5247 24.0465 14.4807 24.2425 14.3926C24.4414 14.3017 24.5977 14.1739 24.7113 14.0091C24.8278 13.8443 24.886 13.6469 24.886 13.4168C24.886 13.1014 24.7738 12.8472 24.5494 12.654C24.3278 12.4608 24.0124 12.3642 23.6033 12.3642H22.2013V14.5247ZM32.0355 10.8727V19.6H30.1903V12.6242H30.1392L28.1406 13.877V12.2406L30.3011 10.8727H32.0355Z" fill="#FF2F48"/>
</g>
<defs>
<clipPath id="clip0_1_991">
<rect width="55" height="40" fill="white"/>
</clipPath>
</defs>
</svg>
