<svg width="80" height="62.3" viewBox="0 0 20 20" fill="none" xmlns="http://www.w3.org/2000/svg">
<path d="M10 18.8365C9.94754 18.7875 9.87729 18.7211 9.79072 18.6379C9.56598 18.422 9.31513 18.173 9.0446 17.8944C8.27172 17.0984 7.49996 16.2291 6.77993 15.3141C5.50631 13.6957 4.54787 12.1294 4.00168 10.6704C3.66816 9.77948 3.5 8.95578 3.5 8.20166C3.5 4.26818 6.29899 1.5 10 1.5C13.701 1.5 16.5 4.26818 16.5 8.20166C16.5 8.95578 16.3318 9.77948 15.9983 10.6704C15.4521 12.1294 14.4937 13.6957 13.2201 15.3141C12.5 16.2291 11.7283 17.0984 10.9554 17.8944C10.6849 18.173 10.434 18.422 10.2093 18.6379C10.1227 18.7211 10.0525 18.7875 10 18.8365Z" fill="#FF2F48" stroke="#FF2F48"/>
<path d="M10 13C7.23858 13 5 10.7614 5 8C5 5.23858 7.23858 3 10 3C12.7614 3 15 5.23858 15 8C15 10.7614 12.7614 13 10 13Z" fill="white"/>
<path d="M9.66466 10C9.35293 10 9.07059 9.92764 8.81764 9.78292C8.56647 9.6366 8.36696 9.42193 8.2191 9.13893C8.07303 8.85432 8 8.50539 8 8.09214C8 7.66763 8.07571 7.31468 8.22712 7.03329C8.37853 6.75028 8.57983 6.53883 8.831 6.39894C9.08395 6.25744 9.36094 6.18669 9.66199 6.18669C9.89178 6.18669 10.0833 6.22206 10.2365 6.29281C10.3914 6.36196 10.5161 6.44879 10.6106 6.5533C10.7067 6.65621 10.7798 6.75752 10.8297 6.85721H10.8644V5H12V9.9397H10.8778V9.34636H10.8297C10.7762 9.44927 10.7005 9.55138 10.6025 9.65268C10.5063 9.75237 10.3808 9.83518 10.2258 9.90111C10.0726 9.96704 9.88555 10 9.66466 10ZM10.0254 9.18234C10.2089 9.18234 10.3638 9.13732 10.4903 9.04727C10.6186 8.95562 10.7165 8.82779 10.7842 8.66377C10.8537 8.49976 10.8884 8.30761 10.8884 8.08731C10.8884 7.86702 10.8546 7.67567 10.7869 7.51327C10.7192 7.35086 10.6212 7.22544 10.493 7.137C10.3647 7.04856 10.2089 7.00434 10.0254 7.00434C9.83834 7.00434 9.68069 7.05017 9.55244 7.14182C9.42418 7.23348 9.3271 7.36051 9.26119 7.52291C9.19528 7.68532 9.16232 7.87345 9.16232 8.08731C9.16232 8.30278 9.19528 8.49333 9.26119 8.65895C9.32888 8.82296 9.42596 8.9516 9.55244 9.04486C9.68069 9.13652 9.83834 9.18234 10.0254 9.18234Z" fill="#FF2F48"/>
</svg>
