<svg width="40" height="26" viewBox="0 0 40 26" fill="none" xmlns="http://www.w3.org/2000/svg">
<g clip-path="url(#clip0_1_1546)">
<path d="M19.35 25.31C19.2744 25.2387 19.1668 25.1356 19.03 25.0021C18.7165 24.6961 18.3667 24.3433 17.9895 23.9487C16.9119 22.8212 15.8357 21.5899 14.8315 20.2935C13.0555 18.0008 11.7167 15.7791 10.9529 13.7066C10.4864 12.4407 10.25 11.2672 10.25 10.1901C10.25 4.58385 14.1781 0.650002 19.35 0.650002C24.5219 0.650002 28.45 4.58385 28.45 10.1901C28.45 11.2672 28.2137 12.4407 27.7471 13.7066C26.9833 15.7791 25.6445 18.0008 23.8685 20.2935C22.8643 21.5899 21.7881 22.8212 20.7104 23.9487C20.3333 24.3433 19.9835 24.6961 19.6699 25.0021C19.5332 25.1356 19.4255 25.2387 19.35 25.31Z" fill="#FF8B99" stroke="#FF8B99" stroke-width="1.3"/>
<path d="M19.35 16.9C23.2988 16.9 26.5 13.6988 26.5 9.75C26.5 5.80116 23.2988 2.6 19.35 2.6C15.4012 2.6 12.2 5.80116 12.2 9.75C12.2 13.6988 15.4012 16.9 19.35 16.9Z" fill="white"/>
<path d="M15.0129 11.94V6.26727H17.2509C17.6793 6.26727 18.045 6.3439 18.3478 6.49717C18.6525 6.64859 18.8842 6.86372 19.043 7.14256C19.2037 7.41954 19.284 7.74547 19.284 8.12033C19.284 8.49703 19.2028 8.82111 19.0403 9.09256C18.8778 9.36216 18.6423 9.56898 18.334 9.71301C18.0274 9.85704 17.6563 9.92906 17.2205 9.92906H15.7219V8.96514H17.0266C17.2555 8.96514 17.4457 8.93375 17.5972 8.87096C17.7486 8.80818 17.8612 8.714 17.9351 8.58844C18.0108 8.46287 18.0487 8.30683 18.0487 8.12033C18.0487 7.93197 18.0108 7.77317 17.9351 7.64391C17.8612 7.51464 17.7477 7.41677 17.5944 7.3503C17.443 7.28197 17.2518 7.24781 17.021 7.24781H16.2122V11.94H15.0129ZM18.0764 9.35846L19.4862 11.94H18.1622L16.7828 9.35846H18.0764ZM22.1952 12.0176C21.7815 12.0176 21.4131 11.9465 21.09 11.8043C20.7687 11.6602 20.5148 11.4627 20.3283 11.2115C20.1436 10.9585 20.0485 10.6668 20.043 10.3362H21.2506C21.258 10.4747 21.3033 10.5966 21.3864 10.7019C21.4713 10.8053 21.584 10.8856 21.7243 10.9428C21.8646 11.0001 22.0225 11.0287 22.1979 11.0287C22.3808 11.0287 22.5423 10.9964 22.6827 10.9318C22.823 10.8671 22.9329 10.7776 23.0123 10.6631C23.0917 10.5486 23.1314 10.4166 23.1314 10.267C23.1314 10.1156 23.0889 9.98169 23.004 9.86535C22.9209 9.74717 22.8009 9.65484 22.6439 9.58837C22.4888 9.52189 22.3041 9.48865 22.0899 9.48865H21.5609V8.60783H22.0899C22.2709 8.60783 22.4306 8.57643 22.5691 8.51365C22.7094 8.45087 22.8184 8.36408 22.896 8.25328C22.9735 8.14064 23.0123 8.00953 23.0123 7.85996C23.0123 7.71777 22.9781 7.59312 22.9098 7.48602C22.8433 7.37707 22.7492 7.29213 22.6273 7.23119C22.5072 7.17025 22.3669 7.13979 22.2063 7.13979C22.0438 7.13979 21.8951 7.16933 21.7603 7.22842C21.6255 7.28567 21.5175 7.36784 21.4362 7.47494C21.355 7.58204 21.3116 7.70761 21.306 7.85165H20.1565C20.1621 7.5248 20.2553 7.23673 20.4363 6.98744C20.6173 6.73815 20.861 6.54334 21.1675 6.403C21.4759 6.26081 21.824 6.18971 22.2118 6.18971C22.6033 6.18971 22.9458 6.26081 23.2394 6.403C23.533 6.54518 23.7611 6.73723 23.9236 6.97913C24.0879 7.21919 24.1692 7.48879 24.1673 7.78794C24.1692 8.10555 24.0704 8.37054 23.871 8.5829C23.6734 8.79525 23.4158 8.93006 23.0982 8.9873V9.03162C23.5155 9.08517 23.8331 9.23013 24.051 9.46649C24.2707 9.70101 24.3797 9.99462 24.3778 10.3473C24.3797 10.6705 24.2864 10.9576 24.0981 11.2087C23.9116 11.4599 23.654 11.6575 23.3253 11.8015C22.9966 11.9455 22.6199 12.0176 22.1952 12.0176Z" fill="#FF8B99"/>
</g>
<defs>
<clipPath id="clip0_1_1546">
<rect width="40" height="26" fill="white"/>
</clipPath>
</defs>
</svg>
