<svg width="40" height="26" viewBox="0 0 40 26" fill="none" xmlns="http://www.w3.org/2000/svg">
<g clip-path="url(#clip0_1_1642)">
<path d="M19.35 25.31C19.2744 25.2387 19.1668 25.1356 19.03 25.0021C18.7165 24.6961 18.3667 24.3433 17.9895 23.9487C16.9119 22.8212 15.8357 21.5899 14.8315 20.2935C13.0555 18.0008 11.7167 15.7791 10.9529 13.7066C10.4864 12.4407 10.25 11.2672 10.25 10.1901C10.25 4.58385 14.1781 0.650002 19.35 0.650002C24.5219 0.650002 28.45 4.58385 28.45 10.1901C28.45 11.2672 28.2137 12.4407 27.7471 13.7066C26.9833 15.7791 25.6445 18.0008 23.8685 20.2935C22.8643 21.5899 21.7881 22.8212 20.7104 23.9487C20.3333 24.3433 19.9835 24.6961 19.6699 25.0021C19.5332 25.1356 19.4255 25.2387 19.35 25.31Z" fill="#FF8B99" stroke="#FF8B99" stroke-width="1.3"/>
<path d="M19.35 16.9C23.2988 16.9 26.5 13.6988 26.5 9.75C26.5 5.80116 23.2988 2.6 19.35 2.6C15.4012 2.6 12.2 5.80116 12.2 9.75C12.2 13.6988 15.4012 16.9 19.35 16.9Z" fill="white"/>
<path d="M15.2589 6.26728L16.4029 8.20066H16.4472L17.5967 6.26728H18.9512L17.22 9.10364L18.99 11.94H17.6106L16.4472 10.0039H16.4029L15.2395 11.94H13.8657L15.6412 9.10364L13.8989 6.26728H15.2589ZM21.7737 12.0176C21.3601 12.0176 20.9917 11.9465 20.6685 11.8043C20.3472 11.6602 20.0933 11.4627 19.9068 11.2115C19.7221 10.9585 19.627 10.6668 19.6215 10.3362H20.8292C20.8365 10.4747 20.8818 10.5966 20.9649 10.7019C21.0498 10.8053 21.1625 10.8856 21.3028 10.9428C21.4432 11.0001 21.601 11.0287 21.7765 11.0287C21.9593 11.0287 22.1209 10.9964 22.2612 10.9318C22.4015 10.8671 22.5114 10.7776 22.5908 10.6631C22.6702 10.5486 22.7099 10.4166 22.7099 10.267C22.7099 10.1156 22.6674 9.98169 22.5825 9.86536C22.4994 9.74718 22.3794 9.65485 22.2224 9.58837C22.0673 9.52189 21.8826 9.48865 21.6684 9.48865H21.1394V8.60783H21.6684C21.8494 8.60783 22.0091 8.57644 22.1476 8.51365C22.288 8.45087 22.3969 8.36408 22.4745 8.25328C22.552 8.14064 22.5908 8.00953 22.5908 7.85996C22.5908 7.71777 22.5566 7.59313 22.4883 7.48603C22.4218 7.37708 22.3277 7.29213 22.2058 7.2312C22.0858 7.17026 21.9454 7.13979 21.7848 7.13979C21.6223 7.13979 21.4736 7.16933 21.3388 7.22843C21.204 7.28567 21.096 7.36784 21.0147 7.47495C20.9335 7.58205 20.8901 7.70762 20.8846 7.85165H19.7351C19.7406 7.5248 19.8339 7.23674 20.0148 6.98745C20.1958 6.73816 20.4395 6.54334 20.7461 6.403C21.0544 6.26081 21.4025 6.18972 21.7903 6.18972C22.1818 6.18972 22.5243 6.26081 22.8179 6.403C23.1115 6.54519 23.3396 6.73723 23.5021 6.97914C23.6665 7.21919 23.7477 7.4888 23.7459 7.78794C23.7477 8.10556 23.6489 8.37054 23.4495 8.5829C23.2519 8.79526 22.9943 8.93006 22.6767 8.9873V9.03162C23.094 9.08517 23.4116 9.23013 23.6295 9.46649C23.8493 9.70101 23.9582 9.99462 23.9564 10.3473C23.9582 10.6705 23.865 10.9576 23.6766 11.2088C23.4901 11.4599 23.2325 11.6575 22.9038 11.8015C22.5751 11.9455 22.1984 12.0176 21.7737 12.0176Z" fill="#FF8B99"/>
</g>
<defs>
<clipPath id="clip0_1_1642">
<rect width="40" height="26" fill="white"/>
</clipPath>
</defs>
</svg>
