<svg width="55" height="40" viewBox="0 0 55 40" fill="none" xmlns="http://www.w3.org/2000/svg">
<g clip-path="url(#clip0_1_1382)">
<path d="M26.5 38.9384C26.3838 38.8288 26.2181 38.6702 26.0077 38.4648C25.5254 37.994 24.9873 37.4512 24.4069 36.8442C22.7491 35.1096 21.0934 33.2152 19.5484 31.2208C16.8162 27.6936 14.7564 24.2756 13.5814 21.087C12.8637 19.1395 12.5 17.3341 12.5 15.6771C12.5 7.05208 18.5432 1 26.5 1C34.4568 1 40.5 7.05208 40.5 15.6771C40.5 17.3341 40.1364 19.1395 39.4186 21.087C38.2436 24.2756 36.1838 27.6936 33.4516 31.2208C31.9066 33.2152 30.251 35.1096 28.593 36.8442C28.0128 37.4512 27.4746 37.994 26.9922 38.4648C26.7818 38.6702 26.6162 38.8288 26.5 38.9384Z" fill="#FF2F48" stroke="#FF2F48" stroke-width="2"/>
<path d="M26.5 26C32.5751 26 37.5 21.0751 37.5 15C37.5 8.92487 32.5751 4 26.5 4C20.4249 4 15.5 8.92487 15.5 15C15.5 21.0751 20.4249 26 26.5 26Z" fill="white"/>
<path d="M19.3835 19.6V18.5048L23.7386 12.394H19.375V10.8727H26.0568V11.9679L21.6974 18.0787H26.0653V19.6H19.3835ZM27.43 19.6V18.2705L30.5366 15.394C30.8008 15.1384 31.0224 14.9082 31.2013 14.7037C31.3832 14.4991 31.521 14.2989 31.6147 14.1028C31.7085 13.904 31.7553 13.6895 31.7553 13.4594C31.7553 13.2037 31.6971 12.9835 31.5806 12.7989C31.4641 12.6114 31.305 12.4679 31.1033 12.3685C30.9016 12.2662 30.6729 12.2151 30.4173 12.2151C30.1502 12.2151 29.9173 12.269 29.7184 12.377C29.5195 12.4849 29.3661 12.6398 29.2582 12.8415C29.1502 13.0432 29.0962 13.2832 29.0962 13.5616H27.3448C27.3448 12.9906 27.4741 12.4949 27.7326 12.0744C27.9911 11.654 28.3533 11.3287 28.8192 11.0986C29.2852 10.8685 29.8221 10.7534 30.43 10.7534C31.055 10.7534 31.5991 10.8642 32.0621 11.0858C32.5281 11.3045 32.8903 11.6085 33.1488 11.9977C33.4073 12.3869 33.5366 12.833 33.5366 13.3358C33.5366 13.6653 33.4712 13.9906 33.3406 14.3116C33.2127 14.6327 32.984 14.9892 32.6545 15.3812C32.3249 15.7705 31.8604 16.2378 31.261 16.7832L29.9869 18.0318V18.0915H33.6516V19.6H27.43Z" fill="#FF2F48"/>
</g>
<defs>
<clipPath id="clip0_1_1382">
<rect width="55" height="40" fill="white"/>
</clipPath>
</defs>
</svg>
