<svg width="80" height="62.3" viewBox="0 0 20 20" fill="none" xmlns="http://www.w3.org/2000/svg">
<path d="M10 18.8365C9.94754 18.7875 9.87729 18.7211 9.79072 18.6379C9.56598 18.422 9.31513 18.173 9.0446 17.8944C8.27172 17.0984 7.49996 16.2291 6.77993 15.3141C5.50631 13.6957 4.54787 12.1294 4.00168 10.6704C3.66816 9.77948 3.5 8.95578 3.5 8.20166C3.5 4.26818 6.29899 1.5 10 1.5C13.701 1.5 16.5 4.26818 16.5 8.20166C16.5 8.95578 16.3318 9.77948 15.9983 10.6704C15.4521 12.1294 14.4937 13.6957 13.2201 15.3141C12.5 16.2291 11.7283 17.0984 10.9554 17.8944C10.6849 18.173 10.434 18.422 10.2093 18.6379C10.1227 18.7211 10.0525 18.7875 10 18.8365Z" fill="#FF2F48" stroke="#FF2F48"/>
<path d="M10 13C7.23858 13 5 10.7614 5 8C5 5.23858 7.23858 3 10 3C12.7614 3 15 5.23858 15 8C15 10.7614 12.7614 13 10 13Z" fill="white"/>
<path d="M10.8644 11V8.68668H10.8297C10.7762 8.80675 10.7005 8.92589 10.6025 9.04409C10.5063 9.16041 10.3808 9.25704 10.2258 9.33396C10.0726 9.41088 9.88555 9.44934 9.66466 9.44934C9.35293 9.44934 9.07059 9.36492 8.81764 9.19606C8.56647 9.02533 8.36696 8.77486 8.2191 8.44465C8.07303 8.11257 8 7.70544 8 7.22326C8 6.72795 8.07571 6.31613 8.22712 5.9878C8.37853 5.6576 8.57983 5.41088 8.831 5.24765C9.08395 5.08255 9.36094 5 9.66199 5C9.89178 5 10.0833 5.04128 10.2365 5.12383C10.3914 5.2045 10.5161 5.30582 10.6106 5.42777C10.7067 5.54784 10.7798 5.66604 10.8297 5.78236H10.8778V5.05629H12V11H10.8644ZM10.0254 8.49531C10.2089 8.49531 10.3638 8.44278 10.4903 8.33771C10.6186 8.23077 10.7165 8.08161 10.7842 7.89024C10.8537 7.69887 10.8884 7.47467 10.8884 7.21764C10.8884 6.9606 10.8546 6.73734 10.7869 6.54784C10.7192 6.35835 10.6212 6.21201 10.493 6.10882C10.3647 6.00563 10.2089 5.95403 10.0254 5.95403C9.83834 5.95403 9.68069 6.0075 9.55244 6.11445C9.42418 6.22139 9.3271 6.36961 9.26119 6.5591C9.19528 6.74859 9.16232 6.9681 9.16232 7.21764C9.16232 7.46904 9.19528 7.69137 9.26119 7.88462C9.32888 8.07598 9.42596 8.22608 9.55244 8.3349C9.68069 8.44184 9.83834 8.49531 10.0254 8.49531Z" fill="#FF2F48"/>
</svg>
