<svg width="40" height="26" viewBox="0 0 40 26" fill="none" xmlns="http://www.w3.org/2000/svg">
<g clip-path="url(#clip0_1_1510)">
<path d="M19.35 25.31C19.2744 25.2387 19.1668 25.1356 19.03 25.0021C18.7165 24.6961 18.3667 24.3433 17.9895 23.9487C16.9119 22.8212 15.8357 21.5899 14.8315 20.2935C13.0555 18.0008 11.7167 15.7791 10.9529 13.7066C10.4864 12.4407 10.25 11.2672 10.25 10.1901C10.25 4.58385 14.1781 0.650002 19.35 0.650002C24.5219 0.650002 28.45 4.58385 28.45 10.1901C28.45 11.2672 28.2137 12.4407 27.7471 13.7066C26.9833 15.7791 25.6445 18.0008 23.8685 20.2935C22.8643 21.5899 21.7881 22.8212 20.7104 23.9487C20.3333 24.3433 19.9835 24.6961 19.6699 25.0021C19.5332 25.1356 19.4255 25.2387 19.35 25.31Z" fill="#FF8B99" stroke="#FF8B99" stroke-width="1.3"/>
<path d="M19.35 16.9C23.2988 16.9 26.5 13.6988 26.5 9.75C26.5 5.80116 23.2988 2.6 19.35 2.6C15.4012 2.6 12.2 5.80116 12.2 9.75C12.2 13.6988 15.4012 16.9 19.35 16.9Z" fill="white"/>
<path d="M14.6614 11.94V6.26727H16.8995C17.3297 6.26727 17.6963 6.34944 17.9991 6.51379C18.3019 6.67629 18.5328 6.9025 18.6916 7.19241C18.8522 7.48048 18.9326 7.81287 18.9326 8.18957C18.9326 8.56628 18.8513 8.89866 18.6888 9.18673C18.5263 9.4748 18.2909 9.69916 17.9825 9.85981C17.676 10.0205 17.3048 10.1008 16.869 10.1008H15.4425V9.13964H16.6751C16.9059 9.13964 17.0961 9.09994 17.2457 9.02054C17.3971 8.93929 17.5098 8.82757 17.5836 8.68538C17.6593 8.54135 17.6972 8.37608 17.6972 8.18957C17.6972 8.00122 17.6593 7.83687 17.5836 7.69653C17.5098 7.55435 17.3971 7.44447 17.2457 7.36692C17.0943 7.28751 16.9022 7.24781 16.6696 7.24781H15.8608V11.94H14.6614ZM19.6783 11.94V11.0758L21.6976 9.20612C21.8693 9.03993 22.0134 8.89035 22.1297 8.7574C22.2479 8.62444 22.3374 8.49426 22.3984 8.36685C22.4593 8.23758 22.4898 8.09817 22.4898 7.94859C22.4898 7.7824 22.4519 7.63929 22.3762 7.51926C22.3005 7.39739 22.1971 7.30413 22.066 7.2395C21.9349 7.17302 21.7862 7.13979 21.62 7.13979C21.4465 7.13979 21.295 7.17487 21.1658 7.24504C21.0365 7.31521 20.9368 7.41585 20.8666 7.54696C20.7965 7.67807 20.7614 7.8341 20.7614 8.01507H19.623C19.623 7.6439 19.707 7.32167 19.875 7.04838C20.0431 6.77508 20.2785 6.56365 20.5813 6.41408C20.8842 6.2645 21.2332 6.18971 21.6283 6.18971C22.0346 6.18971 22.3882 6.26173 22.6892 6.40577C22.9921 6.54795 23.2275 6.74554 23.3955 6.99852C23.5636 7.2515 23.6476 7.54142 23.6476 7.86827C23.6476 8.08247 23.6051 8.2939 23.5202 8.50257C23.4371 8.71123 23.2884 8.94298 23.0742 9.19781C22.86 9.45079 22.5581 9.75456 22.1685 10.1091L21.3403 10.9207V10.9595H23.7224V11.94H19.6783Z" fill="#FF8B99"/>
</g>
<defs>
<clipPath id="clip0_1_1510">
<rect width="40" height="26" fill="white"/>
</clipPath>
</defs>
</svg>
