<svg width="40" height="26" viewBox="0 0 40 26" fill="none" xmlns="http://www.w3.org/2000/svg">
<g clip-path="url(#clip0_1_1514)">
<path d="M19.35 25.31C19.2744 25.2387 19.1668 25.1356 19.03 25.0021C18.7165 24.6961 18.3667 24.3433 17.9895 23.9487C16.9119 22.8212 15.8357 21.5899 14.8315 20.2935C13.0555 18.0008 11.7167 15.7791 10.9529 13.7066C10.4864 12.4407 10.25 11.2672 10.25 10.1901C10.25 4.58385 14.1781 0.650002 19.35 0.650002C24.5219 0.650002 28.45 4.58385 28.45 10.1901C28.45 11.2672 28.2137 12.4407 27.7471 13.7066C26.9833 15.7791 25.6445 18.0008 23.8685 20.2935C22.8643 21.5899 21.7881 22.8212 20.7104 23.9487C20.3333 24.3433 19.9835 24.6961 19.6699 25.0021C19.5332 25.1356 19.4255 25.2387 19.35 25.31Z" fill="#FF8B99" stroke="#FF8B99" stroke-width="1.3"/>
<path d="M19.35 16.9C23.2988 16.9 26.5 13.6988 26.5 9.75C26.5 5.80116 23.2988 2.6 19.35 2.6C15.4012 2.6 12.2 5.80116 12.2 9.75C12.2 13.6988 15.4012 16.9 19.35 16.9Z" fill="white"/>
<path d="M15.0471 11.94V6.26727H17.2852C17.7155 6.26727 18.082 6.34944 18.3848 6.51379C18.6877 6.67629 18.9185 6.9025 19.0773 7.19241C19.238 7.48048 19.3183 7.81287 19.3183 8.18957C19.3183 8.56628 19.237 8.89866 19.0745 9.18673C18.912 9.4748 18.6766 9.69916 18.3682 9.85981C18.0617 10.0205 17.6905 10.1008 17.2547 10.1008H15.8282V9.13964H17.0608C17.2917 9.13964 17.4819 9.09994 17.6314 9.02054C17.7829 8.93929 17.8955 8.82757 17.9694 8.68538C18.0451 8.54135 18.0829 8.37608 18.0829 8.18957C18.0829 8.00122 18.0451 7.83687 17.9694 7.69653C17.8955 7.55435 17.7829 7.44447 17.6314 7.36692C17.48 7.28751 17.288 7.24781 17.0553 7.24781H16.2465V11.94H15.0471ZM22.1609 12.0176C21.7473 12.0176 21.3789 11.9465 21.0557 11.8043C20.7344 11.6602 20.4805 11.4627 20.294 11.2115C20.1093 10.9585 20.0142 10.6668 20.0087 10.3362H21.2164C21.2238 10.4747 21.269 10.5966 21.3521 10.7019C21.437 10.8053 21.5497 10.8856 21.69 10.9428C21.8304 11.0001 21.9882 11.0287 22.1637 11.0287C22.3465 11.0287 22.5081 10.9964 22.6484 10.9318C22.7887 10.8671 22.8986 10.7776 22.978 10.6631C23.0574 10.5486 23.0971 10.4166 23.0971 10.267C23.0971 10.1156 23.0546 9.98169 22.9697 9.86535C22.8866 9.74717 22.7666 9.65484 22.6096 9.58837C22.4545 9.52189 22.2698 9.48865 22.0556 9.48865H21.5266V8.60783H22.0556C22.2366 8.60783 22.3963 8.57643 22.5348 8.51365C22.6752 8.45087 22.7841 8.36408 22.8617 8.25328C22.9392 8.14064 22.978 8.00953 22.978 7.85996C22.978 7.71777 22.9439 7.59312 22.8755 7.48602C22.809 7.37707 22.7149 7.29213 22.593 7.23119C22.473 7.17025 22.3326 7.13979 22.172 7.13979C22.0095 7.13979 21.8608 7.16933 21.726 7.22842C21.5912 7.28567 21.4832 7.36784 21.4019 7.47494C21.3207 7.58204 21.2773 7.70761 21.2718 7.85165H20.1223C20.1278 7.5248 20.2211 7.23673 20.402 6.98744C20.583 6.73815 20.8267 6.54334 21.1333 6.403C21.4416 6.26081 21.7897 6.18971 22.1775 6.18971C22.569 6.18971 22.9115 6.26081 23.2051 6.403C23.4988 6.54518 23.7268 6.73723 23.8893 6.97913C24.0537 7.21919 24.1349 7.48879 24.1331 7.78794C24.1349 8.10555 24.0361 8.37054 23.8367 8.5829C23.6391 8.79525 23.3815 8.93006 23.0639 8.9873V9.03162C23.4812 9.08517 23.7988 9.23013 24.0167 9.46649C24.2365 9.70101 24.3454 9.99462 24.3436 10.3473C24.3454 10.6705 24.2522 10.9576 24.0638 11.2087C23.8773 11.4599 23.6197 11.6575 23.291 11.8015C22.9623 11.9455 22.5856 12.0176 22.1609 12.0176Z" fill="#FF8B99"/>
</g>
<defs>
<clipPath id="clip0_1_1514">
<rect width="40" height="26" fill="white"/>
</clipPath>
</defs>
</svg>
