<svg width="80" height="62.3" viewBox="0 0 20 20" fill="none" xmlns="http://www.w3.org/2000/svg">
<path d="M10 18.8365C9.94754 18.7875 9.87729 18.7211 9.79072 18.6379C9.56598 18.422 9.31513 18.173 9.0446 17.8944C8.27172 17.0984 7.49996 16.2291 6.77993 15.3141C5.50631 13.6957 4.54787 12.1294 4.00168 10.6704C3.66816 9.77948 3.5 8.95578 3.5 8.20166C3.5 4.26818 6.29899 1.5 10 1.5C13.701 1.5 16.5 4.26818 16.5 8.20166C16.5 8.95578 16.3318 9.77948 15.9983 10.6704C15.4521 12.1294 14.4937 13.6957 13.2201 15.3141C12.5 16.2291 11.7283 17.0984 10.9554 17.8944C10.6849 18.173 10.434 18.422 10.2093 18.6379C10.1227 18.7211 10.0525 18.7875 10 18.8365Z" fill="#FF2F48" stroke="#FF2F48"/>
<path d="M10 13C7.23858 13 5 10.7614 5 8C5 5.23858 7.23858 3 10 3C12.7614 3 15 5.23858 15 8C15 10.7614 12.7614 13 10 13Z" fill="white"/>
<path d="M7 10V6.05141H8.0914V6.74807H8.13978C8.22581 6.51671 8.36918 6.33419 8.56989 6.20051C8.77061 6.06684 9.01075 6 9.29032 6C9.57348 6 9.81452 6.06769 10.0134 6.20308C10.2124 6.33676 10.345 6.51842 10.4113 6.74807H10.4543C10.5385 6.52185 10.6909 6.34105 10.9113 6.20566C11.1335 6.06855 11.3961 6 11.6989 6C12.0842 6 12.397 6.11739 12.6371 6.35219C12.879 6.58526 13 6.91602 13 7.34447V10H11.8575V7.56041C11.8575 7.34105 11.7966 7.17652 11.6747 7.06684C11.5529 6.95715 11.4005 6.90231 11.2177 6.90231C11.0099 6.90231 10.8477 6.96572 10.7312 7.09254C10.6147 7.21765 10.5565 7.38303 10.5565 7.58869V10H9.44624V7.53727C9.44624 7.34362 9.38799 7.18937 9.27151 7.07455C9.15681 6.95973 9.00538 6.90231 8.8172 6.90231C8.68996 6.90231 8.57527 6.93316 8.47312 6.99486C8.37276 7.05484 8.29301 7.13967 8.23387 7.24936C8.17473 7.35733 8.14516 7.48415 8.14516 7.62982V10H7Z" fill="#FF2F48"/>
</svg>
