<svg width="40" height="26" viewBox="0 0 40 26" fill="none" xmlns="http://www.w3.org/2000/svg">
<g clip-path="url(#clip0_1_939)">
<path d="M19.35 25.31C19.2744 25.2387 19.1668 25.1356 19.03 25.0021C18.7165 24.6961 18.3667 24.3433 17.9895 23.9487C16.9119 22.8212 15.8357 21.5899 14.8315 20.2935C13.0555 18.0008 11.7167 15.7791 10.9529 13.7065C10.4864 12.4407 10.25 11.2671 10.25 10.1901C10.25 4.58385 14.1781 0.649994 19.35 0.649994C24.5219 0.649994 28.45 4.58385 28.45 10.1901C28.45 11.2671 28.2137 12.4407 27.7471 13.7065C26.9833 15.7791 25.6445 18.0008 23.8685 20.2935C22.8643 21.5899 21.7881 22.8212 20.7104 23.9487C20.3333 24.3433 19.9835 24.6961 19.6699 25.0021C19.5332 25.1356 19.4255 25.2387 19.35 25.31Z" fill="#FF8B99" stroke="#FF8B99" stroke-width="1.3"/>
<path d="M19.35 16.9C23.2988 16.9 26.5 13.6988 26.5 9.75001C26.5 5.80117 23.2988 2.60001 19.35 2.60001C15.4011 2.60001 12.2 5.80117 12.2 9.75001C12.2 13.6988 15.4011 16.9 19.35 16.9Z" fill="white"/>
<path d="M20.3876 8.10094C20.3488 7.96614 20.2944 7.84703 20.2242 7.74362C20.154 7.63837 20.0682 7.54973 19.9666 7.47772C19.8669 7.40385 19.7524 7.34753 19.6231 7.30875C19.4957 7.26997 19.3545 7.25059 19.1993 7.25059C18.9094 7.25059 18.6546 7.3226 18.4349 7.46664C18.217 7.61067 18.0471 7.82026 17.9252 8.0954C17.8033 8.3687 17.7424 8.70293 17.7424 9.0981C17.7424 9.49327 17.8024 9.82935 17.9224 10.1063C18.0425 10.3833 18.2123 10.5948 18.4321 10.7406C18.6518 10.8847 18.9113 10.9567 19.2104 10.9567C19.4819 10.9567 19.7136 10.9087 19.9057 10.8127C20.0996 10.7148 20.2473 10.5772 20.3488 10.3999C20.4523 10.2227 20.504 10.0131 20.504 9.77118L20.7477 9.80719H19.2852V8.90421H21.659V9.61884C21.659 10.1174 21.5537 10.5458 21.3432 10.9041C21.1327 11.2605 20.8428 11.5356 20.4735 11.7295C20.1042 11.9215 19.6813 12.0176 19.2049 12.0176C18.6731 12.0176 18.2059 11.9003 17.8033 11.6658C17.4008 11.4294 17.0868 11.0943 16.8616 10.6603C16.6381 10.2245 16.5264 9.70747 16.5264 9.10918C16.5264 8.64938 16.5929 8.23943 16.7258 7.87935C16.8606 7.51742 17.049 7.21088 17.2909 6.95975C17.5328 6.70861 17.8144 6.51749 18.1357 6.38638C18.457 6.25527 18.8051 6.18972 19.18 6.18972C19.5013 6.18972 19.8004 6.23681 20.0774 6.33098C20.3544 6.42331 20.6 6.55442 20.8142 6.72431C21.0302 6.89419 21.2066 7.09639 21.3432 7.33091C21.4799 7.56358 21.5676 7.82026 21.6064 8.10094H20.3876Z" fill="#FF8B99"/>
</g>
<defs>
<clipPath id="clip0_1_939">
<rect width="40" height="26" fill="white"/>
</clipPath>
</defs>
</svg>
