<svg width="40" height="26" viewBox="0 0 40 26" fill="none" xmlns="http://www.w3.org/2000/svg">
<g clip-path="url(#clip0_1_1398)">
<path d="M19.35 25.31C19.2744 25.2387 19.1668 25.1356 19.03 25.0021C18.7165 24.6961 18.3667 24.3433 17.9895 23.9487C16.9119 22.8212 15.8357 21.5899 14.8315 20.2935C13.0555 18.0008 11.7167 15.7791 10.9529 13.7066C10.4864 12.4407 10.25 11.2672 10.25 10.1901C10.25 4.58385 14.1781 0.650002 19.35 0.650002C24.5219 0.650002 28.45 4.58385 28.45 10.1901C28.45 11.2672 28.2137 12.4407 27.7471 13.7066C26.9833 15.7791 25.6445 18.0008 23.8685 20.2935C22.8643 21.5899 21.7881 22.8212 20.7104 23.9487C20.3333 24.3433 19.9835 24.6961 19.6699 25.0021C19.5332 25.1356 19.4255 25.2387 19.35 25.31Z" fill="#FF8B99" stroke="#FF8B99" stroke-width="1.3"/>
<path d="M19.35 16.9C23.2988 16.9 26.5 13.6988 26.5 9.75C26.5 5.80116 23.2988 2.6 19.35 2.6C15.4012 2.6 12.2 5.80116 12.2 9.75C12.2 13.6988 15.4012 16.9 19.35 16.9Z" fill="white"/>
<path d="M16.5928 6.26727V11.94H15.3934V6.26727H16.5928ZM17.5463 11.94V11.0758L19.5656 9.20612C19.7373 9.03993 19.8814 8.89035 19.9977 8.7574C20.1159 8.62444 20.2054 8.49426 20.2664 8.36685C20.3273 8.23758 20.3578 8.09817 20.3578 7.94859C20.3578 7.7824 20.3199 7.63929 20.2442 7.51926C20.1685 7.39739 20.0651 7.30413 19.934 7.2395C19.8029 7.17302 19.6542 7.13979 19.488 7.13979C19.3144 7.13979 19.163 7.17487 19.0338 7.24504C18.9045 7.31521 18.8048 7.41585 18.7346 7.54696C18.6644 7.67807 18.6294 7.8341 18.6294 8.01507H17.4909C17.4909 7.6439 17.575 7.32167 17.743 7.04838C17.911 6.77508 18.1465 6.56365 18.4493 6.41408C18.7522 6.2645 19.1012 6.18971 19.4963 6.18971C19.9026 6.18971 20.2562 6.26173 20.5572 6.40577C20.86 6.54795 21.0955 6.74554 21.2635 6.99852C21.4316 7.2515 21.5156 7.54142 21.5156 7.86827C21.5156 8.08247 21.4731 8.2939 21.3882 8.50257C21.3051 8.71123 21.1564 8.94298 20.9422 9.19781C20.728 9.45079 20.4261 9.75456 20.0365 10.1091L19.2083 10.9207V10.9595H21.5904V11.94H17.5463Z" fill="#FF8B99"/>
</g>
<defs>
<clipPath id="clip0_1_1398">
<rect width="40" height="26" fill="white"/>
</clipPath>
</defs>
</svg>
