<svg width="40" height="26" viewBox="0 0 40 26" fill="none" xmlns="http://www.w3.org/2000/svg">
<g clip-path="url(#clip0_1_1538)">
<path d="M19.35 25.31C19.2744 25.2387 19.1668 25.1356 19.03 25.0021C18.7165 24.6961 18.3667 24.3433 17.9895 23.9487C16.9119 22.8212 15.8357 21.5899 14.8315 20.2935C13.0555 18.0008 11.7167 15.7791 10.9529 13.7066C10.4864 12.4407 10.25 11.2672 10.25 10.1901C10.25 4.58385 14.1781 0.650002 19.35 0.650002C24.5219 0.650002 28.45 4.58385 28.45 10.1901C28.45 11.2672 28.2137 12.4407 27.7471 13.7066C26.9833 15.7791 25.6445 18.0008 23.8685 20.2935C22.8643 21.5899 21.7881 22.8212 20.7104 23.9487C20.3333 24.3433 19.9835 24.6961 19.6699 25.0021C19.5332 25.1356 19.4255 25.2387 19.35 25.31Z" fill="#FF8B99" stroke="#FF8B99" stroke-width="1.3"/>
<path d="M19.35 16.9C23.2988 16.9 26.5 13.6988 26.5 9.75C26.5 5.80116 23.2988 2.6 19.35 2.6C15.4012 2.6 12.2 5.80116 12.2 9.75C12.2 13.6988 15.4012 16.9 19.35 16.9Z" fill="white"/>
<path d="M15.3256 11.94V6.26727H17.5636C17.992 6.26727 18.3577 6.3439 18.6605 6.49717C18.9652 6.64859 19.1969 6.86372 19.3557 7.14256C19.5164 7.41954 19.5967 7.74547 19.5967 8.12033C19.5967 8.49703 19.5155 8.82111 19.353 9.09256C19.1905 9.36216 18.955 9.56898 18.6467 9.71301C18.3401 9.85704 17.969 9.92906 17.5332 9.92906H16.0347V8.96514H17.3393C17.5682 8.96514 17.7584 8.93375 17.9099 8.87096C18.0613 8.80818 18.1739 8.714 18.2478 8.58844C18.3235 8.46287 18.3614 8.30683 18.3614 8.12033C18.3614 7.93197 18.3235 7.77317 18.2478 7.64391C18.1739 7.51464 18.0604 7.41677 17.9071 7.3503C17.7557 7.28197 17.5646 7.24781 17.3337 7.24781H16.5249V11.94H15.3256ZM18.3891 9.35846L19.7989 11.94H18.4749L17.0955 9.35846H18.3891ZM22.879 6.26727V11.94H21.6797V7.40569H21.6464L20.3474 8.22004V7.15641L21.7517 6.26727H22.879Z" fill="#FF8B99"/>
</g>
<defs>
<clipPath id="clip0_1_1538">
<rect width="40" height="26" fill="white"/>
</clipPath>
</defs>
</svg>
