<svg width="80" height="62.3" viewBox="0 0 20 20" fill="none" xmlns="http://www.w3.org/2000/svg">
<path d="M10 18.8365C9.94754 18.7875 9.87729 18.7211 9.79072 18.6379C9.56598 18.422 9.31513 18.173 9.0446 17.8944C8.27172 17.0984 7.49996 16.2291 6.77993 15.3141C5.50631 13.6957 4.54787 12.1294 4.00168 10.6704C3.66816 9.77948 3.5 8.95578 3.5 8.20166C3.5 4.26818 6.29899 1.5 10 1.5C13.701 1.5 16.5 4.26818 16.5 8.20166C16.5 8.95578 16.3318 9.77948 15.9983 10.6704C15.4521 12.1294 14.4937 13.6957 13.2201 15.3141C12.5 16.2291 11.7283 17.0984 10.9554 17.8944C10.6849 18.173 10.434 18.422 10.2093 18.6379C10.1227 18.7211 10.0525 18.7875 10 18.8365Z" fill="#FF2F48" stroke="#FF2F48"/>
<path d="M10 13C7.23858 13 5 10.7614 5 8C5 5.23858 7.23858 3 10 3C12.7614 3 15 5.23858 15 8C15 10.7614 12.7614 13 10 13Z" fill="white"/>
<path d="M10 10C9.58907 10 9.23369 9.91677 8.93386 9.75032C8.6358 9.58218 8.40564 9.34847 8.24339 9.04918C8.08113 8.74821 8 8.39933 8 8.00252C8 7.60235 8.08113 7.25263 8.24339 6.95334C8.40564 6.65237 8.6358 6.41866 8.93386 6.25221C9.23369 6.08407 9.58907 6 10 6C10.4109 6 10.7654 6.08407 11.0635 6.25221C11.3633 6.41866 11.5944 6.65237 11.7566 6.95334C11.9189 7.25263 12 7.60235 12 8.00252C12 8.39933 11.9189 8.74821 11.7566 9.04918C11.5944 9.34847 11.3633 9.58218 11.0635 9.75032C10.7654 9.91677 10.4109 10 10 10ZM10.0053 9.16772C10.1922 9.16772 10.3483 9.11728 10.4735 9.01639C10.5988 8.91383 10.6931 8.77427 10.7566 8.59773C10.8219 8.42119 10.8545 8.22026 10.8545 7.99496C10.8545 7.76965 10.8219 7.56873 10.7566 7.39218C10.6931 7.21564 10.5988 7.07608 10.4735 6.97352C10.3483 6.87095 10.1922 6.81967 10.0053 6.81967C9.81658 6.81967 9.65785 6.87095 9.5291 6.97352C9.40212 7.07608 9.306 7.21564 9.24074 7.39218C9.17725 7.56873 9.1455 7.76965 9.1455 7.99496C9.1455 8.22026 9.17725 8.42119 9.24074 8.59773C9.306 8.77427 9.40212 8.91383 9.5291 9.01639C9.65785 9.11728 9.81658 9.16772 10.0053 9.16772Z" fill="#FF2F48"/>
</svg>
