<svg width="40" height="26" viewBox="0 0 40 26" fill="none" xmlns="http://www.w3.org/2000/svg">
<g clip-path="url(#clip0_1_1462)">
<path d="M19.35 25.31C19.2744 25.2387 19.1668 25.1356 19.03 25.0021C18.7165 24.6961 18.3667 24.3433 17.9895 23.9487C16.9119 22.8212 15.8357 21.5899 14.8315 20.2935C13.0555 18.0008 11.7167 15.7791 10.9529 13.7066C10.4864 12.4407 10.25 11.2672 10.25 10.1901C10.25 4.58385 14.1781 0.650002 19.35 0.650002C24.5219 0.650002 28.45 4.58385 28.45 10.1901C28.45 11.2672 28.2137 12.4407 27.7471 13.7066C26.9833 15.7791 25.6445 18.0008 23.8685 20.2935C22.8643 21.5899 21.7881 22.8212 20.7104 23.9487C20.3333 24.3433 19.9835 24.6961 19.6699 25.0021C19.5332 25.1356 19.4255 25.2387 19.35 25.31Z" fill="#FF8B99" stroke="#FF8B99" stroke-width="1.3"/>
<path d="M19.35 16.9C23.2988 16.9 26.5 13.6988 26.5 9.75C26.5 5.80116 23.2988 2.6 19.35 2.6C15.4011 2.6 12.2 5.80116 12.2 9.75C12.2 13.6988 15.4011 16.9 19.35 16.9Z" fill="white"/>
<path d="M13.8178 6.26727H15.2969L16.8592 10.0786H16.9256L18.4878 6.26727H19.967V11.94H18.8036V8.24774H18.7565L17.2885 11.9123H16.4963L15.0283 8.23389H14.9812V11.94H13.8178V6.26727ZM20.9219 11.94V11.0758L22.9411 9.20612C23.1129 9.03993 23.2569 8.89035 23.3732 8.7574C23.4914 8.62444 23.581 8.49426 23.6419 8.36685C23.7029 8.23758 23.7333 8.09817 23.7333 7.94859C23.7333 7.7824 23.6955 7.63929 23.6198 7.51926C23.544 7.39739 23.4406 7.30413 23.3095 7.2395C23.1784 7.17302 23.0298 7.13979 22.8636 7.13979C22.69 7.13979 22.5386 7.17487 22.4093 7.24504C22.2801 7.31521 22.1803 7.41585 22.1102 7.54696C22.04 7.67807 22.0049 7.8341 22.0049 8.01507H20.8665C20.8665 7.6439 20.9505 7.32167 21.1185 7.04838C21.2866 6.77508 21.522 6.56365 21.8249 6.41408C22.1277 6.2645 22.4767 6.18971 22.8719 6.18971C23.2781 6.18971 23.6318 6.26173 23.9328 6.40577C24.2356 6.54795 24.471 6.74554 24.6391 6.99852C24.8071 7.2515 24.8911 7.54142 24.8911 7.86827C24.8911 8.08247 24.8487 8.2939 24.7637 8.50257C24.6806 8.71123 24.532 8.94298 24.3178 9.19781C24.1036 9.45079 23.8016 9.75456 23.412 10.1091L22.5838 10.9207V10.9595H24.9659V11.94H20.9219Z" fill="#FF8B99"/>
</g>
<defs>
<clipPath id="clip0_1_1462">
<rect width="40" height="26" fill="white"/>
</clipPath>
</defs>
</svg>
