<svg width="40" height="26" viewBox="0 0 40 26" fill="none" xmlns="http://www.w3.org/2000/svg">
<g clip-path="url(#clip0_1_943)">
<path d="M19.35 25.31C19.2744 25.2387 19.1668 25.1356 19.03 25.0021C18.7165 24.6961 18.3667 24.3433 17.9895 23.9487C16.9119 22.8212 15.8357 21.5899 14.8315 20.2935C13.0555 18.0008 11.7167 15.7791 10.9529 13.7065C10.4864 12.4407 10.25 11.2671 10.25 10.1901C10.25 4.58385 14.1781 0.649994 19.35 0.649994C24.5219 0.649994 28.45 4.58385 28.45 10.1901C28.45 11.2671 28.2137 12.4407 27.7471 13.7065C26.9833 15.7791 25.6445 18.0008 23.8685 20.2935C22.8643 21.5899 21.7881 22.8212 20.7104 23.9487C20.3333 24.3433 19.9835 24.6961 19.6699 25.0021C19.5332 25.1356 19.4255 25.2387 19.35 25.31Z" fill="#FF8B99" stroke="#FF8B99" stroke-width="1.3"/>
<path d="M19.35 16.9C23.2988 16.9 26.5 13.6988 26.5 9.75001C26.5 5.80117 23.2988 2.60001 19.35 2.60001C15.4011 2.60001 12.2 5.80117 12.2 9.75001C12.2 13.6988 15.4011 16.9 19.35 16.9Z" fill="white"/>
<path d="M18.5296 8.10094C18.4908 7.96614 18.4363 7.84703 18.3661 7.74362C18.296 7.63837 18.2101 7.54973 18.1085 7.47772C18.0088 7.40385 17.8943 7.34753 17.7651 7.30875C17.6377 7.26997 17.4964 7.25059 17.3413 7.25059C17.0514 7.25059 16.7965 7.3226 16.5768 7.46664C16.3589 7.61067 16.189 7.82026 16.0671 8.0954C15.9453 8.3687 15.8843 8.70293 15.8843 9.0981C15.8843 9.49327 15.9443 9.82935 16.0644 10.1063C16.1844 10.3833 16.3543 10.5948 16.574 10.7406C16.7938 10.8847 17.0532 10.9567 17.3524 10.9567C17.6238 10.9567 17.8556 10.9087 18.0476 10.8127C18.2415 10.7148 18.3892 10.5772 18.4908 10.3999C18.5942 10.2227 18.6459 10.0131 18.6459 9.77118L18.8897 9.80719H17.4272V8.90421H19.8009V9.61884C19.8009 10.1174 19.6957 10.5458 19.4852 10.9041C19.2747 11.2605 18.9848 11.5356 18.6154 11.7295C18.2461 11.9215 17.8232 12.0176 17.3468 12.0176C16.815 12.0176 16.3478 11.9003 15.9453 11.6658C15.5427 11.4294 15.2288 11.0943 15.0035 10.6603C14.7801 10.2245 14.6683 9.70747 14.6683 9.10918C14.6683 8.64938 14.7348 8.23943 14.8678 7.87935C15.0026 7.51742 15.1909 7.21088 15.4328 6.95975C15.6747 6.70861 15.9563 6.51749 16.2777 6.38638C16.599 6.25527 16.947 6.18972 17.3219 6.18972C17.6432 6.18972 17.9424 6.23681 18.2193 6.33098C18.4963 6.42331 18.7419 6.55442 18.9561 6.72431C19.1722 6.89419 19.3485 7.09639 19.4852 7.33091C19.6218 7.56358 19.7095 7.82026 19.7483 8.10094H18.5296ZM23.1366 6.26728V11.94H21.9372V7.4057H21.904L20.6049 8.22005V7.15641L22.0092 6.26728H23.1366Z" fill="#FF8B99"/>
</g>
<defs>
<clipPath id="clip0_1_943">
<rect width="40" height="26" fill="white"/>
</clipPath>
</defs>
</svg>
