<svg width="40" height="26" viewBox="0 0 40 26" fill="none" xmlns="http://www.w3.org/2000/svg">
<g clip-path="url(#clip0_1_892)">
<path d="M19.35 25.31C19.2744 25.2387 19.1668 25.1356 19.03 25.0021C18.7165 24.6961 18.3667 24.3433 17.9895 23.9487C16.9119 22.8212 15.8357 21.5899 14.8315 20.2935C13.0555 18.0008 11.7167 15.7791 10.9529 13.7065C10.4864 12.4407 10.25 11.2671 10.25 10.1901C10.25 4.58385 14.1781 0.649994 19.35 0.649994C24.5219 0.649994 28.45 4.58385 28.45 10.1901C28.45 11.2671 28.2137 12.4407 27.7471 13.7065C26.9833 15.7791 25.6445 18.0008 23.8685 20.2935C22.8643 21.5899 21.7881 22.8212 20.7104 23.9487C20.3333 24.3433 19.9835 24.6961 19.6699 25.0021C19.5332 25.1356 19.4255 25.2387 19.35 25.31Z" fill="#FF8B99" stroke="#FF8B99" stroke-width="1.3"/>
<path d="M19.35 16.9C23.2988 16.9 26.5 13.6988 26.5 9.75001C26.5 5.80117 23.2988 2.60001 19.35 2.60001C15.4012 2.60001 12.2 5.80117 12.2 9.75001C12.2 13.6988 15.4012 16.9 19.35 16.9Z" fill="white"/>
<path d="M16.9085 11.94H14.8975V6.26728H16.9251C17.4957 6.26728 17.9869 6.38084 18.3987 6.60797C18.8105 6.83326 19.1271 7.15733 19.3487 7.5802C19.5722 8.00307 19.6839 8.50904 19.6839 9.0981C19.6839 9.68901 19.5722 10.1968 19.3487 10.6215C19.1271 11.0463 18.8086 11.3722 18.3931 11.5993C17.9795 11.8264 17.4846 11.94 16.9085 11.94ZM16.0969 10.9124H16.8586C17.2132 10.9124 17.5114 10.8496 17.7533 10.724C17.997 10.5966 18.1798 10.3999 18.3017 10.134C18.4254 9.86628 18.4873 9.52097 18.4873 9.0981C18.4873 8.67892 18.4254 8.33638 18.3017 8.07047C18.1798 7.80456 17.998 7.60882 17.756 7.48326C17.5141 7.35769 17.2159 7.2949 16.8614 7.2949H16.0969V10.9124ZM23.0071 6.26728V11.94H21.8077V7.4057H21.7745L20.4754 8.22005V7.15641L21.8797 6.26728H23.0071Z" fill="#FF8B99"/>
</g>
<defs>
<clipPath id="clip0_1_892">
<rect width="40" height="26" fill="white"/>
</clipPath>
</defs>
</svg>
