<svg width="55" height="40" viewBox="0 0 55 40" fill="none" xmlns="http://www.w3.org/2000/svg">
<g clip-path="url(#clip0_1_995)">
<path d="M26.5 38.9384C26.3838 38.8288 26.2181 38.6702 26.0077 38.4648C25.5254 37.994 24.9873 37.4512 24.4069 36.8442C22.7491 35.1096 21.0934 33.2152 19.5484 31.2208C16.8162 27.6936 14.7564 24.2756 13.5814 21.087C12.8637 19.1395 12.5 17.3341 12.5 15.6771C12.5 7.05208 18.5432 1 26.5 1C34.4568 1 40.5 7.05208 40.5 15.6771C40.5 17.3341 40.1364 19.1395 39.4186 21.087C38.2436 24.2756 36.1838 27.6936 33.4516 31.2208C31.9066 33.2152 30.251 35.1096 28.593 36.8442C28.0128 37.4512 27.4746 37.994 26.9922 38.4648C26.7818 38.6702 26.6162 38.8288 26.5 38.9384Z" fill="#FF2F48" stroke="#FF2F48" stroke-width="2"/>
<path d="M26.5 26C32.5751 26 37.5 21.0751 37.5 15C37.5 8.92487 32.5751 4 26.5 4C20.4249 4 15.5 8.92487 15.5 15C15.5 21.0751 20.4249 26 26.5 26Z" fill="white"/>
<path d="M19.5124 19.6V10.8727H23.0067C23.6488 10.8727 24.1843 10.9679 24.6133 11.1582C25.0423 11.3486 25.3647 11.6128 25.5806 11.9509C25.7965 12.2861 25.9045 12.6724 25.9045 13.1099C25.9045 13.4509 25.8363 13.7506 25.6999 14.0091C25.5636 14.2648 25.3761 14.475 25.1374 14.6398C24.9016 14.8017 24.6317 14.9168 24.3278 14.9849V15.0702C24.6602 15.0844 24.9712 15.1781 25.261 15.3514C25.5536 15.5247 25.7908 15.7676 25.9727 16.0801C26.1545 16.3898 26.2454 16.7591 26.2454 17.1881C26.2454 17.6511 26.1303 18.0645 25.9002 18.4281C25.6729 18.7889 25.3363 19.0744 24.8903 19.2847C24.4442 19.4949 23.8945 19.6 23.2411 19.6H19.5124ZM21.3576 18.0915H22.8619C23.3761 18.0915 23.7511 17.9935 23.9869 17.7974C24.2227 17.5986 24.3406 17.3344 24.3406 17.0048C24.3406 16.7634 24.2823 16.5503 24.1658 16.3656C24.0494 16.181 23.8832 16.0361 23.6673 15.931C23.4542 15.8259 23.1999 15.7733 22.9045 15.7733H21.3576V18.0915ZM21.3576 14.5247H22.7255C22.9783 14.5247 23.2028 14.4807 23.3988 14.3926C23.5977 14.3017 23.7539 14.1739 23.8675 14.0091C23.984 13.8443 24.0423 13.6469 24.0423 13.4168C24.0423 13.1014 23.93 12.8472 23.7056 12.654C23.484 12.4608 23.1687 12.3642 22.7596 12.3642H21.3576V14.5247ZM27.3949 19.6V18.2705L30.5014 15.394C30.7656 15.1384 30.9872 14.9082 31.1662 14.7037C31.348 14.4992 31.4858 14.2989 31.5795 14.1028C31.6733 13.904 31.7202 13.6895 31.7202 13.4594C31.7202 13.2037 31.6619 12.9835 31.5455 12.7989C31.429 12.6114 31.2699 12.4679 31.0682 12.3685C30.8665 12.2662 30.6378 12.2151 30.3821 12.2151C30.1151 12.2151 29.8821 12.269 29.6832 12.377C29.4844 12.4849 29.331 12.6398 29.223 12.8415C29.1151 13.0432 29.0611 13.2832 29.0611 13.5617H27.3097C27.3097 12.9906 27.4389 12.4949 27.6974 12.0744C27.956 11.654 28.3182 11.3287 28.7841 11.0986C29.25 10.8685 29.7869 10.7534 30.3949 10.7534C31.0199 10.7534 31.5639 10.8642 32.027 11.0858C32.4929 11.3046 32.8551 11.6085 33.1136 11.9977C33.3722 12.3869 33.5014 12.833 33.5014 13.3358C33.5014 13.6653 33.4361 13.9906 33.3054 14.3117C33.1776 14.6327 32.9489 14.9892 32.6193 15.3813C32.2898 15.7705 31.8253 16.2378 31.2259 16.7832L29.9517 18.0318V18.0915H33.6165V19.6H27.3949Z" fill="#FF2F48"/>
</g>
<defs>
<clipPath id="clip0_1_995">
<rect width="55" height="40" fill="white"/>
</clipPath>
</defs>
</svg>
