<svg width="40" height="26" viewBox="0 0 40 26" fill="none" xmlns="http://www.w3.org/2000/svg">
<g clip-path="url(#clip0_1_884)">
<path d="M19.35 25.31C19.2744 25.2387 19.1668 25.1356 19.03 25.0021C18.7165 24.6961 18.3667 24.3433 17.9895 23.9487C16.9119 22.8212 15.8357 21.5899 14.8315 20.2935C13.0555 18.0008 11.7167 15.7791 10.9529 13.7065C10.4864 12.4407 10.25 11.2671 10.25 10.1901C10.25 4.58385 14.1781 0.649994 19.35 0.649994C24.5219 0.649994 28.45 4.58385 28.45 10.1901C28.45 11.2671 28.2137 12.4407 27.7471 13.7065C26.9833 15.7791 25.6445 18.0008 23.8685 20.2935C22.8643 21.5899 21.7881 22.8212 20.7104 23.9487C20.3333 24.3433 19.9835 24.6961 19.6699 25.0021C19.5332 25.1356 19.4255 25.2387 19.35 25.31Z" fill="#FF8B99" stroke="#FF8B99" stroke-width="1.3"/>
<path d="M19.35 16.9C23.2988 16.9 26.5 13.6988 26.5 9.75001C26.5 5.80117 23.2988 2.60001 19.35 2.60001C15.4012 2.60001 12.2 5.80117 12.2 9.75001C12.2 13.6988 15.4012 16.9 19.35 16.9Z" fill="white"/>
<path d="M18.4948 8.25328H17.2816C17.2594 8.09632 17.2142 7.95691 17.1459 7.83503C17.0775 7.71131 16.9898 7.60605 16.8827 7.51926C16.7756 7.43247 16.6519 7.366 16.5116 7.31983C16.3731 7.27367 16.2226 7.25059 16.0601 7.25059C15.7665 7.25059 15.5107 7.32353 15.2928 7.46941C15.0749 7.61344 14.906 7.82395 14.7859 8.10094C14.6659 8.37608 14.6059 8.71031 14.6059 9.10364C14.6059 9.50804 14.6659 9.84781 14.7859 10.123C14.9078 10.3981 15.0777 10.6058 15.2956 10.7462C15.5135 10.8865 15.7655 10.9567 16.0518 10.9567C16.2124 10.9567 16.3611 10.9355 16.4977 10.893C16.6362 10.8505 16.759 10.7887 16.8661 10.7074C16.9732 10.6243 17.0619 10.5237 17.132 10.4055C17.204 10.2873 17.2539 10.1525 17.2816 10.0011L18.4948 10.0066C18.4634 10.267 18.3849 10.5181 18.2594 10.76C18.1356 11.0001 17.9685 11.2152 17.758 11.4054C17.5494 11.5938 17.3001 11.7433 17.0101 11.8541C16.7221 11.9631 16.3962 12.0176 16.0324 12.0176C15.5264 12.0176 15.074 11.9031 14.6751 11.6741C14.2781 11.4451 13.9642 11.1137 13.7334 10.6797C13.5044 10.2458 13.3899 9.7204 13.3899 9.10364C13.3899 8.48503 13.5062 7.95875 13.7389 7.5248C13.9716 7.09085 14.2873 6.76031 14.6862 6.53318C15.0851 6.30421 15.5338 6.18972 16.0324 6.18972C16.3611 6.18972 16.6658 6.23588 16.9464 6.32821C17.229 6.42054 17.4792 6.55534 17.6971 6.73262C17.915 6.90804 18.0922 7.12317 18.2289 7.378C18.3674 7.63283 18.456 7.92459 18.4948 8.25328ZM21.4184 12.0176C21.0048 12.0176 20.6364 11.9465 20.3132 11.8043C19.9919 11.6602 19.738 11.4627 19.5515 11.2115C19.3669 10.9585 19.2718 10.6668 19.2662 10.3362H20.4739C20.4813 10.4747 20.5265 10.5966 20.6096 10.7019C20.6946 10.8053 20.8072 10.8856 20.9475 10.9428C21.0879 11.0001 21.2458 11.0287 21.4212 11.0287C21.604 11.0287 21.7656 10.9964 21.9059 10.9318C22.0463 10.8671 22.1561 10.7776 22.2355 10.6631C22.3149 10.5486 22.3546 10.4166 22.3546 10.267C22.3546 10.1156 22.3122 9.98169 22.2272 9.86536C22.1441 9.74718 22.0241 9.65485 21.8671 9.58837C21.712 9.52189 21.5274 9.48865 21.3132 9.48865H20.7841V8.60783H21.3132C21.4941 8.60783 21.6539 8.57644 21.7924 8.51365C21.9327 8.45087 22.0416 8.36408 22.1192 8.25328C22.1968 8.14064 22.2355 8.00953 22.2355 7.85996C22.2355 7.71777 22.2014 7.59313 22.1331 7.48603C22.0666 7.37708 21.9724 7.29213 21.8505 7.2312C21.7305 7.17026 21.5902 7.13979 21.4295 7.13979C21.267 7.13979 21.1184 7.16933 20.9835 7.22843C20.8487 7.28567 20.7407 7.36784 20.6595 7.47495C20.5782 7.58205 20.5348 7.70762 20.5293 7.85165H19.3798C19.3853 7.5248 19.4786 7.23674 19.6595 6.98745C19.8405 6.73816 20.0843 6.54334 20.3908 6.403C20.6992 6.26081 21.0473 6.18972 21.435 6.18972C21.8265 6.18972 22.1691 6.26081 22.4627 6.403C22.7563 6.54519 22.9843 6.73723 23.1468 6.97914C23.3112 7.21919 23.3924 7.4888 23.3906 7.78794C23.3924 8.10556 23.2936 8.37054 23.0942 8.5829C22.8966 8.79526 22.639 8.93006 22.3214 8.9873V9.03162C22.7387 9.08517 23.0563 9.23013 23.2742 9.46649C23.494 9.70101 23.6029 9.99462 23.6011 10.3473C23.6029 10.6705 23.5097 10.9576 23.3213 11.2088C23.1348 11.4599 22.8772 11.6575 22.5485 11.8015C22.2198 11.9455 21.8431 12.0176 21.4184 12.0176Z" fill="#FF8B99"/>
</g>
<defs>
<clipPath id="clip0_1_884">
<rect width="40" height="26" fill="white"/>
</clipPath>
</defs>
</svg>
