<svg width="40" height="26" viewBox="0 0 40 26" fill="none" xmlns="http://www.w3.org/2000/svg">
<g clip-path="url(#clip0_1_860)">
<path d="M19.35 25.31C19.2744 25.2387 19.1668 25.1356 19.03 25.0021C18.7165 24.6961 18.3667 24.3433 17.9895 23.9487C16.9119 22.8212 15.8357 21.5899 14.8315 20.2935C13.0555 18.0008 11.7167 15.7791 10.9529 13.7065C10.4864 12.4407 10.25 11.2671 10.25 10.1901C10.25 4.58385 14.1781 0.649994 19.35 0.649994C24.5219 0.649994 28.45 4.58385 28.45 10.1901C28.45 11.2671 28.2137 12.4407 27.7471 13.7065C26.9833 15.7791 25.6445 18.0008 23.8685 20.2935C22.8643 21.5899 21.7881 22.8212 20.7104 23.9487C20.3333 24.3433 19.9835 24.6961 19.6699 25.0021C19.5332 25.1356 19.4255 25.2387 19.35 25.31Z" fill="#FF8B99" stroke="#FF8B99" stroke-width="1.3"/>
<path d="M19.35 16.9C23.2988 16.9 26.5 13.6988 26.5 9.75001C26.5 5.80117 23.2988 2.60001 19.35 2.60001C15.4012 2.60001 12.2 5.80117 12.2 9.75001C12.2 13.6988 15.4012 16.9 19.35 16.9Z" fill="white"/>
<path d="M15.3065 11.94V6.26728H17.5778C17.9951 6.26728 18.3432 6.32914 18.6221 6.45286C18.9009 6.57658 19.1105 6.74831 19.2508 6.96806C19.3912 7.18595 19.4613 7.43709 19.4613 7.72147C19.4613 7.94306 19.417 8.13787 19.3284 8.30591C19.2397 8.4721 19.1179 8.60875 18.9628 8.71585C18.8095 8.82111 18.6341 8.8959 18.4365 8.94022V8.99561C18.6525 9.00485 18.8547 9.06578 19.0431 9.17843C19.2333 9.29107 19.3875 9.44895 19.5057 9.65208C19.6238 9.85335 19.6829 10.0934 19.6829 10.3722C19.6829 10.6732 19.6081 10.9419 19.4586 11.1783C19.3108 11.4128 19.092 11.5984 18.8021 11.735C18.5122 11.8717 18.1549 11.94 17.7302 11.94H15.3065ZM16.5059 10.9595H17.4836C17.8179 10.9595 18.0616 10.8958 18.2149 10.7683C18.3682 10.6391 18.4448 10.4673 18.4448 10.2531C18.4448 10.0962 18.4069 9.95769 18.3312 9.83766C18.2555 9.71763 18.1475 9.62345 18.0071 9.55513C17.8686 9.48681 17.7034 9.45264 17.5113 9.45264H16.5059V10.9595ZM16.5059 8.64107H17.395C17.5593 8.64107 17.7052 8.61245 17.8326 8.5552C17.9619 8.49611 18.0635 8.41301 18.1373 8.30591C18.213 8.19881 18.2509 8.07047 18.2509 7.9209C18.2509 7.71593 18.178 7.55066 18.0321 7.42509C17.888 7.29952 17.6831 7.23674 17.4172 7.23674H16.5059V8.64107ZM22.8981 6.26728V11.94H21.6987V7.4057H21.6655L20.3664 8.22005V7.15641L21.7707 6.26728H22.8981Z" fill="#FF8B99"/>
</g>
<defs>
<clipPath id="clip0_1_860">
<rect width="40" height="26" fill="white"/>
</clipPath>
</defs>
</svg>
