<svg width="40" height="26" viewBox="0 0 40 26" fill="none" xmlns="http://www.w3.org/2000/svg">
<g clip-path="url(#clip0_1_868)">
<path d="M19.35 25.31C19.2744 25.2387 19.1668 25.1356 19.03 25.0021C18.7165 24.6961 18.3667 24.3433 17.9895 23.9487C16.9119 22.8212 15.8357 21.5899 14.8315 20.2935C13.0555 18.0008 11.7167 15.7791 10.9529 13.7065C10.4864 12.4407 10.25 11.2671 10.25 10.1901C10.25 4.58385 14.1781 0.649994 19.35 0.649994C24.5219 0.649994 28.45 4.58385 28.45 10.1901C28.45 11.2671 28.2137 12.4407 27.7471 13.7065C26.9833 15.7791 25.6445 18.0008 23.8685 20.2935C22.8643 21.5899 21.7881 22.8212 20.7104 23.9487C20.3333 24.3433 19.9835 24.6961 19.6699 25.0021C19.5332 25.1356 19.4255 25.2387 19.35 25.31Z" fill="#FF8B99" stroke="#FF8B99" stroke-width="1.3"/>
<path d="M19.35 16.9C23.2988 16.9 26.5 13.6988 26.5 9.75001C26.5 5.80117 23.2988 2.60001 19.35 2.60001C15.4012 2.60001 12.2 5.80117 12.2 9.75001C12.2 13.6988 15.4012 16.9 19.35 16.9Z" fill="white"/>
<path d="M14.9938 11.94V6.26728H17.2652C17.6825 6.26728 18.0306 6.32914 18.3094 6.45286C18.5882 6.57658 18.7978 6.74831 18.9382 6.96806C19.0785 7.18595 19.1487 7.43709 19.1487 7.72147C19.1487 7.94306 19.1044 8.13787 19.0157 8.30591C18.9271 8.4721 18.8052 8.60875 18.6501 8.71585C18.4968 8.82111 18.3214 8.8959 18.1238 8.94022V8.99561C18.3399 9.00485 18.5421 9.06578 18.7304 9.17843C18.9206 9.29107 19.0748 9.44895 19.193 9.65208C19.3112 9.85335 19.3703 10.0934 19.3703 10.3722C19.3703 10.6732 19.2955 10.9419 19.1459 11.1783C18.9982 11.4128 18.7794 11.5984 18.4894 11.735C18.1995 11.8717 17.8422 11.94 17.4175 11.94H14.9938ZM16.1932 10.9595H17.171C17.5052 10.9595 17.749 10.8958 17.9022 10.7683C18.0555 10.6391 18.1321 10.4673 18.1321 10.2531C18.1321 10.0962 18.0943 9.95769 18.0186 9.83766C17.9429 9.71763 17.8348 9.62345 17.6945 9.55513C17.556 9.48681 17.3907 9.45264 17.1987 9.45264H16.1932V10.9595ZM16.1932 8.64107H17.0823C17.2467 8.64107 17.3926 8.61245 17.52 8.5552C17.6492 8.49611 17.7508 8.41301 17.8247 8.30591C17.9004 8.19881 17.9382 8.07047 17.9382 7.9209C17.9382 7.71593 17.8653 7.55066 17.7194 7.42509C17.5754 7.29952 17.3704 7.23674 17.1045 7.23674H16.1932V8.64107ZM22.2142 12.0176C21.8006 12.0176 21.4322 11.9465 21.1091 11.8043C20.7878 11.6602 20.5338 11.4627 20.3473 11.2115C20.1627 10.9585 20.0676 10.6668 20.062 10.3362H21.2697C21.2771 10.4747 21.3223 10.5966 21.4054 10.7019C21.4904 10.8053 21.603 10.8856 21.7434 10.9428C21.8837 11.0001 22.0416 11.0287 22.217 11.0287C22.3998 11.0287 22.5614 10.9964 22.7017 10.9318C22.8421 10.8671 22.952 10.7776 23.0314 10.6631C23.1108 10.5486 23.1505 10.4166 23.1505 10.267C23.1505 10.1156 23.108 9.98169 23.0231 9.86536C22.94 9.74718 22.8199 9.65485 22.663 9.58837C22.5079 9.52189 22.3232 9.48865 22.109 9.48865H21.5799V8.60783H22.109C22.29 8.60783 22.4497 8.57644 22.5882 8.51365C22.7285 8.45087 22.8375 8.36408 22.915 8.25328C22.9926 8.14064 23.0314 8.00953 23.0314 7.85996C23.0314 7.71777 22.9972 7.59313 22.9289 7.48603C22.8624 7.37708 22.7682 7.29213 22.6463 7.2312C22.5263 7.17026 22.386 7.13979 22.2253 7.13979C22.0628 7.13979 21.9142 7.16933 21.7794 7.22843C21.6446 7.28567 21.5365 7.36784 21.4553 7.47495C21.374 7.58205 21.3307 7.70762 21.3251 7.85165H20.1756C20.1811 7.5248 20.2744 7.23674 20.4554 6.98745C20.6363 6.73816 20.8801 6.54334 21.1866 6.403C21.495 6.26081 21.8431 6.18972 22.2309 6.18972C22.6223 6.18972 22.9649 6.26081 23.2585 6.403C23.5521 6.54519 23.7802 6.73723 23.9427 6.97914C24.107 7.21919 24.1883 7.4888 24.1864 7.78794C24.1883 8.10556 24.0895 8.37054 23.89 8.5829C23.6924 8.79526 23.4348 8.93006 23.1172 8.9873V9.03162C23.5346 9.08517 23.8522 9.23013 24.0701 9.46649C24.2898 9.70101 24.3988 9.99462 24.3969 10.3473C24.3988 10.6705 24.3055 10.9576 24.1172 11.2088C23.9307 11.4599 23.6731 11.6575 23.3444 11.8015C23.0157 11.9455 22.639 12.0176 22.2142 12.0176Z" fill="#FF8B99"/>
</g>
<defs>
<clipPath id="clip0_1_868">
<rect width="40" height="26" fill="white"/>
</clipPath>
</defs>
</svg>
