<svg width="40" height="26" viewBox="0 0 40 26" fill="none" xmlns="http://www.w3.org/2000/svg">
<g clip-path="url(#clip0_1_1498)">
<path d="M19.35 25.31C19.2744 25.2387 19.1668 25.1356 19.03 25.0021C18.7165 24.6961 18.3667 24.3433 17.9895 23.9487C16.9119 22.8212 15.8357 21.5899 14.8315 20.2935C13.0555 18.0008 11.7167 15.7791 10.9529 13.7066C10.4864 12.4407 10.25 11.2672 10.25 10.1901C10.25 4.58385 14.1781 0.650002 19.35 0.650002C24.5219 0.650002 28.45 4.58385 28.45 10.1901C28.45 11.2672 28.2137 12.4407 27.7471 13.7066C26.9833 15.7791 25.6445 18.0008 23.8685 20.2935C22.8643 21.5899 21.7881 22.8212 20.7104 23.9487C20.3333 24.3433 19.9835 24.6961 19.6699 25.0021C19.5332 25.1356 19.4255 25.2387 19.35 25.31Z" fill="#FF8B99" stroke="#FF8B99" stroke-width="1.3"/>
<path d="M19.35 16.9C23.2988 16.9 26.5 13.6988 26.5 9.75C26.5 5.80116 23.2988 2.6 19.35 2.6C15.4012 2.6 12.2 5.80116 12.2 9.75C12.2 13.6988 15.4012 16.9 19.35 16.9Z" fill="white"/>
<path d="M18.5845 9.10364C18.5845 9.72224 18.4672 10.2485 18.2327 10.6825C18 11.1164 17.6824 11.4479 17.2799 11.6769C16.8792 11.904 16.4286 12.0176 15.9282 12.0176C15.424 12.0176 14.9716 11.9031 14.5709 11.6741C14.1702 11.4451 13.8535 11.1136 13.6208 10.6797C13.3882 10.2458 13.2718 9.7204 13.2718 9.10364C13.2718 8.48503 13.3882 7.95875 13.6208 7.5248C13.8535 7.09085 14.1702 6.76031 14.5709 6.53318C14.9716 6.3042 15.424 6.18971 15.9282 6.18971C16.4286 6.18971 16.8792 6.3042 17.2799 6.53318C17.6824 6.76031 18 7.09085 18.2327 7.5248C18.4672 7.95875 18.5845 8.48503 18.5845 9.10364ZM17.3685 9.10364C17.3685 8.70292 17.3085 8.365 17.1885 8.08986C17.0703 7.81471 16.9032 7.60605 16.6871 7.46386C16.4711 7.32168 16.2181 7.25058 15.9282 7.25058C15.6382 7.25058 15.3853 7.32168 15.1692 7.46386C14.9532 7.60605 14.7851 7.81471 14.6651 8.08986C14.5469 8.365 14.4878 8.70292 14.4878 9.10364C14.4878 9.50435 14.5469 9.84227 14.6651 10.1174C14.7851 10.3926 14.9532 10.6012 15.1692 10.7434C15.3853 10.8856 15.6382 10.9567 15.9282 10.9567C16.2181 10.9567 16.4711 10.8856 16.6871 10.7434C16.9032 10.6012 17.0703 10.3926 17.1885 10.1174C17.3085 9.84227 17.3685 9.50435 17.3685 9.10364ZM21.5365 12.0176C21.1229 12.0176 20.7545 11.9465 20.4313 11.8043C20.11 11.6602 19.8561 11.4627 19.6696 11.2115C19.4849 10.9585 19.3898 10.6668 19.3843 10.3362H20.592C20.5993 10.4747 20.6446 10.5966 20.7277 10.7019C20.8126 10.8053 20.9253 10.8856 21.0656 10.9428C21.2059 11.0001 21.3638 11.0287 21.5393 11.0287C21.7221 11.0287 21.8836 10.9964 22.024 10.9318C22.1643 10.8671 22.2742 10.7776 22.3536 10.6631C22.433 10.5486 22.4727 10.4166 22.4727 10.267C22.4727 10.1156 22.4302 9.98169 22.3453 9.86535C22.2622 9.74717 22.1422 9.65484 21.9852 9.58837C21.8301 9.52189 21.6454 9.48865 21.4312 9.48865H20.9022V8.60783H21.4312C21.6122 8.60783 21.7719 8.57643 21.9104 8.51365C22.0508 8.45087 22.1597 8.36408 22.2373 8.25328C22.3148 8.14064 22.3536 8.00953 22.3536 7.85996C22.3536 7.71777 22.3194 7.59312 22.2511 7.48602C22.1846 7.37707 22.0905 7.29213 21.9686 7.23119C21.8486 7.17025 21.7082 7.13979 21.5476 7.13979C21.3851 7.13979 21.2364 7.16933 21.1016 7.22842C20.9668 7.28567 20.8588 7.36784 20.7775 7.47494C20.6963 7.58204 20.6529 7.70761 20.6474 7.85165H19.4979C19.5034 7.5248 19.5966 7.23673 19.7776 6.98744C19.9586 6.73815 20.2023 6.54334 20.5089 6.403C20.8172 6.26081 21.1653 6.18971 21.5531 6.18971C21.9446 6.18971 22.2871 6.26081 22.5807 6.403C22.8743 6.54518 23.1024 6.73723 23.2649 6.97913C23.4292 7.21919 23.5105 7.48879 23.5086 7.78794C23.5105 8.10555 23.4117 8.37054 23.2123 8.5829C23.0147 8.79525 22.7571 8.93006 22.4395 8.9873V9.03162C22.8568 9.08517 23.1744 9.23013 23.3923 9.46649C23.6121 9.70101 23.721 9.99462 23.7192 10.3473C23.721 10.6705 23.6278 10.9576 23.4394 11.2087C23.2529 11.4599 22.9953 11.6575 22.6666 11.8015C22.3379 11.9455 21.9612 12.0176 21.5365 12.0176Z" fill="#FF8B99"/>
</g>
<defs>
<clipPath id="clip0_1_1498">
<rect width="40" height="26" fill="white"/>
</clipPath>
</defs>
</svg>
