<svg width="80" height="62.3" viewBox="0 0 20 20" fill="none" xmlns="http://www.w3.org/2000/svg">
<path d="M10 18.8365C9.94754 18.7875 9.87729 18.7211 9.79072 18.6379C9.56598 18.422 9.31513 18.173 9.0446 17.8944C8.27172 17.0984 7.49996 16.2291 6.77993 15.3141C5.50631 13.6957 4.54787 12.1294 4.00168 10.6704C3.66816 9.77948 3.5 8.95578 3.5 8.20166C3.5 4.26818 6.29899 1.5 10 1.5C13.701 1.5 16.5 4.26818 16.5 8.20166C16.5 8.95578 16.3318 9.77948 15.9983 10.6704C15.4521 12.1294 14.4937 13.6957 13.2201 15.3141C12.5 16.2291 11.7283 17.0984 10.9554 17.8944C10.6849 18.173 10.434 18.422 10.2093 18.6379C10.1227 18.7211 10.0525 18.7875 10 18.8365Z" fill="#FF2F48" stroke="#FF2F48"/>
<path d="M10 13C7.23858 13 5 10.7614 5 8C5 5.23858 7.23858 3 10 3C12.7614 3 15 5.23858 15 8C15 10.7614 12.7614 13 10 13Z" fill="white"/>
<path d="M8 11V5.05629H9.1215V5.78236H9.17223C9.22207 5.66604 9.29417 5.54784 9.38852 5.42777C9.48465 5.30582 9.60926 5.2045 9.76235 5.12383C9.91722 5.04128 10.1095 5 10.3391 5C10.6382 5 10.9141 5.08255 11.1669 5.24765C11.4197 5.41088 11.6217 5.6576 11.773 5.9878C11.9243 6.31613 12 6.72795 12 7.22326C12 7.70544 11.9261 8.11257 11.7784 8.44465C11.6324 8.77486 11.433 9.02533 11.1802 9.19606C10.9292 9.36492 10.648 9.44934 10.3364 9.44934C10.1157 9.44934 9.9279 9.41088 9.77303 9.33396C9.61994 9.25704 9.49444 9.16041 9.39653 9.04409C9.29862 8.92589 9.22385 8.80675 9.17223 8.68668H9.13752V11H8ZM9.11348 7.21764C9.11348 7.47467 9.14731 7.69887 9.21495 7.89024C9.2826 8.08161 9.38051 8.23077 9.50868 8.33771C9.63685 8.44278 9.79261 8.49531 9.97597 8.49531C10.1611 8.49531 10.3178 8.44184 10.4459 8.3349C10.5741 8.22608 10.6711 8.07598 10.737 7.88462C10.8046 7.69137 10.8385 7.46904 10.8385 7.21764C10.8385 6.9681 10.8055 6.74859 10.7397 6.5591C10.6738 6.36961 10.5768 6.22139 10.4486 6.11445C10.3204 6.0075 10.1629 5.95403 9.97597 5.95403C9.79083 5.95403 9.63418 6.00563 9.50601 6.10882C9.37962 6.21201 9.2826 6.35835 9.21495 6.54784C9.14731 6.73734 9.11348 6.9606 9.11348 7.21764Z" fill="#FF2F48"/>
</svg>
