<svg width="55" height="40" viewBox="0 0 55 40" fill="none" xmlns="http://www.w3.org/2000/svg">
<g clip-path="url(#clip0_1_1007)">
<path d="M26.5 38.9384C26.3838 38.8288 26.2181 38.6702 26.0077 38.4648C25.5254 37.994 24.9873 37.4512 24.4069 36.8442C22.7491 35.1096 21.0934 33.2152 19.5484 31.2208C16.8162 27.6936 14.7564 24.2756 13.5814 21.087C12.8637 19.1395 12.5 17.3341 12.5 15.6771C12.5 7.05208 18.5432 1 26.5 1C34.4568 1 40.5 7.05208 40.5 15.6771C40.5 17.3341 40.1364 19.1395 39.4186 21.087C38.2436 24.2756 36.1838 27.6936 33.4516 31.2208C31.9066 33.2152 30.251 35.1096 28.593 36.8442C28.0128 37.4512 27.4746 37.994 26.9922 38.4648C26.7818 38.6702 26.6162 38.8288 26.5 38.9384Z" fill="#FF2F48" stroke="#FF2F48" stroke-width="2"/>
<path d="M26.5 26C32.5751 26 37.5 21.0751 37.5 15C37.5 8.92487 32.5751 4 26.5 4C20.4249 4 15.5 8.92487 15.5 15C15.5 21.0751 20.4249 26 26.5 26Z" fill="white"/>
<path d="M28.0115 13.9281H26.1451C26.111 13.6867 26.0414 13.4722 25.9363 13.2847C25.8311 13.0943 25.6962 12.9324 25.5314 12.7989C25.3667 12.6653 25.1763 12.5631 24.9604 12.4921C24.7473 12.421 24.5158 12.3855 24.2658 12.3855C23.8141 12.3855 23.4206 12.4977 23.0854 12.7222C22.7502 12.9438 22.4902 13.2676 22.3056 13.6938C22.1209 14.1171 22.0286 14.6313 22.0286 15.2364C22.0286 15.8585 22.1209 16.3813 22.3056 16.8046C22.4931 17.2278 22.7544 17.5474 23.0897 17.7634C23.4249 17.9793 23.8127 18.0872 24.253 18.0872C24.5002 18.0872 24.7289 18.0546 24.9391 17.9892C25.1522 17.9239 25.3411 17.8287 25.5059 17.7037C25.6706 17.5759 25.807 17.421 25.915 17.2392C26.0257 17.0574 26.1025 16.85 26.1451 16.6171L28.0115 16.6256C27.9632 17.0261 27.8425 17.4125 27.6493 17.7847C27.459 18.154 27.2019 18.4849 26.878 18.7776C26.557 19.0673 26.1735 19.2974 25.7275 19.4679C25.2843 19.6355 24.7828 19.7193 24.2232 19.7193C23.4448 19.7193 22.7488 19.5432 22.1351 19.1909C21.5243 18.8386 21.0414 18.3287 20.6863 17.6611C20.334 16.9935 20.1578 16.1852 20.1578 15.2364C20.1578 14.2847 20.3368 13.475 20.6948 12.8074C21.0527 12.1398 21.5385 11.6313 22.1522 11.2818C22.7658 10.9296 23.4561 10.7534 24.2232 10.7534C24.7289 10.7534 25.1976 10.8244 25.6294 10.9665C26.0641 11.1085 26.449 11.3159 26.7843 11.5886C27.1195 11.8585 27.3922 12.1895 27.6025 12.5815C27.8155 12.9736 27.9519 13.4224 28.0115 13.9281ZM33.0804 10.8727V19.6H31.2353V12.6242H31.1841L29.1855 13.877V12.2406L31.3461 10.8727H33.0804Z" fill="#FF2F48"/>
</g>
<defs>
<clipPath id="clip0_1_1007">
<rect width="55" height="40" fill="white"/>
</clipPath>
</defs>
</svg>
