<svg width="55" height="40" viewBox="0 0 55 40" fill="none" xmlns="http://www.w3.org/2000/svg">
<g clip-path="url(#clip0_1_1027)">
<path d="M26.5 38.9384C26.3838 38.8288 26.2181 38.6702 26.0077 38.4648C25.5254 37.994 24.9873 37.4512 24.4069 36.8442C22.7491 35.1096 21.0934 33.2152 19.5484 31.2208C16.8162 27.6936 14.7564 24.2756 13.5814 21.087C12.8637 19.1395 12.5 17.3341 12.5 15.6771C12.5 7.05208 18.5432 1 26.5 1C34.4568 1 40.5 7.05208 40.5 15.6771C40.5 17.3341 40.1364 19.1395 39.4186 21.087C38.2436 24.2756 36.1838 27.6936 33.4516 31.2208C31.9066 33.2152 30.251 35.1096 28.593 36.8442C28.0128 37.4512 27.4746 37.994 26.9922 38.4648C26.7818 38.6702 26.6162 38.8288 26.5 38.9384Z" fill="#FF2F48" stroke="#FF2F48" stroke-width="2"/>
<path d="M26.5 26C32.5751 26 37.5 21.0751 37.5 15C37.5 8.92487 32.5751 4 26.5 4C20.4249 4 15.5 8.92487 15.5 15C15.5 21.0751 20.4249 26 26.5 26Z" fill="white"/>
<path d="M22.7077 19.6H19.614V10.8727H22.7333C23.6112 10.8727 24.3668 11.0474 25.0004 11.3969C25.6339 11.7435 26.1211 12.2421 26.462 12.8926C26.8058 13.5432 26.9776 14.3216 26.9776 15.2278C26.9776 16.1369 26.8058 16.9182 26.462 17.5716C26.1211 18.225 25.631 18.7264 24.9918 19.0759C24.3555 19.4253 23.5941 19.6 22.7077 19.6ZM21.4592 18.019H22.631C23.1765 18.019 23.6353 17.9224 24.0075 17.7293C24.3825 17.5332 24.6637 17.2307 24.8512 16.8216C25.0415 16.4097 25.1367 15.8784 25.1367 15.2278C25.1367 14.583 25.0415 14.056 24.8512 13.6469C24.6637 13.2378 24.3839 12.9367 24.0117 12.7435C23.6396 12.5503 23.1808 12.4537 22.6353 12.4537H21.4592V18.019ZM28.2933 19.6V18.2705L31.3999 15.394C31.6641 15.1384 31.8857 14.9082 32.0646 14.7037C32.2464 14.4992 32.3842 14.2989 32.478 14.1028C32.5717 13.904 32.6186 13.6895 32.6186 13.4594C32.6186 13.2037 32.5604 12.9835 32.4439 12.7989C32.3274 12.6114 32.1683 12.4679 31.9666 12.3685C31.7649 12.2662 31.5362 12.2151 31.2805 12.2151C31.0135 12.2151 30.7805 12.269 30.5817 12.377C30.3828 12.4849 30.2294 12.6398 30.1214 12.8415C30.0135 13.0432 29.9595 13.2832 29.9595 13.5617H28.2081C28.2081 12.9906 28.3374 12.4949 28.5959 12.0744C28.8544 11.654 29.2166 11.3287 29.6825 11.0986C30.1484 10.8685 30.6854 10.7534 31.2933 10.7534C31.9183 10.7534 32.4624 10.8642 32.9254 11.0858C33.3913 11.3046 33.7536 11.6085 34.0121 11.9977C34.2706 12.3869 34.3999 12.833 34.3999 13.3358C34.3999 13.6653 34.3345 13.9906 34.2038 14.3117C34.076 14.6327 33.8473 14.9892 33.5178 15.3813C33.1882 15.7705 32.7237 16.2378 32.1243 16.7832L30.8501 18.0318V18.0915H34.5149V19.6H28.2933Z" fill="#FF2F48"/>
</g>
<defs>
<clipPath id="clip0_1_1027">
<rect width="55" height="40" fill="white"/>
</clipPath>
</defs>
</svg>
