<svg width="55" height="40" viewBox="0 0 55 40" fill="none" xmlns="http://www.w3.org/2000/svg">
<g clip-path="url(#clip0_1_1110)">
<path d="M26.5 38.9384C26.3838 38.8288 26.2181 38.6702 26.0077 38.4648C25.5254 37.994 24.9873 37.4512 24.4069 36.8442C22.7491 35.1096 21.0934 33.2152 19.5484 31.2208C16.8162 27.6936 14.7564 24.2756 13.5814 21.087C12.8637 19.1395 12.5 17.3341 12.5 15.6771C12.5 7.05208 18.5432 1 26.5 1C34.4568 1 40.5 7.05208 40.5 15.6771C40.5 17.3341 40.1364 19.1395 39.4186 21.087C38.2436 24.2756 36.1838 27.6936 33.4516 31.2208C31.9066 33.2152 30.251 35.1096 28.593 36.8442C28.0128 37.4512 27.4746 37.994 26.9922 38.4648C26.7818 38.6702 26.6162 38.8288 26.5 38.9384Z" fill="#FF2F48" stroke="#FF2F48" stroke-width="2"/>
<path d="M26.5 26C32.5751 26 37.5 21.0751 37.5 15C37.5 8.92487 32.5751 4 26.5 4C20.4249 4 15.5 8.92487 15.5 15C15.5 21.0751 20.4249 26 26.5 26Z" fill="white"/>
<path d="M24.1428 10.8727V19.6H22.2976V10.8727H24.1428ZM25.6097 19.6V18.2705L28.7163 15.394C28.9805 15.1384 29.2021 14.9082 29.381 14.7037C29.5629 14.4992 29.7006 14.2989 29.7944 14.1028C29.8881 13.904 29.935 13.6895 29.935 13.4594C29.935 13.2037 29.8768 12.9835 29.7603 12.7989C29.6438 12.6114 29.4847 12.4679 29.283 12.3685C29.0813 12.2662 28.8526 12.2151 28.5969 12.2151C28.3299 12.2151 28.0969 12.269 27.8981 12.377C27.6992 12.4849 27.5458 12.6398 27.4379 12.8415C27.3299 13.0432 27.2759 13.2832 27.2759 13.5617H25.5245C25.5245 12.9906 25.6538 12.4949 25.9123 12.0744C26.1708 11.654 26.533 11.3287 26.9989 11.0986C27.4648 10.8685 28.0018 10.7534 28.6097 10.7534C29.2347 10.7534 29.7788 10.8642 30.2418 11.0858C30.7077 11.3046 31.07 11.6085 31.3285 11.9977C31.587 12.3869 31.7163 12.833 31.7163 13.3358C31.7163 13.6653 31.6509 13.9906 31.5202 14.3117C31.3924 14.6327 31.1637 14.9892 30.8342 15.3813C30.5046 15.7705 30.0401 16.2378 29.4407 16.7832L28.1665 18.0318V18.0915H31.8313V19.6H25.6097Z" fill="#FF2F48"/>
</g>
<defs>
<clipPath id="clip0_1_1110">
<rect width="55" height="40" fill="white"/>
</clipPath>
</defs>
</svg>
