<svg width="40" height="26" viewBox="0 0 40 26" fill="none" xmlns="http://www.w3.org/2000/svg">
<g clip-path="url(#clip0_1_1482)">
<path d="M19.35 25.31C19.2744 25.2387 19.1668 25.1356 19.03 25.0021C18.7165 24.6961 18.3667 24.3433 17.9895 23.9487C16.9119 22.8212 15.8357 21.5899 14.8315 20.2935C13.0555 18.0008 11.7167 15.7791 10.9529 13.7066C10.4864 12.4407 10.25 11.2672 10.25 10.1901C10.25 4.58385 14.1781 0.650002 19.35 0.650002C24.5219 0.650002 28.45 4.58385 28.45 10.1901C28.45 11.2672 28.2137 12.4407 27.7471 13.7066C26.9833 15.7791 25.6445 18.0008 23.8685 20.2935C22.8643 21.5899 21.7881 22.8212 20.7104 23.9487C20.3333 24.3433 19.9835 24.6961 19.6699 25.0021C19.5332 25.1356 19.4255 25.2387 19.35 25.31Z" fill="#FF8B99" stroke="#FF8B99" stroke-width="1.3"/>
<path d="M19.35 16.9C23.2988 16.9 26.5 13.6988 26.5 9.75C26.5 5.80116 23.2988 2.6 19.35 2.6C15.4012 2.6 12.2 5.80116 12.2 9.75C12.2 13.6988 15.4012 16.9 19.35 16.9Z" fill="white"/>
<path d="M18.7992 6.26727V11.94H17.7632L15.2953 8.36962H15.2537V11.94H14.0544V6.26727H15.1069L17.5555 9.83488H17.6054V6.26727H18.7992ZM21.8537 12.0176C21.44 12.0176 21.0716 11.9465 20.7485 11.8043C20.4272 11.6602 20.1733 11.4627 19.9868 11.2115C19.8021 10.9585 19.707 10.6668 19.7015 10.3362H20.9091C20.9165 10.4747 20.9618 10.5966 21.0449 10.7019C21.1298 10.8053 21.2425 10.8856 21.3828 10.9428C21.5231 11.0001 21.681 11.0287 21.8564 11.0287C22.0393 11.0287 22.2008 10.9964 22.3412 10.9318C22.4815 10.8671 22.5914 10.7776 22.6708 10.6631C22.7502 10.5486 22.7899 10.4166 22.7899 10.267C22.7899 10.1156 22.7474 9.98169 22.6625 9.86535C22.5794 9.74717 22.4594 9.65484 22.3024 9.58837C22.1473 9.52189 21.9626 9.48865 21.7484 9.48865H21.2194V8.60783H21.7484C21.9294 8.60783 22.0891 8.57643 22.2276 8.51365C22.368 8.45087 22.4769 8.36408 22.5545 8.25328C22.632 8.14064 22.6708 8.00953 22.6708 7.85996C22.6708 7.71777 22.6366 7.59312 22.5683 7.48602C22.5018 7.37707 22.4077 7.29213 22.2858 7.23119C22.1657 7.17025 22.0254 7.13979 21.8648 7.13979C21.7023 7.13979 21.5536 7.16933 21.4188 7.22842C21.284 7.28567 21.176 7.36784 21.0947 7.47494C21.0135 7.58204 20.9701 7.70761 20.9645 7.85165H19.815C19.8206 7.5248 19.9138 7.23673 20.0948 6.98744C20.2758 6.73815 20.5195 6.54334 20.826 6.403C21.1344 6.26081 21.4825 6.18971 21.8703 6.18971C22.2618 6.18971 22.6043 6.26081 22.8979 6.403C23.1915 6.54518 23.4196 6.73723 23.5821 6.97913C23.7464 7.21919 23.8277 7.48879 23.8258 7.78794C23.8277 8.10555 23.7289 8.37054 23.5295 8.5829C23.3319 8.79525 23.0743 8.93006 22.7567 8.9873V9.03162C23.174 9.08517 23.4916 9.23013 23.7095 9.46649C23.9292 9.70101 24.0382 9.99462 24.0363 10.3473C24.0382 10.6705 23.9449 10.9576 23.7566 11.2087C23.5701 11.4599 23.3125 11.6575 22.9838 11.8015C22.6551 11.9455 22.2784 12.0176 21.8537 12.0176Z" fill="#FF8B99"/>
</g>
<defs>
<clipPath id="clip0_1_1482">
<rect width="40" height="26" fill="white"/>
</clipPath>
</defs>
</svg>
