<svg width="55" height="40" viewBox="0 0 55 40" fill="none" xmlns="http://www.w3.org/2000/svg">
<g clip-path="url(#clip0_1_1262)">
<path d="M26.5 38.9384C26.3838 38.8288 26.2181 38.6702 26.0077 38.4648C25.5254 37.994 24.9873 37.4512 24.4069 36.8442C22.7491 35.1096 21.0934 33.2152 19.5484 31.2208C16.8162 27.6936 14.7564 24.2756 13.5814 21.087C12.8637 19.1395 12.5 17.3341 12.5 15.6771C12.5 7.05208 18.5432 1 26.5 1C34.4568 1 40.5 7.05208 40.5 15.6771C40.5 17.3341 40.1364 19.1395 39.4186 21.087C38.2436 24.2756 36.1838 27.6936 33.4516 31.2208C31.9066 33.2152 30.251 35.1096 28.593 36.8442C28.0128 37.4512 27.4746 37.994 26.9922 38.4648C26.7818 38.6702 26.6162 38.8288 26.5 38.9384Z" fill="#FF2F48" stroke="#FF2F48" stroke-width="2"/>
<path d="M26.5 26C32.5751 26 37.5 21.0751 37.5 15C37.5 8.92487 32.5751 4 26.5 4C20.4249 4 15.5 8.92487 15.5 15C15.5 21.0751 20.4249 26 26.5 26Z" fill="white"/>
<path d="M28.0613 13.3827C28.0272 13.0389 27.8809 12.7719 27.6223 12.5815C27.3638 12.3912 27.013 12.296 26.5698 12.296C26.2686 12.296 26.0144 12.3386 25.807 12.4239C25.5996 12.5062 25.4405 12.6213 25.3297 12.769C25.2218 12.9168 25.1678 13.0844 25.1678 13.2719C25.1621 13.4281 25.1948 13.5645 25.2658 13.681C25.3397 13.7974 25.4405 13.8983 25.5684 13.9835C25.6962 14.0659 25.8439 14.1384 26.0115 14.2009C26.1792 14.2605 26.3581 14.3116 26.5485 14.3543L27.3326 14.5418C27.7132 14.627 28.0627 14.7406 28.3809 14.8827C28.699 15.0247 28.9746 15.1994 29.2076 15.4068C29.4405 15.6142 29.6209 15.8585 29.7488 16.1398C29.8794 16.421 29.9462 16.7435 29.949 17.1071C29.9462 17.6412 29.8098 18.1043 29.54 18.4963C29.2729 18.8855 28.8865 19.1881 28.3809 19.404C27.878 19.617 27.2715 19.7236 26.5613 19.7236C25.8567 19.7236 25.2431 19.6156 24.7203 19.3997C24.2005 19.1838 23.7942 18.8642 23.5016 18.4409C23.2118 18.0148 23.0598 17.4878 23.0456 16.8599H24.8311C24.851 17.1526 24.9348 17.3969 25.0826 17.5929C25.2331 17.7861 25.4334 17.9324 25.6834 18.0318C25.9363 18.1284 26.2218 18.1767 26.54 18.1767C26.8525 18.1767 27.1238 18.1312 27.3539 18.0403C27.5868 17.9494 27.7672 17.823 27.8951 17.6611C28.0229 17.4991 28.0868 17.3131 28.0868 17.1028C28.0868 16.9068 28.0286 16.742 27.9121 16.6085C27.7985 16.475 27.6309 16.3614 27.4093 16.2676C27.1905 16.1739 26.9221 16.0886 26.6039 16.0119L25.6536 15.7733C24.9178 15.5943 24.3368 15.3145 23.9107 14.9338C23.4846 14.5531 23.2729 14.0403 23.2757 13.3955C23.2729 12.867 23.4135 12.4054 23.6976 12.0105C23.9846 11.6156 24.378 11.3074 24.878 11.0858C25.378 10.8642 25.9462 10.7534 26.5826 10.7534C27.2303 10.7534 27.7956 10.8642 28.2786 11.0858C28.7644 11.3074 29.1422 11.6156 29.4121 12.0105C29.682 12.4054 29.8212 12.8628 29.8297 13.3827H28.0613Z" fill="#FF2F48"/>
</g>
<defs>
<clipPath id="clip0_1_1262">
<rect width="55" height="40" fill="white"/>
</clipPath>
</defs>
</svg>
