<svg width="40" height="26" viewBox="0 0 40 26" fill="none" xmlns="http://www.w3.org/2000/svg">
<g clip-path="url(#clip0_1_1502)">
<path d="M19.35 25.31C19.2744 25.2387 19.1668 25.1356 19.03 25.0021C18.7165 24.6961 18.3667 24.3433 17.9895 23.9487C16.9119 22.8212 15.8357 21.5899 14.8315 20.2935C13.0555 18.0008 11.7167 15.7791 10.9529 13.7066C10.4864 12.4407 10.25 11.2672 10.25 10.1901C10.25 4.58385 14.1781 0.650002 19.35 0.650002C24.5219 0.650002 28.45 4.58385 28.45 10.1901C28.45 11.2672 28.2137 12.4407 27.7471 13.7066C26.9833 15.7791 25.6445 18.0008 23.8685 20.2935C22.8643 21.5899 21.7881 22.8212 20.7104 23.9487C20.3333 24.3433 19.9835 24.6961 19.6699 25.0021C19.5332 25.1356 19.4255 25.2387 19.35 25.31Z" fill="#FF8B99" stroke="#FF8B99" stroke-width="1.3"/>
<path d="M19.35 16.9C23.2988 16.9 26.5 13.6988 26.5 9.75C26.5 5.80116 23.2988 2.6 19.35 2.6C15.4012 2.6 12.2 5.80116 12.2 9.75C12.2 13.6988 15.4012 16.9 19.35 16.9Z" fill="white"/>
<path d="M16.7179 11.94V6.26727H18.956C19.3863 6.26727 19.7528 6.34944 20.0557 6.51379C20.3585 6.67629 20.5893 6.9025 20.7481 7.19241C20.9088 7.48048 20.9891 7.81287 20.9891 8.18957C20.9891 8.56628 20.9079 8.89866 20.7454 9.18673C20.5829 9.4748 20.3474 9.69916 20.039 9.85981C19.7325 10.0205 19.3613 10.1008 18.9255 10.1008H17.4991V9.13964H18.7316C18.9625 9.13964 19.1527 9.09994 19.3022 9.02054C19.4537 8.93929 19.5663 8.82757 19.6402 8.68538C19.7159 8.54135 19.7537 8.37608 19.7537 8.18957C19.7537 8.00122 19.7159 7.83687 19.6402 7.69653C19.5663 7.55435 19.4537 7.44447 19.3022 7.36692C19.1508 7.28751 18.9588 7.24781 18.7261 7.24781H17.9173V11.94H16.7179Z" fill="#FF8B99"/>
</g>
<defs>
<clipPath id="clip0_1_1502">
<rect width="40" height="26" fill="white"/>
</clipPath>
</defs>
</svg>
