<svg width="55" height="40" viewBox="0 0 55 40" fill="none" xmlns="http://www.w3.org/2000/svg">
<g clip-path="url(#clip0_1_1366)">
<path d="M26.5 38.9384C26.3838 38.8288 26.2181 38.6702 26.0077 38.4648C25.5254 37.994 24.9873 37.4512 24.4069 36.8442C22.7491 35.1096 21.0934 33.2152 19.5484 31.2208C16.8162 27.6936 14.7564 24.2756 13.5814 21.087C12.8637 19.1395 12.5 17.3341 12.5 15.6771C12.5 7.05208 18.5432 1 26.5 1C34.4568 1 40.5 7.05208 40.5 15.6771C40.5 17.3341 40.1364 19.1395 39.4186 21.087C38.2436 24.2756 36.1838 27.6936 33.4516 31.2208C31.9066 33.2152 30.251 35.1096 28.593 36.8442C28.0128 37.4512 27.4746 37.994 26.9922 38.4648C26.7818 38.6702 26.6162 38.8288 26.5 38.9384Z" fill="#FF2F48" stroke="#FF2F48" stroke-width="2"/>
<path d="M26.5 26C32.5751 26 37.5 21.0751 37.5 15C37.5 8.92487 32.5751 4 26.5 4C20.4249 4 15.5 8.92487 15.5 15C15.5 21.0751 20.4249 26 26.5 26Z" fill="white"/>
<path d="M19.1202 10.8727H21.187L23.177 14.6312H23.2623L25.2523 10.8727H27.3191L24.1358 16.5148V19.6H22.3034V16.5148L19.1202 10.8727ZM28.2757 19.6V18.2705L31.3823 15.394C31.6465 15.1384 31.8681 14.9082 32.0471 14.7037C32.2289 14.4991 32.3667 14.2989 32.4604 14.1028C32.5542 13.904 32.601 13.6895 32.601 13.4594C32.601 13.2037 32.5428 12.9835 32.4263 12.7989C32.3098 12.6114 32.1507 12.4679 31.949 12.3685C31.7473 12.2662 31.5186 12.2151 31.263 12.2151C30.9959 12.2151 30.763 12.269 30.5641 12.377C30.3652 12.4849 30.2118 12.6398 30.1039 12.8415C29.9959 13.0432 29.9419 13.2832 29.9419 13.5616H28.1905C28.1905 12.9906 28.3198 12.4949 28.5783 12.0744C28.8368 11.654 29.199 11.3287 29.665 11.0986C30.1309 10.8685 30.6678 10.7534 31.2757 10.7534C31.9007 10.7534 32.4448 10.8642 32.9078 11.0858C33.3738 11.3045 33.736 11.6085 33.9945 11.9977C34.253 12.3869 34.3823 12.833 34.3823 13.3358C34.3823 13.6653 34.3169 13.9906 34.1863 14.3116C34.0584 14.6327 33.8297 14.9892 33.5002 15.3812C33.1706 15.7705 32.7061 16.2378 32.1067 16.7832L30.8326 18.0318V18.0915H34.4973V19.6H28.2757Z" fill="#FF2F48"/>
</g>
<defs>
<clipPath id="clip0_1_1366">
<rect width="55" height="40" fill="white"/>
</clipPath>
</defs>
</svg>
