<svg width="55" height="40" viewBox="0 0 55 40" fill="none" xmlns="http://www.w3.org/2000/svg">
<g clip-path="url(#clip0_1_1031)">
<path d="M26.5 38.9384C26.3838 38.8288 26.2181 38.6702 26.0077 38.4648C25.5254 37.994 24.9873 37.4512 24.4069 36.8442C22.7491 35.1096 21.0934 33.2152 19.5484 31.2208C16.8162 27.6936 14.7564 24.2756 13.5814 21.087C12.8637 19.1395 12.5 17.3341 12.5 15.6771C12.5 7.05208 18.5432 1 26.5 1C34.4568 1 40.5 7.05208 40.5 15.6771C40.5 17.3341 40.1364 19.1395 39.4186 21.087C38.2436 24.2756 36.1838 27.6936 33.4516 31.2208C31.9066 33.2152 30.251 35.1096 28.593 36.8442C28.0128 37.4512 27.4746 37.994 26.9922 38.4648C26.7818 38.6702 26.6162 38.8288 26.5 38.9384Z" fill="#FF2F48" stroke="#FF2F48" stroke-width="2"/>
<path d="M26.5 26C32.5751 26 37.5 21.0751 37.5 15C37.5 8.92487 32.5751 4 26.5 4C20.4249 4 15.5 8.92487 15.5 15C15.5 21.0751 20.4249 26 26.5 26Z" fill="white"/>
<path d="M22.532 19.6H19.4382V10.8727H22.5575C23.4354 10.8727 24.1911 11.0474 24.8246 11.3969C25.4581 11.7435 25.9453 12.2421 26.2862 12.8926C26.63 13.5432 26.8018 14.3216 26.8018 15.2278C26.8018 16.1369 26.63 16.9182 26.2862 17.5716C25.9453 18.225 25.4553 18.7264 24.8161 19.0759C24.1797 19.4253 23.4183 19.6 22.532 19.6ZM21.2834 18.019H22.4553C23.0007 18.019 23.4595 17.9224 23.8317 17.7293C24.2067 17.5332 24.4879 17.2307 24.6754 16.8216C24.8658 16.4097 24.9609 15.8784 24.9609 15.2278C24.9609 14.583 24.8658 14.056 24.6754 13.6469C24.4879 13.2378 24.2081 12.9367 23.8359 12.7435C23.4638 12.5503 23.005 12.4537 22.4595 12.4537H21.2834V18.019ZM31.3434 19.7193C30.707 19.7193 30.1403 19.6099 29.6431 19.3912C29.1488 19.1696 28.7582 18.8656 28.4712 18.4793C28.1871 18.0901 28.0408 17.6412 28.0323 17.1327H29.8903C29.9016 17.3457 29.9712 17.5332 30.0991 17.6952C30.2298 17.8543 30.4031 17.9778 30.619 18.0659C30.8349 18.154 31.0778 18.198 31.3477 18.198C31.6289 18.198 31.8775 18.1483 32.0934 18.0489C32.3093 17.9494 32.4783 17.8117 32.6005 17.6355C32.7227 17.4594 32.7837 17.2563 32.7837 17.0261C32.7837 16.7932 32.7184 16.5872 32.5877 16.4082C32.4599 16.2264 32.2752 16.0844 32.0337 15.9821C31.7951 15.8798 31.511 15.8287 31.1815 15.8287H30.3675V14.4736H31.1815C31.4599 14.4736 31.7056 14.4253 31.9187 14.3287C32.1346 14.2321 32.3022 14.0986 32.4215 13.9281C32.5408 13.7548 32.6005 13.5531 32.6005 13.323C32.6005 13.1043 32.5479 12.9125 32.4428 12.7477C32.3406 12.5801 32.1957 12.4494 32.0082 12.3557C31.8235 12.2619 31.6076 12.2151 31.3604 12.2151C31.1104 12.2151 30.8817 12.2605 30.6744 12.3514C30.467 12.4395 30.3008 12.5659 30.1758 12.7307C30.0508 12.8955 29.984 13.0886 29.9755 13.3102H28.207C28.2156 12.8074 28.359 12.3642 28.6374 11.9807C28.9158 11.5972 29.2908 11.2974 29.7624 11.0815C30.2369 10.8628 30.7724 10.7534 31.369 10.7534C31.9712 10.7534 32.4982 10.8628 32.9499 11.0815C33.4016 11.3003 33.7525 11.5957 34.0025 11.9679C34.2553 12.3372 34.3803 12.752 34.3775 13.2122C34.3803 13.7009 34.2283 14.1085 33.9215 14.4352C33.6175 14.7619 33.2212 14.9693 32.7326 15.0574V15.1256C33.3746 15.208 33.8633 15.431 34.1985 15.7946C34.5366 16.1554 34.7042 16.6071 34.7013 17.1497C34.7042 17.6469 34.5607 18.0886 34.271 18.475C33.984 18.8614 33.5877 19.1653 33.082 19.3869C32.5763 19.6085 31.9968 19.7193 31.3434 19.7193Z" fill="#FF2F48"/>
</g>
<defs>
<clipPath id="clip0_1_1031">
<rect width="55" height="40" fill="white"/>
</clipPath>
</defs>
</svg>
