<svg width="55" height="40" viewBox="0 0 55 40" fill="none" xmlns="http://www.w3.org/2000/svg">
<g clip-path="url(#clip0_1_1114)">
<path d="M26.5 38.9384C26.3838 38.8288 26.2181 38.6702 26.0077 38.4648C25.5254 37.994 24.9873 37.4512 24.4069 36.8442C22.7491 35.1096 21.0934 33.2152 19.5484 31.2208C16.8162 27.6936 14.7564 24.2756 13.5814 21.087C12.8637 19.1395 12.5 17.3341 12.5 15.6771C12.5 7.05208 18.5432 1 26.5 1C34.4568 1 40.5 7.05208 40.5 15.6771C40.5 17.3341 40.1364 19.1395 39.4186 21.087C38.2436 24.2756 36.1838 27.6936 33.4516 31.2208C31.9066 33.2152 30.251 35.1096 28.593 36.8442C28.0128 37.4512 27.4746 37.994 26.9922 38.4648C26.7818 38.6702 26.6162 38.8288 26.5 38.9384Z" fill="#FF2F48" stroke="#FF2F48" stroke-width="2"/>
<path d="M26.5 26C32.5751 26 37.5 21.0751 37.5 15C37.5 8.92487 32.5751 4 26.5 4C20.4249 4 15.5 8.92487 15.5 15C15.5 21.0751 20.4249 26 26.5 26Z" fill="white"/>
<path d="M23.467 10.8727V19.6H21.6218V10.8727H23.467ZM28.1598 19.7193C27.5234 19.7193 26.9567 19.6099 26.4595 19.3912C25.9652 19.1696 25.5746 18.8656 25.2876 18.4793C25.0036 18.0901 24.8572 17.6412 24.8487 17.1327H26.7067C26.718 17.3457 26.7876 17.5332 26.9155 17.6952C27.0462 17.8543 27.2195 17.9778 27.4354 18.0659C27.6513 18.154 27.8942 18.198 28.1641 18.198C28.4453 18.198 28.6939 18.1483 28.9098 18.0489C29.1257 17.9494 29.2947 17.8117 29.4169 17.6355C29.5391 17.4594 29.6001 17.2563 29.6001 17.0261C29.6001 16.7932 29.5348 16.5872 29.4041 16.4082C29.2763 16.2264 29.0916 16.0844 28.8501 15.9821C28.6115 15.8798 28.3274 15.8287 27.9979 15.8287H27.1839V14.4736H27.9979C28.2763 14.4736 28.522 14.4253 28.7351 14.3287C28.951 14.2321 29.1186 14.0986 29.2379 13.9281C29.3572 13.7548 29.4169 13.5531 29.4169 13.323C29.4169 13.1043 29.3643 12.9125 29.2592 12.7477C29.157 12.5801 29.0121 12.4494 28.8246 12.3557C28.6399 12.2619 28.424 12.2151 28.1768 12.2151C27.9268 12.2151 27.6982 12.2605 27.4908 12.3514C27.2834 12.4395 27.1172 12.5659 26.9922 12.7307C26.8672 12.8955 26.8004 13.0886 26.7919 13.3102H25.0234C25.032 12.8074 25.1754 12.3642 25.4538 11.9807C25.7322 11.5972 26.1072 11.2974 26.5788 11.0815C27.0533 10.8628 27.5888 10.7534 28.1854 10.7534C28.7876 10.7534 29.3146 10.8628 29.7663 11.0815C30.218 11.3003 30.5689 11.5957 30.8189 11.9679C31.0717 12.3372 31.1967 12.752 31.1939 13.2122C31.1967 13.7009 31.0447 14.1085 30.7379 14.4352C30.4339 14.7619 30.0376 14.9693 29.549 15.0574V15.1256C30.1911 15.208 30.6797 15.431 31.0149 15.7946C31.353 16.1554 31.5206 16.6071 31.5178 17.1497C31.5206 17.6469 31.3771 18.0886 31.0874 18.475C30.8004 18.8614 30.4041 19.1653 29.8984 19.3869C29.3928 19.6085 28.8132 19.7193 28.1598 19.7193Z" fill="#FF2F48"/>
</g>
<defs>
<clipPath id="clip0_1_1114">
<rect width="55" height="40" fill="white"/>
</clipPath>
</defs>
</svg>
