<svg width="40" height="26" viewBox="0 0 40 26" fill="none" xmlns="http://www.w3.org/2000/svg">
<g clip-path="url(#clip0_1_900)">
<path d="M19.35 25.31C19.2744 25.2387 19.1668 25.1356 19.03 25.0021C18.7165 24.6961 18.3667 24.3433 17.9895 23.9487C16.9119 22.8212 15.8357 21.5899 14.8315 20.2935C13.0555 18.0008 11.7167 15.7791 10.9529 13.7065C10.4864 12.4407 10.25 11.2671 10.25 10.1901C10.25 4.58385 14.1781 0.649994 19.35 0.649994C24.5219 0.649994 28.45 4.58385 28.45 10.1901C28.45 11.2671 28.2137 12.4407 27.7471 13.7065C26.9833 15.7791 25.6445 18.0008 23.8685 20.2935C22.8643 21.5899 21.7881 22.8212 20.7104 23.9487C20.3333 24.3433 19.9835 24.6961 19.6699 25.0021C19.5332 25.1356 19.4255 25.2387 19.35 25.31Z" fill="#FF8B99" stroke="#FF8B99" stroke-width="1.3"/>
<path d="M19.35 16.9C23.2988 16.9 26.5 13.6988 26.5 9.75001C26.5 5.80117 23.2988 2.60001 19.35 2.60001C15.4012 2.60001 12.2 5.80117 12.2 9.75001C12.2 13.6988 15.4012 16.9 19.35 16.9Z" fill="white"/>
<path d="M16.0958 11.94H14.0848V6.26728H16.1124C16.683 6.26728 17.1742 6.38084 17.586 6.60797C17.9978 6.83326 18.3145 7.15733 18.536 7.5802C18.7595 8.00307 18.8712 8.50904 18.8712 9.0981C18.8712 9.68901 18.7595 10.1968 18.536 10.6215C18.3145 11.0463 17.9959 11.3722 17.5804 11.5993C17.1668 11.8264 16.6719 11.94 16.0958 11.94ZM15.2842 10.9124H16.0459C16.4005 10.9124 16.6987 10.8496 16.9406 10.724C17.1843 10.5966 17.3672 10.3999 17.489 10.134C17.6127 9.86628 17.6746 9.52097 17.6746 9.0981C17.6746 8.67892 17.6127 8.33638 17.489 8.07047C17.3672 7.80456 17.1853 7.60882 16.9434 7.48326C16.7015 7.35769 16.4032 7.2949 16.0487 7.2949H15.2842V10.9124ZM21.8232 12.0176C21.4096 12.0176 21.0412 11.9465 20.718 11.8043C20.3967 11.6602 20.1428 11.4627 19.9563 11.2115C19.7716 10.9585 19.6765 10.6668 19.671 10.3362H20.8787C20.8861 10.4747 20.9313 10.5966 21.0144 10.7019C21.0993 10.8053 21.212 10.8856 21.3523 10.9428C21.4927 11.0001 21.6506 11.0287 21.826 11.0287C22.0088 11.0287 22.1704 10.9964 22.3107 10.9318C22.451 10.8671 22.5609 10.7776 22.6403 10.6631C22.7197 10.5486 22.7594 10.4166 22.7594 10.267C22.7594 10.1156 22.717 9.98169 22.632 9.86536C22.5489 9.74718 22.4289 9.65485 22.2719 9.58837C22.1168 9.52189 21.9322 9.48865 21.718 9.48865H21.1889V8.60783H21.718C21.8989 8.60783 22.0586 8.57644 22.1971 8.51365C22.3375 8.45087 22.4464 8.36408 22.524 8.25328C22.6015 8.14064 22.6403 8.00953 22.6403 7.85996C22.6403 7.71777 22.6062 7.59313 22.5378 7.48603C22.4714 7.37708 22.3772 7.29213 22.2553 7.2312C22.1353 7.17026 21.9949 7.13979 21.8343 7.13979C21.6718 7.13979 21.5231 7.16933 21.3883 7.22843C21.2535 7.28567 21.1455 7.36784 21.0643 7.47495C20.983 7.58205 20.9396 7.70762 20.9341 7.85165H19.7846C19.7901 7.5248 19.8834 7.23674 20.0643 6.98745C20.2453 6.73816 20.489 6.54334 20.7956 6.403C21.104 6.26081 21.452 6.18972 21.8398 6.18972C22.2313 6.18972 22.5738 6.26081 22.8675 6.403C23.1611 6.54519 23.3891 6.73723 23.5516 6.97914C23.716 7.21919 23.7972 7.4888 23.7954 7.78794C23.7972 8.10556 23.6984 8.37054 23.499 8.5829C23.3014 8.79526 23.0438 8.93006 22.7262 8.9873V9.03162C23.1435 9.08517 23.4611 9.23013 23.679 9.46649C23.8988 9.70101 24.0077 9.99462 24.0059 10.3473C24.0077 10.6705 23.9145 10.9576 23.7261 11.2088C23.5396 11.4599 23.282 11.6575 22.9533 11.8015C22.6246 11.9455 22.2479 12.0176 21.8232 12.0176Z" fill="#FF8B99"/>
</g>
<defs>
<clipPath id="clip0_1_900">
<rect width="40" height="26" fill="white"/>
</clipPath>
</defs>
</svg>
