<svg width="55" height="40" viewBox="0 0 55 40" fill="none" xmlns="http://www.w3.org/2000/svg">
<g clip-path="url(#clip0_1_1370)">
<path d="M26.5 38.9384C26.3838 38.8288 26.2181 38.6702 26.0077 38.4648C25.5254 37.994 24.9873 37.4512 24.4069 36.8442C22.7491 35.1096 21.0934 33.2152 19.5484 31.2208C16.8162 27.6936 14.7564 24.2756 13.5814 21.087C12.8637 19.1395 12.5 17.3341 12.5 15.6771C12.5 7.05208 18.5432 1 26.5 1C34.4568 1 40.5 7.05208 40.5 15.6771C40.5 17.3341 40.1364 19.1395 39.4186 21.087C38.2436 24.2756 36.1838 27.6936 33.4516 31.2208C31.9066 33.2152 30.251 35.1096 28.593 36.8442C28.0128 37.4512 27.4746 37.994 26.9922 38.4648C26.7818 38.6702 26.6162 38.8288 26.5 38.9384Z" fill="#FF2F48" stroke="#FF2F48" stroke-width="2"/>
<path d="M26.5 26C32.5751 26 37.5 21.0751 37.5 15C37.5 8.92487 32.5751 4 26.5 4C20.4249 4 15.5 8.92487 15.5 15C15.5 21.0751 20.4249 26 26.5 26Z" fill="white"/>
<path d="M18.9444 10.8727H21.0112L23.0012 14.6312H23.0865L25.0765 10.8727H27.1433L23.96 16.5148V19.6H22.1277V16.5148L18.9444 10.8727ZM31.3258 19.7193C30.6895 19.7193 30.1227 19.6099 29.6255 19.3912C29.1312 19.1696 28.7406 18.8656 28.4537 18.4793C28.1696 18.0901 28.0233 17.6412 28.0147 17.1327H29.8727C29.8841 17.3457 29.9537 17.5332 30.0815 17.6952C30.2122 17.8543 30.3855 17.9778 30.6014 18.0659C30.8173 18.154 31.0602 18.198 31.3301 18.198C31.6113 18.198 31.8599 18.1483 32.0758 18.0489C32.2917 17.9494 32.4608 17.8116 32.5829 17.6355C32.7051 17.4594 32.7662 17.2562 32.7662 17.0261C32.7662 16.7932 32.7008 16.5872 32.5701 16.4082C32.4423 16.2264 32.2576 16.0844 32.0162 15.9821C31.7775 15.8798 31.4934 15.8287 31.1639 15.8287H30.35V14.4736H31.1639C31.4423 14.4736 31.688 14.4253 31.9011 14.3287C32.117 14.2321 32.2846 14.0986 32.4039 13.9281C32.5233 13.7548 32.5829 13.5531 32.5829 13.323C32.5829 13.1043 32.5304 12.9125 32.4252 12.7477C32.323 12.5801 32.1781 12.4494 31.9906 12.3557C31.8059 12.2619 31.59 12.2151 31.3429 12.2151C31.0929 12.2151 30.8642 12.2605 30.6568 12.3514C30.4494 12.4395 30.2832 12.5659 30.1582 12.7307C30.0332 12.8955 29.9664 13.0886 29.9579 13.3102H28.1895C28.198 12.8074 28.3414 12.3642 28.6199 11.9807C28.8983 11.5972 29.2733 11.2974 29.7449 11.0815C30.2193 10.8628 30.7548 10.7534 31.3514 10.7534C31.9537 10.7534 32.4806 10.8628 32.9324 11.0815C33.3841 11.3003 33.7349 11.5957 33.9849 11.9679C34.2377 12.3372 34.3627 12.752 34.3599 13.2122C34.3627 13.7009 34.2108 14.1085 33.9039 14.4352C33.6 14.7619 33.2037 14.9693 32.715 15.0574V15.1256C33.3571 15.208 33.8457 15.431 34.1809 15.7946C34.519 16.1554 34.6866 16.6071 34.6838 17.1497C34.6866 17.6469 34.5431 18.0886 34.2534 18.475C33.9664 18.8614 33.5701 19.1653 33.0645 19.3869C32.5588 19.6085 31.9792 19.7193 31.3258 19.7193Z" fill="#FF2F48"/>
</g>
<defs>
<clipPath id="clip0_1_1370">
<rect width="55" height="40" fill="white"/>
</clipPath>
</defs>
</svg>
