<svg width="55" height="40" viewBox="0 0 55 40" fill="none" xmlns="http://www.w3.org/2000/svg">
<g clip-path="url(#clip0_1_1298)">
<path d="M26.5 38.9384C26.3838 38.8288 26.2181 38.6702 26.0077 38.4648C25.5254 37.994 24.9873 37.4512 24.4069 36.8442C22.7491 35.1096 21.0934 33.2152 19.5484 31.2208C16.8162 27.6936 14.7564 24.2756 13.5814 21.087C12.8637 19.1395 12.5 17.3341 12.5 15.6771C12.5 7.05208 18.5432 1 26.5 1C34.4568 1 40.5 7.05208 40.5 15.6771C40.5 17.3341 40.1364 19.1395 39.4186 21.087C38.2436 24.2756 36.1838 27.6936 33.4516 31.2208C31.9066 33.2152 30.251 35.1096 28.593 36.8442C28.0128 37.4512 27.4746 37.994 26.9922 38.4648C26.7818 38.6702 26.6162 38.8288 26.5 38.9384Z" fill="#FF2F48" stroke="#FF2F48" stroke-width="2"/>
<path d="M26.5 26C32.5751 26 37.5 21.0751 37.5 15C37.5 8.92487 32.5751 4 26.5 4C20.4249 4 15.5 8.92487 15.5 15C15.5 21.0751 20.4249 26 26.5 26Z" fill="white"/>
<path d="M25.8366 10.8727H27.6818V16.5403C27.6818 17.1767 27.5298 17.7335 27.2259 18.2108C26.9247 18.6881 26.5028 19.0602 25.9602 19.3273C25.4176 19.5915 24.7855 19.7236 24.0639 19.7236C23.3395 19.7236 22.706 19.5915 22.1634 19.3273C21.6207 19.0602 21.1989 18.6881 20.8977 18.2108C20.5966 17.7335 20.446 17.1767 20.446 16.5403V10.8727H22.2912V16.3827C22.2912 16.7151 22.3636 17.0105 22.5085 17.269C22.6563 17.5276 22.8636 17.7307 23.1307 17.8784C23.3977 18.0261 23.7088 18.1 24.0639 18.1C24.4219 18.1 24.733 18.0261 24.9972 17.8784C25.2642 17.7307 25.4702 17.5276 25.6151 17.269C25.7628 17.0105 25.8366 16.7151 25.8366 16.3827V10.8727ZM32.9457 10.8727V19.6H31.1005V12.6241H31.0494L29.0508 13.877V12.2406L31.2113 10.8727H32.9457Z" fill="#FF2F48"/>
</g>
<defs>
<clipPath id="clip0_1_1298">
<rect width="55" height="40" fill="white"/>
</clipPath>
</defs>
</svg>
