<svg width="40" height="26" viewBox="0 0 40 26" fill="none" xmlns="http://www.w3.org/2000/svg">
<g clip-path="url(#clip0_1_856)">
<path d="M19.35 25.31C19.2744 25.2387 19.1668 25.1356 19.03 25.0021C18.7165 24.6961 18.3667 24.3433 17.9895 23.9487C16.9119 22.8212 15.8357 21.5899 14.8315 20.2935C13.0555 18.0008 11.7167 15.7791 10.9529 13.7065C10.4864 12.4407 10.25 11.2671 10.25 10.1901C10.25 4.58385 14.1781 0.649994 19.35 0.649994C24.5219 0.649994 28.45 4.58385 28.45 10.1901C28.45 11.2671 28.2137 12.4407 27.7471 13.7065C26.9833 15.7791 25.6445 18.0008 23.8685 20.2935C22.8643 21.5899 21.7881 22.8212 20.7104 23.9487C20.3333 24.3433 19.9835 24.6961 19.6699 25.0021C19.5332 25.1356 19.4255 25.2387 19.35 25.31Z" fill="#FF8B99" stroke="#FF8B99" stroke-width="1.3"/>
<path d="M19.35 16.9C23.2988 16.9 26.5 13.6988 26.5 9.75001C26.5 5.80117 23.2988 2.60001 19.35 2.60001C15.4011 2.60001 12.2 5.80117 12.2 9.75001C12.2 13.6988 15.4011 16.9 19.35 16.9Z" fill="white"/>
<path d="M16.6646 11.94V6.26728H18.9359C19.3533 6.26728 19.7013 6.32914 19.9802 6.45286C20.259 6.57658 20.4686 6.74831 20.6089 6.96806C20.7493 7.18595 20.8195 7.43709 20.8195 7.72147C20.8195 7.94306 20.7751 8.13787 20.6865 8.30591C20.5979 8.4721 20.476 8.60875 20.3209 8.71585C20.1676 8.82111 19.9922 8.8959 19.7946 8.94022V8.99561C20.0106 9.00485 20.2128 9.06578 20.4012 9.17843C20.5914 9.29107 20.7456 9.44895 20.8638 9.65208C20.982 9.85335 21.041 10.0934 21.041 10.3722C21.041 10.6732 20.9663 10.9419 20.8167 11.1783C20.669 11.4128 20.4501 11.5984 20.1602 11.735C19.8703 11.8717 19.513 11.94 19.0883 11.94H16.6646ZM17.864 10.9595H18.8418C19.176 10.9595 19.4197 10.8958 19.573 10.7683C19.7263 10.6391 19.8029 10.4673 19.8029 10.2531C19.8029 10.0962 19.765 9.95769 19.6893 9.83766C19.6136 9.71763 19.5056 9.62345 19.3653 9.55513C19.2268 9.48681 19.0615 9.45264 18.8695 9.45264H17.864V10.9595ZM17.864 8.64107H18.7531C18.9175 8.64107 19.0633 8.61245 19.1908 8.5552C19.32 8.49611 19.4216 8.41301 19.4954 8.30591C19.5712 8.19881 19.609 8.07047 19.609 7.9209C19.609 7.71593 19.5361 7.55066 19.3902 7.42509C19.2462 7.29952 19.0412 7.23674 18.7753 7.23674H17.864V8.64107Z" fill="#FF8B99"/>
</g>
<defs>
<clipPath id="clip0_1_856">
<rect width="40" height="26" fill="white"/>
</clipPath>
</defs>
</svg>
