<svg width="55" height="40" viewBox="0 0 55 40" fill="none" xmlns="http://www.w3.org/2000/svg">
<g clip-path="url(#clip0_1_1074)">
<path d="M26.5 38.9384C26.3838 38.8288 26.2181 38.6702 26.0077 38.4648C25.5254 37.994 24.9873 37.4512 24.4069 36.8442C22.7491 35.1096 21.0934 33.2152 19.5484 31.2208C16.8162 27.6936 14.7564 24.2756 13.5814 21.087C12.8637 19.1395 12.5 17.3341 12.5 15.6771C12.5 7.05208 18.5432 1 26.5 1C34.4568 1 40.5 7.05208 40.5 15.6771C40.5 17.3341 40.1364 19.1395 39.4186 21.087C38.2436 24.2756 36.1838 27.6936 33.4516 31.2208C31.9066 33.2152 30.251 35.1096 28.593 36.8442C28.0128 37.4512 27.4746 37.994 26.9922 38.4648C26.7818 38.6702 26.6162 38.8288 26.5 38.9384Z" fill="#FF2F48" stroke="#FF2F48" stroke-width="2"/>
<path d="M26.5 26C32.5751 26 37.5 21.0751 37.5 15C37.5 8.92487 32.5751 4 26.5 4C20.4249 4 15.5 8.92487 15.5 15C15.5 21.0751 20.4249 26 26.5 26Z" fill="white"/>
<path d="M26.0455 13.6938C25.9858 13.4864 25.902 13.3031 25.794 13.144C25.6861 12.9821 25.554 12.8457 25.3977 12.7349C25.2443 12.6213 25.0682 12.5347 24.8693 12.475C24.6733 12.4153 24.456 12.3855 24.2173 12.3855C23.7713 12.3855 23.3793 12.4963 23.0412 12.7179C22.706 12.9395 22.4446 13.2619 22.2571 13.6852C22.0696 14.1057 21.9759 14.6199 21.9759 15.2278C21.9759 15.8358 22.0682 16.3528 22.2528 16.779C22.4375 17.2051 22.6989 17.5304 23.0369 17.7548C23.375 17.9764 23.7741 18.0872 24.2344 18.0872C24.652 18.0872 25.0085 18.0134 25.304 17.8656C25.6023 17.7151 25.8295 17.5034 25.9858 17.2307C26.1449 16.958 26.2244 16.6355 26.2244 16.2634L26.5994 16.3188H24.3494V14.9296H28.0014V16.029C28.0014 16.796 27.8395 17.4551 27.5156 18.0063C27.1918 18.5546 26.7457 18.9778 26.1776 19.2761C25.6094 19.5716 24.9588 19.7193 24.2259 19.7193C23.4077 19.7193 22.6889 19.5389 22.0696 19.1781C21.4503 18.8145 20.9673 18.2989 20.6207 17.6313C20.277 16.9608 20.1051 16.1653 20.1051 15.2449C20.1051 14.5375 20.2074 13.9068 20.4119 13.3528C20.6193 12.796 20.9091 12.3244 21.2812 11.9381C21.6534 11.5517 22.0866 11.2577 22.581 11.056C23.0753 10.8543 23.6108 10.7534 24.1875 10.7534C24.6818 10.7534 25.142 10.8259 25.5682 10.9707C25.9943 11.1128 26.3722 11.3145 26.7017 11.5759C27.0341 11.8372 27.3054 12.1483 27.5156 12.5091C27.7259 12.8671 27.8608 13.2619 27.9205 13.6938H26.0455ZM33.1332 10.8727V19.6H31.288V12.6242H31.2369L29.2383 13.877V12.2406L31.3988 10.8727H33.1332Z" fill="#FF2F48"/>
</g>
<defs>
<clipPath id="clip0_1_1074">
<rect width="55" height="40" fill="white"/>
</clipPath>
</defs>
</svg>
