<svg width="40" height="26" viewBox="0 0 40 26" fill="none" xmlns="http://www.w3.org/2000/svg">
<g clip-path="url(#clip0_1_935)">
<path d="M19.35 25.31C19.2744 25.2387 19.1668 25.1356 19.03 25.0021C18.7165 24.6961 18.3667 24.3433 17.9895 23.9487C16.9119 22.8212 15.8357 21.5899 14.8315 20.2935C13.0555 18.0008 11.7167 15.7791 10.9529 13.7065C10.4864 12.4407 10.25 11.2671 10.25 10.1901C10.25 4.58385 14.1781 0.649994 19.35 0.649994C24.5219 0.649994 28.45 4.58385 28.45 10.1901C28.45 11.2671 28.2137 12.4407 27.7471 13.7065C26.9833 15.7791 25.6445 18.0008 23.8685 20.2935C22.8643 21.5899 21.7881 22.8212 20.7104 23.9487C20.3333 24.3433 19.9835 24.6961 19.6699 25.0021C19.5332 25.1356 19.4255 25.2387 19.35 25.31Z" fill="#FF8B99" stroke="#FF8B99" stroke-width="1.3"/>
<path d="M19.35 16.9C23.2988 16.9 26.5 13.6988 26.5 9.75001C26.5 5.80117 23.2988 2.60001 19.35 2.60001C15.4011 2.60001 12.2 5.80117 12.2 9.75001C12.2 13.6988 15.4011 16.9 19.35 16.9Z" fill="white"/>
<path d="M14.7909 11.94V6.26728H18.5469V7.25612H15.9903V8.60783H18.2976V9.59668H15.9903V11.94H14.7909ZM21.4172 12.0176C21.0035 12.0176 20.6351 11.9465 20.312 11.8043C19.9907 11.6602 19.7368 11.4627 19.5503 11.2115C19.3656 10.9585 19.2705 10.6668 19.265 10.3362H20.4726C20.48 10.4747 20.5253 10.5966 20.6084 10.7019C20.6933 10.8053 20.806 10.8856 20.9463 10.9428C21.0866 11.0001 21.2445 11.0287 21.4199 11.0287C21.6028 11.0287 21.7643 10.9964 21.9047 10.9318C22.045 10.8671 22.1549 10.7776 22.2343 10.6631C22.3137 10.5486 22.3534 10.4166 22.3534 10.267C22.3534 10.1156 22.3109 9.98169 22.226 9.86536C22.1429 9.74718 22.0229 9.65485 21.8659 9.58837C21.7108 9.52189 21.5261 9.48865 21.3119 9.48865H20.7829V8.60783H21.3119C21.4929 8.60783 21.6526 8.57644 21.7911 8.51365C21.9315 8.45087 22.0404 8.36408 22.118 8.25328C22.1955 8.14064 22.2343 8.00953 22.2343 7.85996C22.2343 7.71777 22.2001 7.59313 22.1318 7.48603C22.0653 7.37708 21.9712 7.29213 21.8493 7.2312C21.7293 7.17026 21.5889 7.13979 21.4283 7.13979C21.2658 7.13979 21.1171 7.16933 20.9823 7.22843C20.8475 7.28567 20.7395 7.36784 20.6582 7.47495C20.577 7.58205 20.5336 7.70762 20.528 7.85165H19.3785C19.3841 7.5248 19.4773 7.23674 19.6583 6.98745C19.8393 6.73816 20.083 6.54334 20.3895 6.403C20.6979 6.26081 21.046 6.18972 21.4338 6.18972C21.8253 6.18972 22.1678 6.26081 22.4614 6.403C22.755 6.54519 22.9831 6.73723 23.1456 6.97914C23.3099 7.21919 23.3912 7.4888 23.3893 7.78794C23.3912 8.10556 23.2924 8.37054 23.093 8.5829C22.8954 8.79526 22.6378 8.93006 22.3202 8.9873V9.03162C22.7375 9.08517 23.0551 9.23013 23.273 9.46649C23.4927 9.70101 23.6017 9.99462 23.5998 10.3473C23.6017 10.6705 23.5084 10.9576 23.3201 11.2088C23.1336 11.4599 22.876 11.6575 22.5473 11.8015C22.2186 11.9455 21.8419 12.0176 21.4172 12.0176Z" fill="#FF8B99"/>
</g>
<defs>
<clipPath id="clip0_1_935">
<rect width="40" height="26" fill="white"/>
</clipPath>
</defs>
</svg>
