<svg width="40" height="26" viewBox="0 0 40 26" fill="none" xmlns="http://www.w3.org/2000/svg">
<g clip-path="url(#clip0_1_1446)">
<path d="M19.35 25.31C19.2744 25.2387 19.1668 25.1356 19.03 25.0021C18.7165 24.6961 18.3667 24.3433 17.9895 23.9487C16.9119 22.8212 15.8357 21.5899 14.8315 20.2935C13.0555 18.0008 11.7167 15.7791 10.9529 13.7066C10.4864 12.4407 10.25 11.2672 10.25 10.1901C10.25 4.58385 14.1781 0.650002 19.35 0.650002C24.5219 0.650002 28.45 4.58385 28.45 10.1901C28.45 11.2672 28.2137 12.4407 27.7471 13.7066C26.9833 15.7791 25.6445 18.0008 23.8685 20.2935C22.8643 21.5899 21.7881 22.8212 20.7104 23.9487C20.3333 24.3433 19.9835 24.6961 19.6699 25.0021C19.5332 25.1356 19.4255 25.2387 19.35 25.31Z" fill="#FF8B99" stroke="#FF8B99" stroke-width="1.3"/>
<path d="M19.35 16.9C23.2988 16.9 26.5 13.6988 26.5 9.75C26.5 5.80116 23.2988 2.6 19.35 2.6C15.4012 2.6 12.2 5.80116 12.2 9.75C12.2 13.6988 15.4012 16.9 19.35 16.9Z" fill="white"/>
<path d="M14.9737 11.94V6.26727H16.1731V10.9511H18.605V11.94H14.9737ZM19.3661 11.94V11.0758L21.3853 9.20612C21.5571 9.03993 21.7011 8.89035 21.8174 8.7574C21.9356 8.62444 22.0252 8.49426 22.0861 8.36685C22.147 8.23758 22.1775 8.09817 22.1775 7.94859C22.1775 7.7824 22.1397 7.63929 22.0639 7.51926C21.9882 7.39739 21.8848 7.30413 21.7537 7.2395C21.6226 7.17302 21.474 7.13979 21.3078 7.13979C21.1342 7.13979 20.9828 7.17487 20.8535 7.24504C20.7242 7.31521 20.6245 7.41585 20.5544 7.54696C20.4842 7.67807 20.4491 7.8341 20.4491 8.01507H19.3107C19.3107 7.6439 19.3947 7.32167 19.5627 7.04838C19.7308 6.77508 19.9662 6.56365 20.2691 6.41408C20.5719 6.2645 20.9209 6.18971 21.3161 6.18971C21.7223 6.18971 22.0759 6.26173 22.3769 6.40577C22.6798 6.54795 22.9152 6.74554 23.0833 6.99852C23.2513 7.2515 23.3353 7.54142 23.3353 7.86827C23.3353 8.08247 23.2929 8.2939 23.2079 8.50257C23.1248 8.71123 22.9762 8.94298 22.762 9.19781C22.5478 9.45079 22.2458 9.75456 21.8562 10.1091L21.028 10.9207V10.9595H23.4101V11.94H19.3661Z" fill="#FF8B99"/>
</g>
<defs>
<clipPath id="clip0_1_1446">
<rect width="40" height="26" fill="white"/>
</clipPath>
</defs>
</svg>
