<svg width="80" height="62.3" viewBox="0 0 20 20" fill="none" xmlns="http://www.w3.org/2000/svg">
<path d="M10 18.8365C9.94754 18.7875 9.87729 18.7211 9.79072 18.6379C9.56598 18.422 9.31513 18.173 9.0446 17.8944C8.27172 17.0984 7.49996 16.2291 6.77993 15.3141C5.50631 13.6957 4.54787 12.1294 4.00168 10.6704C3.66816 9.77948 3.5 8.95578 3.5 8.20166C3.5 4.26818 6.29899 1.5 10 1.5C13.701 1.5 16.5 4.26818 16.5 8.20166C16.5 8.95578 16.3318 9.77948 15.9983 10.6704C15.4521 12.1294 14.4937 13.6957 13.2201 15.3141C12.5 16.2291 11.7283 17.0984 10.9554 17.8944C10.6849 18.173 10.434 18.422 10.2093 18.6379C10.1227 18.7211 10.0525 18.7875 10 18.8365Z" fill="#FF2F48" stroke="#FF2F48"/>
<path d="M10 13C7.23858 13 5 10.7614 5 8C5 5.23858 7.23858 3 10 3C12.7614 3 15 5.23858 15 8C15 10.7614 12.7614 13 10 13Z" fill="white"/>
<path d="M9.59418 6.54439H10.6401V10.5023C10.6401 10.7937 10.5829 11.0294 10.4683 11.2095C10.3537 11.3895 10.1892 11.5213 9.97476 11.6048C9.76196 11.6883 9.50743 11.73 9.21116 11.73C9.17515 11.73 9.14077 11.7292 9.10803 11.7275C9.07366 11.7275 9.03765 11.7267 9 11.7251V10.9075C9.02783 10.9091 9.05238 10.9099 9.07366 10.9099C9.0933 10.9116 9.11458 10.9124 9.1375 10.9124C9.3061 10.9124 9.42395 10.8764 9.49106 10.8043C9.55981 10.734 9.59418 10.6276 9.59418 10.4852V6.54439ZM10.1147 6.05824C9.96084 6.05824 9.82826 6.00668 9.71695 5.90355C9.60564 5.79879 9.54999 5.67357 9.54999 5.52789C9.54999 5.38385 9.60564 5.26026 9.71695 5.15714C9.82826 5.05238 9.96084 5 10.1147 5C10.2718 5 10.4053 5.05238 10.5149 5.15714C10.6262 5.26026 10.6819 5.38385 10.6819 5.52789C10.6819 5.67357 10.6262 5.79879 10.5149 5.90355C10.4053 6.00668 10.2718 6.05824 10.1147 6.05824Z" fill="#FF2F48"/>
</svg>
