<svg width="60" height="45" viewBox="0 0 21 20" fill="none" xmlns="http://www.w3.org/2000/svg">
<path d="M10 19.4692C9.94188 19.4144 9.85905 19.3351 9.75385 19.2324C9.51272 18.997 9.24363 18.7256 8.95347 18.4221C8.12453 17.5548 7.29668 16.6076 6.52421 15.6104C5.15811 13.8468 4.1282 12.1378 3.54068 10.5435C3.18183 9.56975 3 8.66704 3 7.83854C3 3.52604 6.02161 0.5 10 0.5C13.9784 0.5 17 3.52604 17 7.83854C17 8.66704 16.8182 9.56975 16.4593 10.5435C15.8718 12.1378 14.8419 13.8468 13.4758 15.6104C12.7033 16.6076 11.8755 17.5548 11.0465 18.4221C10.7564 18.7256 10.4873 18.997 10.2461 19.2324C10.1409 19.3351 10.0581 19.4144 10 19.4692Z" fill="#FF2F48" stroke="#FF2F48"/>
<path d="M10 13C6.96243 13 4.5 10.5376 4.5 7.5C4.5 4.46243 6.96243 2 10 2C13.0376 2 15.5 4.46243 15.5 7.5C15.5 10.5376 13.0376 13 10 13Z" fill="white"/>
<path d="M11.0774 5.81889C11.049 5.53243 10.9271 5.3099 10.7116 5.15128C10.4962 4.99266 10.2038 4.91335 9.83452 4.91335C9.58357 4.91335 9.37169 4.94886 9.19886 5.01989C9.02604 5.08854 8.89347 5.18442 8.80114 5.30753C8.71117 5.43063 8.66619 5.57031 8.66619 5.72656C8.66146 5.85677 8.68868 5.97041 8.74787 6.06747C8.80942 6.16454 8.89347 6.24858 9 6.3196C9.10653 6.38826 9.22964 6.44863 9.36932 6.50071C9.509 6.55043 9.65814 6.59304 9.81676 6.62855L10.4702 6.7848C10.7874 6.85582 11.0786 6.95052 11.3438 7.06889C11.6089 7.18726 11.8385 7.33286 12.0327 7.50568C12.2268 7.6785 12.3771 7.8821 12.4837 8.11648C12.5926 8.35085 12.6482 8.61955 12.6506 8.92259C12.6482 9.36766 12.5346 9.75355 12.3097 10.0803C12.0871 10.4046 11.7652 10.6567 11.3438 10.8366C10.9247 11.0142 10.4193 11.103 9.82741 11.103C9.24029 11.103 8.72893 11.013 8.29332 10.8331C7.86009 10.6532 7.52154 10.3868 7.2777 10.0341C7.03622 9.67898 6.90956 9.23982 6.89773 8.71662H8.38565C8.40223 8.96046 8.47206 9.16406 8.59517 9.32741C8.72064 9.4884 8.88755 9.61032 9.09588 9.69318C9.30658 9.77367 9.54451 9.81392 9.80966 9.81392C10.0701 9.81392 10.2962 9.77604 10.4879 9.70028C10.6821 9.62453 10.8324 9.51918 10.9389 9.38423C11.0455 9.24929 11.0987 9.09422 11.0987 8.91903C11.0987 8.75568 11.0502 8.61837 10.9531 8.5071C10.8584 8.39583 10.7188 8.30114 10.5341 8.22301C10.3518 8.14489 10.1281 8.07386 9.86293 8.00994L9.07102 7.81108C8.45786 7.66193 7.97372 7.42874 7.61861 7.11151C7.26349 6.79427 7.08712 6.36695 7.08949 5.82955C7.08712 5.3892 7.20431 5.0045 7.44105 4.67543C7.68016 4.34635 8.00805 4.08949 8.42472 3.90483C8.84138 3.72017 9.31487 3.62784 9.84517 3.62784C10.3849 3.62784 10.8561 3.72017 11.2585 3.90483C11.6634 4.08949 11.9782 4.34635 12.2031 4.67543C12.428 5.0045 12.544 5.38565 12.5511 5.81889H11.0774Z" fill="#FF2F48"/>
</svg>
