<svg width="40" height="26" viewBox="0 0 40 26" fill="none" xmlns="http://www.w3.org/2000/svg">
<g clip-path="url(#clip0_1_1558)">
<path d="M19.35 25.31C19.2744 25.2387 19.1668 25.1356 19.03 25.0021C18.7165 24.6961 18.3667 24.3433 17.9895 23.9487C16.9119 22.8212 15.8357 21.5899 14.8315 20.2935C13.0555 18.0008 11.7167 15.7791 10.9529 13.7066C10.4864 12.4407 10.25 11.2672 10.25 10.1901C10.25 4.58385 14.1781 0.650002 19.35 0.650002C24.5219 0.650002 28.45 4.58385 28.45 10.1901C28.45 11.2672 28.2137 12.4407 27.7471 13.7066C26.9833 15.7791 25.6445 18.0008 23.8685 20.2935C22.8643 21.5899 21.7881 22.8212 20.7104 23.9487C20.3333 24.3433 19.9835 24.6961 19.6699 25.0021C19.5332 25.1356 19.4255 25.2387 19.35 25.31Z" fill="#FF8B99" stroke="#FF8B99" stroke-width="1.3"/>
<path d="M19.35 16.9C23.2988 16.9 26.5 13.6988 26.5 9.75C26.5 5.80116 23.2988 2.6 19.35 2.6C15.4011 2.6 12.2 5.80116 12.2 9.75C12.2 13.6988 15.4011 16.9 19.35 16.9Z" fill="white"/>
<path d="M18.2083 7.89874C18.1861 7.6753 18.091 7.50172 17.923 7.378C17.755 7.25428 17.5269 7.19242 17.2388 7.19242C17.0431 7.19242 16.8778 7.22012 16.743 7.27551C16.6082 7.32907 16.5048 7.40385 16.4328 7.49987C16.3626 7.5959 16.3275 7.70485 16.3275 7.82672C16.3239 7.92828 16.3451 8.01692 16.3913 8.09263C16.4393 8.16834 16.5048 8.23389 16.5879 8.28929C16.671 8.34284 16.767 8.38993 16.876 8.43056C16.9849 8.46933 17.1013 8.50257 17.225 8.53027L17.7346 8.65215C17.9821 8.70755 18.2092 8.78141 18.416 8.87374C18.6229 8.96607 18.802 9.07963 18.9534 9.21443C19.1048 9.34924 19.2221 9.50804 19.3052 9.69085C19.3901 9.87367 19.4335 10.0833 19.4354 10.3196C19.4335 10.6668 19.3449 10.9678 19.1694 11.2226C18.9959 11.4756 18.7447 11.6722 18.416 11.8126C18.0892 11.9511 17.6949 12.0203 17.2333 12.0203C16.7753 12.0203 16.3765 11.9502 16.0367 11.8098C15.6988 11.6695 15.4347 11.4617 15.2445 11.1866C15.0562 10.9096 14.9574 10.5671 14.9481 10.159H16.1087C16.1217 10.3492 16.1761 10.508 16.2721 10.6354C16.37 10.761 16.5002 10.8561 16.6627 10.9207C16.827 10.9835 17.0126 11.0149 17.2194 11.0149C17.4226 11.0149 17.5989 10.9853 17.7485 10.9262C17.8999 10.8671 18.0172 10.785 18.1003 10.6797C18.1834 10.5744 18.2249 10.4535 18.2249 10.3168C18.2249 10.1894 18.1871 10.0823 18.1114 9.99554C18.0375 9.90875 17.9285 9.83489 17.7845 9.77395C17.6423 9.71301 17.4678 9.65762 17.261 9.60776L16.6433 9.45264C16.165 9.33631 15.7874 9.15442 15.5104 8.90698C15.2334 8.65953 15.0959 8.32622 15.0977 7.90705C15.0959 7.56358 15.1873 7.26351 15.3719 7.00684C15.5584 6.75016 15.8142 6.5498 16.1392 6.40577C16.4642 6.26174 16.8335 6.18972 17.2471 6.18972C17.6682 6.18972 18.0356 6.26174 18.3496 6.40577C18.6653 6.5498 18.9109 6.75016 19.0864 7.00684C19.2618 7.26351 19.3523 7.56081 19.3578 7.89874H18.2083ZM20.2088 11.94V11.0758L22.2281 9.20612C22.3998 9.03993 22.5439 8.89036 22.6602 8.7574C22.7784 8.62445 22.8679 8.49426 22.9289 8.36685C22.9898 8.23759 23.0203 8.09817 23.0203 7.9486C23.0203 7.7824 22.9824 7.63929 22.9067 7.51926C22.831 7.39739 22.7276 7.30414 22.5965 7.23951C22.4654 7.17303 22.3167 7.13979 22.1505 7.13979C21.977 7.13979 21.8255 7.17487 21.6963 7.24505C21.567 7.31522 21.4673 7.41585 21.3971 7.54696C21.327 7.67807 21.2919 7.83411 21.2919 8.01507H20.1535C20.1535 7.64391 20.2375 7.32168 20.4055 7.04838C20.5736 6.77509 20.809 6.56365 21.1118 6.41408C21.4147 6.26451 21.7637 6.18972 22.1588 6.18972C22.5651 6.18972 22.9187 6.26174 23.2197 6.40577C23.5226 6.54796 23.758 6.74554 23.926 6.99853C24.0941 7.25151 24.1781 7.54142 24.1781 7.86827C24.1781 8.08247 24.1356 8.29391 24.0507 8.50257C23.9676 8.71124 23.8189 8.94299 23.6047 9.19782C23.3905 9.4508 23.0886 9.75456 22.699 10.1091L21.8708 10.9207V10.9595H24.2529V11.94H20.2088Z" fill="#FF8B99"/>
</g>
<defs>
<clipPath id="clip0_1_1558">
<rect width="40" height="26" fill="white"/>
</clipPath>
</defs>
</svg>
