<svg width="55" height="40" viewBox="0 0 55 40" fill="none" xmlns="http://www.w3.org/2000/svg">
<g clip-path="url(#clip0_1_1158)">
<path d="M26.5 38.9384C26.3838 38.8288 26.2181 38.6702 26.0077 38.4648C25.5254 37.994 24.9873 37.4512 24.4069 36.8442C22.7491 35.1096 21.0934 33.2152 19.5484 31.2208C16.8162 27.6936 14.7564 24.2756 13.5814 21.087C12.8637 19.1395 12.5 17.3341 12.5 15.6771C12.5 7.05208 18.5432 1 26.5 1C34.4568 1 40.5 7.05208 40.5 15.6771C40.5 17.3341 40.1364 19.1395 39.4186 21.087C38.2436 24.2756 36.1838 27.6936 33.4516 31.2208C31.9066 33.2152 30.251 35.1096 28.593 36.8442C28.0128 37.4512 27.4746 37.994 26.9922 38.4648C26.7818 38.6702 26.6162 38.8288 26.5 38.9384Z" fill="#FF2F48" stroke="#FF2F48" stroke-width="2"/>
<path d="M26.5 26C32.5751 26 37.5 21.0751 37.5 15C37.5 8.92487 32.5751 4 26.5 4C20.4249 4 15.5 8.92487 15.5 15C15.5 21.0751 20.4249 26 26.5 26Z" fill="white"/>
<path d="M20.5749 19.6V10.8727H22.4201V18.0787H26.1616V19.6H20.5749ZM27.3324 19.6V18.2705L30.4389 15.394C30.7031 15.1384 30.9247 14.9082 31.1037 14.7037C31.2855 14.4992 31.4233 14.2989 31.517 14.1028C31.6108 13.904 31.6577 13.6895 31.6577 13.4594C31.6577 13.2037 31.5994 12.9835 31.483 12.7989C31.3665 12.6114 31.2074 12.4679 31.0057 12.3685C30.804 12.2662 30.5753 12.2151 30.3196 12.2151C30.0526 12.2151 29.8196 12.269 29.6207 12.377C29.4219 12.4849 29.2685 12.6398 29.1605 12.8415C29.0526 13.0432 28.9986 13.2832 28.9986 13.5617H27.2472C27.2472 12.9906 27.3764 12.4949 27.6349 12.0744C27.8935 11.654 28.2557 11.3287 28.7216 11.0986C29.1875 10.8685 29.7244 10.7534 30.3324 10.7534C30.9574 10.7534 31.5014 10.8642 31.9645 11.0858C32.4304 11.3046 32.7926 11.6085 33.0511 11.9977C33.3097 12.3869 33.4389 12.833 33.4389 13.3358C33.4389 13.6653 33.3736 13.9906 33.2429 14.3117C33.1151 14.6327 32.8864 14.9892 32.5568 15.3813C32.2273 15.7705 31.7628 16.2378 31.1634 16.7832L29.8892 18.0318V18.0915H33.554V19.6H27.3324Z" fill="#FF2F48"/>
</g>
<defs>
<clipPath id="clip0_1_1158">
<rect width="55" height="40" fill="white"/>
</clipPath>
</defs>
</svg>
