<svg width="55" height="40" viewBox="0 0 55 40" fill="none" xmlns="http://www.w3.org/2000/svg">
<g clip-path="url(#clip0_1_1286)">
<path d="M26.5 38.9384C26.3838 38.8288 26.2181 38.6702 26.0077 38.4648C25.5254 37.994 24.9873 37.4512 24.4069 36.8442C22.7491 35.1096 21.0934 33.2152 19.5484 31.2208C16.8162 27.6936 14.7564 24.2756 13.5814 21.087C12.8637 19.1395 12.5 17.3341 12.5 15.6771C12.5 7.05208 18.5432 1 26.5 1C34.4568 1 40.5 7.05208 40.5 15.6771C40.5 17.3341 40.1364 19.1395 39.4186 21.087C38.2436 24.2756 36.1838 27.6936 33.4516 31.2208C31.9066 33.2152 30.251 35.1096 28.593 36.8442C28.0128 37.4512 27.4746 37.994 26.9922 38.4648C26.7818 38.6702 26.6162 38.8288 26.5 38.9384Z" fill="#FF2F48" stroke="#FF2F48" stroke-width="2"/>
<path d="M26.5 26C32.5751 26 37.5 21.0751 37.5 15C37.5 8.92487 32.5751 4 26.5 4C20.4249 4 15.5 8.92487 15.5 15C15.5 21.0751 20.4249 26 26.5 26Z" fill="white"/>
<path d="M19.139 12.394V10.8727H26.3066V12.394H23.6348V19.6H21.8109V12.394H19.139ZM27.4359 19.6V18.2705L30.5424 15.394C30.8066 15.1384 31.0282 14.9082 31.2072 14.7037C31.389 14.4991 31.5268 14.2989 31.6206 14.1028C31.7143 13.904 31.7612 13.6895 31.7612 13.4594C31.7612 13.2037 31.7029 12.9835 31.5865 12.7989C31.47 12.6114 31.3109 12.4679 31.1092 12.3685C30.9075 12.2662 30.6788 12.2151 30.4231 12.2151C30.1561 12.2151 29.9231 12.269 29.7243 12.377C29.5254 12.4849 29.372 12.6398 29.264 12.8415C29.1561 13.0432 29.1021 13.2832 29.1021 13.5616H27.3507C27.3507 12.9906 27.4799 12.4949 27.7385 12.0744C27.997 11.654 28.3592 11.3287 28.8251 11.0986C29.291 10.8685 29.8279 10.7534 30.4359 10.7534C31.0609 10.7534 31.6049 10.8642 32.068 11.0858C32.5339 11.3045 32.8961 11.6085 33.1547 11.9977C33.4132 12.3869 33.5424 12.833 33.5424 13.3358C33.5424 13.6653 33.4771 13.9906 33.3464 14.3116C33.2186 14.6327 32.9899 14.9892 32.6603 15.3812C32.3308 15.7705 31.8663 16.2378 31.2669 16.7832L29.9927 18.0318V18.0915H33.6575V19.6H27.4359Z" fill="#FF2F48"/>
</g>
<defs>
<clipPath id="clip0_1_1286">
<rect width="55" height="40" fill="white"/>
</clipPath>
</defs>
</svg>
