<svg width="55" height="40" viewBox="0 0 55 40" fill="none" xmlns="http://www.w3.org/2000/svg">
<g clip-path="url(#clip0_1_999)">
<path d="M26.5 38.9384C26.3838 38.8288 26.2181 38.6702 26.0077 38.4648C25.5254 37.994 24.9873 37.4512 24.4069 36.8442C22.7491 35.1096 21.0934 33.2152 19.5484 31.2208C16.8162 27.6936 14.7564 24.2756 13.5814 21.087C12.8637 19.1395 12.5 17.3341 12.5 15.6771C12.5 7.05208 18.5432 1 26.5 1C34.4568 1 40.5 7.05208 40.5 15.6771C40.5 17.3341 40.1364 19.1395 39.4186 21.087C38.2436 24.2756 36.1838 27.6936 33.4516 31.2208C31.9066 33.2152 30.251 35.1096 28.593 36.8442C28.0128 37.4512 27.4746 37.994 26.9922 38.4648C26.7818 38.6702 26.6162 38.8288 26.5 38.9384Z" fill="#FF2F48" stroke="#FF2F48" stroke-width="2"/>
<path d="M26.5 26C32.5751 26 37.5 21.0751 37.5 15C37.5 8.92487 32.5751 4 26.5 4C20.4249 4 15.5 8.92487 15.5 15C15.5 21.0751 20.4249 26 26.5 26Z" fill="white"/>
<path d="M19.3366 19.6V10.8727H22.831C23.473 10.8727 24.0085 10.9679 24.4375 11.1582C24.8665 11.3486 25.1889 11.6128 25.4048 11.9509C25.6207 12.2861 25.7287 12.6724 25.7287 13.1099C25.7287 13.4509 25.6605 13.7506 25.5241 14.0091C25.3878 14.2648 25.2003 14.475 24.9616 14.6398C24.7259 14.8017 24.456 14.9168 24.152 14.9849V15.0702C24.4844 15.0844 24.7955 15.1781 25.0852 15.3514C25.3778 15.5247 25.6151 15.7676 25.7969 16.0801C25.9787 16.3898 26.0696 16.7591 26.0696 17.1881C26.0696 17.6511 25.9545 18.0645 25.7244 18.4281C25.4972 18.7889 25.1605 19.0744 24.7145 19.2847C24.2685 19.4949 23.7188 19.6 23.0653 19.6H19.3366ZM21.1818 18.0915H22.6861C23.2003 18.0915 23.5753 17.9935 23.8111 17.7974C24.0469 17.5986 24.1648 17.3344 24.1648 17.0048C24.1648 16.7634 24.1065 16.5503 23.9901 16.3656C23.8736 16.181 23.7074 16.0361 23.4915 15.931C23.2784 15.8259 23.0241 15.7733 22.7287 15.7733H21.1818V18.0915ZM21.1818 14.5247H22.5497C22.8026 14.5247 23.027 14.4807 23.223 14.3926C23.4219 14.3017 23.5781 14.1739 23.6918 14.0091C23.8082 13.8443 23.8665 13.6469 23.8665 13.4168C23.8665 13.1014 23.7543 12.8472 23.5298 12.654C23.3082 12.4608 22.9929 12.3642 22.5838 12.3642H21.1818V14.5247ZM30.445 19.7193C29.8086 19.7193 29.2418 19.6099 28.7447 19.3912C28.2504 19.1696 27.8597 18.8656 27.5728 18.4793C27.2887 18.0901 27.1424 17.6412 27.1339 17.1327H28.9918C29.0032 17.3457 29.0728 17.5332 29.2006 17.6952C29.3313 17.8543 29.5046 17.9778 29.7205 18.0659C29.9364 18.154 30.1793 18.198 30.4492 18.198C30.7305 18.198 30.979 18.1483 31.195 18.0489C31.4109 17.9494 31.5799 17.8117 31.7021 17.6355C31.8242 17.4594 31.8853 17.2563 31.8853 17.0261C31.8853 16.7932 31.82 16.5872 31.6893 16.4082C31.5614 16.2264 31.3768 16.0844 31.1353 15.9821C30.8967 15.8798 30.6126 15.8287 30.283 15.8287H29.4691V14.4736H30.283C30.5614 14.4736 30.8072 14.4253 31.0202 14.3287C31.2362 14.2321 31.4038 14.0986 31.5231 13.9281C31.6424 13.7548 31.7021 13.5531 31.7021 13.323C31.7021 13.1043 31.6495 12.9125 31.5444 12.7477C31.4421 12.5801 31.2972 12.4494 31.1097 12.3557C30.9251 12.2619 30.7092 12.2151 30.462 12.2151C30.212 12.2151 29.9833 12.2605 29.7759 12.3514C29.5685 12.4395 29.4023 12.5659 29.2773 12.7307C29.1523 12.8955 29.0856 13.0886 29.0771 13.3102H27.3086C27.3171 12.8074 27.4606 12.3642 27.739 11.9807C28.0174 11.5972 28.3924 11.2974 28.864 11.0815C29.3384 10.8628 29.8739 10.7534 30.4705 10.7534C31.0728 10.7534 31.5998 10.8628 32.0515 11.0815C32.5032 11.3003 32.854 11.5957 33.104 11.9679C33.3569 12.3372 33.4819 12.752 33.479 13.2122C33.4819 13.7009 33.3299 14.1085 33.0231 14.4352C32.7191 14.7619 32.3228 14.9693 31.8342 15.0574V15.1256C32.4762 15.208 32.9648 15.431 33.3001 15.7946C33.6381 16.1554 33.8058 16.6071 33.8029 17.1497C33.8058 17.6469 33.6623 18.0886 33.3725 18.475C33.0856 18.8614 32.6893 19.1653 32.1836 19.3869C31.6779 19.6085 31.0984 19.7193 30.445 19.7193Z" fill="#FF2F48"/>
</g>
<defs>
<clipPath id="clip0_1_999">
<rect width="55" height="40" fill="white"/>
</clipPath>
</defs>
</svg>
