<svg width="40" height="26" viewBox="0 0 40 26" fill="none" xmlns="http://www.w3.org/2000/svg">
<g clip-path="url(#clip0_1_1618)">
<path d="M19.35 25.31C19.2744 25.2387 19.1668 25.1356 19.03 25.0021C18.7165 24.6961 18.3667 24.3433 17.9895 23.9487C16.9119 22.8212 15.8357 21.5899 14.8315 20.2935C13.0555 18.0008 11.7167 15.7791 10.9529 13.7066C10.4864 12.4407 10.25 11.2672 10.25 10.1901C10.25 4.58385 14.1781 0.650002 19.35 0.650002C24.5219 0.650002 28.45 4.58385 28.45 10.1901C28.45 11.2672 28.2137 12.4407 27.7471 13.7066C26.9833 15.7791 25.6445 18.0008 23.8685 20.2935C22.8643 21.5899 21.7881 22.8212 20.7104 23.9487C20.3333 24.3433 19.9835 24.6961 19.6699 25.0021C19.5332 25.1356 19.4255 25.2387 19.35 25.31Z" fill="#FF8B99" stroke="#FF8B99" stroke-width="1.3"/>
<path d="M19.35 16.9C23.2988 16.9 26.5 13.6988 26.5 9.75C26.5 5.80116 23.2988 2.6 19.35 2.6C15.4012 2.6 12.2 5.80116 12.2 9.75C12.2 13.6988 15.4012 16.9 19.35 16.9Z" fill="white"/>
<path d="M14.6709 11.94L13.0478 6.26728H14.3579L15.2969 10.2088H15.344L16.38 6.26728H17.5018L18.5349 10.2171H18.5848L19.5238 6.26728H20.8339L19.2108 11.94H18.0419L16.9616 8.23112H16.9173L15.8398 11.94H14.6709ZM23.9106 6.26728V11.94H22.7112V7.4057H22.678L21.3789 8.22005V7.15641L22.7832 6.26728H23.9106Z" fill="#FF8B99"/>
</g>
<defs>
<clipPath id="clip0_1_1618">
<rect width="40" height="26" fill="white"/>
</clipPath>
</defs>
</svg>
