<svg width="55" height="40" viewBox="0 0 55 40" fill="none" xmlns="http://www.w3.org/2000/svg">
<g clip-path="url(#clip0_1_1098)">
<path d="M26.5 38.9384C26.3838 38.8288 26.2181 38.6702 26.0077 38.4648C25.5254 37.994 24.9873 37.4512 24.4069 36.8442C22.7491 35.1096 21.0934 33.2152 19.5484 31.2208C16.8162 27.6936 14.7564 24.2756 13.5814 21.087C12.8637 19.1395 12.5 17.3341 12.5 15.6771C12.5 7.05208 18.5432 1 26.5 1C34.4568 1 40.5 7.05208 40.5 15.6771C40.5 17.3341 40.1364 19.1395 39.4186 21.087C38.2436 24.2756 36.1838 27.6936 33.4516 31.2208C31.9066 33.2152 30.251 35.1096 28.593 36.8442C28.0128 37.4512 27.4746 37.994 26.9922 38.4648C26.7818 38.6702 26.6162 38.8288 26.5 38.9384Z" fill="#FF2F48" stroke="#FF2F48" stroke-width="2"/>
<path d="M26.5 26C32.5751 26 37.5 21.0751 37.5 15C37.5 8.92487 32.5751 4 26.5 4C20.4249 4 15.5 8.92487 15.5 15C15.5 21.0751 20.4249 26 26.5 26Z" fill="white"/>
<path d="M19.3269 19.6V10.8727H21.1721V14.4736H24.9178V10.8727H26.7587V19.6H24.9178V15.9949H21.1721V19.6H19.3269ZM31.4547 19.7193C30.8184 19.7193 30.2516 19.6099 29.7544 19.3912C29.2601 19.1696 28.8695 18.8656 28.5826 18.4793C28.2985 18.0901 28.1522 17.6412 28.1436 17.1327H30.0016C30.013 17.3457 30.0826 17.5332 30.2104 17.6952C30.3411 17.8543 30.5144 17.9778 30.7303 18.0659C30.9462 18.154 31.1891 18.198 31.459 18.198C31.7402 18.198 31.9888 18.1483 32.2047 18.0489C32.4206 17.9494 32.5897 17.8117 32.7118 17.6355C32.834 17.4594 32.8951 17.2563 32.8951 17.0261C32.8951 16.7932 32.8297 16.5872 32.699 16.4082C32.5712 16.2264 32.3865 16.0844 32.1451 15.9821C31.9064 15.8798 31.6223 15.8287 31.2928 15.8287H30.4789V14.4736H31.2928C31.5712 14.4736 31.8169 14.4253 32.03 14.3287C32.2459 14.2321 32.4135 14.0986 32.5328 13.9281C32.6522 13.7548 32.7118 13.5531 32.7118 13.323C32.7118 13.1043 32.6593 12.9125 32.5542 12.7477C32.4519 12.5801 32.307 12.4494 32.1195 12.3557C31.9348 12.2619 31.7189 12.2151 31.4718 12.2151C31.2218 12.2151 30.9931 12.2605 30.7857 12.3514C30.5783 12.4395 30.4121 12.5659 30.2871 12.7307C30.1621 12.8955 30.0953 13.0886 30.0868 13.3102H28.3184C28.3269 12.8074 28.4703 12.3642 28.7488 11.9807C29.0272 11.5972 29.4022 11.2974 29.8738 11.0815C30.3482 10.8628 30.8837 10.7534 31.4803 10.7534C32.0826 10.7534 32.6096 10.8628 33.0613 11.0815C33.513 11.3003 33.8638 11.5957 34.1138 11.9679C34.3667 12.3372 34.4917 12.752 34.4888 13.2122C34.4917 13.7009 34.3397 14.1085 34.0328 14.4352C33.7289 14.7619 33.3326 14.9693 32.8439 15.0574V15.1256C33.486 15.208 33.9746 15.431 34.3098 15.7946C34.6479 16.1554 34.8155 16.6071 34.8127 17.1497C34.8155 17.6469 34.6721 18.0886 34.3823 18.475C34.0953 18.8614 33.699 19.1653 33.1934 19.3869C32.6877 19.6085 32.1081 19.7193 31.4547 19.7193Z" fill="#FF2F48"/>
</g>
<defs>
<clipPath id="clip0_1_1098">
<rect width="55" height="40" fill="white"/>
</clipPath>
</defs>
</svg>
