<svg width="40" height="26" viewBox="0 0 40 26" fill="none" xmlns="http://www.w3.org/2000/svg">
<g clip-path="url(#clip0_1_1742)">
<path d="M19.35 25.31C19.2744 25.2387 19.1668 25.1356 19.03 25.0021C18.7165 24.6961 18.3667 24.3433 17.9895 23.9487C16.9119 22.8212 15.8357 21.5899 14.8315 20.2935C13.0555 18.0008 11.7167 15.7791 10.9529 13.7065C10.4864 12.4407 10.25 11.2671 10.25 10.1901C10.25 4.58385 14.1781 0.649994 19.35 0.649994C24.5219 0.649994 28.45 4.58385 28.45 10.1901C28.45 11.2671 28.2137 12.4407 27.7471 13.7065C26.9833 15.7791 25.6445 18.0008 23.8685 20.2935C22.8643 21.5899 21.7881 22.8212 20.7104 23.9487C20.3333 24.3433 19.9835 24.6961 19.6699 25.0021C19.5332 25.1356 19.4255 25.2387 19.35 25.31Z" fill="#FFC266" stroke="#FFC266" stroke-width="1.3"/>
<path d="M19.35 14.95C22.2219 14.95 24.55 12.6219 24.55 9.75C24.55 6.87812 22.2219 4.55 19.35 4.55C16.4781 4.55 14.15 6.87812 14.15 9.75C14.15 12.6219 16.4781 14.95 19.35 14.95Z" fill="white"/>
</g>
<defs>
<clipPath id="clip0_1_1742">
<rect width="40" height="26" fill="white"/>
</clipPath>
</defs>
</svg>
