<svg width="40" height="26" viewBox="0 0 40 26" fill="none" xmlns="http://www.w3.org/2000/svg">
<g clip-path="url(#clip0_1_2304)">
<path d="M19.35 25.31C19.2744 25.2387 19.1668 25.1357 19.03 25.0021C18.7165 24.6961 18.3667 24.3433 17.9895 23.9488C16.9119 22.8213 15.8357 21.5899 14.8315 20.2935C13.0555 18.0009 11.7167 15.7792 10.9529 13.7066C10.4864 12.4407 10.25 11.2672 10.25 10.1901C10.25 4.58388 14.1781 0.650024 19.35 0.650024C24.5219 0.650024 28.45 4.58388 28.45 10.1901C28.45 11.2672 28.2137 12.4407 27.7471 13.7066C26.9833 15.7792 25.6445 18.0009 23.8685 20.2935C22.8643 21.5899 21.7881 22.8213 20.7104 23.9488C20.3333 24.3433 19.9835 24.6961 19.6699 25.0021C19.5332 25.1357 19.4255 25.2387 19.35 25.31Z" fill="#FFC266" stroke="#FFC266" stroke-width="1.3"/>
<path d="M19.35 16.9C23.2988 16.9 26.5 13.6988 26.5 9.74998C26.5 5.80114 23.2988 2.59998 19.35 2.59998C15.4011 2.59998 12.2 5.80114 12.2 9.74998C12.2 13.6988 15.4011 16.9 19.35 16.9Z" fill="white"/>
<path d="M13.7036 6.26728H15.1827L16.7449 10.0786H16.8114L18.3736 6.26728H19.8527V11.94H18.6894V8.24774H18.6423L17.1742 11.9123H16.382L14.914 8.23389H14.8669V11.94H13.7036V6.26728ZM22.9044 12.0176C22.4908 12.0176 22.1224 11.9465 21.7992 11.8043C21.4779 11.6602 21.224 11.4627 21.0375 11.2115C20.8529 10.9585 20.7578 10.6668 20.7522 10.3362H21.9599C21.9673 10.4747 22.0125 10.5966 22.0956 10.7019C22.1806 10.8053 22.2932 10.8856 22.4336 10.9428C22.5739 11.0001 22.7318 11.0287 22.9072 11.0287C23.09 11.0287 23.2516 10.9964 23.3919 10.9318C23.5323 10.8671 23.6421 10.7776 23.7215 10.6631C23.801 10.5486 23.8407 10.4166 23.8407 10.267C23.8407 10.1156 23.7982 9.98169 23.7132 9.86536C23.6301 9.74718 23.5101 9.65485 23.3532 9.58837C23.198 9.52189 23.0134 9.48865 22.7992 9.48865H22.2701V8.60783H22.7992C22.9801 8.60783 23.1399 8.57644 23.2784 8.51365C23.4187 8.45087 23.5277 8.36408 23.6052 8.25328C23.6828 8.14064 23.7215 8.00953 23.7215 7.85996C23.7215 7.71777 23.6874 7.59313 23.6191 7.48603C23.5526 7.37708 23.4584 7.29213 23.3365 7.2312C23.2165 7.17026 23.0762 7.13979 22.9155 7.13979C22.753 7.13979 22.6044 7.16933 22.4696 7.22843C22.3348 7.28567 22.2267 7.36784 22.1455 7.47495C22.0642 7.58205 22.0208 7.70762 22.0153 7.85165H20.8658C20.8713 7.5248 20.9646 7.23674 21.1456 6.98745C21.3265 6.73816 21.5703 6.54334 21.8768 6.403C22.1852 6.26081 22.5333 6.18972 22.9211 6.18972C23.3125 6.18972 23.6551 6.26081 23.9487 6.403C24.2423 6.54519 24.4703 6.73723 24.6328 6.97914C24.7972 7.21919 24.8784 7.4888 24.8766 7.78794C24.8784 8.10556 24.7796 8.37054 24.5802 8.5829C24.3826 8.79526 24.125 8.93006 23.8074 8.9873V9.03162C24.2247 9.08517 24.5424 9.23013 24.7603 9.46649C24.98 9.70101 25.0889 9.99462 25.0871 10.3473C25.0889 10.6705 24.9957 10.9576 24.8073 11.2088C24.6208 11.4599 24.3632 11.6575 24.0345 11.8015C23.7059 11.9455 23.3291 12.0176 22.9044 12.0176Z" fill="#FFC266"/>
</g>
<defs>
<clipPath id="clip0_1_2304">
<rect width="40" height="26" fill="white"/>
</clipPath>
</defs>
</svg>
