<svg width="40" height="26" viewBox="0 0 40 26" fill="none" xmlns="http://www.w3.org/2000/svg">
<g clip-path="url(#clip0_1_1805)">
<path d="M19.35 25.31C19.2744 25.2387 19.1668 25.1356 19.03 25.0021C18.7165 24.6961 18.3667 24.3433 17.9895 23.9487C16.9119 22.8212 15.8357 21.5899 14.8315 20.2935C13.0555 18.0008 11.7167 15.7791 10.9529 13.7065C10.4864 12.4407 10.25 11.2671 10.25 10.1901C10.25 4.58385 14.1781 0.649994 19.35 0.649994C24.5219 0.649994 28.45 4.58385 28.45 10.1901C28.45 11.2671 28.2137 12.4407 27.7471 13.7065C26.9833 15.7791 25.6445 18.0008 23.8685 20.2935C22.8643 21.5899 21.7881 22.8212 20.7104 23.9487C20.3333 24.3433 19.9835 24.6961 19.6699 25.0021C19.5332 25.1356 19.4255 25.2387 19.35 25.31Z" fill="#FFC266" stroke="#FFC266" stroke-width="1.3"/>
<path d="M19.35 16.9C23.2988 16.9 26.5 13.6988 26.5 9.75001C26.5 5.80117 23.2988 2.60001 19.35 2.60001C15.4012 2.60001 12.2 5.80117 12.2 9.75001C12.2 13.6988 15.4012 16.9 19.35 16.9Z" fill="white"/>
<path d="M14.0125 11.94V6.26728H15.2118V8.60783H17.6466V6.26728H18.8432V11.94H17.6466V9.59668H15.2118V11.94H14.0125ZM21.8956 12.0176C21.4819 12.0176 21.1135 11.9465 20.7904 11.8043C20.4691 11.6602 20.2152 11.4627 20.0287 11.2115C19.844 10.9585 19.7489 10.6668 19.7434 10.3362H20.951C20.9584 10.4747 21.0037 10.5966 21.0868 10.7019C21.1717 10.8053 21.2843 10.8856 21.4247 10.9428C21.565 11.0001 21.7229 11.0287 21.8983 11.0287C22.0812 11.0287 22.2427 10.9964 22.3831 10.9318C22.5234 10.8671 22.6333 10.7776 22.7127 10.6631C22.7921 10.5486 22.8318 10.4166 22.8318 10.267C22.8318 10.1156 22.7893 9.98169 22.7044 9.86536C22.6213 9.74718 22.5013 9.65485 22.3443 9.58837C22.1892 9.52189 22.0045 9.48865 21.7903 9.48865H21.2613V8.60783H21.7903C21.9713 8.60783 22.131 8.57644 22.2695 8.51365C22.4098 8.45087 22.5188 8.36408 22.5964 8.25328C22.6739 8.14064 22.7127 8.00953 22.7127 7.85996C22.7127 7.71777 22.6785 7.59313 22.6102 7.48603C22.5437 7.37708 22.4495 7.29213 22.3277 7.2312C22.2076 7.17026 22.0673 7.13979 21.9066 7.13979C21.7441 7.13979 21.5955 7.16933 21.4607 7.22843C21.3259 7.28567 21.2179 7.36784 21.1366 7.47495C21.0554 7.58205 21.012 7.70762 21.0064 7.85165H19.8569C19.8625 7.5248 19.9557 7.23674 20.1367 6.98745C20.3177 6.73816 20.5614 6.54334 20.8679 6.403C21.1763 6.26081 21.5244 6.18972 21.9122 6.18972C22.3037 6.18972 22.6462 6.26081 22.9398 6.403C23.2334 6.54519 23.4615 6.73723 23.624 6.97914C23.7883 7.21919 23.8696 7.4888 23.8677 7.78794C23.8696 8.10556 23.7708 8.37054 23.5714 8.5829C23.3738 8.79526 23.1162 8.93006 22.7986 8.9873V9.03162C23.2159 9.08517 23.5335 9.23013 23.7514 9.46649C23.9711 9.70101 24.0801 9.99462 24.0782 10.3473C24.0801 10.6705 23.9868 10.9576 23.7985 11.2088C23.612 11.4599 23.3544 11.6575 23.0257 11.8015C22.697 11.9455 22.3203 12.0176 21.8956 12.0176Z" fill="#FFC266"/>
</g>
<defs>
<clipPath id="clip0_1_1805">
<rect width="40" height="26" fill="white"/>
</clipPath>
</defs>
</svg>
