<svg width="40" height="26" viewBox="0 0 40 26" fill="none" xmlns="http://www.w3.org/2000/svg">
<g clip-path="url(#clip0_1_2372)">
<path d="M19.35 25.31C19.2744 25.2387 19.1668 25.1357 19.03 25.0021C18.7165 24.6961 18.3667 24.3433 17.9895 23.9488C16.9119 22.8213 15.8357 21.5899 14.8315 20.2935C13.0555 18.0009 11.7167 15.7792 10.9529 13.7066C10.4864 12.4407 10.25 11.2672 10.25 10.1901C10.25 4.58388 14.1781 0.650024 19.35 0.650024C24.5219 0.650024 28.45 4.58388 28.45 10.1901C28.45 11.2672 28.2137 12.4407 27.7471 13.7066C26.9833 15.7792 25.6445 18.0009 23.8685 20.2935C22.8643 21.5899 21.7881 22.8213 20.7104 23.9488C20.3333 24.3433 19.9835 24.6961 19.6699 25.0021C19.5332 25.1357 19.4255 25.2387 19.35 25.31Z" fill="#FFC266" stroke="#FFC266" stroke-width="1.3"/>
<path d="M19.35 16.9C23.2988 16.9 26.5 13.6988 26.5 9.74998C26.5 5.80114 23.2988 2.59998 19.35 2.59998C15.4012 2.59998 12.2 5.80114 12.2 9.74998C12.2 13.6988 15.4012 16.9 19.35 16.9Z" fill="white"/>
<path d="M16.6837 11.94V6.26728H18.9217C19.3501 6.26728 19.7158 6.34391 20.0186 6.49718C20.3233 6.6486 20.555 6.86372 20.7138 7.14256C20.8745 7.41955 20.9548 7.74547 20.9548 8.12033C20.9548 8.49703 20.8736 8.82111 20.7111 9.09256C20.5486 9.36216 20.3131 9.56898 20.0048 9.71301C19.6982 9.85705 19.3271 9.92907 18.8913 9.92907H17.3928V8.96514H18.6974C18.9263 8.96514 19.1165 8.93375 19.268 8.87097C19.4194 8.80818 19.532 8.71401 19.6059 8.58844C19.6816 8.46287 19.7195 8.30683 19.7195 8.12033C19.7195 7.93198 19.6816 7.77317 19.6059 7.64391C19.532 7.51465 19.4185 7.41678 19.2652 7.3503C19.1138 7.28198 18.9227 7.24782 18.6918 7.24782H17.883V11.94H16.6837ZM19.7472 9.35847L21.157 11.94H19.833L18.4536 9.35847H19.7472Z" fill="#FFC266"/>
</g>
<defs>
<clipPath id="clip0_1_2372">
<rect width="40" height="26" fill="white"/>
</clipPath>
</defs>
</svg>
