<svg width="40" height="36" viewBox="0 0 20 20" fill="none" xmlns="http://www.w3.org/2000/svg">
<path d="M10 18.8365C9.94754 18.7875 9.87729 18.7211 9.79072 18.6379C9.56598 18.422 9.31513 18.173 9.0446 17.8944C8.27172 17.0984 7.49996 16.2291 6.77993 15.3141C5.50631 13.6957 4.54787 12.1294 4.00168 10.6704C3.66816 9.77948 3.5 8.95578 3.5 8.20166C3.5 4.26818 6.29899 1.5 10 1.5C13.701 1.5 16.5 4.26818 16.5 8.20166C16.5 8.95578 16.3318 9.77948 15.9983 10.6704C15.4521 12.1294 14.4937 13.6957 13.2201 15.3141C12.5 16.2291 11.7283 17.0984 10.9554 17.8944C10.6849 18.173 10.434 18.422 10.2093 18.6379C10.1227 18.7211 10.0525 18.7875 10 18.8365Z" fill="#ffc266" stroke="#ffc266"/>
<path d="M10 13C7.23858 13 5 10.7614 5 8C5 5.23858 7.23858 3 10 3C12.7614 3 15 5.23858 15 8C15 10.7614 12.7614 13 10 13Z" fill="white"/>
<path d="M8.99099 11C8.85199 11 8.72158 10.9877 8.59974 10.9631C8.47962 10.9403 8.38009 10.911 8.30116 10.875L8.54826 9.97159C8.67696 10.0152 8.79279 10.0388 8.89575 10.0426C9.00043 10.0464 9.09052 10.0199 9.16602 9.96307C9.24324 9.90625 9.30588 9.80966 9.35393 9.67329L9.41828 9.48864L8 5H9.15315L9.97169 8.20455H10.0129L10.8391 5H12L10.4633 9.83523C10.3895 10.0701 10.2891 10.2746 10.1622 10.4489C10.0369 10.625 9.87816 10.7604 9.68597 10.8551C9.49378 10.9517 9.26212 11 8.99099 11Z" fill="#ffc266"/>
</svg>
