<svg width="60" height="45" viewBox="0 0 24 24" fill="none" xmlns="http://www.w3.org/2000/svg">
<path d="M12.3393 23.8673C12.1477 24.0442 11.8523 24.0442 11.6607 23.8673C11.591 23.8029 11.4632 23.6817 11.2855 23.5082C10.991 23.2206 10.6632 22.8901 10.3104 22.521C9.3031 21.4672 8.29584 20.3148 7.35472 19.0999C5.69338 16.9552 4.41934 14.8501 3.68582 12.8597C3.23702 11.6418 3 10.4874 3 9.40625C3 3.9195 6.87528 0 12 0C17.1247 0 21 3.9195 21 9.40625C21 10.4874 20.763 11.6418 20.3142 12.8597C19.5807 14.8501 18.3066 16.9552 16.6453 19.0999C15.7042 20.3148 14.6969 21.4672 13.6896 22.521C13.3368 22.8901 13.009 23.2206 12.7145 23.5082C12.5368 23.6817 12.409 23.8029 12.3393 23.8673Z" fill="#FF9900"/>
<path d="M12 13C9.23858 13 7 10.7614 7 8C7 5.23858 9.23858 3 12 3C14.7614 3 17 5.23858 17 8C17 10.7614 14.7614 13 12 13Z" fill="white"/>
</svg>
