<svg width="40" height="26" viewBox="0 0 40 26" fill="none" xmlns="http://www.w3.org/2000/svg">
<g clip-path="url(#clip0_1_2464)">
<path d="M19.35 25.31C19.2744 25.2387 19.1668 25.1357 19.03 25.0021C18.7165 24.6961 18.3667 24.3433 17.9895 23.9488C16.9119 22.8213 15.8357 21.5899 14.8315 20.2935C13.0555 18.0009 11.7167 15.7792 10.9529 13.7066C10.4864 12.4407 10.25 11.2672 10.25 10.1901C10.25 4.58388 14.1781 0.650024 19.35 0.650024C24.5219 0.650024 28.45 4.58388 28.45 10.1901C28.45 11.2672 28.2137 12.4407 27.7471 13.7066C26.9833 15.7792 25.6445 18.0009 23.8685 20.2935C22.8643 21.5899 21.7881 22.8213 20.7104 23.9488C20.3333 24.3433 19.9835 24.6961 19.6699 25.0021C19.5332 25.1357 19.4255 25.2387 19.35 25.31Z" fill="#FFC266" stroke="#FFC266" stroke-width="1.3"/>
<path d="M19.35 16.9C23.2988 16.9 26.5 13.6988 26.5 9.74998C26.5 5.80114 23.2988 2.59998 19.35 2.59998C15.4012 2.59998 12.2 5.80114 12.2 9.74998C12.2 13.6988 15.4012 16.9 19.35 16.9Z" fill="white"/>
<path d="M14.3582 11.94L12.7351 6.26728H14.0452L14.9842 10.2088H15.0313L16.0673 6.26728H17.1891L18.2222 10.2171H18.2721L19.2111 6.26728H20.5212L18.8981 11.94H17.7292L16.6489 8.23112H16.6046L15.5271 11.94H14.3582ZM23.2267 12.0176C22.8131 12.0176 22.4447 11.9465 22.1215 11.8043C21.8002 11.6602 21.5463 11.4627 21.3598 11.2115C21.1752 10.9585 21.0801 10.6668 21.0745 10.3362H22.2822C22.2896 10.4747 22.3348 10.5966 22.4179 10.7019C22.5029 10.8053 22.6155 10.8856 22.7558 10.9428C22.8962 11.0001 23.0541 11.0287 23.2295 11.0287C23.4123 11.0287 23.5739 10.9964 23.7142 10.9318C23.8546 10.8671 23.9644 10.7776 24.0438 10.6631C24.1232 10.5486 24.1629 10.4166 24.1629 10.267C24.1629 10.1156 24.1205 9.98169 24.0355 9.86536C23.9524 9.74718 23.8324 9.65485 23.6754 9.58837C23.5203 9.52189 23.3357 9.48865 23.1215 9.48865H22.5924V8.60783H23.1215C23.3024 8.60783 23.4622 8.57644 23.6007 8.51365C23.741 8.45087 23.8499 8.36408 23.9275 8.25328C24.0051 8.14064 24.0438 8.00953 24.0438 7.85996C24.0438 7.71777 24.0097 7.59313 23.9414 7.48603C23.8749 7.37708 23.7807 7.29213 23.6588 7.2312C23.5388 7.17026 23.3985 7.13979 23.2378 7.13979C23.0753 7.13979 22.9267 7.16933 22.7919 7.22843C22.6571 7.28567 22.549 7.36784 22.4678 7.47495C22.3865 7.58205 22.3431 7.70762 22.3376 7.85165H21.1881C21.1936 7.5248 21.2869 7.23674 21.4678 6.98745C21.6488 6.73816 21.8926 6.54334 22.1991 6.403C22.5075 6.26081 22.8556 6.18972 23.2433 6.18972C23.6348 6.18972 23.9774 6.26081 24.271 6.403C24.5646 6.54519 24.7926 6.73723 24.9551 6.97914C25.1195 7.21919 25.2007 7.4888 25.1989 7.78794C25.2007 8.10556 25.1019 8.37054 24.9025 8.5829C24.7049 8.79526 24.4473 8.93006 24.1297 8.9873V9.03162C24.547 9.08517 24.8646 9.23013 25.0825 9.46649C25.3023 9.70101 25.4112 9.99462 25.4094 10.3473C25.4112 10.6705 25.318 10.9576 25.1296 11.2088C24.9431 11.4599 24.6855 11.6575 24.3568 11.8015C24.0281 11.9455 23.6514 12.0176 23.2267 12.0176Z" fill="#FFC266"/>
</g>
<defs>
<clipPath id="clip0_1_2464">
<rect width="40" height="26" fill="white"/>
</clipPath>
</defs>
</svg>
