<svg width="55" height="40" viewBox="0 0 55 40" fill="none" xmlns="http://www.w3.org/2000/svg">
<g clip-path="url(#clip0_1_2156)">
<path d="M26.5 38.9384C26.3838 38.8288 26.2181 38.6702 26.0077 38.4648C25.5254 37.994 24.9873 37.4512 24.4069 36.8442C22.7491 35.1096 21.0934 33.2152 19.5484 31.2208C16.8162 27.6936 14.7564 24.2756 13.5814 21.087C12.8637 19.1395 12.5 17.3341 12.5 15.6771C12.5 7.05208 18.5432 1 26.5 1C34.4568 1 40.5 7.05208 40.5 15.6771C40.5 17.3341 40.1364 19.1395 39.4186 21.087C38.2436 24.2756 36.1838 27.6936 33.4516 31.2208C31.9066 33.2152 30.251 35.1096 28.593 36.8442C28.0128 37.4512 27.4746 37.994 26.9922 38.4648C26.7818 38.6702 26.6162 38.8288 26.5 38.9384Z" fill="#FF9900" stroke="#FF9900" stroke-width="2"/>
<path d="M26.5 26C32.5751 26 37.5 21.0751 37.5 15C37.5 8.92487 32.5751 4 26.5 4C20.4249 4 15.5 8.92487 15.5 15C15.5 21.0751 20.4249 26 26.5 26Z" fill="white"/>
<path d="M21.0676 10.8727L23.177 17.5034H23.258L25.3716 10.8727H27.4171L24.4086 19.6H22.0307L19.0179 10.8727H21.0676ZM28.4164 19.6V18.2705L31.5229 15.394C31.7871 15.1384 32.0087 14.9082 32.1877 14.7037C32.3695 14.4992 32.5073 14.2989 32.601 14.1028C32.6948 13.904 32.7417 13.6895 32.7417 13.4594C32.7417 13.2037 32.6834 12.9835 32.5669 12.7989C32.4505 12.6114 32.2914 12.4679 32.0897 12.3685C31.888 12.2662 31.6593 12.2151 31.4036 12.2151C31.1365 12.2151 30.9036 12.269 30.7047 12.377C30.5059 12.4849 30.3525 12.6398 30.2445 12.8415C30.1365 13.0432 30.0826 13.2832 30.0826 13.5617H28.3311C28.3311 12.9906 28.4604 12.4949 28.7189 12.0744C28.9775 11.654 29.3397 11.3287 29.8056 11.0986C30.2715 10.8685 30.8084 10.7534 31.4164 10.7534C32.0414 10.7534 32.5854 10.8642 33.0485 11.0858C33.5144 11.3046 33.8766 11.6085 34.1351 11.9977C34.3936 12.3869 34.5229 12.833 34.5229 13.3358C34.5229 13.6653 34.4576 13.9906 34.3269 14.3117C34.199 14.6327 33.9703 14.9892 33.6408 15.3813C33.3113 15.7705 32.8468 16.2378 32.2473 16.7832L30.9732 18.0318V18.0915H34.638V19.6H28.4164Z" fill="#FF9900"/>
</g>
<defs>
<clipPath id="clip0_1_2156">
<rect width="55" height="40" fill="white"/>
</clipPath>
</defs>
</svg>
