<svg width="40" height="26" viewBox="0 0 40 26" fill="none" xmlns="http://www.w3.org/2000/svg">
<g clip-path="url(#clip0_1_1710)">
<path d="M19.35 25.31C19.2744 25.2387 19.1668 25.1356 19.03 25.0021C18.7165 24.6961 18.3667 24.3433 17.9895 23.9487C16.9119 22.8212 15.8357 21.5899 14.8315 20.2935C13.0555 18.0008 11.7167 15.7791 10.9529 13.7065C10.4864 12.4407 10.25 11.2671 10.25 10.1901C10.25 4.58385 14.1781 0.649994 19.35 0.649994C24.5219 0.649994 28.45 4.58385 28.45 10.1901C28.45 11.2671 28.2137 12.4407 27.7471 13.7065C26.9833 15.7791 25.6445 18.0008 23.8685 20.2935C22.8643 21.5899 21.7881 22.8212 20.7104 23.9487C20.3333 24.3433 19.9835 24.6961 19.6699 25.0021C19.5332 25.1356 19.4255 25.2387 19.35 25.31Z" fill="#FFC266" stroke="#FFC266" stroke-width="1.3"/>
<path d="M19.35 16.9C23.2988 16.9 26.5 13.6988 26.5 9.75001C26.5 5.80117 23.2988 2.60001 19.35 2.60001C15.4012 2.60001 12.2 5.80117 12.2 9.75001C12.2 13.6988 15.4012 16.9 19.35 16.9Z" fill="white"/>
<path d="M21.6656 8.25328H20.4524C20.4302 8.09632 20.385 7.95691 20.3166 7.83503C20.2483 7.71131 20.1606 7.60605 20.0535 7.51926C19.9464 7.43247 19.8227 7.366 19.6823 7.31983C19.5438 7.27367 19.3934 7.25059 19.2309 7.25059C18.9372 7.25059 18.6815 7.32353 18.4636 7.46941C18.2457 7.61344 18.0767 7.82395 17.9567 8.10094C17.8367 8.37608 17.7767 8.71031 17.7767 9.10364C17.7767 9.50804 17.8367 9.84781 17.9567 10.123C18.0786 10.3981 18.2485 10.6058 18.4664 10.7462C18.6843 10.8865 18.9363 10.9567 19.2225 10.9567C19.3832 10.9567 19.5318 10.9355 19.6685 10.893C19.807 10.8505 19.9298 10.7887 20.0369 10.7074C20.144 10.6243 20.2326 10.5237 20.3028 10.4055C20.3748 10.2873 20.4247 10.1525 20.4524 10.0011L21.6656 10.0066C21.6342 10.267 21.5557 10.5181 21.4301 10.76C21.3064 11.0001 21.1393 11.2152 20.9288 11.4054C20.7201 11.5938 20.4708 11.7433 20.1809 11.8541C19.8929 11.9631 19.5669 12.0176 19.2032 12.0176C18.6972 12.0176 18.2448 11.9031 17.8459 11.6741C17.4489 11.4451 17.135 11.1137 16.9041 10.6797C16.6752 10.2458 16.5607 9.7204 16.5607 9.10364C16.5607 8.48503 16.677 7.95875 16.9097 7.5248C17.1424 7.09085 17.4581 6.76031 17.857 6.53318C18.2559 6.30421 18.7046 6.18972 19.2032 6.18972C19.5318 6.18972 19.8365 6.23588 20.1172 6.32821C20.3997 6.42054 20.65 6.55534 20.8679 6.73262C21.0858 6.90804 21.263 7.12317 21.3997 7.378C21.5382 7.63283 21.6268 7.92459 21.6656 8.25328Z" fill="#FFC266"/>
</g>
<defs>
<clipPath id="clip0_1_1710">
<rect width="40" height="26" fill="white"/>
</clipPath>
</defs>
</svg>
