<svg width="40" height="26" viewBox="0 0 40 26" fill="none" xmlns="http://www.w3.org/2000/svg">
<g clip-path="url(#clip0_1_2288)">
<path d="M19.35 25.31C19.2744 25.2387 19.1668 25.1357 19.03 25.0021C18.7165 24.6961 18.3667 24.3433 17.9895 23.9488C16.9119 22.8213 15.8357 21.5899 14.8315 20.2935C13.0555 18.0009 11.7167 15.7792 10.9529 13.7066C10.4864 12.4407 10.25 11.2672 10.25 10.1901C10.25 4.58388 14.1781 0.650024 19.35 0.650024C24.5219 0.650024 28.45 4.58388 28.45 10.1901C28.45 11.2672 28.2137 12.4407 27.7471 13.7066C26.9833 15.7792 25.6445 18.0009 23.8685 20.2935C22.8643 21.5899 21.7881 22.8213 20.7104 23.9488C20.3333 24.3433 19.9835 24.6961 19.6699 25.0021C19.5332 25.1357 19.4255 25.2387 19.35 25.31Z" fill="#FFC266" stroke="#FFC266" stroke-width="1.3"/>
<path d="M19.35 16.9C23.2988 16.9 26.5 13.6988 26.5 9.74998C26.5 5.80114 23.2988 2.59998 19.35 2.59998C15.4011 2.59998 12.2 5.80114 12.2 9.74998C12.2 13.6988 15.4011 16.9 19.35 16.9Z" fill="white"/>
<path d="M14.8595 11.94V6.26728H16.0588V10.9512H18.4908V11.94H14.8595ZM21.3486 12.0176C20.935 12.0176 20.5666 11.9465 20.2434 11.8043C19.9221 11.6602 19.6682 11.4627 19.4817 11.2115C19.2971 10.9585 19.202 10.6668 19.1964 10.3362H20.4041C20.4115 10.4747 20.4567 10.5966 20.5398 10.7019C20.6248 10.8053 20.7374 10.8856 20.8777 10.9428C21.0181 11.0001 21.176 11.0287 21.3514 11.0287C21.5342 11.0287 21.6958 10.9964 21.8361 10.9318C21.9765 10.8671 22.0863 10.7776 22.1657 10.6631C22.2451 10.5486 22.2848 10.4166 22.2848 10.267C22.2848 10.1156 22.2424 9.98169 22.1574 9.86536C22.0743 9.74718 21.9543 9.65485 21.7973 9.58837C21.6422 9.52189 21.4576 9.48865 21.2434 9.48865H20.7143V8.60783H21.2434C21.4243 8.60783 21.5841 8.57644 21.7226 8.51365C21.8629 8.45087 21.9718 8.36408 22.0494 8.25328C22.127 8.14064 22.1657 8.00953 22.1657 7.85996C22.1657 7.71777 22.1316 7.59313 22.0633 7.48603C21.9968 7.37708 21.9026 7.29213 21.7807 7.2312C21.6607 7.17026 21.5204 7.13979 21.3597 7.13979C21.1972 7.13979 21.0486 7.16933 20.9137 7.22843C20.7789 7.28567 20.6709 7.36784 20.5897 7.47495C20.5084 7.58205 20.465 7.70762 20.4595 7.85165H19.31C19.3155 7.5248 19.4088 7.23674 19.5897 6.98745C19.7707 6.73816 20.0145 6.54334 20.321 6.403C20.6294 6.26081 20.9775 6.18972 21.3652 6.18972C21.7567 6.18972 22.0993 6.26081 22.3929 6.403C22.6865 6.54519 22.9145 6.73723 23.077 6.97914C23.2414 7.21919 23.3226 7.4888 23.3208 7.78794C23.3226 8.10556 23.2238 8.37054 23.0244 8.5829C22.8268 8.79526 22.5692 8.93006 22.2516 8.9873V9.03162C22.6689 9.08517 22.9865 9.23013 23.2044 9.46649C23.4242 9.70101 23.5331 9.99462 23.5313 10.3473C23.5331 10.6705 23.4399 10.9576 23.2515 11.2088C23.065 11.4599 22.8074 11.6575 22.4787 11.8015C22.15 11.9455 21.7733 12.0176 21.3486 12.0176Z" fill="#FFC266"/>
</g>
<defs>
<clipPath id="clip0_1_2288">
<rect width="40" height="26" fill="white"/>
</clipPath>
</defs>
</svg>
