<svg width="40" height="26" viewBox="0 0 40 26" fill="none" xmlns="http://www.w3.org/2000/svg">
<g clip-path="url(#clip0_1_1726)">
<path d="M19.35 25.31C19.2744 25.2387 19.1668 25.1356 19.03 25.0021C18.7165 24.6961 18.3667 24.3433 17.9895 23.9487C16.9119 22.8212 15.8357 21.5899 14.8315 20.2935C13.0555 18.0008 11.7167 15.7791 10.9529 13.7065C10.4864 12.4407 10.25 11.2671 10.25 10.1901C10.25 4.58385 14.1781 0.649994 19.35 0.649994C24.5219 0.649994 28.45 4.58385 28.45 10.1901C28.45 11.2671 28.2137 12.4407 27.7471 13.7065C26.9833 15.7791 25.6445 18.0008 23.8685 20.2935C22.8643 21.5899 21.7881 22.8212 20.7104 23.9487C20.3333 24.3433 19.9835 24.6961 19.6699 25.0021C19.5332 25.1356 19.4255 25.2387 19.35 25.31Z" fill="#FFC266" stroke="#FFC266" stroke-width="1.3"/>
<path d="M19.35 16.9C23.2988 16.9 26.5 13.6988 26.5 9.75001C26.5 5.80117 23.2988 2.60001 19.35 2.60001C15.4012 2.60001 12.2 5.80117 12.2 9.75001C12.2 13.6988 15.4012 16.9 19.35 16.9Z" fill="white"/>
<path d="M18.7666 11.94H16.7556V6.26728H18.7832C19.3538 6.26728 19.845 6.38084 20.2568 6.60797C20.6686 6.83326 20.9853 7.15733 21.2069 7.5802C21.4303 8.00307 21.542 8.50904 21.542 9.0981C21.542 9.68901 21.4303 10.1968 21.2069 10.6215C20.9853 11.0463 20.6667 11.3722 20.2512 11.5993C19.8376 11.8264 19.3427 11.94 18.7666 11.94ZM17.955 10.9124H18.7167C19.0713 10.9124 19.3695 10.8496 19.6114 10.724C19.8551 10.5966 20.038 10.3999 20.1598 10.134C20.2836 9.86628 20.3454 9.52097 20.3454 9.0981C20.3454 8.67892 20.2836 8.33638 20.1598 8.07047C20.038 7.80456 19.8561 7.60882 19.6142 7.48326C19.3723 7.35769 19.074 7.2949 18.7195 7.2949H17.955V10.9124Z" fill="#FFC266"/>
</g>
<defs>
<clipPath id="clip0_1_1726">
<rect width="40" height="26" fill="white"/>
</clipPath>
</defs>
</svg>
