<svg width="40" height="26" viewBox="0 0 40 26" fill="none" xmlns="http://www.w3.org/2000/svg">
<g clip-path="url(#clip0_1_2328)">
<path d="M19.35 25.31C19.2744 25.2387 19.1668 25.1357 19.03 25.0021C18.7165 24.6961 18.3667 24.3433 17.9895 23.9488C16.9119 22.8213 15.8357 21.5899 14.8315 20.2935C13.0555 18.0009 11.7167 15.7792 10.9529 13.7066C10.4864 12.4407 10.25 11.2672 10.25 10.1901C10.25 4.58388 14.1781 0.650024 19.35 0.650024C24.5219 0.650024 28.45 4.58388 28.45 10.1901C28.45 11.2672 28.2137 12.4407 27.7471 13.7066C26.9833 15.7792 25.6445 18.0009 23.8685 20.2935C22.8643 21.5899 21.7881 22.8213 20.7104 23.9488C20.3333 24.3433 19.9835 24.6961 19.6699 25.0021C19.5332 25.1357 19.4255 25.2387 19.35 25.31Z" fill="#FFC266" stroke="#FFC266" stroke-width="1.3"/>
<path d="M19.35 16.9C23.2988 16.9 26.5 13.6988 26.5 9.74998C26.5 5.80114 23.2988 2.59998 19.35 2.59998C15.4012 2.59998 12.2 5.80114 12.2 9.74998C12.2 13.6988 15.4012 16.9 19.35 16.9Z" fill="white"/>
<path d="M19.8972 9.10364C19.8972 9.72225 19.7799 10.2485 19.5454 10.6825C19.3128 11.1164 18.9951 11.4479 18.5926 11.6769C18.1919 11.904 17.7413 12.0176 17.2409 12.0176C16.7368 12.0176 16.2843 11.9031 15.8836 11.6741C15.4829 11.4451 15.1662 11.1137 14.9336 10.6797C14.7009 10.2458 14.5846 9.7204 14.5846 9.10364C14.5846 8.48503 14.7009 7.95875 14.9336 7.5248C15.1662 7.09085 15.4829 6.76031 15.8836 6.53318C16.2843 6.30421 16.7368 6.18972 17.2409 6.18972C17.7413 6.18972 18.1919 6.30421 18.5926 6.53318C18.9951 6.76031 19.3128 7.09085 19.5454 7.5248C19.7799 7.95875 19.8972 8.48503 19.8972 9.10364ZM18.6812 9.10364C18.6812 8.70293 18.6212 8.365 18.5012 8.08986C18.383 7.81472 18.2159 7.60605 17.9998 7.46387C17.7838 7.32168 17.5308 7.25059 17.2409 7.25059C16.951 7.25059 16.698 7.32168 16.4819 7.46387C16.2659 7.60605 16.0978 7.81472 15.9778 8.08986C15.8596 8.365 15.8005 8.70293 15.8005 9.10364C15.8005 9.50435 15.8596 9.84228 15.9778 10.1174C16.0978 10.3926 16.2659 10.6012 16.4819 10.7434C16.698 10.8856 16.951 10.9567 17.2409 10.9567C17.5308 10.9567 17.7838 10.8856 17.9998 10.7434C18.2159 10.6012 18.383 10.3926 18.5012 10.1174C18.6212 9.84228 18.6812 9.50435 18.6812 9.10364ZM23.2204 6.26728V11.94H22.021V7.4057H21.9878L20.6887 8.22005V7.15641L22.093 6.26728H23.2204Z" fill="#FFC266"/>
</g>
<defs>
<clipPath id="clip0_1_2328">
<rect width="40" height="26" fill="white"/>
</clipPath>
</defs>
</svg>
