<svg width="40" height="26" viewBox="0 0 40 26" fill="none" xmlns="http://www.w3.org/2000/svg">
<g clip-path="url(#clip0_1_2388)">
<path d="M19.35 25.31C19.2744 25.2387 19.1668 25.1357 19.03 25.0021C18.7165 24.6961 18.3667 24.3433 17.9895 23.9488C16.9119 22.8213 15.8357 21.5899 14.8315 20.2935C13.0555 18.0009 11.7167 15.7792 10.9529 13.7066C10.4864 12.4407 10.25 11.2672 10.25 10.1901C10.25 4.58388 14.1781 0.650024 19.35 0.650024C24.5219 0.650024 28.45 4.58388 28.45 10.1901C28.45 11.2672 28.2137 12.4407 27.7471 13.7066C26.9833 15.7792 25.6445 18.0009 23.8685 20.2935C22.8643 21.5899 21.7881 22.8213 20.7104 23.9488C20.3333 24.3433 19.9835 24.6961 19.6699 25.0021C19.5332 25.1357 19.4255 25.2387 19.35 25.31Z" fill="#FFC266" stroke="#FFC266" stroke-width="1.3"/>
<path d="M19.35 16.9C23.2988 16.9 26.5 13.6988 26.5 9.74998C26.5 5.80114 23.2988 2.59998 19.35 2.59998C15.4011 2.59998 12.2 5.80114 12.2 9.74998C12.2 13.6988 15.4011 16.9 19.35 16.9Z" fill="white"/>
<path d="M19.7648 7.89874C19.7427 7.6753 19.6476 7.50172 19.4795 7.378C19.3115 7.25428 19.0834 7.19242 18.7954 7.19242C18.5996 7.19242 18.4343 7.22012 18.2995 7.27551C18.1647 7.32907 18.0613 7.40385 17.9893 7.49987C17.9191 7.5959 17.8841 7.70485 17.8841 7.82672C17.8804 7.92828 17.9016 8.01692 17.9478 8.09263C17.9958 8.16834 18.0613 8.23389 18.1444 8.28929C18.2275 8.34284 18.3236 8.38993 18.4325 8.43056C18.5415 8.46933 18.6578 8.50257 18.7815 8.53027L19.2912 8.65215C19.5386 8.70755 19.7657 8.78141 19.9726 8.87374C20.1794 8.96607 20.3585 9.07963 20.5099 9.21443C20.6613 9.34924 20.7786 9.50804 20.8617 9.69085C20.9466 9.87367 20.99 10.0833 20.9919 10.3196C20.99 10.6668 20.9014 10.9678 20.726 11.2226C20.5524 11.4756 20.3013 11.6722 19.9726 11.8126C19.6457 11.9511 19.2515 12.0203 18.7898 12.0203C18.3319 12.0203 17.933 11.9502 17.5932 11.8098C17.2553 11.6695 16.9912 11.4617 16.801 11.1866C16.6127 10.9096 16.5139 10.5671 16.5047 10.159H17.6652C17.6782 10.3492 17.7326 10.508 17.8287 10.6354C17.9265 10.761 18.0567 10.8561 18.2192 10.9207C18.3836 10.9835 18.5691 11.0149 18.776 11.0149C18.9791 11.0149 19.1554 10.9853 19.305 10.9262C19.4564 10.8671 19.5737 10.785 19.6568 10.6797C19.7399 10.5744 19.7814 10.4535 19.7814 10.3168C19.7814 10.1894 19.7436 10.0823 19.6679 9.99554C19.594 9.90875 19.4851 9.83489 19.341 9.77395C19.1988 9.71301 19.0243 9.65762 18.8175 9.60776L18.1998 9.45264C17.7216 9.33631 17.3439 9.15442 17.0669 8.90698C16.79 8.65953 16.6524 8.32622 16.6542 7.90705C16.6524 7.56358 16.7438 7.26351 16.9285 7.00684C17.115 6.75016 17.3707 6.5498 17.6957 6.40577C18.0207 6.26174 18.39 6.18972 18.8037 6.18972C19.2247 6.18972 19.5922 6.26174 19.9061 6.40577C20.2218 6.5498 20.4674 6.75016 20.6429 7.00684C20.8183 7.26351 20.9088 7.56081 20.9143 7.89874H19.7648Z" fill="#FFC266"/>
</g>
<defs>
<clipPath id="clip0_1_2388">
<rect width="40" height="26" fill="white"/>
</clipPath>
</defs>
</svg>
