<svg width="55" height="40" viewBox="0 0 55 40" fill="none" xmlns="http://www.w3.org/2000/svg">
<g clip-path="url(#clip0_1_1956)">
<path d="M26.5 38.9384C26.3838 38.8288 26.2181 38.6702 26.0077 38.4648C25.5254 37.994 24.9873 37.4512 24.4069 36.8442C22.7491 35.1096 21.0934 33.2152 19.5484 31.2208C16.8162 27.6936 14.7564 24.2756 13.5814 21.087C12.8637 19.1395 12.5 17.3341 12.5 15.6771C12.5 7.05208 18.5432 1 26.5 1C34.4568 1 40.5 7.05208 40.5 15.6771C40.5 17.3341 40.1364 19.1395 39.4186 21.087C38.2436 24.2756 36.1838 27.6936 33.4516 31.2208C31.9066 33.2152 30.251 35.1096 28.593 36.8442C28.0128 37.4512 27.4746 37.994 26.9922 38.4648C26.7818 38.6702 26.6162 38.8288 26.5 38.9384Z" fill="#FF9900" stroke="#FF9900" stroke-width="2"/>
<path d="M26.5 26C32.5751 26 37.5 21.0751 37.5 15C37.5 8.92487 32.5751 4 26.5 4C20.4249 4 15.5 8.92487 15.5 15C15.5 21.0751 20.4249 26 26.5 26Z" fill="white"/>
<path d="M27.831 10.8727H29.6548V16.958C29.6548 17.5205 29.5284 18.0091 29.2756 18.4239C29.0256 18.8386 28.6776 19.1582 28.2315 19.3827C27.7855 19.6071 27.267 19.7193 26.6761 19.7193C26.1506 19.7193 25.6733 19.627 25.2443 19.4423C24.8182 19.2548 24.4801 18.9707 24.2301 18.5901C23.9801 18.2065 23.8565 17.725 23.8594 17.1455H25.696C25.7017 17.3756 25.7486 17.573 25.8366 17.7378C25.9276 17.8997 26.0511 18.0247 26.2074 18.1128C26.3665 18.198 26.554 18.2406 26.7699 18.2406C26.9972 18.2406 27.1889 18.1923 27.3452 18.0957C27.5043 17.9963 27.625 17.8514 27.7074 17.6611C27.7898 17.4707 27.831 17.2364 27.831 16.958V10.8727Z" fill="#FF9900"/>
</g>
<defs>
<clipPath id="clip0_1_1956">
<rect width="55" height="40" fill="white"/>
</clipPath>
</defs>
</svg>
