<svg width="55" height="40" viewBox="0 0 55 40" fill="none" xmlns="http://www.w3.org/2000/svg">
<g clip-path="url(#clip0_1_1916)">
<path d="M26.5 38.9384C26.3838 38.8288 26.2181 38.6702 26.0077 38.4648C25.5254 37.994 24.9873 37.4512 24.4069 36.8442C22.7491 35.1096 21.0934 33.2152 19.5484 31.2208C16.8162 27.6936 14.7564 24.2756 13.5814 21.087C12.8637 19.1395 12.5 17.3341 12.5 15.6771C12.5 7.05208 18.5432 1 26.5 1C34.4568 1 40.5 7.05208 40.5 15.6771C40.5 17.3341 40.1364 19.1395 39.4186 21.087C38.2436 24.2756 36.1838 27.6936 33.4516 31.2208C31.9066 33.2152 30.251 35.1096 28.593 36.8442C28.0128 37.4512 27.4746 37.994 26.9922 38.4648C26.7818 38.6702 26.6162 38.8288 26.5 38.9384Z" fill="#FF9900" stroke="#FF9900" stroke-width="2"/>
<path d="M26.5 26C32.5751 26 37.5 21.0751 37.5 15C37.5 8.92487 32.5751 4 26.5 4C20.4249 4 15.5 8.92487 15.5 15C15.5 21.0751 20.4249 26 26.5 26Z" fill="white"/>
<path d="M25.2017 13.6938C25.142 13.4864 25.0582 13.3031 24.9503 13.144C24.8423 12.9821 24.7102 12.8457 24.554 12.7349C24.4006 12.6213 24.2244 12.5347 24.0256 12.475C23.8295 12.4153 23.6122 12.3855 23.3736 12.3855C22.9276 12.3855 22.5355 12.4963 22.1974 12.7179C21.8622 12.9395 21.6009 13.2619 21.4134 13.6852C21.2259 14.1057 21.1321 14.6199 21.1321 15.2278C21.1321 15.8358 21.2244 16.3528 21.4091 16.779C21.5938 17.2051 21.8551 17.5304 22.1932 17.7548C22.5312 17.9764 22.9304 18.0872 23.3906 18.0872C23.8082 18.0872 24.1648 18.0134 24.4602 17.8656C24.7585 17.7151 24.9858 17.5034 25.142 17.2307C25.3011 16.958 25.3807 16.6355 25.3807 16.2634L25.7557 16.3188H23.5057V14.9296H27.1577V16.029C27.1577 16.796 26.9957 17.4551 26.6719 18.0063C26.348 18.5546 25.902 18.9778 25.3338 19.2761C24.7656 19.5716 24.1151 19.7193 23.3821 19.7193C22.5639 19.7193 21.8452 19.5389 21.2259 19.1781C20.6065 18.8145 20.1236 18.2989 19.777 17.6313C19.4332 16.9608 19.2614 16.1653 19.2614 15.2449C19.2614 14.5375 19.3636 13.9068 19.5682 13.3528C19.7756 12.796 20.0653 12.3244 20.4375 11.9381C20.8097 11.5517 21.2429 11.2577 21.7372 11.056C22.2315 10.8543 22.767 10.7534 23.3438 10.7534C23.8381 10.7534 24.2983 10.8259 24.7244 10.9707C25.1506 11.1128 25.5284 11.3145 25.858 11.5759C26.1903 11.8372 26.4616 12.1483 26.6719 12.5091C26.8821 12.8671 27.017 13.2619 27.0767 13.6938H25.2017ZM28.4925 19.6V18.2705L31.5991 15.394C31.8633 15.1384 32.0849 14.9082 32.2638 14.7037C32.4457 14.4992 32.5835 14.2989 32.6772 14.1028C32.771 13.904 32.8178 13.6895 32.8178 13.4594C32.8178 13.2037 32.7596 12.9835 32.6431 12.7989C32.5266 12.6114 32.3675 12.4679 32.1658 12.3685C31.9641 12.2662 31.7354 12.2151 31.4798 12.2151C31.2127 12.2151 30.9798 12.269 30.7809 12.377C30.582 12.4849 30.4286 12.6398 30.3207 12.8415C30.2127 13.0432 30.1587 13.2832 30.1587 13.5617H28.4073C28.4073 12.9906 28.5366 12.4949 28.7951 12.0744C29.0536 11.654 29.4158 11.3287 29.8817 11.0986C30.3477 10.8685 30.8846 10.7534 31.4925 10.7534C32.1175 10.7534 32.6616 10.8642 33.1246 11.0858C33.5906 11.3046 33.9528 11.6085 34.2113 11.9977C34.4698 12.3869 34.5991 12.833 34.5991 13.3358C34.5991 13.6653 34.5337 13.9906 34.4031 14.3117C34.2752 14.6327 34.0465 14.9892 33.717 15.3813C33.3874 15.7705 32.9229 16.2378 32.3235 16.7832L31.0494 18.0318V18.0915H34.7141V19.6H28.4925Z" fill="#FF9900"/>
</g>
<defs>
<clipPath id="clip0_1_1916">
<rect width="55" height="40" fill="white"/>
</clipPath>
</defs>
</svg>
