<svg width="80" height="62.3" viewBox="0 0 20 20" fill="none" xmlns="http://www.w3.org/2000/svg">
<path d="M10 18.8365C9.94754 18.7875 9.87729 18.7211 9.79072 18.6379C9.56598 18.422 9.31513 18.173 9.0446 17.8944C8.27172 17.0984 7.49996 16.2291 6.77993 15.3141C5.50631 13.6957 4.54787 12.1294 4.00168 10.6704C3.66816 9.77948 3.5 8.95578 3.5 8.20166C3.5 4.26818 6.29899 1.5 10 1.5C13.701 1.5 16.5 4.26818 16.5 8.20166C16.5 8.95578 16.3318 9.77948 15.9983 10.6704C15.4521 12.1294 14.4937 13.6957 13.2201 15.3141C12.5 16.2291 11.7283 17.0984 10.9554 17.8944C10.6849 18.173 10.434 18.422 10.2093 18.6379C10.1227 18.7211 10.0525 18.7875 10 18.8365Z" fill="#FF9900" stroke="#FF9900"/>
<path d="M10 13C7.23858 13 5 10.7614 5 8C5 5.23858 7.23858 3 10 3C12.7614 3 15 5.23858 15 8C15 10.7614 12.7614 13 10 13Z" fill="white"/>
<path d="M11.8986 6.44388L10.769 6.51955C10.7497 6.41446 10.7082 6.31988 10.6445 6.23581C10.5807 6.14964 10.4967 6.08134 10.3925 6.03089C10.2901 5.97835 10.1675 5.95208 10.0246 5.95208C9.83345 5.95208 9.67222 5.99622 9.54091 6.08449C9.40961 6.17066 9.34395 6.28625 9.34395 6.43127C9.34395 6.54687 9.38643 6.6446 9.4714 6.72446C9.55636 6.80433 9.70215 6.86843 9.90876 6.91677L10.714 7.09332C11.1465 7.19 11.469 7.34552 11.6814 7.5599C11.8938 7.77427 12 8.05591 12 8.40479C12 8.72215 11.9141 9.00063 11.7422 9.24023C11.5723 9.47982 11.3386 9.66688 11.0413 9.80139C10.7458 9.9338 10.405 10 10.0188 10C9.42988 10 8.96066 9.86654 8.61115 9.59962C8.26358 9.3306 8.05986 8.9649 8 8.50252L9.21361 8.43317C9.2503 8.62863 9.33913 8.77785 9.48009 8.88083C9.62105 8.98172 9.80159 9.03216 10.0217 9.03216C10.238 9.03216 10.4118 8.98697 10.5431 8.8966C10.6763 8.80412 10.7439 8.68537 10.7458 8.54035C10.7439 8.41845 10.6966 8.31862 10.6039 8.24086C10.5112 8.16099 10.3683 8.10004 10.1752 8.05801L9.40478 7.89092C8.97031 7.79634 8.64687 7.63241 8.43447 7.39912C8.22399 7.16583 8.11875 6.86843 8.11875 6.50694C8.11875 6.19588 8.19599 5.92791 8.35047 5.70303C8.50688 5.47814 8.72604 5.30475 9.00797 5.18285C9.29182 5.06095 9.62394 5 10.0043 5C10.5663 5 11.0084 5.12926 11.3309 5.38777C11.6553 5.64628 11.8446 5.99832 11.8986 6.44388Z" fill="#FF9900"/>
</svg>
