<svg width="55" height="40" viewBox="0 0 55 40" fill="none" xmlns="http://www.w3.org/2000/svg">
<g clip-path="url(#clip0_1_2028)">
<path d="M26.5 38.9384C26.3838 38.8288 26.2181 38.6702 26.0077 38.4648C25.5254 37.994 24.9873 37.4512 24.4069 36.8442C22.7491 35.1096 21.0934 33.2152 19.5484 31.2208C16.8162 27.6936 14.7564 24.2756 13.5814 21.087C12.8637 19.1395 12.5 17.3341 12.5 15.6771C12.5 7.05208 18.5432 1 26.5 1C34.4568 1 40.5 7.05208 40.5 15.6771C40.5 17.3341 40.1364 19.1395 39.4186 21.087C38.2436 24.2756 36.1838 27.6936 33.4516 31.2208C31.9066 33.2152 30.251 35.1096 28.593 36.8442C28.0128 37.4512 27.4746 37.994 26.9922 38.4648C26.7818 38.6702 26.6162 38.8288 26.5 38.9384Z" fill="#FF9900" stroke="#FF9900" stroke-width="2"/>
<path d="M26.5 26C32.5751 26 37.5 21.0751 37.5 15C37.5 8.92487 32.5751 4 26.5 4C20.4249 4 15.5 8.92487 15.5 15C15.5 21.0751 20.4249 26 26.5 26Z" fill="white"/>
<path d="M26.8668 10.8727V19.6H25.2731L21.4762 14.1071H21.4123V19.6H19.5671V10.8727H21.1864L24.9535 16.3614H25.0302V10.8727H26.8668ZM28.3402 19.6V18.2705L31.4467 15.394C31.7109 15.1384 31.9325 14.9082 32.1115 14.7037C32.2933 14.4992 32.4311 14.2989 32.5249 14.1028C32.6186 13.904 32.6655 13.6895 32.6655 13.4594C32.6655 13.2037 32.6072 12.9835 32.4908 12.7989C32.3743 12.6114 32.2152 12.4679 32.0135 12.3685C31.8118 12.2662 31.5831 12.2151 31.3274 12.2151C31.0604 12.2151 30.8274 12.269 30.6286 12.377C30.4297 12.4849 30.2763 12.6398 30.1683 12.8415C30.0604 13.0432 30.0064 13.2832 30.0064 13.5617H28.255C28.255 12.9906 28.3842 12.4949 28.6428 12.0744C28.9013 11.654 29.2635 11.3287 29.7294 11.0986C30.1953 10.8685 30.7322 10.7534 31.3402 10.7534C31.9652 10.7534 32.5092 10.8642 32.9723 11.0858C33.4382 11.3046 33.8004 11.6085 34.0589 11.9977C34.3175 12.3869 34.4467 12.833 34.4467 13.3358C34.4467 13.6653 34.3814 13.9906 34.2507 14.3117C34.1229 14.6327 33.8942 14.9892 33.5646 15.3813C33.2351 15.7705 32.7706 16.2378 32.1712 16.7832L30.897 18.0318V18.0915H34.5618V19.6H28.3402Z" fill="#FF9900"/>
</g>
<defs>
<clipPath id="clip0_1_2028">
<rect width="55" height="40" fill="white"/>
</clipPath>
</defs>
</svg>
