<svg width="40" height="26" viewBox="0 0 40 26" fill="none" xmlns="http://www.w3.org/2000/svg">
<g clip-path="url(#clip0_1_2272)">
<path d="M19.35 25.31C19.2744 25.2387 19.1668 25.1357 19.03 25.0021C18.7165 24.6961 18.3667 24.3433 17.9895 23.9488C16.9119 22.8213 15.8357 21.5899 14.8315 20.2935C13.0555 18.0009 11.7167 15.7792 10.9529 13.7066C10.4864 12.4407 10.25 11.2672 10.25 10.1901C10.25 4.58388 14.1781 0.650024 19.35 0.650024C24.5219 0.650024 28.45 4.58388 28.45 10.1901C28.45 11.2672 28.2137 12.4407 27.7471 13.7066C26.9833 15.7792 25.6445 18.0009 23.8685 20.2935C22.8643 21.5899 21.7881 22.8213 20.7104 23.9488C20.3333 24.3433 19.9835 24.6961 19.6699 25.0021C19.5332 25.1357 19.4255 25.2387 19.35 25.31Z" fill="#FFC266" stroke="#FFC266" stroke-width="1.3"/>
<path d="M19.35 16.9C23.2988 16.9 26.5 13.6988 26.5 9.74998C26.5 5.80114 23.2988 2.59998 19.35 2.59998C15.4012 2.59998 12.2 5.80114 12.2 9.74998C12.2 13.6988 15.4012 16.9 19.35 16.9Z" fill="white"/>
<path d="M14.2334 11.94V6.26728H15.4327V8.76848H15.5075L17.5489 6.26728H18.9865L16.8814 8.80726L19.0114 11.94H17.5766L16.0227 9.60776L15.4327 10.3279V11.94H14.2334ZM21.6747 12.0176C21.261 12.0176 20.8926 11.9465 20.5695 11.8043C20.2482 11.6602 19.9943 11.4627 19.8078 11.2115C19.6231 10.9585 19.528 10.6668 19.5225 10.3362H20.7301C20.7375 10.4747 20.7828 10.5966 20.8659 10.7019C20.9508 10.8053 21.0634 10.8856 21.2038 10.9428C21.3441 11.0001 21.502 11.0287 21.6774 11.0287C21.8603 11.0287 22.0218 10.9964 22.1622 10.9318C22.3025 10.8671 22.4124 10.7776 22.4918 10.6631C22.5712 10.5486 22.6109 10.4166 22.6109 10.267C22.6109 10.1156 22.5684 9.98169 22.4835 9.86536C22.4004 9.74718 22.2804 9.65485 22.1234 9.58837C21.9683 9.52189 21.7836 9.48865 21.5694 9.48865H21.0404V8.60783H21.5694C21.7504 8.60783 21.9101 8.57644 22.0486 8.51365C22.1889 8.45087 22.2979 8.36408 22.3755 8.25328C22.453 8.14064 22.4918 8.00953 22.4918 7.85996C22.4918 7.71777 22.4576 7.59313 22.3893 7.48603C22.3228 7.37708 22.2286 7.29213 22.1068 7.2312C21.9867 7.17026 21.8464 7.13979 21.6858 7.13979C21.5233 7.13979 21.3746 7.16933 21.2398 7.22843C21.105 7.28567 20.997 7.36784 20.9157 7.47495C20.8345 7.58205 20.7911 7.70762 20.7855 7.85165H19.636C19.6416 7.5248 19.7348 7.23674 19.9158 6.98745C20.0968 6.73816 20.3405 6.54334 20.647 6.403C20.9554 6.26081 21.3035 6.18972 21.6913 6.18972C22.0828 6.18972 22.4253 6.26081 22.7189 6.403C23.0125 6.54519 23.2406 6.73723 23.4031 6.97914C23.5674 7.21919 23.6487 7.4888 23.6468 7.78794C23.6487 8.10556 23.5499 8.37054 23.3505 8.5829C23.1529 8.79526 22.8953 8.93006 22.5777 8.9873V9.03162C22.995 9.08517 23.3126 9.23013 23.5305 9.46649C23.7502 9.70101 23.8592 9.99462 23.8573 10.3473C23.8592 10.6705 23.7659 10.9576 23.5776 11.2088C23.3911 11.4599 23.1335 11.6575 22.8048 11.8015C22.4761 11.9455 22.0994 12.0176 21.6747 12.0176Z" fill="#FFC266"/>
</g>
<defs>
<clipPath id="clip0_1_2272">
<rect width="40" height="26" fill="white"/>
</clipPath>
</defs>
</svg>
