<svg width="55" height="40" viewBox="0 0 55 40" fill="none" xmlns="http://www.w3.org/2000/svg">
<g clip-path="url(#clip0_1_1968)">
<path d="M26.5 38.9384C26.3838 38.8288 26.2181 38.6702 26.0077 38.4648C25.5254 37.994 24.9873 37.4512 24.4069 36.8442C22.7491 35.1096 21.0934 33.2152 19.5484 31.2208C16.8162 27.6936 14.7564 24.2756 13.5814 21.087C12.8637 19.1395 12.5 17.3341 12.5 15.6771C12.5 7.05208 18.5432 1 26.5 1C34.4568 1 40.5 7.05208 40.5 15.6771C40.5 17.3341 40.1364 19.1395 39.4186 21.087C38.2436 24.2756 36.1838 27.6936 33.4516 31.2208C31.9066 33.2152 30.251 35.1096 28.593 36.8442C28.0128 37.4512 27.4746 37.994 26.9922 38.4648C26.7818 38.6702 26.6162 38.8288 26.5 38.9384Z" fill="#FF9900" stroke="#FF9900" stroke-width="2"/>
<path d="M26.5 26C32.5751 26 37.5 21.0751 37.5 15C37.5 8.92487 32.5751 4 26.5 4C20.4249 4 15.5 8.92487 15.5 15C15.5 21.0751 20.4249 26 26.5 26Z" fill="white"/>
<path d="M23.8759 10.8727H25.6998V16.958C25.6998 17.5205 25.5733 18.0091 25.3205 18.4239C25.0705 18.8386 24.7225 19.1582 24.2765 19.3827C23.8304 19.6071 23.312 19.7193 22.7211 19.7193C22.1955 19.7193 21.7182 19.627 21.2892 19.4423C20.8631 19.2548 20.525 18.9707 20.275 18.5901C20.025 18.2065 19.9015 17.725 19.9043 17.1455H21.7409C21.7466 17.3756 21.7935 17.573 21.8816 17.7378C21.9725 17.8997 22.0961 18.0247 22.2523 18.1128C22.4114 18.198 22.5989 18.2406 22.8148 18.2406C23.0421 18.2406 23.2338 18.1923 23.3901 18.0957C23.5492 17.9963 23.6699 17.8514 23.7523 17.6611C23.8347 17.4707 23.8759 17.2364 23.8759 16.958V10.8727ZM30.4 19.7193C29.7637 19.7193 29.1969 19.6099 28.6998 19.3912C28.2054 19.1696 27.8148 18.8656 27.5279 18.4793C27.2438 18.0901 27.0975 17.6412 27.089 17.1327H28.9469C28.9583 17.3457 29.0279 17.5332 29.1557 17.6952C29.2864 17.8543 29.4597 17.9778 29.6756 18.0659C29.8915 18.154 30.1344 18.198 30.4043 18.198C30.6855 18.198 30.9341 18.1483 31.15 18.0489C31.3659 17.9494 31.535 17.8117 31.6571 17.6355C31.7793 17.4594 31.8404 17.2563 31.8404 17.0261C31.8404 16.7932 31.775 16.5872 31.6444 16.4082C31.5165 16.2264 31.3319 16.0844 31.0904 15.9821C30.8517 15.8798 30.5676 15.8287 30.2381 15.8287H29.4242V14.4736H30.2381C30.5165 14.4736 30.7623 14.4253 30.9753 14.3287C31.1912 14.2321 31.3588 14.0986 31.4782 13.9281C31.5975 13.7548 31.6571 13.5531 31.6571 13.323C31.6571 13.1043 31.6046 12.9125 31.4995 12.7477C31.3972 12.5801 31.2523 12.4494 31.0648 12.3557C30.8801 12.2619 30.6642 12.2151 30.4171 12.2151C30.1671 12.2151 29.9384 12.2605 29.731 12.3514C29.5236 12.4395 29.3574 12.5659 29.2324 12.7307C29.1074 12.8955 29.0407 13.0886 29.0321 13.3102H27.2637C27.2722 12.8074 27.4157 12.3642 27.6941 11.9807C27.9725 11.5972 28.3475 11.2974 28.8191 11.0815C29.2935 10.8628 29.829 10.7534 30.4256 10.7534C31.0279 10.7534 31.5549 10.8628 32.0066 11.0815C32.4583 11.3003 32.8091 11.5957 33.0591 11.9679C33.312 12.3372 33.437 12.752 33.4341 13.2122C33.437 13.7009 33.285 14.1085 32.9782 14.4352C32.6742 14.7619 32.2779 14.9693 31.7892 15.0574V15.1256C32.4313 15.208 32.9199 15.431 33.2551 15.7946C33.5932 16.1554 33.7608 16.6071 33.758 17.1497C33.7608 17.6469 33.6174 18.0886 33.3276 18.475C33.0407 18.8614 32.6444 19.1653 32.1387 19.3869C31.633 19.6085 31.0534 19.7193 30.4 19.7193Z" fill="#FF9900"/>
</g>
<defs>
<clipPath id="clip0_1_1968">
<rect width="55" height="40" fill="white"/>
</clipPath>
</defs>
</svg>
