<svg width="40" height="26" viewBox="0 0 40 26" fill="none" xmlns="http://www.w3.org/2000/svg">
<g clip-path="url(#clip0_1_2440)">
<path d="M19.35 25.31C19.2744 25.2387 19.1668 25.1357 19.03 25.0021C18.7165 24.6961 18.3667 24.3433 17.9895 23.9488C16.9119 22.8213 15.8357 21.5899 14.8315 20.2935C13.0555 18.0009 11.7167 15.7792 10.9529 13.7066C10.4864 12.4407 10.25 11.2672 10.25 10.1901C10.25 4.58388 14.1781 0.650024 19.35 0.650024C24.5219 0.650024 28.45 4.58388 28.45 10.1901C28.45 11.2672 28.2137 12.4407 27.7471 13.7066C26.9833 15.7792 25.6445 18.0009 23.8685 20.2935C22.8643 21.5899 21.7881 22.8213 20.7104 23.9488C20.3333 24.3433 19.9835 24.6961 19.6699 25.0021C19.5332 25.1357 19.4255 25.2387 19.35 25.31Z" fill="#FFC266" stroke="#FFC266" stroke-width="1.3"/>
<path d="M19.35 16.9C23.2988 16.9 26.5 13.6988 26.5 9.74998C26.5 5.80114 23.2988 2.59998 19.35 2.59998C15.4012 2.59998 12.2 5.80114 12.2 9.74998C12.2 13.6988 15.4012 16.9 19.35 16.9Z" fill="white"/>
<path d="M15.8424 6.26728L17.2135 10.5772H17.2661L18.64 6.26728H19.9695L18.014 11.94H16.4684L14.5101 6.26728H15.8424ZM23.087 6.26728V11.94H21.8877V7.4057H21.8544L20.5554 8.22005V7.15641L21.9597 6.26728H23.087Z" fill="#FFC266"/>
</g>
<defs>
<clipPath id="clip0_1_2440">
<rect width="40" height="26" fill="white"/>
</clipPath>
</defs>
</svg>
