<svg width="55" height="40" viewBox="0 0 55 40" fill="none" xmlns="http://www.w3.org/2000/svg">
<g clip-path="url(#clip0_1_1920)">
<path d="M26.5 38.9384C26.3838 38.8288 26.2181 38.6702 26.0077 38.4648C25.5254 37.994 24.9873 37.4512 24.4069 36.8442C22.7491 35.1096 21.0934 33.2152 19.5484 31.2208C16.8162 27.6936 14.7564 24.2756 13.5814 21.087C12.8637 19.1395 12.5 17.3341 12.5 15.6771C12.5 7.05208 18.5432 1 26.5 1C34.4568 1 40.5 7.05208 40.5 15.6771C40.5 17.3341 40.1364 19.1395 39.4186 21.087C38.2436 24.2756 36.1838 27.6936 33.4516 31.2208C31.9066 33.2152 30.251 35.1096 28.593 36.8442C28.0128 37.4512 27.4746 37.994 26.9922 38.4648C26.7818 38.6702 26.6162 38.8288 26.5 38.9384Z" fill="#FF9900" stroke="#FF9900" stroke-width="2"/>
<path d="M26.5 26C32.5751 26 37.5 21.0751 37.5 15C37.5 8.92487 32.5751 4 26.5 4C20.4249 4 15.5 8.92487 15.5 15C15.5 21.0751 20.4249 26 26.5 26Z" fill="white"/>
<path d="M24.5259 13.6938C24.4663 13.4864 24.3825 13.3031 24.2745 13.144C24.1665 12.9821 24.0344 12.8457 23.8782 12.7349C23.7248 12.6213 23.5487 12.5347 23.3498 12.475C23.1538 12.4153 22.9364 12.3855 22.6978 12.3855C22.2518 12.3855 21.8597 12.4963 21.5217 12.7179C21.1864 12.9395 20.9251 13.2619 20.7376 13.6852C20.5501 14.1057 20.4563 14.6199 20.4563 15.2278C20.4563 15.8358 20.5487 16.3528 20.7333 16.779C20.918 17.2051 21.1793 17.5304 21.5174 17.7548C21.8555 17.9764 22.2546 18.0872 22.7148 18.0872C23.1325 18.0872 23.489 18.0134 23.7844 17.8656C24.0827 17.7151 24.31 17.5034 24.4663 17.2307C24.6254 16.958 24.7049 16.6355 24.7049 16.2634L25.0799 16.3188H22.8299V14.9296H26.4819V16.029C26.4819 16.796 26.32 17.4551 25.9961 18.0063C25.6722 18.5546 25.2262 18.9778 24.658 19.2761C24.0898 19.5716 23.4393 19.7193 22.7063 19.7193C21.8881 19.7193 21.1694 19.5389 20.5501 19.1781C19.9308 18.8145 19.4478 18.2989 19.1012 17.6313C18.7575 16.9608 18.5856 16.1653 18.5856 15.2449C18.5856 14.5375 18.6879 13.9068 18.8924 13.3528C19.0998 12.796 19.3896 12.3244 19.7617 11.9381C20.1339 11.5517 20.5671 11.2577 21.0614 11.056C21.5558 10.8543 22.0913 10.7534 22.668 10.7534C23.1623 10.7534 23.6225 10.8259 24.0487 10.9707C24.4748 11.1128 24.8526 11.3145 25.1822 11.5759C25.5146 11.8372 25.7859 12.1483 25.9961 12.5091C26.2063 12.8671 26.3413 13.2619 26.4009 13.6938H24.5259ZM31.0426 19.7193C30.4063 19.7193 29.8395 19.6099 29.3423 19.3912C28.848 19.1696 28.4574 18.8656 28.1705 18.4793C27.8864 18.0901 27.7401 17.6412 27.7315 17.1327H29.5895C29.6009 17.3457 29.6705 17.5332 29.7983 17.6952C29.929 17.8543 30.1023 17.9778 30.3182 18.0659C30.5341 18.154 30.777 18.198 31.0469 18.198C31.3281 18.198 31.5767 18.1483 31.7926 18.0489C32.0085 17.9494 32.1776 17.8117 32.2997 17.6355C32.4219 17.4594 32.483 17.2563 32.483 17.0261C32.483 16.7932 32.4176 16.5872 32.2869 16.4082C32.1591 16.2264 31.9744 16.0844 31.733 15.9821C31.4943 15.8798 31.2102 15.8287 30.8807 15.8287H30.0668V14.4736H30.8807C31.1591 14.4736 31.4048 14.4253 31.6179 14.3287C31.8338 14.2321 32.0014 14.0986 32.1207 13.9281C32.2401 13.7548 32.2997 13.5531 32.2997 13.323C32.2997 13.1043 32.2472 12.9125 32.142 12.7477C32.0398 12.5801 31.8949 12.4494 31.7074 12.3557C31.5227 12.2619 31.3068 12.2151 31.0597 12.2151C30.8097 12.2151 30.581 12.2605 30.3736 12.3514C30.1662 12.4395 30 12.5659 29.875 12.7307C29.75 12.8955 29.6832 13.0886 29.6747 13.3102H27.9062C27.9148 12.8074 28.0582 12.3642 28.3366 11.9807C28.6151 11.5972 28.9901 11.2974 29.4616 11.0815C29.9361 10.8628 30.4716 10.7534 31.0682 10.7534C31.6705 10.7534 32.1974 10.8628 32.6491 11.0815C33.1009 11.3003 33.4517 11.5957 33.7017 11.9679C33.9545 12.3372 34.0795 12.752 34.0767 13.2122C34.0795 13.7009 33.9276 14.1085 33.6207 14.4352C33.3168 14.7619 32.9205 14.9693 32.4318 15.0574V15.1256C33.0739 15.208 33.5625 15.431 33.8977 15.7946C34.2358 16.1554 34.4034 16.6071 34.4006 17.1497C34.4034 17.6469 34.2599 18.0886 33.9702 18.475C33.6832 18.8614 33.2869 19.1653 32.7812 19.3869C32.2756 19.6085 31.696 19.7193 31.0426 19.7193Z" fill="#FF9900"/>
</g>
<defs>
<clipPath id="clip0_1_1920">
<rect width="55" height="40" fill="white"/>
</clipPath>
</defs>
</svg>
