<svg width="55" height="40" viewBox="0 0 55 40" fill="none" xmlns="http://www.w3.org/2000/svg">
<g clip-path="url(#clip0_1_2088)">
<path d="M26.5 38.9384C26.3838 38.8288 26.2181 38.6702 26.0077 38.4648C25.5254 37.994 24.9873 37.4512 24.4069 36.8442C22.7491 35.1096 21.0934 33.2152 19.5484 31.2208C16.8162 27.6936 14.7564 24.2756 13.5814 21.087C12.8637 19.1395 12.5 17.3341 12.5 15.6771C12.5 7.05208 18.5432 1 26.5 1C34.4568 1 40.5 7.05208 40.5 15.6771C40.5 17.3341 40.1364 19.1395 39.4186 21.087C38.2436 24.2756 36.1838 27.6936 33.4516 31.2208C31.9066 33.2152 30.251 35.1096 28.593 36.8442C28.0128 37.4512 27.4746 37.994 26.9922 38.4648C26.7818 38.6702 26.6162 38.8288 26.5 38.9384Z" fill="#FF9900" stroke="#FF9900" stroke-width="2"/>
<path d="M26.5 26C32.5751 26 37.5 21.0751 37.5 15C37.5 8.92487 32.5751 4 26.5 4C20.4249 4 15.5 8.92487 15.5 15C15.5 21.0751 20.4249 26 26.5 26Z" fill="white"/>
<path d="M20.3855 19.6V10.8727H23.8287C24.4877 10.8727 25.0502 10.9906 25.5162 11.2264C25.9849 11.4594 26.3414 11.7903 26.5858 12.2193C26.8329 12.6455 26.9565 13.1469 26.9565 13.7236C26.9565 14.3031 26.8315 14.8017 26.5815 15.2193C26.3315 15.6341 25.9693 15.9523 25.4949 16.1739C25.0233 16.3955 24.4522 16.5063 23.7818 16.5063H21.4764V15.0233H23.4835C23.8358 15.0233 24.1284 14.975 24.3613 14.8784C24.5943 14.7818 24.7676 14.6369 24.8812 14.4438C24.9977 14.2506 25.0559 14.0105 25.0559 13.7236C25.0559 13.4338 24.9977 13.1895 24.8812 12.9906C24.7676 12.7918 24.5929 12.6412 24.3571 12.5389C24.1241 12.4338 23.8301 12.3813 23.475 12.3813H22.2306V19.6H20.3855ZM25.0985 15.6284L27.2676 19.6H25.2306L23.1085 15.6284H25.0985ZM32.0062 10.8727V19.6H30.161V12.6242H30.1099L28.1113 13.877V12.2406L30.2718 10.8727H32.0062Z" fill="#FF9900"/>
</g>
<defs>
<clipPath id="clip0_1_2088">
<rect width="55" height="40" fill="white"/>
</clipPath>
</defs>
</svg>
