<svg width="40" height="26" viewBox="0 0 40 26" fill="none" xmlns="http://www.w3.org/2000/svg">
<g clip-path="url(#clip0_1_2460)">
<path d="M19.35 25.31C19.2744 25.2387 19.1668 25.1357 19.03 25.0021C18.7165 24.6961 18.3667 24.3433 17.9895 23.9488C16.9119 22.8213 15.8357 21.5899 14.8315 20.2935C13.0555 18.0009 11.7167 15.7792 10.9529 13.7066C10.4864 12.4407 10.25 11.2672 10.25 10.1901C10.25 4.58388 14.1781 0.650024 19.35 0.650024C24.5219 0.650024 28.45 4.58388 28.45 10.1901C28.45 11.2672 28.2137 12.4407 27.7471 13.7066C26.9833 15.7792 25.6445 18.0009 23.8685 20.2935C22.8643 21.5899 21.7881 22.8213 20.7104 23.9488C20.3333 24.3433 19.9835 24.6961 19.6699 25.0021C19.5332 25.1357 19.4255 25.2387 19.35 25.31Z" fill="#FFC266" stroke="#FFC266" stroke-width="1.3"/>
<path d="M19.35 16.9C23.2988 16.9 26.5 13.6988 26.5 9.74998C26.5 5.80114 23.2988 2.59998 19.35 2.59998C15.4012 2.59998 12.2 5.80114 12.2 9.74998C12.2 13.6988 15.4012 16.9 19.35 16.9Z" fill="white"/>
<path d="M14.6225 11.94L12.9993 6.26728H14.3095L15.2485 10.2088H15.2956L16.3315 6.26728H17.4533L18.4865 10.2171H18.5363L19.4753 6.26728H20.7855L19.1623 11.94H17.9934L16.9132 8.23112H16.8689L15.7914 11.94H14.6225ZM21.3942 11.94V11.0758L23.4134 9.20612C23.5852 9.03993 23.7292 8.89036 23.8455 8.7574C23.9637 8.62445 24.0533 8.49426 24.1142 8.36685C24.1751 8.23759 24.2056 8.09817 24.2056 7.9486C24.2056 7.7824 24.1678 7.63929 24.092 7.51926C24.0163 7.39739 23.9129 7.30414 23.7818 7.23951C23.6507 7.17303 23.5021 7.13979 23.3359 7.13979C23.1623 7.13979 23.0109 7.17487 22.8816 7.24505C22.7523 7.31522 22.6526 7.41585 22.5825 7.54696C22.5123 7.67807 22.4772 7.83411 22.4772 8.01507H21.3388C21.3388 7.64391 21.4228 7.32168 21.5908 7.04838C21.7589 6.77509 21.9943 6.56365 22.2972 6.41408C22.6 6.26451 22.949 6.18972 23.3442 6.18972C23.7504 6.18972 24.104 6.26174 24.405 6.40577C24.7079 6.54796 24.9433 6.74554 25.1114 6.99853C25.2794 7.25151 25.3634 7.54142 25.3634 7.86827C25.3634 8.08247 25.321 8.29391 25.236 8.50257C25.1529 8.71124 25.0043 8.94299 24.7901 9.19782C24.5759 9.4508 24.2739 9.75456 23.8843 10.1091L23.0561 10.9207V10.9595H25.4382V11.94H21.3942Z" fill="#FFC266"/>
</g>
<defs>
<clipPath id="clip0_1_2460">
<rect width="40" height="26" fill="white"/>
</clipPath>
</defs>
</svg>
