<svg width="40" height="26" viewBox="0 0 21 20" fill="none" xmlns="http://www.w3.org/2000/svg">
<path d="M10 19.4692C9.94188 19.4144 9.85905 19.3351 9.75385 19.2324C9.51272 18.997 9.24363 18.7256 8.95347 18.4221C8.12453 17.5548 7.29668 16.6076 6.52421 15.6104C5.15811 13.8468 4.1282 12.1378 3.54068 10.5435C3.18183 9.56975 3 8.66704 3 7.83854C3 3.52604 6.02161 0.5 10 0.5C13.9784 0.5 17 3.52604 17 7.83854C17 8.66704 16.8182 9.56975 16.4593 10.5435C15.8718 12.1378 14.8419 13.8468 13.4758 15.6104C12.7033 16.6076 11.8755 17.5548 11.0465 18.4221C10.7564 18.7256 10.4873 18.997 10.2461 19.2324C10.1409 19.3351 10.0581 19.4144 10 19.4692Z" fill="#ffc266" stroke="#ffc266"/>
<path d="M10 13C6.96243 13 4.5 10.5376 4.5 7.5C4.5 4.46243 6.96243 2 10 2C13.0376 2 15.5 4.46243 15.5 7.5C15.5 10.5376 13.0376 13 10 13Z" fill="white"/>
<path d="M13.549 6.27344H11.9936C11.9652 6.07221 11.9072 5.89347 11.8196 5.73722C11.732 5.5786 11.6196 5.44366 11.4822 5.33239C11.3449 5.22112 11.1863 5.13589 11.0064 5.0767C10.8288 5.01752 10.6359 4.98793 10.4276 4.98793C10.0511 4.98793 9.72325 5.08144 9.44389 5.26847C9.16454 5.45312 8.94792 5.72301 8.79403 6.07812C8.64015 6.43087 8.56321 6.85937 8.56321 7.36364C8.56321 7.8821 8.64015 8.31771 8.79403 8.67045C8.95028 9.0232 9.16809 9.28954 9.44744 9.46946C9.7268 9.64938 10.05 9.73935 10.4169 9.73935C10.6229 9.73935 10.8134 9.71212 10.9886 9.65767C11.1662 9.60322 11.3236 9.52391 11.4609 9.41974C11.5982 9.31321 11.7119 9.18419 11.8018 9.03267C11.8942 8.88116 11.9581 8.70833 11.9936 8.5142L13.549 8.52131C13.5088 8.85511 13.4081 9.17708 13.2472 9.48722C13.0885 9.79498 12.8743 10.0708 12.6044 10.3146C12.3369 10.5561 12.0173 10.7479 11.6456 10.8899C11.2763 11.0296 10.8584 11.0994 10.392 11.0994C9.74337 11.0994 9.16335 10.9527 8.65199 10.6591C8.14299 10.3655 7.74053 9.94058 7.4446 9.38423C7.15104 8.82789 7.00426 8.15436 7.00426 7.36364C7.00426 6.57055 7.15341 5.89583 7.4517 5.33949C7.75 4.78314 8.15483 4.35937 8.66619 4.06818C9.17756 3.77462 9.75284 3.62784 10.392 3.62784C10.8134 3.62784 11.2041 3.68703 11.5639 3.8054C11.9261 3.92377 12.2469 4.09659 12.5263 4.32386C12.8056 4.54877 13.0329 4.82457 13.2081 5.15128C13.3857 5.47798 13.4993 5.85204 13.549 6.27344Z" fill="#ffc266"/>
</svg>
