<svg width="55" height="40" viewBox="0 0 55 40" fill="none" xmlns="http://www.w3.org/2000/svg">
<g clip-path="url(#clip0_1_2140)">
<path d="M26.5 38.9384C26.3838 38.8288 26.2181 38.6702 26.0077 38.4648C25.5254 37.994 24.9873 37.4512 24.4069 36.8442C22.7491 35.1096 21.0934 33.2152 19.5484 31.2208C16.8162 27.6936 14.7564 24.2756 13.5814 21.087C12.8637 19.1395 12.5 17.3341 12.5 15.6771C12.5 7.05208 18.5432 1 26.5 1C34.4568 1 40.5 7.05208 40.5 15.6771C40.5 17.3341 40.1364 19.1395 39.4186 21.087C38.2436 24.2756 36.1838 27.6936 33.4516 31.2208C31.9066 33.2152 30.251 35.1096 28.593 36.8442C28.0128 37.4512 27.4746 37.994 26.9922 38.4648C26.7818 38.6702 26.6162 38.8288 26.5 38.9384Z" fill="#FF9900" stroke="#FF9900" stroke-width="2"/>
<path d="M26.5 26C32.5751 26 37.5 21.0751 37.5 15C37.5 8.92487 32.5751 4 26.5 4C20.4249 4 15.5 8.92487 15.5 15C15.5 21.0751 20.4249 26 26.5 26Z" fill="white"/>
<path d="M24.9929 10.8727H26.8381V16.5403C26.8381 17.1767 26.6861 17.7335 26.3821 18.2108C26.081 18.6881 25.6591 19.0602 25.1165 19.3273C24.5739 19.5915 23.9418 19.7236 23.2202 19.7236C22.4957 19.7236 21.8622 19.5915 21.3196 19.3273C20.777 19.0602 20.3551 18.6881 20.054 18.2108C19.7528 17.7335 19.6023 17.1767 19.6023 16.5403V10.8727H21.4474V16.3827C21.4474 16.7151 21.5199 17.0105 21.6648 17.269C21.8125 17.5276 22.0199 17.7307 22.2869 17.8784C22.554 18.0261 22.8651 18.1 23.2202 18.1C23.5781 18.1 23.8892 18.0261 24.1534 17.8784C24.4205 17.7307 24.6264 17.5276 24.7713 17.269C24.919 17.0105 24.9929 16.7151 24.9929 16.3827V10.8727ZM28.305 19.6V18.2705L31.4116 15.394C31.6758 15.1384 31.8974 14.9082 32.0763 14.7037C32.2582 14.4992 32.396 14.2989 32.4897 14.1028C32.5835 13.904 32.6303 13.6895 32.6303 13.4594C32.6303 13.2037 32.5721 12.9835 32.4556 12.7989C32.3391 12.6114 32.18 12.4679 31.9783 12.3685C31.7766 12.2662 31.5479 12.2151 31.2923 12.2151C31.0252 12.2151 30.7923 12.269 30.5934 12.377C30.3945 12.4849 30.2411 12.6398 30.1332 12.8415C30.0252 13.0432 29.9712 13.2832 29.9712 13.5617H28.2198C28.2198 12.9906 28.3491 12.4949 28.6076 12.0744C28.8661 11.654 29.2283 11.3287 29.6942 11.0986C30.1602 10.8685 30.6971 10.7534 31.305 10.7534C31.93 10.7534 32.4741 10.8642 32.9371 11.0858C33.4031 11.3046 33.7653 11.6085 34.0238 11.9977C34.2823 12.3869 34.4116 12.833 34.4116 13.3358C34.4116 13.6653 34.3462 13.9906 34.2156 14.3117C34.0877 14.6327 33.859 14.9892 33.5295 15.3813C33.1999 15.7705 32.7354 16.2378 32.136 16.7832L30.8619 18.0318V18.0915H34.5266V19.6H28.305Z" fill="#FF9900"/>
</g>
<defs>
<clipPath id="clip0_1_2140">
<rect width="55" height="40" fill="white"/>
</clipPath>
</defs>
</svg>
