<svg width="40" height="26" viewBox="0 0 40 26" fill="none" xmlns="http://www.w3.org/2000/svg">
<g clip-path="url(#clip0_1_2428)">
<path d="M19.35 25.31C19.2744 25.2387 19.1668 25.1357 19.03 25.0021C18.7165 24.6961 18.3667 24.3433 17.9895 23.9488C16.9119 22.8213 15.8357 21.5899 14.8315 20.2935C13.0555 18.0009 11.7167 15.7792 10.9529 13.7066C10.4864 12.4407 10.25 11.2672 10.25 10.1901C10.25 4.58388 14.1781 0.650024 19.35 0.650024C24.5219 0.650024 28.45 4.58388 28.45 10.1901C28.45 11.2672 28.2137 12.4407 27.7471 13.7066C26.9833 15.7792 25.6445 18.0009 23.8685 20.2935C22.8643 21.5899 21.7881 22.8213 20.7104 23.9488C20.3333 24.3433 19.9835 24.6961 19.6699 25.0021C19.5332 25.1357 19.4255 25.2387 19.35 25.31Z" fill="#FFC266" stroke="#FFC266" stroke-width="1.3"/>
<path d="M19.35 16.9C23.2988 16.9 26.5 13.6988 26.5 9.74998C26.5 5.80114 23.2988 2.59998 19.35 2.59998C15.4012 2.59998 12.2 5.80114 12.2 9.74998C12.2 13.6988 15.4012 16.9 19.35 16.9Z" fill="white"/>
<path d="M17.6954 6.26728H18.8947V9.95122C18.8947 10.3649 18.796 10.7268 18.5984 11.037C18.4026 11.3472 18.1284 11.5892 17.7757 11.7627C17.423 11.9345 17.0121 12.0203 16.5431 12.0203C16.0722 12.0203 15.6604 11.9345 15.3077 11.7627C14.955 11.5892 14.6808 11.3472 14.4851 11.037C14.2893 10.7268 14.1915 10.3649 14.1915 9.95122V6.26728H15.3908V9.84874C15.3908 10.0648 15.4379 10.2568 15.5321 10.4249C15.6281 10.5929 15.7629 10.7249 15.9365 10.821C16.1101 10.917 16.3123 10.965 16.5431 10.965C16.7758 10.965 16.978 10.917 17.1497 10.821C17.3233 10.7249 17.4572 10.5929 17.5513 10.4249C17.6474 10.2568 17.6954 10.0648 17.6954 9.84874V6.26728ZM19.8483 11.94V11.0758L21.8675 9.20612C22.0393 9.03993 22.1833 8.89036 22.2996 8.7574C22.4178 8.62445 22.5074 8.49426 22.5683 8.36685C22.6292 8.23759 22.6597 8.09817 22.6597 7.9486C22.6597 7.7824 22.6219 7.63929 22.5461 7.51926C22.4704 7.39739 22.367 7.30414 22.2359 7.23951C22.1048 7.17303 21.9562 7.13979 21.79 7.13979C21.6164 7.13979 21.465 7.17487 21.3357 7.24505C21.2064 7.31522 21.1067 7.41585 21.0366 7.54696C20.9664 7.67807 20.9313 7.83411 20.9313 8.01507H19.7929C19.7929 7.64391 19.8769 7.32168 20.0449 7.04838C20.213 6.77509 20.4484 6.56365 20.7513 6.41408C21.0541 6.26451 21.4031 6.18972 21.7983 6.18972C22.2045 6.18972 22.5581 6.26174 22.8591 6.40577C23.162 6.54796 23.3974 6.74554 23.5655 6.99853C23.7335 7.25151 23.8175 7.54142 23.8175 7.86827C23.8175 8.08247 23.7751 8.29391 23.6901 8.50257C23.607 8.71124 23.4584 8.94299 23.2442 9.19782C23.03 9.4508 22.728 9.75456 22.3384 10.1091L21.5102 10.9207V10.9595H23.8923V11.94H19.8483Z" fill="#FFC266"/>
</g>
<defs>
<clipPath id="clip0_1_2428">
<rect width="40" height="26" fill="white"/>
</clipPath>
</defs>
</svg>
