<svg width="55" height="40" viewBox="0 0 55 40" fill="none" xmlns="http://www.w3.org/2000/svg">
<g clip-path="url(#clip0_1_1841)">
<path d="M26.5 38.9384C26.3838 38.8288 26.2181 38.6702 26.0077 38.4648C25.5254 37.994 24.9873 37.4512 24.4069 36.8442C22.7491 35.1096 21.0934 33.2152 19.5484 31.2208C16.8162 27.6936 14.7564 24.2756 13.5814 21.087C12.8637 19.1395 12.5 17.3341 12.5 15.6771C12.5 7.05208 18.5432 1 26.5 1C34.4568 1 40.5 7.05208 40.5 15.6771C40.5 17.3341 40.1364 19.1395 39.4186 21.087C38.2436 24.2756 36.1838 27.6936 33.4516 31.2208C31.9066 33.2152 30.251 35.1096 28.593 36.8442C28.0128 37.4512 27.4746 37.994 26.9922 38.4648C26.7818 38.6702 26.6162 38.8288 26.5 38.9384Z" fill="#FF9900" stroke="#FF9900" stroke-width="2"/>
<path d="M26.5 26C32.5751 26 37.5 21.0751 37.5 15C37.5 8.92487 32.5751 4 26.5 4C20.4249 4 15.5 8.92487 15.5 15C15.5 21.0751 20.4249 26 26.5 26Z" fill="white"/>
<path d="M30.4471 13.9281H28.5806C28.5465 13.6867 28.4769 13.4722 28.3718 13.2847C28.2667 13.0943 28.1317 12.9324 27.967 12.7989C27.8022 12.6653 27.6119 12.5631 27.396 12.4921C27.1829 12.421 26.9513 12.3855 26.7013 12.3855C26.2496 12.3855 25.8562 12.4977 25.521 12.7222C25.1857 12.9438 24.9258 13.2676 24.7411 13.6938C24.5565 14.1171 24.4641 14.6313 24.4641 15.2364C24.4641 15.8585 24.5565 16.3813 24.7411 16.8046C24.9286 17.2278 25.19 17.5474 25.5252 17.7634C25.8604 17.9793 26.2482 18.0872 26.6886 18.0872C26.9357 18.0872 27.1644 18.0546 27.3746 17.9892C27.5877 17.9239 27.7766 17.8287 27.9414 17.7037C28.1062 17.5759 28.2425 17.421 28.3505 17.2392C28.4613 17.0574 28.538 16.85 28.5806 16.6171L30.4471 16.6256C30.3988 17.0261 30.2781 17.4125 30.0849 17.7847C29.8945 18.154 29.6374 18.4849 29.3136 18.7776C28.9925 19.0673 28.609 19.2974 28.163 19.4679C27.7198 19.6355 27.2184 19.7193 26.6587 19.7193C25.8803 19.7193 25.1843 19.5432 24.5707 19.1909C23.9599 18.8386 23.4769 18.3287 23.1218 17.6611C22.7695 16.9935 22.5934 16.1852 22.5934 15.2364C22.5934 14.2847 22.7724 13.475 23.1303 12.8074C23.4883 12.1398 23.9741 11.6313 24.5877 11.2818C25.2013 10.9296 25.8917 10.7534 26.6587 10.7534C27.1644 10.7534 27.6332 10.8244 28.065 10.9665C28.4996 11.1085 28.8846 11.3159 29.2198 11.5886C29.555 11.8585 29.8278 12.1895 30.038 12.5815C30.2511 12.9736 30.3874 13.4224 30.4471 13.9281Z" fill="#FF9900"/>
</g>
<defs>
<clipPath id="clip0_1_1841">
<rect width="55" height="40" fill="white"/>
</clipPath>
</defs>
</svg>
