<svg width="55" height="40" viewBox="0 0 55 40" fill="none" xmlns="http://www.w3.org/2000/svg">
<g clip-path="url(#clip0_1_1964)">
<path d="M26.5 38.9384C26.3838 38.8288 26.2181 38.6702 26.0077 38.4648C25.5254 37.994 24.9873 37.4512 24.4069 36.8442C22.7491 35.1096 21.0934 33.2152 19.5484 31.2208C16.8162 27.6936 14.7564 24.2756 13.5814 21.087C12.8637 19.1395 12.5 17.3341 12.5 15.6771C12.5 7.05208 18.5432 1 26.5 1C34.4568 1 40.5 7.05208 40.5 15.6771C40.5 17.3341 40.1364 19.1395 39.4186 21.087C38.2436 24.2756 36.1838 27.6936 33.4516 31.2208C31.9066 33.2152 30.251 35.1096 28.593 36.8442C28.0128 37.4512 27.4746 37.994 26.9922 38.4648C26.7818 38.6702 26.6162 38.8288 26.5 38.9384Z" fill="#FF9900" stroke="#FF9900" stroke-width="2"/>
<path d="M26.5 26C32.5751 26 37.5 21.0751 37.5 15C37.5 8.92487 32.5751 4 26.5 4C20.4249 4 15.5 8.92487 15.5 15C15.5 21.0751 20.4249 26 26.5 26Z" fill="white"/>
<path d="M24.0517 10.8727H25.8755V16.958C25.8755 17.5205 25.7491 18.0091 25.4963 18.4239C25.2463 18.8386 24.8983 19.1582 24.4522 19.3827C24.0062 19.6071 23.4877 19.7193 22.8968 19.7193C22.3713 19.7193 21.894 19.627 21.465 19.4423C21.0389 19.2548 20.7008 18.9707 20.4508 18.5901C20.2008 18.2065 20.0772 17.725 20.0801 17.1455H21.9167C21.9224 17.3756 21.9693 17.573 22.0574 17.7378C22.1483 17.8997 22.2718 18.0247 22.4281 18.1128C22.5872 18.198 22.7747 18.2406 22.9906 18.2406C23.2179 18.2406 23.4096 18.1923 23.5659 18.0957C23.725 17.9963 23.8457 17.8514 23.9281 17.6611C24.0105 17.4707 24.0517 17.2364 24.0517 16.958V10.8727ZM27.35 19.6V18.2705L30.4565 15.394C30.7207 15.1384 30.9423 14.9082 31.1213 14.7037C31.3031 14.4992 31.4409 14.2989 31.5346 14.1028C31.6284 13.904 31.6752 13.6895 31.6752 13.4594C31.6752 13.2037 31.617 12.9835 31.5005 12.7989C31.3841 12.6114 31.225 12.4679 31.0233 12.3685C30.8216 12.2662 30.5929 12.2151 30.3372 12.2151C30.0701 12.2151 29.8372 12.269 29.6383 12.377C29.4395 12.4849 29.286 12.6398 29.1781 12.8415C29.0701 13.0432 29.0162 13.2832 29.0162 13.5617H27.2647C27.2647 12.9906 27.394 12.4949 27.6525 12.0744C27.911 11.654 28.2733 11.3287 28.7392 11.0986C29.2051 10.8685 29.742 10.7534 30.35 10.7534C30.975 10.7534 31.519 10.8642 31.9821 11.0858C32.448 11.3046 32.8102 11.6085 33.0687 11.9977C33.3272 12.3869 33.4565 12.833 33.4565 13.3358C33.4565 13.6653 33.3912 13.9906 33.2605 14.3117C33.1326 14.6327 32.9039 14.9892 32.5744 15.3813C32.2449 15.7705 31.7804 16.2378 31.1809 16.7832L29.9068 18.0318V18.0915H33.5716V19.6H27.35Z" fill="#FF9900"/>
</g>
<defs>
<clipPath id="clip0_1_1964">
<rect width="55" height="40" fill="white"/>
</clipPath>
</defs>
</svg>
