<svg width="40" height="26" viewBox="0 0 40 26" fill="none" xmlns="http://www.w3.org/2000/svg">
<g clip-path="url(#clip0_1_2248)">
<path d="M19.35 25.31C19.2744 25.2387 19.1668 25.1357 19.03 25.0021C18.7165 24.6961 18.3667 24.3433 17.9895 23.9488C16.9119 22.8213 15.8357 21.5899 14.8315 20.2935C13.0555 18.0009 11.7167 15.7792 10.9529 13.7066C10.4864 12.4407 10.25 11.2672 10.25 10.1901C10.25 4.58388 14.1781 0.650024 19.35 0.650024C24.5219 0.650024 28.45 4.58388 28.45 10.1901C28.45 11.2672 28.2137 12.4407 27.7471 13.7066C26.9833 15.7792 25.6445 18.0009 23.8685 20.2935C22.8643 21.5899 21.7881 22.8213 20.7104 23.9488C20.3333 24.3433 19.9835 24.6961 19.6699 25.0021C19.5332 25.1357 19.4255 25.2387 19.35 25.31Z" fill="#FFC266" stroke="#FFC266" stroke-width="1.3"/>
<path d="M19.35 16.9C23.2988 16.9 26.5 13.6988 26.5 9.74998C26.5 5.80114 23.2988 2.59998 19.35 2.59998C15.4012 2.59998 12.2 5.80114 12.2 9.74998C12.2 13.6988 15.4012 16.9 19.35 16.9Z" fill="white"/>
<path d="M17.932 6.26728H19.1175V10.2227C19.1175 10.5883 19.0354 10.9059 18.871 11.1755C18.7085 11.4451 18.4823 11.6529 18.1924 11.7987C17.9025 11.9446 17.5655 12.0176 17.1814 12.0176C16.8398 12.0176 16.5295 11.9575 16.2507 11.8375C15.9737 11.7156 15.754 11.531 15.5915 11.2835C15.429 11.0342 15.3486 10.7213 15.3505 10.3445H16.5443C16.548 10.4941 16.5785 10.6225 16.6357 10.7296C16.6948 10.8348 16.7751 10.9161 16.8767 10.9733C16.9801 11.0287 17.102 11.0564 17.2423 11.0564C17.39 11.0564 17.5147 11.025 17.6163 10.9622C17.7197 10.8976 17.7981 10.8034 17.8517 10.6797C17.9052 10.556 17.932 10.4036 17.932 10.2227V6.26728ZM22.5439 6.26728V11.94H21.3445V7.4057H21.3113L20.0122 8.22005V7.15641L21.4165 6.26728H22.5439Z" fill="#FFC266"/>
</g>
<defs>
<clipPath id="clip0_1_2248">
<rect width="40" height="26" fill="white"/>
</clipPath>
</defs>
</svg>
