<svg width="40" height="26" viewBox="0 0 40 26" fill="none" xmlns="http://www.w3.org/2000/svg">
<g clip-path="url(#clip0_1_2512)">
<path d="M19.35 25.31C19.2744 25.2387 19.1668 25.1357 19.03 25.0021C18.7165 24.6961 18.3667 24.3433 17.9895 23.9488C16.9119 22.8213 15.8357 21.5899 14.8315 20.2935C13.0555 18.0009 11.7167 15.7792 10.9529 13.7066C10.4864 12.4407 10.25 11.2672 10.25 10.1901C10.25 4.58388 14.1781 0.650024 19.35 0.650024C24.5219 0.650024 28.45 4.58388 28.45 10.1901C28.45 11.2672 28.2137 12.4407 27.7471 13.7066C26.9833 15.7792 25.6445 18.0009 23.8685 20.2935C22.8643 21.5899 21.7881 22.8213 20.7104 23.9488C20.3333 24.3433 19.9835 24.6961 19.6699 25.0021C19.5332 25.1357 19.4255 25.2387 19.35 25.31Z" fill="#FFC266" stroke="#FFC266" stroke-width="1.3"/>
<path d="M19.35 16.9C23.2988 16.9 26.5 13.6988 26.5 9.74998C26.5 5.80114 23.2988 2.59998 19.35 2.59998C15.4011 2.59998 12.2 5.80114 12.2 9.74998C12.2 13.6988 15.4011 16.9 19.35 16.9Z" fill="white"/>
<path d="M14.9101 11.94V11.2281L17.7409 7.25612H14.9045V6.26728H19.2477V6.97914L16.4141 10.9512H19.2532V11.94H14.9101ZM22.2371 12.0176C21.8235 12.0176 21.4551 11.9465 21.1319 11.8043C20.8106 11.6602 20.5567 11.4627 20.3702 11.2115C20.1855 10.9585 20.0904 10.6668 20.0849 10.3362H21.2926C21.3 10.4747 21.3452 10.5966 21.4283 10.7019C21.5132 10.8053 21.6259 10.8856 21.7662 10.9428C21.9066 11.0001 22.0644 11.0287 22.2399 11.0287C22.4227 11.0287 22.5843 10.9964 22.7246 10.9318C22.8649 10.8671 22.9748 10.7776 23.0542 10.6631C23.1336 10.5486 23.1733 10.4166 23.1733 10.267C23.1733 10.1156 23.1308 9.98169 23.0459 9.86536C22.9628 9.74718 22.8428 9.65485 22.6858 9.58837C22.5307 9.52189 22.346 9.48865 22.1318 9.48865H21.6028V8.60783H22.1318C22.3128 8.60783 22.4725 8.57644 22.611 8.51365C22.7514 8.45087 22.8603 8.36408 22.9379 8.25328C23.0154 8.14064 23.0542 8.00953 23.0542 7.85996C23.0542 7.71777 23.0201 7.59313 22.9517 7.48603C22.8853 7.37708 22.7911 7.29213 22.6692 7.2312C22.5492 7.17026 22.4088 7.13979 22.2482 7.13979C22.0857 7.13979 21.937 7.16933 21.8022 7.22843C21.6674 7.28567 21.5594 7.36784 21.4781 7.47495C21.3969 7.58205 21.3535 7.70762 21.348 7.85165H20.1985C20.204 7.5248 20.2973 7.23674 20.4782 6.98745C20.6592 6.73816 20.9029 6.54334 21.2095 6.403C21.5179 6.26081 21.8659 6.18972 22.2537 6.18972C22.6452 6.18972 22.9877 6.26081 23.2813 6.403C23.575 6.54519 23.803 6.73723 23.9655 6.97914C24.1299 7.21919 24.2111 7.4888 24.2093 7.78794C24.2111 8.10556 24.1123 8.37054 23.9129 8.5829C23.7153 8.79526 23.4577 8.93006 23.1401 8.9873V9.03162C23.5574 9.08517 23.875 9.23013 24.0929 9.46649C24.3127 9.70101 24.4216 9.99462 24.4198 10.3473C24.4216 10.6705 24.3284 10.9576 24.14 11.2088C23.9535 11.4599 23.6959 11.6575 23.3672 11.8015C23.0385 11.9455 22.6618 12.0176 22.2371 12.0176Z" fill="#FFC266"/>
</g>
<defs>
<clipPath id="clip0_1_2512">
<rect width="40" height="26" fill="white"/>
</clipPath>
</defs>
</svg>
