<svg width="55" height="40" viewBox="0 0 55 40" fill="none" xmlns="http://www.w3.org/2000/svg">
<g clip-path="url(#clip0_1_2168)">
<path d="M26.5 38.9384C26.3838 38.8288 26.2181 38.6702 26.0077 38.4648C25.5254 37.994 24.9873 37.4512 24.4069 36.8442C22.7491 35.1096 21.0934 33.2152 19.5484 31.2208C16.8162 27.6936 14.7564 24.2756 13.5814 21.087C12.8637 19.1395 12.5 17.3341 12.5 15.6771C12.5 7.05208 18.5432 1 26.5 1C34.4568 1 40.5 7.05208 40.5 15.6771C40.5 17.3341 40.1364 19.1395 39.4186 21.087C38.2436 24.2756 36.1838 27.6936 33.4516 31.2208C31.9066 33.2152 30.251 35.1096 28.593 36.8442C28.0128 37.4512 27.4746 37.994 26.9922 38.4648C26.7818 38.6702 26.6162 38.8288 26.5 38.9384Z" fill="#FF9900" stroke="#FF9900" stroke-width="2"/>
<path d="M26.5 26C32.5751 26 37.5 21.0751 37.5 15C37.5 8.92487 32.5751 4 26.5 4C20.4249 4 15.5 8.92487 15.5 15C15.5 21.0751 20.4249 26 26.5 26Z" fill="white"/>
<path d="M20.5707 19.6L18.0735 10.8727H20.0891L21.5337 16.9367H21.6062L23.1999 10.8727H24.9258L26.5153 16.9494H26.592L28.0366 10.8727H30.0522L27.555 19.6H25.7567L24.0948 13.894H24.0266L22.369 19.6H20.5707ZM34.7855 10.8727V19.6H32.9403V12.6242H32.8892L30.8906 13.877V12.2406L33.0511 10.8727H34.7855Z" fill="#FF9900"/>
</g>
<defs>
<clipPath id="clip0_1_2168">
<rect width="55" height="40" fill="white"/>
</clipPath>
</defs>
</svg>
