<svg width="55" height="40" viewBox="0 0 55 40" fill="none" xmlns="http://www.w3.org/2000/svg">
<g clip-path="url(#clip0_1_1825)">
<path d="M26.5 38.9384C26.3838 38.8288 26.2181 38.6702 26.0077 38.4648C25.5254 37.994 24.9873 37.4512 24.4069 36.8442C22.7491 35.1096 21.0934 33.2152 19.5484 31.2208C16.8162 27.6936 14.7564 24.2756 13.5814 21.087C12.8637 19.1395 12.5 17.3341 12.5 15.6771C12.5 7.05208 18.5432 1 26.5 1C34.4568 1 40.5 7.05208 40.5 15.6771C40.5 17.3341 40.1364 19.1395 39.4186 21.087C38.2436 24.2756 36.1838 27.6936 33.4516 31.2208C31.9066 33.2152 30.251 35.1096 28.593 36.8442C28.0128 37.4512 27.4746 37.994 26.9922 38.4648C26.7818 38.6702 26.6162 38.8288 26.5 38.9384Z" fill="#FF9900" stroke="#FF9900" stroke-width="2"/>
<path d="M26.5 26C32.5751 26 37.5 21.0751 37.5 15C37.5 8.92487 32.5751 4 26.5 4C20.4249 4 15.5 8.92487 15.5 15C15.5 21.0751 20.4249 26 26.5 26Z" fill="white"/>
<path d="M23.2917 19.6V10.8727H26.786C27.4281 10.8727 27.9636 10.9679 28.3926 11.1582C28.8216 11.3486 29.144 11.6128 29.3599 11.9509C29.5758 12.2861 29.6838 12.6724 29.6838 13.1099C29.6838 13.4509 29.6156 13.7506 29.4792 14.0091C29.3429 14.2648 29.1554 14.475 28.9167 14.6398C28.6809 14.8017 28.411 14.9168 28.1071 14.9849V15.0702C28.4395 15.0844 28.7505 15.1781 29.0403 15.3514C29.3329 15.5247 29.5701 15.7676 29.752 16.0801C29.9338 16.3898 30.0247 16.7591 30.0247 17.1881C30.0247 17.6511 29.9096 18.0645 29.6795 18.4281C29.4522 18.7889 29.1156 19.0744 28.6696 19.2847C28.2235 19.4949 27.6738 19.6 27.0204 19.6H23.2917ZM25.1369 18.0915H26.6412C27.1554 18.0915 27.5304 17.9935 27.7662 17.7974C28.002 17.5986 28.1199 17.3344 28.1199 17.0048C28.1199 16.7634 28.0616 16.5503 27.9451 16.3656C27.8287 16.181 27.6625 16.0361 27.4466 15.931C27.2335 15.8259 26.9792 15.7733 26.6838 15.7733H25.1369V18.0915ZM25.1369 14.5247H26.5048C26.7576 14.5247 26.9821 14.4807 27.1781 14.3926C27.377 14.3017 27.5332 14.1739 27.6468 14.0091C27.7633 13.8443 27.8216 13.6469 27.8216 13.4168C27.8216 13.1014 27.7093 12.8472 27.4849 12.654C27.2633 12.4608 26.948 12.3642 26.5389 12.3642H25.1369V14.5247Z" fill="#FF9900"/>
</g>
<defs>
<clipPath id="clip0_1_1825">
<rect width="55" height="40" fill="white"/>
</clipPath>
</defs>
</svg>
