<svg width="55" height="40" viewBox="0 0 55 40" fill="none" xmlns="http://www.w3.org/2000/svg">
<g clip-path="url(#clip0_1_2012)">
<path d="M26.5 38.9384C26.3838 38.8288 26.2181 38.6702 26.0077 38.4648C25.5254 37.994 24.9873 37.4512 24.4069 36.8442C22.7491 35.1096 21.0934 33.2152 19.5484 31.2208C16.8162 27.6936 14.7564 24.2756 13.5814 21.087C12.8637 19.1395 12.5 17.3341 12.5 15.6771C12.5 7.05208 18.5432 1 26.5 1C34.4568 1 40.5 7.05208 40.5 15.6771C40.5 17.3341 40.1364 19.1395 39.4186 21.087C38.2436 24.2756 36.1838 27.6936 33.4516 31.2208C31.9066 33.2152 30.251 35.1096 28.593 36.8442C28.0128 37.4512 27.4746 37.994 26.9922 38.4648C26.7818 38.6702 26.6162 38.8288 26.5 38.9384Z" fill="#FF9900" stroke="#FF9900" stroke-width="2"/>
<path d="M26.5 26C32.5751 26 37.5 21.0751 37.5 15C37.5 8.92487 32.5751 4 26.5 4C20.4249 4 15.5 8.92487 15.5 15C15.5 21.0751 20.4249 26 26.5 26Z" fill="white"/>
<path d="M18.489 10.8727H20.7646L23.168 16.7364H23.2702L25.6737 10.8727H27.9492V19.6H26.1594V13.9196H26.087L23.8285 19.5574H22.6097L20.3512 13.8983H20.2788V19.6H18.489V10.8727ZM29.4183 19.6V18.2705L32.5249 15.394C32.7891 15.1384 33.0107 14.9082 33.1896 14.7037C33.3714 14.4992 33.5092 14.2989 33.603 14.1028C33.6967 13.904 33.7436 13.6895 33.7436 13.4594C33.7436 13.2037 33.6854 12.9835 33.5689 12.7989C33.4524 12.6114 33.2933 12.4679 33.0916 12.3685C32.8899 12.2662 32.6612 12.2151 32.4055 12.2151C32.1385 12.2151 31.9055 12.269 31.7067 12.377C31.5078 12.4849 31.3544 12.6398 31.2464 12.8415C31.1385 13.0432 31.0845 13.2832 31.0845 13.5617H29.3331C29.3331 12.9906 29.4624 12.4949 29.7209 12.0744C29.9794 11.654 30.3416 11.3287 30.8075 11.0986C31.2734 10.8685 31.8104 10.7534 32.4183 10.7534C33.0433 10.7534 33.5874 10.8642 34.0504 11.0858C34.5163 11.3046 34.8786 11.6085 35.1371 11.9977C35.3956 12.3869 35.5249 12.833 35.5249 13.3358C35.5249 13.6653 35.4595 13.9906 35.3288 14.3117C35.201 14.6327 34.9723 14.9892 34.6428 15.3813C34.3132 15.7705 33.8487 16.2378 33.2493 16.7832L31.9751 18.0318V18.0915H35.6399V19.6H29.4183Z" fill="#FF9900"/>
</g>
<defs>
<clipPath id="clip0_1_2012">
<rect width="55" height="40" fill="white"/>
</clipPath>
</defs>
</svg>
