<svg width="40" height="26" viewBox="0 0 40 26" fill="none" xmlns="http://www.w3.org/2000/svg">
<g clip-path="url(#clip0_1_2284)">
<path d="M19.35 25.31C19.2744 25.2387 19.1668 25.1357 19.03 25.0021C18.7165 24.6961 18.3667 24.3433 17.9895 23.9488C16.9119 22.8213 15.8357 21.5899 14.8315 20.2935C13.0555 18.0009 11.7167 15.7792 10.9529 13.7066C10.4864 12.4407 10.25 11.2672 10.25 10.1901C10.25 4.58388 14.1781 0.650024 19.35 0.650024C24.5219 0.650024 28.45 4.58388 28.45 10.1901C28.45 11.2672 28.2137 12.4407 27.7471 13.7066C26.9833 15.7792 25.6445 18.0009 23.8685 20.2935C22.8643 21.5899 21.7881 22.8213 20.7104 23.9488C20.3333 24.3433 19.9835 24.6961 19.6699 25.0021C19.5332 25.1357 19.4255 25.2387 19.35 25.31Z" fill="#FFC266" stroke="#FFC266" stroke-width="1.3"/>
<path d="M19.35 16.9C23.2988 16.9 26.5 13.6988 26.5 9.74998C26.5 5.80114 23.2988 2.59998 19.35 2.59998C15.4011 2.59998 12.2 5.80114 12.2 9.74998C12.2 13.6988 15.4011 16.9 19.35 16.9Z" fill="white"/>
<path d="M14.9737 11.94V6.26728H16.1731V10.9512H18.605V11.94H14.9737ZM19.3661 11.94V11.0758L21.3853 9.20612C21.5571 9.03993 21.7011 8.89036 21.8174 8.7574C21.9356 8.62445 22.0252 8.49426 22.0861 8.36685C22.147 8.23759 22.1775 8.09817 22.1775 7.9486C22.1775 7.7824 22.1397 7.63929 22.0639 7.51926C21.9882 7.39739 21.8848 7.30414 21.7537 7.23951C21.6226 7.17303 21.474 7.13979 21.3078 7.13979C21.1342 7.13979 20.9828 7.17487 20.8535 7.24505C20.7242 7.31522 20.6245 7.41585 20.5544 7.54696C20.4842 7.67807 20.4491 7.83411 20.4491 8.01507H19.3107C19.3107 7.64391 19.3947 7.32168 19.5627 7.04838C19.7308 6.77509 19.9662 6.56365 20.2691 6.41408C20.5719 6.26451 20.9209 6.18972 21.3161 6.18972C21.7223 6.18972 22.0759 6.26174 22.3769 6.40577C22.6798 6.54796 22.9152 6.74554 23.0833 6.99853C23.2513 7.25151 23.3353 7.54142 23.3353 7.86827C23.3353 8.08247 23.2929 8.29391 23.2079 8.50257C23.1248 8.71124 22.9762 8.94299 22.762 9.19782C22.5478 9.4508 22.2458 9.75456 21.8562 10.1091L21.028 10.9207V10.9595H23.4101V11.94H19.3661Z" fill="#FFC266"/>
</g>
<defs>
<clipPath id="clip0_1_2284">
<rect width="40" height="26" fill="white"/>
</clipPath>
</defs>
</svg>
