<svg width="55" height="40" viewBox="0 0 55 40" fill="none" xmlns="http://www.w3.org/2000/svg">
<g clip-path="url(#clip0_1_1960)">
<path d="M26.5 38.9384C26.3838 38.8288 26.2181 38.6702 26.0077 38.4648C25.5254 37.994 24.9873 37.4512 24.4069 36.8442C22.7491 35.1096 21.0934 33.2152 19.5484 31.2208C16.8162 27.6936 14.7564 24.2756 13.5814 21.087C12.8637 19.1395 12.5 17.3341 12.5 15.6771C12.5 7.05208 18.5432 1 26.5 1C34.4568 1 40.5 7.05208 40.5 15.6771C40.5 17.3341 40.1364 19.1395 39.4186 21.087C38.2436 24.2756 36.1838 27.6936 33.4516 31.2208C31.9066 33.2152 30.251 35.1096 28.593 36.8442C28.0128 37.4512 27.4746 37.994 26.9922 38.4648C26.7818 38.6702 26.6162 38.8288 26.5 38.9384Z" fill="#FF9900" stroke="#FF9900" stroke-width="2"/>
<path d="M26.5 26C32.5751 26 37.5 21.0751 37.5 15C37.5 8.92487 32.5751 4 26.5 4C20.4249 4 15.5 8.92487 15.5 15C15.5 21.0751 20.4249 26 26.5 26Z" fill="white"/>
<path d="M24.8954 10.8727H26.7193V16.958C26.7193 17.5205 26.5929 18.0091 26.34 18.4239C26.09 18.8386 25.742 19.1582 25.296 19.3827C24.85 19.6071 24.3315 19.7193 23.7406 19.7193C23.215 19.7193 22.7377 19.627 22.3088 19.4423C21.8826 19.2548 21.5446 18.9707 21.2946 18.5901C21.0446 18.2065 20.921 17.725 20.9238 17.1455H22.7605C22.7662 17.3756 22.813 17.573 22.9011 17.7378C22.992 17.8997 23.1156 18.0247 23.2718 18.1128C23.4309 18.198 23.6184 18.2406 23.8343 18.2406C24.0616 18.2406 24.2534 18.1923 24.4096 18.0957C24.5687 17.9963 24.6895 17.8514 24.7718 17.6611C24.8542 17.4707 24.8954 17.2364 24.8954 16.958V10.8727ZM31.9906 10.8727V19.6H30.1454V12.6242H30.0943L28.0957 13.877V12.2406L30.2562 10.8727H31.9906Z" fill="#FF9900"/>
</g>
<defs>
<clipPath id="clip0_1_1960">
<rect width="55" height="40" fill="white"/>
</clipPath>
</defs>
</svg>
