<svg width="40" height="26" viewBox="0 0 40 26" fill="none" xmlns="http://www.w3.org/2000/svg">
<g clip-path="url(#clip0_1_1714)">
<path d="M19.35 25.31C19.2744 25.2387 19.1668 25.1356 19.03 25.0021C18.7165 24.6961 18.3667 24.3433 17.9895 23.9487C16.9119 22.8212 15.8357 21.5899 14.8315 20.2935C13.0555 18.0008 11.7167 15.7791 10.9529 13.7065C10.4864 12.4407 10.25 11.2671 10.25 10.1901C10.25 4.58385 14.1781 0.649994 19.35 0.649994C24.5219 0.649994 28.45 4.58385 28.45 10.1901C28.45 11.2671 28.2137 12.4407 27.7471 13.7065C26.9833 15.7791 25.6445 18.0008 23.8685 20.2935C22.8643 21.5899 21.7881 22.8212 20.7104 23.9487C20.3333 24.3433 19.9835 24.6961 19.6699 25.0021C19.5332 25.1356 19.4255 25.2387 19.35 25.31Z" fill="#FFC266" stroke="#FFC266" stroke-width="1.3"/>
<path d="M19.35 16.9C23.2988 16.9 26.5 13.6988 26.5 9.75001C26.5 5.80117 23.2988 2.60001 19.35 2.60001C15.4012 2.60001 12.2 5.80117 12.2 9.75001C12.2 13.6988 15.4012 16.9 19.35 16.9Z" fill="white"/>
<path d="M19.8075 8.25328H18.5943C18.5721 8.09632 18.5269 7.95691 18.4586 7.83503C18.3902 7.71131 18.3025 7.60605 18.1954 7.51926C18.0883 7.43247 17.9646 7.366 17.8243 7.31983C17.6858 7.27367 17.5353 7.25059 17.3728 7.25059C17.0792 7.25059 16.8234 7.32353 16.6055 7.46941C16.3876 7.61344 16.2186 7.82395 16.0986 8.10094C15.9786 8.37608 15.9186 8.71031 15.9186 9.10364C15.9186 9.50804 15.9786 9.84781 16.0986 10.123C16.2205 10.3981 16.3904 10.6058 16.6083 10.7462C16.8262 10.8865 17.0782 10.9567 17.3645 10.9567C17.5251 10.9567 17.6738 10.9355 17.8104 10.893C17.9489 10.8505 18.0717 10.7887 18.1788 10.7074C18.2859 10.6243 18.3745 10.5237 18.4447 10.4055C18.5167 10.2873 18.5666 10.1525 18.5943 10.0011L19.8075 10.0066C19.7761 10.267 19.6976 10.5181 19.5721 10.76C19.4483 11.0001 19.2812 11.2152 19.0707 11.4054C18.862 11.5938 18.6128 11.7433 18.3228 11.8541C18.0348 11.9631 17.7088 12.0176 17.3451 12.0176C16.8391 12.0176 16.3867 11.9031 15.9878 11.6741C15.5908 11.4451 15.2769 11.1137 15.0461 10.6797C14.8171 10.2458 14.7026 9.7204 14.7026 9.10364C14.7026 8.48503 14.8189 7.95875 15.0516 7.5248C15.2843 7.09085 15.6 6.76031 15.9989 6.53318C16.3978 6.30421 16.8465 6.18972 17.3451 6.18972C17.6738 6.18972 17.9784 6.23588 18.2591 6.32821C18.5417 6.42054 18.7919 6.55534 19.0098 6.73262C19.2277 6.90804 19.4049 7.12317 19.5416 7.378C19.6801 7.63283 19.7687 7.92459 19.8075 8.25328ZM23.1023 6.26728V11.94H21.9029V7.4057H21.8697L20.5706 8.22005V7.15641L21.9749 6.26728H23.1023Z" fill="#FFC266"/>
</g>
<defs>
<clipPath id="clip0_1_1714">
<rect width="40" height="26" fill="white"/>
</clipPath>
</defs>
</svg>
