<svg width="40" height="26" viewBox="0 0 40 26" fill="none" xmlns="http://www.w3.org/2000/svg">
<g clip-path="url(#clip0_1_1757)">
<path d="M19.35 25.31C19.2744 25.2387 19.1668 25.1356 19.03 25.0021C18.7165 24.6961 18.3667 24.3433 17.9895 23.9487C16.9119 22.8212 15.8357 21.5899 14.8315 20.2935C13.0555 18.0008 11.7167 15.7791 10.9529 13.7065C10.4864 12.4407 10.25 11.2671 10.25 10.1901C10.25 4.58385 14.1781 0.649994 19.35 0.649994C24.5219 0.649994 28.45 4.58385 28.45 10.1901C28.45 11.2671 28.2137 12.4407 27.7471 13.7065C26.9833 15.7791 25.6445 18.0008 23.8685 20.2935C22.8643 21.5899 21.7881 22.8212 20.7104 23.9487C20.3333 24.3433 19.9835 24.6961 19.6699 25.0021C19.5332 25.1356 19.4255 25.2387 19.35 25.31Z" fill="#FFC266" stroke="#FFC266" stroke-width="1.3"/>
<path d="M19.35 16.9C23.2988 16.9 26.5 13.6988 26.5 9.75001C26.5 5.80117 23.2988 2.60001 19.35 2.60001C15.4012 2.60001 12.2 5.80117 12.2 9.75001C12.2 13.6988 15.4012 16.9 19.35 16.9Z" fill="white"/>
<path d="M14.6842 11.94V6.26728H18.5067V7.25612H15.8836V8.60783H18.31V9.59668H15.8836V10.9512H18.5178V11.94H14.6842ZM21.5238 12.0176C21.1101 12.0176 20.7418 11.9465 20.4186 11.8043C20.0973 11.6602 19.8434 11.4627 19.6569 11.2115C19.4722 10.9585 19.3771 10.6668 19.3716 10.3362H20.5793C20.5866 10.4747 20.6319 10.5966 20.715 10.7019C20.7999 10.8053 20.9126 10.8856 21.0529 10.9428C21.1932 11.0001 21.3511 11.0287 21.5266 11.0287C21.7094 11.0287 21.8709 10.9964 22.0113 10.9318C22.1516 10.8671 22.2615 10.7776 22.3409 10.6631C22.4203 10.5486 22.46 10.4166 22.46 10.267C22.46 10.1156 22.4175 9.98169 22.3326 9.86536C22.2495 9.74718 22.1295 9.65485 21.9725 9.58837C21.8174 9.52189 21.6327 9.48865 21.4185 9.48865H20.8895V8.60783H21.4185C21.5995 8.60783 21.7592 8.57644 21.8977 8.51365C22.0381 8.45087 22.147 8.36408 22.2246 8.25328C22.3021 8.14064 22.3409 8.00953 22.3409 7.85996C22.3409 7.71777 22.3067 7.59313 22.2384 7.48603C22.1719 7.37708 22.0778 7.29213 21.9559 7.2312C21.8359 7.17026 21.6955 7.13979 21.5349 7.13979C21.3724 7.13979 21.2237 7.16933 21.0889 7.22843C20.9541 7.28567 20.8461 7.36784 20.7648 7.47495C20.6836 7.58205 20.6402 7.70762 20.6347 7.85165H19.4851C19.4907 7.5248 19.5839 7.23674 19.7649 6.98745C19.9459 6.73816 20.1896 6.54334 20.4962 6.403C20.8045 6.26081 21.1526 6.18972 21.5404 6.18972C21.9319 6.18972 22.2744 6.26081 22.568 6.403C22.8616 6.54519 23.0897 6.73723 23.2522 6.97914C23.4165 7.21919 23.4978 7.4888 23.4959 7.78794C23.4978 8.10556 23.399 8.37054 23.1996 8.5829C23.002 8.79526 22.7444 8.93006 22.4268 8.9873V9.03162C22.8441 9.08517 23.1617 9.23013 23.3796 9.46649C23.5994 9.70101 23.7083 9.99462 23.7065 10.3473C23.7083 10.6705 23.6151 10.9576 23.4267 11.2088C23.2402 11.4599 22.9826 11.6575 22.6539 11.8015C22.3252 11.9455 21.9485 12.0176 21.5238 12.0176Z" fill="#FFC266"/>
</g>
<defs>
<clipPath id="clip0_1_1757">
<rect width="40" height="26" fill="white"/>
</clipPath>
</defs>
</svg>
