<svg width="55" height="40" viewBox="0 0 55 40" fill="none" xmlns="http://www.w3.org/2000/svg">
<g clip-path="url(#clip0_1_2128)">
<path d="M26.5 38.9384C26.3838 38.8288 26.2181 38.6702 26.0077 38.4648C25.5254 37.994 24.9873 37.4512 24.4069 36.8442C22.7491 35.1096 21.0934 33.2152 19.5484 31.2208C16.8162 27.6936 14.7564 24.2756 13.5814 21.087C12.8637 19.1395 12.5 17.3341 12.5 15.6771C12.5 7.05208 18.5432 1 26.5 1C34.4568 1 40.5 7.05208 40.5 15.6771C40.5 17.3341 40.1364 19.1395 39.4186 21.087C38.2436 24.2756 36.1838 27.6936 33.4516 31.2208C31.9066 33.2152 30.251 35.1096 28.593 36.8442C28.0128 37.4512 27.4746 37.994 26.9922 38.4648C26.7818 38.6702 26.6162 38.8288 26.5 38.9384Z" fill="#FF9900" stroke="#FF9900" stroke-width="2"/>
<path d="M26.5 26C32.5751 26 37.5 21.0751 37.5 15C37.5 8.92487 32.5751 4 26.5 4C20.4249 4 15.5 8.92487 15.5 15C15.5 21.0751 20.4249 26 26.5 26Z" fill="white"/>
<path d="M18.9632 12.394V10.8727H26.1309V12.394H23.459V19.6H21.6351V12.394H18.9632ZM30.486 19.7193C29.8496 19.7193 29.2828 19.6099 28.7857 19.3912C28.2914 19.1696 27.9007 18.8656 27.6138 18.4793C27.3297 18.0901 27.1834 17.6412 27.1749 17.1327H29.0328C29.0442 17.3457 29.1138 17.5332 29.2417 17.6952C29.3723 17.8543 29.5456 17.9778 29.7615 18.0659C29.9775 18.154 30.2203 18.198 30.4902 18.198C30.7715 18.198 31.0201 18.1483 31.236 18.0489C31.4519 17.9494 31.6209 17.8117 31.7431 17.6355C31.8652 17.4594 31.9263 17.2563 31.9263 17.0261C31.9263 16.7932 31.861 16.5872 31.7303 16.4082C31.6025 16.2264 31.4178 16.0844 31.1763 15.9821C30.9377 15.8798 30.6536 15.8287 30.324 15.8287H29.5101V14.4736H30.324C30.6025 14.4736 30.8482 14.4253 31.0613 14.3287C31.2772 14.2321 31.4448 14.0986 31.5641 13.9281C31.6834 13.7548 31.7431 13.5531 31.7431 13.323C31.7431 13.1043 31.6905 12.9125 31.5854 12.7477C31.4831 12.5801 31.3382 12.4494 31.1507 12.3557C30.9661 12.2619 30.7502 12.2151 30.503 12.2151C30.253 12.2151 30.0243 12.2605 29.8169 12.3514C29.6096 12.4395 29.4434 12.5659 29.3184 12.7307C29.1934 12.8955 29.1266 13.0886 29.1181 13.3102H27.3496C27.3581 12.8074 27.5016 12.3642 27.78 11.9807C28.0584 11.5972 28.4334 11.2974 28.905 11.0815C29.3794 10.8628 29.915 10.7534 30.5115 10.7534C31.1138 10.7534 31.6408 10.8628 32.0925 11.0815C32.5442 11.3003 32.8951 11.5957 33.1451 11.9679C33.3979 12.3372 33.5229 12.752 33.5201 13.2122C33.5229 13.7009 33.3709 14.1085 33.0641 14.4352C32.7601 14.7619 32.3638 14.9693 31.8752 15.0574V15.1256C32.5172 15.208 33.0059 15.431 33.3411 15.7946C33.6792 16.1554 33.8468 16.6071 33.8439 17.1497C33.8468 17.6469 33.7033 18.0886 33.4135 18.475C33.1266 18.8614 32.7303 19.1653 32.2246 19.3869C31.7189 19.6085 31.1394 19.7193 30.486 19.7193Z" fill="#FF9900"/>
</g>
<defs>
<clipPath id="clip0_1_2128">
<rect width="55" height="40" fill="white"/>
</clipPath>
</defs>
</svg>
