<svg width="80" height="62.3" viewBox="0 0 20 20" fill="none" xmlns="http://www.w3.org/2000/svg">
<path d="M10 18.8365C9.94754 18.7875 9.87729 18.7211 9.79072 18.6379C9.56598 18.422 9.31513 18.173 9.0446 17.8944C8.27172 17.0984 7.49996 16.2291 6.77993 15.3141C5.50631 13.6957 4.54787 12.1294 4.00168 10.6704C3.66816 9.77948 3.5 8.95578 3.5 8.20166C3.5 4.26818 6.29899 1.5 10 1.5C13.701 1.5 16.5 4.26818 16.5 8.20166C16.5 8.95578 16.3318 9.77948 15.9983 10.6704C15.4521 12.1294 14.4937 13.6957 13.2201 15.3141C12.5 16.2291 11.7283 17.0984 10.9554 17.8944C10.6849 18.173 10.434 18.422 10.2093 18.6379C10.1227 18.7211 10.0525 18.7875 10 18.8365Z" fill="#FF9900" stroke="#FF9900"/>
<path d="M10 13C7.23858 13 5 10.7614 5 8C5 5.23858 7.23858 3 10 3C12.7614 3 15 5.23858 15 8C15 10.7614 12.7614 13 10 13Z" fill="white"/>
<path d="M10.9119 6.14661V7.14366H8V6.14661H10.9119ZM8.66107 5H10.0021V9.4618C10.0021 9.58436 10.021 9.67991 10.0588 9.74845C10.0965 9.81492 10.149 9.86166 10.2162 9.88867C10.2854 9.91567 10.3652 9.92917 10.4554 9.92917C10.5184 9.92917 10.5813 9.92398 10.6443 9.91359C10.7072 9.90113 10.7555 9.89178 10.7891 9.88555L11 10.8733C10.9328 10.894 10.8384 10.9179 10.7167 10.9449C10.595 10.974 10.447 10.9917 10.2728 10.9979C9.94963 11.0103 9.66632 10.9678 9.42288 10.8701C9.18153 10.7725 8.9937 10.6209 8.85939 10.4152C8.72508 10.2096 8.65897 9.94994 8.66107 9.63629V5Z" fill="#FF9900"/>
</svg>
