<svg width="40" height="26" viewBox="0 0 40 26" fill="none" xmlns="http://www.w3.org/2000/svg">
<g clip-path="url(#clip0_1_2324)">
<path d="M19.35 25.31C19.2744 25.2387 19.1668 25.1357 19.03 25.0021C18.7165 24.6961 18.3667 24.3433 17.9895 23.9488C16.9119 22.8213 15.8357 21.5899 14.8315 20.2935C13.0555 18.0009 11.7167 15.7792 10.9529 13.7066C10.4864 12.4407 10.25 11.2672 10.25 10.1901C10.25 4.58388 14.1781 0.650024 19.35 0.650024C24.5219 0.650024 28.45 4.58388 28.45 10.1901C28.45 11.2672 28.2137 12.4407 27.7471 13.7066C26.9833 15.7792 25.6445 18.0009 23.8685 20.2935C22.8643 21.5899 21.7881 22.8213 20.7104 23.9488C20.3333 24.3433 19.9835 24.6961 19.6699 25.0021C19.5332 25.1357 19.4255 25.2387 19.35 25.31Z" fill="#FFC266" stroke="#FFC266" stroke-width="1.3"/>
<path d="M19.35 16.9C23.2988 16.9 26.5 13.6988 26.5 9.74998C26.5 5.80114 23.2988 2.59998 19.35 2.59998C15.4012 2.59998 12.2 5.80114 12.2 9.74998C12.2 13.6988 15.4012 16.9 19.35 16.9Z" fill="white"/>
<path d="M22.2553 9.10364C22.2553 9.72225 22.138 10.2485 21.9035 10.6825C21.6708 11.1164 21.3532 11.4479 20.9506 11.6769C20.5499 11.904 20.0994 12.0176 19.5989 12.0176C19.0948 12.0176 18.6424 11.9031 18.2417 11.6741C17.841 11.4451 17.5243 11.1137 17.2916 10.6797C17.059 10.2458 16.9426 9.7204 16.9426 9.10364C16.9426 8.48503 17.059 7.95875 17.2916 7.5248C17.5243 7.09085 17.841 6.76031 18.2417 6.53318C18.6424 6.30421 19.0948 6.18972 19.5989 6.18972C20.0994 6.18972 20.5499 6.30421 20.9506 6.53318C21.3532 6.76031 21.6708 7.09085 21.9035 7.5248C22.138 7.95875 22.2553 8.48503 22.2553 9.10364ZM21.0393 9.10364C21.0393 8.70293 20.9793 8.365 20.8592 8.08986C20.7411 7.81472 20.5739 7.60605 20.3579 7.46387C20.1418 7.32168 19.8889 7.25059 19.5989 7.25059C19.309 7.25059 19.056 7.32168 18.84 7.46387C18.6239 7.60605 18.4559 7.81472 18.3359 8.08986C18.2177 8.365 18.1586 8.70293 18.1586 9.10364C18.1586 9.50435 18.2177 9.84228 18.3359 10.1174C18.4559 10.3926 18.6239 10.6012 18.84 10.7434C19.056 10.8856 19.309 10.9567 19.5989 10.9567C19.8889 10.9567 20.1418 10.8856 20.3579 10.7434C20.5739 10.6012 20.7411 10.3926 20.8592 10.1174C20.9793 9.84228 21.0393 9.50435 21.0393 9.10364Z" fill="#FFC266"/>
</g>
<defs>
<clipPath id="clip0_1_2324">
<rect width="40" height="26" fill="white"/>
</clipPath>
</defs>
</svg>
