<svg width="40" height="26" viewBox="0 0 20 20" fill="none" xmlns="http://www.w3.org/2000/svg">
<path d="M9.5 19.4692C9.44188 19.4144 9.35905 19.3351 9.25385 19.2324C9.01272 18.997 8.74363 18.7256 8.45347 18.4221C7.62453 17.5548 6.79668 16.6076 6.02421 15.6104C4.65811 13.8468 3.6282 12.1378 3.04068 10.5435C2.68183 9.56975 2.5 8.66704 2.5 7.83854C2.5 3.52604 5.52161 0.5 9.5 0.5C13.4784 0.5 16.5 3.52604 16.5 7.83854C16.5 8.66704 16.3182 9.56975 15.9593 10.5435C15.3718 12.1378 14.3419 13.8468 12.9758 15.6104C12.2033 16.6076 11.3755 17.5548 10.5465 18.4221C10.2564 18.7256 9.98728 18.997 9.74615 19.2324C9.64095 19.3351 9.55812 19.4144 9.5 19.4692Z" fill="#ffc266" stroke="#ffc266"/>
<path d="M9.5 13C6.46243 13 4 10.5376 4 7.5C4 4.46243 6.46243 2 9.5 2C12.5376 2 15 4.46243 15 7.5C15 10.5376 12.5376 13 9.5 13Z" fill="white"/>
<path d="M6.6321 11V3.72727H9.54403C10.0791 3.72727 10.5253 3.80658 10.8828 3.9652C11.2403 4.12382 11.509 4.34399 11.6889 4.62571C11.8688 4.90507 11.9588 5.22704 11.9588 5.59162C11.9588 5.87571 11.902 6.12547 11.7884 6.34091C11.6747 6.55398 11.5185 6.72917 11.3196 6.86648C11.1231 7.00142 10.8982 7.0973 10.6449 7.15412V7.22514C10.9219 7.23698 11.1811 7.3151 11.4226 7.45952C11.6664 7.60393 11.8641 7.80634 12.0156 8.06676C12.1671 8.32481 12.2429 8.63258 12.2429 8.99006C12.2429 9.37595 12.147 9.72041 11.9553 10.0234C11.7659 10.3241 11.4853 10.562 11.1136 10.7372C10.742 10.9124 10.2839 11 9.73935 11H6.6321ZM8.16974 9.7429H9.4233C9.8518 9.7429 10.1643 9.66122 10.3608 9.49787C10.5573 9.33215 10.6555 9.11198 10.6555 8.83736C10.6555 8.63613 10.607 8.45857 10.5099 8.30469C10.4129 8.1508 10.2744 8.03007 10.0945 7.94247C9.9169 7.85488 9.70502 7.81108 9.45881 7.81108H8.16974V9.7429ZM8.16974 6.7706H9.30966C9.52036 6.7706 9.70739 6.7339 9.87074 6.66051C10.0365 6.58475 10.1667 6.47822 10.2614 6.34091C10.3584 6.2036 10.407 6.03906 10.407 5.8473C10.407 5.58452 10.3134 5.37263 10.1264 5.21165C9.94176 5.05066 9.67898 4.97017 9.33807 4.97017H8.16974V6.7706Z" fill="#ffc266"/>
</svg>
