<svg width="40" height="26" viewBox="0 0 40 26" fill="none" xmlns="http://www.w3.org/2000/svg">
<g clip-path="url(#clip0_1_1789)">
<path d="M19.35 25.31C19.2744 25.2387 19.1668 25.1356 19.03 25.0021C18.7165 24.6961 18.3667 24.3433 17.9895 23.9487C16.9119 22.8212 15.8357 21.5899 14.8315 20.2935C13.0555 18.0008 11.7167 15.7791 10.9529 13.7065C10.4864 12.4407 10.25 11.2671 10.25 10.1901C10.25 4.58385 14.1781 0.649994 19.35 0.649994C24.5219 0.649994 28.45 4.58385 28.45 10.1901C28.45 11.2671 28.2137 12.4407 27.7471 13.7065C26.9833 15.7791 25.6445 18.0008 23.8685 20.2935C22.8643 21.5899 21.7881 22.8212 20.7104 23.9487C20.3333 24.3433 19.9835 24.6961 19.6699 25.0021C19.5332 25.1356 19.4255 25.2387 19.35 25.31Z" fill="#FFC266" stroke="#FFC266" stroke-width="1.3"/>
<path d="M19.35 16.9C23.2988 16.9 26.5 13.6988 26.5 9.75001C26.5 5.80117 23.2988 2.60001 19.35 2.60001C15.4011 2.60001 12.2 5.80117 12.2 9.75001C12.2 13.6988 15.4011 16.9 19.35 16.9Z" fill="white"/>
<path d="M17.2169 8.10094C17.1781 7.96614 17.1236 7.84703 17.0534 7.74362C16.9833 7.63837 16.8974 7.54973 16.7958 7.47772C16.6961 7.40385 16.5816 7.34753 16.4524 7.30875C16.3249 7.26997 16.1837 7.25059 16.0286 7.25059C15.7387 7.25059 15.4838 7.3226 15.2641 7.46664C15.0462 7.61067 14.8763 7.82026 14.7544 8.0954C14.6325 8.3687 14.5716 8.70293 14.5716 9.0981C14.5716 9.49327 14.6316 9.82935 14.7517 10.1063C14.8717 10.3833 15.0416 10.5948 15.2613 10.7406C15.4811 10.8847 15.7405 10.9567 16.0396 10.9567C16.3111 10.9567 16.5428 10.9087 16.7349 10.8127C16.9288 10.7148 17.0765 10.5772 17.1781 10.3999C17.2815 10.2227 17.3332 10.0131 17.3332 9.77118L17.5769 9.80719H16.1144V8.90421H18.4882V9.61884C18.4882 10.1174 18.383 10.5458 18.1725 10.9041C17.9619 11.2605 17.672 11.5356 17.3027 11.7295C16.9334 11.9215 16.5105 12.0176 16.0341 12.0176C15.5023 12.0176 15.0351 11.9003 14.6325 11.6658C14.23 11.4294 13.9161 11.0943 13.6908 10.6603C13.4673 10.2245 13.3556 9.70747 13.3556 9.10918C13.3556 8.64938 13.4221 8.23943 13.5551 7.87935C13.6899 7.51742 13.8782 7.21088 14.1201 6.95975C14.362 6.70861 14.6436 6.51749 14.9649 6.38638C15.2862 6.25527 15.6343 6.18972 16.0092 6.18972C16.3305 6.18972 16.6296 6.23681 16.9066 6.33098C17.1836 6.42331 17.4292 6.55442 17.6434 6.72431C17.8595 6.89419 18.0358 7.09639 18.1725 7.33091C18.3091 7.56358 18.3968 7.82026 18.4356 8.10094H17.2169ZM21.4527 12.0176C21.0391 12.0176 20.6707 11.9465 20.3475 11.8043C20.0262 11.6602 19.7723 11.4627 19.5858 11.2115C19.4011 10.9585 19.306 10.6668 19.3005 10.3362H20.5082C20.5156 10.4747 20.5608 10.5966 20.6439 10.7019C20.7288 10.8053 20.8415 10.8856 20.9818 10.9428C21.1222 11.0001 21.28 11.0287 21.4555 11.0287C21.6383 11.0287 21.7999 10.9964 21.9402 10.9318C22.0805 10.8671 22.1904 10.7776 22.2698 10.6631C22.3492 10.5486 22.3889 10.4166 22.3889 10.267C22.3889 10.1156 22.3464 9.98169 22.2615 9.86536C22.1784 9.74718 22.0584 9.65485 21.9014 9.58837C21.7463 9.52189 21.5616 9.48865 21.3474 9.48865H20.8184V8.60783H21.3474C21.5284 8.60783 21.6881 8.57644 21.8266 8.51365C21.967 8.45087 22.0759 8.36408 22.1535 8.25328C22.231 8.14064 22.2698 8.00953 22.2698 7.85996C22.2698 7.71777 22.2357 7.59313 22.1673 7.48603C22.1009 7.37708 22.0067 7.29213 21.8848 7.2312C21.7648 7.17026 21.6244 7.13979 21.4638 7.13979C21.3013 7.13979 21.1526 7.16933 21.0178 7.22843C20.883 7.28567 20.775 7.36784 20.6938 7.47495C20.6125 7.58205 20.5691 7.70762 20.5636 7.85165H19.4141C19.4196 7.5248 19.5129 7.23674 19.6938 6.98745C19.8748 6.73816 20.1185 6.54334 20.4251 6.403C20.7335 6.26081 21.0815 6.18972 21.4693 6.18972C21.8608 6.18972 22.2033 6.26081 22.4969 6.403C22.7906 6.54519 23.0186 6.73723 23.1811 6.97914C23.3455 7.21919 23.4267 7.4888 23.4249 7.78794C23.4267 8.10556 23.3279 8.37054 23.1285 8.5829C22.9309 8.79526 22.6733 8.93006 22.3557 8.9873V9.03162C22.773 9.08517 23.0906 9.23013 23.3085 9.46649C23.5283 9.70101 23.6372 9.99462 23.6354 10.3473C23.6372 10.6705 23.544 10.9576 23.3556 11.2088C23.1691 11.4599 22.9115 11.6575 22.5828 11.8015C22.2541 11.9455 21.8774 12.0176 21.4527 12.0176Z" fill="#FFC266"/>
</g>
<defs>
<clipPath id="clip0_1_1789">
<rect width="40" height="26" fill="white"/>
</clipPath>
</defs>
</svg>
