<svg width="55" height="40" viewBox="0 0 55 40" fill="none" xmlns="http://www.w3.org/2000/svg">
<g clip-path="url(#clip0_1_1884)">
<path d="M26.5 38.9384C26.3838 38.8288 26.2181 38.6702 26.0077 38.4648C25.5254 37.994 24.9873 37.4512 24.4069 36.8442C22.7491 35.1096 21.0934 33.2152 19.5484 31.2208C16.8162 27.6936 14.7564 24.2756 13.5814 21.087C12.8637 19.1395 12.5 17.3341 12.5 15.6771C12.5 7.05208 18.5432 1 26.5 1C34.4568 1 40.5 7.05208 40.5 15.6771C40.5 17.3341 40.1364 19.1395 39.4186 21.087C38.2436 24.2756 36.1838 27.6936 33.4516 31.2208C31.9066 33.2152 30.251 35.1096 28.593 36.8442C28.0128 37.4512 27.4746 37.994 26.9922 38.4648C26.7818 38.6702 26.6162 38.8288 26.5 38.9384Z" fill="#FF9900" stroke="#FF9900" stroke-width="2"/>
<path d="M26.5 26C32.5751 26 37.5 21.0751 37.5 15C37.5 8.92487 32.5751 4 26.5 4C20.4249 4 15.5 8.92487 15.5 15C15.5 21.0751 20.4249 26 26.5 26Z" fill="white"/>
<path d="M20.3054 19.6V10.8727H26.1861V12.394H22.1506V14.4736H25.8835V15.9949H22.1506V18.0787H26.2031V19.6H20.3054ZM27.6019 19.6V18.2705L30.7085 15.394C30.9727 15.1384 31.1942 14.9082 31.3732 14.7037C31.555 14.4992 31.6928 14.2989 31.7866 14.1028C31.8803 13.904 31.9272 13.6895 31.9272 13.4594C31.9272 13.2037 31.869 12.9835 31.7525 12.7989C31.636 12.6114 31.4769 12.4679 31.2752 12.3685C31.0735 12.2662 30.8448 12.2151 30.5891 12.2151C30.3221 12.2151 30.0891 12.269 29.8903 12.377C29.6914 12.4849 29.538 12.6398 29.43 12.8415C29.3221 13.0432 29.2681 13.2832 29.2681 13.5617H27.5167C27.5167 12.9906 27.646 12.4949 27.9045 12.0744C28.163 11.654 28.5252 11.3287 28.9911 11.0986C29.457 10.8685 29.994 10.7534 30.6019 10.7534C31.2269 10.7534 31.771 10.8642 32.234 11.0858C32.6999 11.3046 33.0621 11.6085 33.3207 11.9977C33.5792 12.3869 33.7085 12.833 33.7085 13.3358C33.7085 13.6653 33.6431 13.9906 33.5124 14.3117C33.3846 14.6327 33.1559 14.9892 32.8263 15.3813C32.4968 15.7705 32.0323 16.2378 31.4329 16.7832L30.1587 18.0318V18.0915H33.8235V19.6H27.6019Z" fill="#FF9900"/>
</g>
<defs>
<clipPath id="clip0_1_1884">
<rect width="55" height="40" fill="white"/>
</clipPath>
</defs>
</svg>
