<svg width="55" height="40" viewBox="0 0 55 40" fill="none" xmlns="http://www.w3.org/2000/svg">
<g clip-path="url(#clip0_1_2044)">
<path d="M26.5 38.9384C26.3838 38.8288 26.2181 38.6702 26.0077 38.4648C25.5254 37.994 24.9873 37.4512 24.4069 36.8442C22.7491 35.1096 21.0934 33.2152 19.5484 31.2208C16.8162 27.6936 14.7564 24.2756 13.5814 21.087C12.8637 19.1395 12.5 17.3341 12.5 15.6771C12.5 7.05208 18.5432 1 26.5 1C34.4568 1 40.5 7.05208 40.5 15.6771C40.5 17.3341 40.1364 19.1395 39.4186 21.087C38.2436 24.2756 36.1838 27.6936 33.4516 31.2208C31.9066 33.2152 30.251 35.1096 28.593 36.8442C28.0128 37.4512 27.4746 37.994 26.9922 38.4648C26.7818 38.6702 26.6162 38.8288 26.5 38.9384Z" fill="#FF9900" stroke="#FF9900" stroke-width="2"/>
<path d="M26.5 26C32.5751 26 37.5 21.0751 37.5 15C37.5 8.92487 32.5751 4 26.5 4C20.4249 4 15.5 8.92487 15.5 15C15.5 21.0751 20.4249 26 26.5 26Z" fill="white"/>
<path d="M27.3058 15.2364C27.3058 16.1881 27.1254 16.9977 26.7646 17.6653C26.4066 18.333 25.918 18.8429 25.2987 19.1952C24.6822 19.5446 23.989 19.7193 23.2191 19.7193C22.4435 19.7193 21.7475 19.5432 21.131 19.1909C20.5146 18.8386 20.0273 18.3287 19.6694 17.6611C19.3114 16.9935 19.1325 16.1852 19.1325 15.2364C19.1325 14.2847 19.3114 13.475 19.6694 12.8074C20.0273 12.1398 20.5146 11.6313 21.131 11.2818C21.7475 10.9296 22.4435 10.7534 23.2191 10.7534C23.989 10.7534 24.6822 10.9296 25.2987 11.2818C25.918 11.6313 26.4066 12.1398 26.7646 12.8074C27.1254 13.475 27.3058 14.2847 27.3058 15.2364ZM25.435 15.2364C25.435 14.6199 25.3427 14.1 25.158 13.6767C24.9762 13.2534 24.7191 12.9324 24.3867 12.7136C24.0543 12.4949 23.6651 12.3855 23.2191 12.3855C22.7731 12.3855 22.3839 12.4949 22.0515 12.7136C21.7191 12.9324 21.4606 13.2534 21.2759 13.6767C21.0941 14.1 21.0032 14.6199 21.0032 15.2364C21.0032 15.8528 21.0941 16.3727 21.2759 16.796C21.4606 17.2193 21.7191 17.5403 22.0515 17.7591C22.3839 17.9778 22.7731 18.0872 23.2191 18.0872C23.6651 18.0872 24.0543 17.9778 24.3867 17.7591C24.7191 17.5403 24.9762 17.2193 25.158 16.796C25.3427 16.3727 25.435 15.8528 25.435 15.2364ZM28.6214 19.6V18.2705L31.728 15.394C31.9922 15.1384 32.2138 14.9082 32.3928 14.7037C32.5746 14.4992 32.7124 14.2989 32.8061 14.1028C32.8999 13.904 32.9467 13.6895 32.9467 13.4594C32.9467 13.2037 32.8885 12.9835 32.772 12.7989C32.6555 12.6114 32.4964 12.4679 32.2947 12.3685C32.093 12.2662 31.8643 12.2151 31.6087 12.2151C31.3416 12.2151 31.1087 12.269 30.9098 12.377C30.7109 12.4849 30.5575 12.6398 30.4496 12.8415C30.3416 13.0432 30.2876 13.2832 30.2876 13.5617H28.5362C28.5362 12.9906 28.6655 12.4949 28.924 12.0744C29.1825 11.654 29.5447 11.3287 30.0107 11.0986C30.4766 10.8685 31.0135 10.7534 31.6214 10.7534C32.2464 10.7534 32.7905 10.8642 33.2536 11.0858C33.7195 11.3046 34.0817 11.6085 34.3402 11.9977C34.5987 12.3869 34.728 12.833 34.728 13.3358C34.728 13.6653 34.6626 13.9906 34.532 14.3117C34.4041 14.6327 34.1754 14.9892 33.8459 15.3813C33.5163 15.7705 33.0518 16.2378 32.4524 16.7832L31.1783 18.0318V18.0915H34.843V19.6H28.6214Z" fill="#FF9900"/>
</g>
<defs>
<clipPath id="clip0_1_2044">
<rect width="55" height="40" fill="white"/>
</clipPath>
</defs>
</svg>
