<svg width="55" height="40" viewBox="0 0 55 40" fill="none" xmlns="http://www.w3.org/2000/svg">
<g clip-path="url(#clip0_1_1888)">
<path d="M26.5 38.9384C26.3838 38.8288 26.2181 38.6702 26.0077 38.4648C25.5254 37.994 24.9873 37.4512 24.4069 36.8442C22.7491 35.1096 21.0934 33.2152 19.5484 31.2208C16.8162 27.6936 14.7564 24.2756 13.5814 21.087C12.8637 19.1395 12.5 17.3341 12.5 15.6771C12.5 7.05208 18.5432 1 26.5 1C34.4568 1 40.5 7.05208 40.5 15.6771C40.5 17.3341 40.1364 19.1395 39.4186 21.087C38.2436 24.2756 36.1838 27.6936 33.4516 31.2208C31.9066 33.2152 30.251 35.1096 28.593 36.8442C28.0128 37.4512 27.4746 37.994 26.9922 38.4648C26.7818 38.6702 26.6162 38.8288 26.5 38.9384Z" fill="#FF9900" stroke="#FF9900" stroke-width="2"/>
<path d="M26.5 26C32.5751 26 37.5 21.0751 37.5 15C37.5 8.92487 32.5751 4 26.5 4C20.4249 4 15.5 8.92487 15.5 15C15.5 21.0751 20.4249 26 26.5 26Z" fill="white"/>
<path d="M19.6296 19.6V10.8727H25.5103V12.394H21.4748V14.4736H25.2077V15.9949H21.4748V18.0787H25.5273V19.6H19.6296ZM30.152 19.7193C29.5156 19.7193 28.9489 19.6099 28.4517 19.3912C27.9574 19.1696 27.5668 18.8656 27.2798 18.4793C26.9957 18.0901 26.8494 17.6412 26.8409 17.1327H28.6989C28.7102 17.3457 28.7798 17.5332 28.9077 17.6952C29.0384 17.8543 29.2116 17.9778 29.4276 18.0659C29.6435 18.154 29.8864 18.198 30.1562 18.198C30.4375 18.198 30.6861 18.1483 30.902 18.0489C31.1179 17.9494 31.2869 17.8117 31.4091 17.6355C31.5313 17.4594 31.5923 17.2563 31.5923 17.0261C31.5923 16.7932 31.527 16.5872 31.3963 16.4082C31.2685 16.2264 31.0838 16.0844 30.8423 15.9821C30.6037 15.8798 30.3196 15.8287 29.9901 15.8287H29.1761V14.4736H29.9901C30.2685 14.4736 30.5142 14.4253 30.7273 14.3287C30.9432 14.2321 31.1108 14.0986 31.2301 13.9281C31.3494 13.7548 31.4091 13.5531 31.4091 13.323C31.4091 13.1043 31.3565 12.9125 31.2514 12.7477C31.1491 12.5801 31.0043 12.4494 30.8168 12.3557C30.6321 12.2619 30.4162 12.2151 30.169 12.2151C29.919 12.2151 29.6903 12.2605 29.483 12.3514C29.2756 12.4395 29.1094 12.5659 28.9844 12.7307C28.8594 12.8955 28.7926 13.0886 28.7841 13.3102H27.0156C27.0241 12.8074 27.1676 12.3642 27.446 11.9807C27.7244 11.5972 28.0994 11.2974 28.571 11.0815C29.0455 10.8628 29.581 10.7534 30.1776 10.7534C30.7798 10.7534 31.3068 10.8628 31.7585 11.0815C32.2102 11.3003 32.5611 11.5957 32.8111 11.9679C33.0639 12.3372 33.1889 12.752 33.1861 13.2122C33.1889 13.7009 33.0369 14.1085 32.7301 14.4352C32.4261 14.7619 32.0298 14.9693 31.5412 15.0574V15.1256C32.1832 15.208 32.6719 15.431 33.0071 15.7946C33.3452 16.1554 33.5128 16.6071 33.5099 17.1497C33.5128 17.6469 33.3693 18.0886 33.0795 18.475C32.7926 18.8614 32.3963 19.1653 31.8906 19.3869C31.3849 19.6085 30.8054 19.7193 30.152 19.7193Z" fill="#FF9900"/>
</g>
<defs>
<clipPath id="clip0_1_1888">
<rect width="55" height="40" fill="white"/>
</clipPath>
</defs>
</svg>
