<svg width="40" height="26" viewBox="0 0 40 26" fill="none" xmlns="http://www.w3.org/2000/svg">
<g clip-path="url(#clip0_1_1785)">
<path d="M19.35 25.31C19.2744 25.2387 19.1668 25.1356 19.03 25.0021C18.7165 24.6961 18.3667 24.3433 17.9895 23.9487C16.9119 22.8212 15.8357 21.5899 14.8315 20.2935C13.0555 18.0008 11.7167 15.7791 10.9529 13.7065C10.4864 12.4407 10.25 11.2671 10.25 10.1901C10.25 4.58385 14.1781 0.649994 19.35 0.649994C24.5219 0.649994 28.45 4.58385 28.45 10.1901C28.45 11.2671 28.2137 12.4407 27.7471 13.7065C26.9833 15.7791 25.6445 18.0008 23.8685 20.2935C22.8643 21.5899 21.7881 22.8212 20.7104 23.9487C20.3333 24.3433 19.9835 24.6961 19.6699 25.0021C19.5332 25.1356 19.4255 25.2387 19.35 25.31Z" fill="#FFC266" stroke="#FFC266" stroke-width="1.3"/>
<path d="M19.35 16.9C23.2988 16.9 26.5 13.6988 26.5 9.75001C26.5 5.80117 23.2988 2.60001 19.35 2.60001C15.4011 2.60001 12.2 5.80117 12.2 9.75001C12.2 13.6988 15.4011 16.9 19.35 16.9Z" fill="white"/>
<path d="M17.8311 8.10094C17.7923 7.96614 17.7379 7.84703 17.6677 7.74362C17.5975 7.63837 17.5116 7.54973 17.4101 7.47772C17.3104 7.40385 17.1959 7.34753 17.0666 7.30875C16.9392 7.26997 16.7979 7.25059 16.6428 7.25059C16.3529 7.25059 16.0981 7.3226 15.8783 7.46664C15.6604 7.61067 15.4906 7.82026 15.3687 8.0954C15.2468 8.3687 15.1859 8.70293 15.1859 9.0981C15.1859 9.49327 15.2459 9.82935 15.3659 10.1063C15.4859 10.3833 15.6558 10.5948 15.8756 10.7406C16.0953 10.8847 16.3548 10.9567 16.6539 10.9567C16.9254 10.9567 17.1571 10.9087 17.3491 10.8127C17.543 10.7148 17.6908 10.5772 17.7923 10.3999C17.8957 10.2227 17.9474 10.0131 17.9474 9.77118L18.1912 9.80719H16.7287V8.90421H19.1025V9.61884C19.1025 10.1174 18.9972 10.5458 18.7867 10.9041C18.5762 11.2605 18.2863 11.5356 17.917 11.7295C17.5477 11.9215 17.1248 12.0176 16.6484 12.0176C16.1165 12.0176 15.6494 11.9003 15.2468 11.6658C14.8442 11.4294 14.5303 11.0943 14.305 10.6603C14.0816 10.2245 13.9699 9.70747 13.9699 9.10918C13.9699 8.64938 14.0364 8.23943 14.1693 7.87935C14.3041 7.51742 14.4925 7.21088 14.7344 6.95975C14.9763 6.70861 15.2579 6.51749 15.5792 6.38638C15.9005 6.25527 16.2486 6.18972 16.6234 6.18972C16.9447 6.18972 17.2439 6.23681 17.5209 6.33098C17.7979 6.42331 18.0435 6.55442 18.2577 6.72431C18.4737 6.89419 18.6501 7.09639 18.7867 7.33091C18.9234 7.56358 19.0111 7.82026 19.0499 8.10094H17.8311ZM19.9702 11.94V11.0758L21.9894 9.20612C22.1611 9.03993 22.3052 8.89036 22.4215 8.7574C22.5397 8.62445 22.6292 8.49426 22.6902 8.36685C22.7511 8.23759 22.7816 8.09817 22.7816 7.9486C22.7816 7.7824 22.7437 7.63929 22.668 7.51926C22.5923 7.39739 22.4889 7.30414 22.3578 7.23951C22.2267 7.17303 22.078 7.13979 21.9118 7.13979C21.7383 7.13979 21.5868 7.17487 21.4576 7.24505C21.3283 7.31522 21.2286 7.41585 21.1584 7.54696C21.0883 7.67807 21.0532 7.83411 21.0532 8.01507H19.9148C19.9148 7.64391 19.9988 7.32168 20.1668 7.04838C20.3349 6.77509 20.5703 6.56365 20.8731 6.41408C21.176 6.26451 21.525 6.18972 21.9202 6.18972C22.3264 6.18972 22.68 6.26174 22.981 6.40577C23.2839 6.54796 23.5193 6.74554 23.6873 6.99853C23.8554 7.25151 23.9394 7.54142 23.9394 7.86827C23.9394 8.08247 23.8969 8.29391 23.812 8.50257C23.7289 8.71124 23.5802 8.94299 23.366 9.19782C23.1518 9.4508 22.8499 9.75456 22.4603 10.1091L21.6321 10.9207V10.9595H24.0142V11.94H19.9702Z" fill="#FFC266"/>
</g>
<defs>
<clipPath id="clip0_1_1785">
<rect width="40" height="26" fill="white"/>
</clipPath>
</defs>
</svg>
