<svg width="55" height="40" viewBox="0 0 55 40" fill="none" xmlns="http://www.w3.org/2000/svg">
<g clip-path="url(#clip0_1_2200)">
<path d="M26.5 38.9384C26.3838 38.8288 26.2181 38.6702 26.0077 38.4648C25.5254 37.994 24.9873 37.4512 24.4069 36.8442C22.7491 35.1096 21.0934 33.2152 19.5484 31.2208C16.8162 27.6936 14.7564 24.2756 13.5814 21.087C12.8637 19.1395 12.5 17.3341 12.5 15.6771C12.5 7.05208 18.5432 1 26.5 1C34.4568 1 40.5 7.05208 40.5 15.6771C40.5 17.3341 40.1364 19.1395 39.4186 21.087C38.2436 24.2756 36.1838 27.6936 33.4516 31.2208C31.9066 33.2152 30.251 35.1096 28.593 36.8442C28.0128 37.4512 27.4746 37.994 26.9922 38.4648C26.7818 38.6702 26.6162 38.8288 26.5 38.9384Z" fill="#FF9900" stroke="#FF9900" stroke-width="2"/>
<path d="M26.5 26C32.5751 26 37.5 21.0751 37.5 15C37.5 8.92487 32.5751 4 26.5 4C20.4249 4 15.5 8.92487 15.5 15C15.5 21.0751 20.4249 26 26.5 26Z" fill="white"/>
<path d="M19.964 10.8727H22.0307L24.0208 14.6312H24.106L26.0961 10.8727H28.1628L24.9796 16.5147V19.6H23.1472V16.5147L19.964 10.8727ZM32.9164 10.8727V19.6H31.0712V12.6241H31.0201L29.0215 13.877V12.2406L31.182 10.8727H32.9164Z" fill="#FF9900"/>
</g>
<defs>
<clipPath id="clip0_1_2200">
<rect width="55" height="40" fill="white"/>
</clipPath>
</defs>
</svg>
