<svg width="40" height="26" viewBox="0 0 40 26" fill="none" xmlns="http://www.w3.org/2000/svg">
<g clip-path="url(#clip0_1_2400)">
<path d="M19.35 25.31C19.2744 25.2387 19.1668 25.1357 19.03 25.0021C18.7165 24.6961 18.3667 24.3433 17.9895 23.9488C16.9119 22.8213 15.8357 21.5899 14.8315 20.2935C13.0555 18.0009 11.7167 15.7792 10.9529 13.7066C10.4864 12.4407 10.25 11.2672 10.25 10.1901C10.25 4.58388 14.1781 0.650024 19.35 0.650024C24.5219 0.650024 28.45 4.58388 28.45 10.1901C28.45 11.2672 28.2137 12.4407 27.7471 13.7066C26.9833 15.7792 25.6445 18.0009 23.8685 20.2935C22.8643 21.5899 21.7881 22.8213 20.7104 23.9488C20.3333 24.3433 19.9835 24.6961 19.6699 25.0021C19.5332 25.1357 19.4255 25.2387 19.35 25.31Z" fill="#FFC266" stroke="#FFC266" stroke-width="1.3"/>
<path d="M19.35 16.9C23.2988 16.9 26.5 13.6988 26.5 9.74998C26.5 5.80114 23.2988 2.59998 19.35 2.59998C15.4011 2.59998 12.2 5.80114 12.2 9.74998C12.2 13.6988 15.4011 16.9 19.35 16.9Z" fill="white"/>
<path d="M18.094 7.89874C18.0719 7.6753 17.9768 7.50172 17.8087 7.378C17.6407 7.25428 17.4126 7.19242 17.1246 7.19242C16.9288 7.19242 16.7636 7.22012 16.6288 7.27551C16.494 7.32907 16.3906 7.40385 16.3185 7.49987C16.2484 7.5959 16.2133 7.70485 16.2133 7.82672C16.2096 7.92828 16.2308 8.01692 16.277 8.09263C16.325 8.16834 16.3906 8.23389 16.4737 8.28929C16.5568 8.34284 16.6528 8.38993 16.7617 8.43056C16.8707 8.46933 16.987 8.50257 17.1107 8.53027L17.6204 8.65215C17.8678 8.70755 18.095 8.78141 18.3018 8.87374C18.5086 8.96607 18.6877 9.07963 18.8391 9.21443C18.9906 9.34924 19.1078 9.50804 19.1909 9.69085C19.2759 9.87367 19.3193 10.0833 19.3211 10.3196C19.3193 10.6668 19.2306 10.9678 19.0552 11.2226C18.8816 11.4756 18.6305 11.6722 18.3018 11.8126C17.9749 11.9511 17.5807 12.0203 17.119 12.0203C16.6611 12.0203 16.2622 11.9502 15.9224 11.8098C15.5845 11.6695 15.3205 11.4617 15.1303 11.1866C14.9419 10.9096 14.8431 10.5671 14.8339 10.159H15.9945C16.0074 10.3492 16.0619 10.508 16.1579 10.6354C16.2558 10.761 16.3859 10.8561 16.5484 10.9207C16.7128 10.9835 16.8984 11.0149 17.1052 11.0149C17.3083 11.0149 17.4847 10.9853 17.6342 10.9262C17.7857 10.8671 17.9029 10.785 17.986 10.6797C18.0691 10.5744 18.1107 10.4535 18.1107 10.3168C18.1107 10.1894 18.0728 10.0823 17.9971 9.99554C17.9232 9.90875 17.8143 9.83489 17.6702 9.77395C17.5281 9.71301 17.3536 9.65762 17.1467 9.60776L16.5291 9.45264C16.0508 9.33631 15.6732 9.15442 15.3962 8.90698C15.1192 8.65953 14.9816 8.32622 14.9835 7.90705C14.9816 7.56358 15.073 7.26351 15.2577 7.00684C15.4442 6.75016 15.6999 6.5498 16.0249 6.40577C16.3499 6.26174 16.7193 6.18972 17.1329 6.18972C17.5539 6.18972 17.9214 6.26174 18.2353 6.40577C18.5511 6.5498 18.7967 6.75016 18.9721 7.00684C19.1475 7.26351 19.238 7.56081 19.2435 7.89874H18.094ZM22.1914 12.0176C21.7778 12.0176 21.4094 11.9465 21.0862 11.8043C20.7649 11.6602 20.511 11.4627 20.3245 11.2115C20.1398 10.9585 20.0447 10.6668 20.0392 10.3362H21.2469C21.2543 10.4747 21.2995 10.5966 21.3826 10.7019C21.4675 10.8053 21.5802 10.8856 21.7205 10.9428C21.8609 11.0001 22.0187 11.0287 22.1942 11.0287C22.377 11.0287 22.5386 10.9964 22.6789 10.9318C22.8192 10.8671 22.9291 10.7776 23.0085 10.6631C23.0879 10.5486 23.1276 10.4166 23.1276 10.267C23.1276 10.1156 23.0851 9.98169 23.0002 9.86536C22.9171 9.74718 22.7971 9.65485 22.6401 9.58837C22.485 9.52189 22.3003 9.48865 22.0861 9.48865H21.5571V8.60783H22.0861C22.2671 8.60783 22.4268 8.57644 22.5653 8.51365C22.7057 8.45087 22.8146 8.36408 22.8922 8.25328C22.9697 8.14064 23.0085 8.00953 23.0085 7.85996C23.0085 7.71777 22.9743 7.59313 22.906 7.48603C22.8395 7.37708 22.7454 7.29213 22.6235 7.2312C22.5035 7.17026 22.3631 7.13979 22.2025 7.13979C22.04 7.13979 21.8913 7.16933 21.7565 7.22843C21.6217 7.28567 21.5137 7.36784 21.4324 7.47495C21.3512 7.58205 21.3078 7.70762 21.3023 7.85165H20.1528C20.1583 7.5248 20.2516 7.23674 20.4325 6.98745C20.6135 6.73816 20.8572 6.54334 21.1638 6.403C21.4721 6.26081 21.8202 6.18972 22.208 6.18972C22.5995 6.18972 22.942 6.26081 23.2356 6.403C23.5293 6.54519 23.7573 6.73723 23.9198 6.97914C24.0842 7.21919 24.1654 7.4888 24.1636 7.78794C24.1654 8.10556 24.0666 8.37054 23.8672 8.5829C23.6696 8.79526 23.412 8.93006 23.0944 8.9873V9.03162C23.5117 9.08517 23.8293 9.23013 24.0472 9.46649C24.267 9.70101 24.3759 9.99462 24.3741 10.3473C24.3759 10.6705 24.2827 10.9576 24.0943 11.2088C23.9078 11.4599 23.6502 11.6575 23.3215 11.8015C22.9928 11.9455 22.6161 12.0176 22.1914 12.0176Z" fill="#FFC266"/>
</g>
<defs>
<clipPath id="clip0_1_2400">
<rect width="40" height="26" fill="white"/>
</clipPath>
</defs>
</svg>
