<svg width="40" height="26" viewBox="0 0 40 26" fill="none" xmlns="http://www.w3.org/2000/svg">
<g clip-path="url(#clip0_1_2316)">
<path d="M19.35 25.31C19.2744 25.2387 19.1668 25.1357 19.03 25.0021C18.7165 24.6961 18.3667 24.3433 17.9895 23.9488C16.9119 22.8213 15.8357 21.5899 14.8315 20.2935C13.0555 18.0009 11.7167 15.7792 10.9529 13.7066C10.4864 12.4407 10.25 11.2672 10.25 10.1901C10.25 4.58388 14.1781 0.650024 19.35 0.650024C24.5219 0.650024 28.45 4.58388 28.45 10.1901C28.45 11.2672 28.2137 12.4407 27.7471 13.7066C26.9833 15.7792 25.6445 18.0009 23.8685 20.2935C22.8643 21.5899 21.7881 22.8213 20.7104 23.9488C20.3333 24.3433 19.9835 24.6961 19.6699 25.0021C19.5332 25.1357 19.4255 25.2387 19.35 25.31Z" fill="#FFC266" stroke="#FFC266" stroke-width="1.3"/>
<path d="M19.35 16.9C23.2988 16.9 26.5 13.6988 26.5 9.74998C26.5 5.80114 23.2988 2.59998 19.35 2.59998C15.4012 2.59998 12.2 5.80114 12.2 9.74998C12.2 13.6988 15.4012 16.9 19.35 16.9Z" fill="white"/>
<path d="M18.9134 6.26728V11.94H17.8775L15.4095 8.36962H15.368V11.94H14.1686V6.26728H15.2212L17.6698 9.83489H17.7196V6.26728H18.9134ZM19.8711 11.94V11.0758L21.8904 9.20612C22.0621 9.03993 22.2061 8.89036 22.3225 8.7574C22.4407 8.62445 22.5302 8.49426 22.5912 8.36685C22.6521 8.23759 22.6826 8.09817 22.6826 7.9486C22.6826 7.7824 22.6447 7.63929 22.569 7.51926C22.4933 7.39739 22.3899 7.30414 22.2588 7.23951C22.1277 7.17303 21.979 7.13979 21.8128 7.13979C21.6392 7.13979 21.4878 7.17487 21.3586 7.24505C21.2293 7.31522 21.1296 7.41585 21.0594 7.54696C20.9892 7.67807 20.9542 7.83411 20.9542 8.01507H19.8157C19.8157 7.64391 19.8998 7.32168 20.0678 7.04838C20.2358 6.77509 20.4713 6.56365 20.7741 6.41408C21.077 6.26451 21.426 6.18972 21.8211 6.18972C22.2274 6.18972 22.581 6.26174 22.882 6.40577C23.1848 6.54796 23.4203 6.74554 23.5883 6.99853C23.7564 7.25151 23.8404 7.54142 23.8404 7.86827C23.8404 8.08247 23.7979 8.29391 23.713 8.50257C23.6299 8.71124 23.4812 8.94299 23.267 9.19782C23.0528 9.4508 22.7509 9.75456 22.3613 10.1091L21.5331 10.9207V10.9595H23.9152V11.94H19.8711Z" fill="#FFC266"/>
</g>
<defs>
<clipPath id="clip0_1_2316">
<rect width="40" height="26" fill="white"/>
</clipPath>
</defs>
</svg>
