<svg width="343" height="343" viewBox="0 0 343 343" fill="none" xmlns="http://www.w3.org/2000/svg">
<g clip-path="url(#clip0_463_11185)">
<rect width="343" height="343" rx="20" fill="#ECF6F0"/>
<path d="M-55 393.641C-47.6464 358.474 -5.99877 287.737 101.764 286.119C236.466 284.096 334.949 335.297 427.427 218.736C501.409 125.487 527.28 80.7248 530.967 70" stroke="url(#paint0_linear_463_11185)" stroke-opacity="0.7" stroke-width="0.632111"/>
<path d="M-55 401.479C-47.6464 366.313 -5.99876 295.575 101.764 293.957C236.466 291.934 334.949 343.135 427.427 226.574C501.409 133.325 527.28 88.5632 530.967 77.8384" stroke="#1D5855" stroke-opacity="0.6" stroke-width="0.632111"/>
<path d="M-55 409.317C-47.6464 374.151 -5.99876 303.413 101.764 301.795C236.466 299.773 334.949 350.973 427.427 234.412C501.409 141.163 527.28 96.4013 530.967 85.6765" stroke="#1D5855" stroke-opacity="0.5" stroke-width="0.632111"/>
<path d="M-55 417.155C-47.6464 381.989 -5.99876 311.252 101.764 309.633C236.466 307.611 334.949 358.812 427.427 242.25C501.409 149.001 527.28 104.239 530.967 93.5146" stroke="#1D5855" stroke-opacity="0.4" stroke-width="0.632111"/>
<path d="M-55 424.994C-47.6464 389.827 -5.99876 319.09 101.764 317.472C236.466 315.449 334.949 366.65 427.427 250.088C501.409 156.839 527.28 112.078 530.967 101.353" stroke="#1D5855" stroke-opacity="0.3" stroke-width="0.632111"/>
<path d="M-55 432.832C-47.6464 397.665 -5.99876 326.928 101.764 325.31C236.466 323.287 334.949 374.488 427.427 257.927C501.409 164.678 527.28 119.916 530.967 109.191" stroke="#1D5855" stroke-opacity="0.2" stroke-width="0.632111"/>
<path d="M-185 131.641C-177.646 96.4744 -135.999 25.7369 -28.2365 24.1187C106.466 22.096 204.949 73.2969 297.427 -43.2643C371.409 -136.513 397.28 -181.275 400.967 -192" stroke="url(#paint1_linear_463_11185)" stroke-opacity="0.7" stroke-width="0.632111"/>
<path d="M-185 139.479C-177.646 104.313 -135.999 33.5753 -28.2365 31.9571C106.466 29.9344 204.949 81.1354 297.427 -35.4259C371.409 -128.675 397.28 -173.437 400.967 -184.162" stroke="#1D5855" stroke-opacity="0.6" stroke-width="0.632111"/>
<path d="M-185 147.317C-177.646 112.151 -135.999 41.4135 -28.2365 39.7953C106.466 37.7725 204.949 88.9735 297.427 -27.5878C371.409 -120.837 397.28 -165.599 400.967 -176.323" stroke="#1D5855" stroke-opacity="0.5" stroke-width="0.632111"/>
<path d="M-185 155.155C-177.646 119.989 -135.999 49.2516 -28.2365 47.6334C106.466 45.6106 204.949 96.8116 297.427 -19.7496C371.409 -112.999 397.28 -157.761 400.967 -168.485" stroke="#1D5855" stroke-opacity="0.4" stroke-width="0.632111"/>
<path d="M-185 162.994C-177.646 127.827 -135.999 57.0897 -28.2365 55.4715C106.466 53.4488 204.949 104.65 297.427 -11.9115C371.409 -105.161 397.28 -149.922 400.967 -160.647" stroke="#1D5855" stroke-opacity="0.3" stroke-width="0.632111"/>
<path d="M-185 170.832C-177.646 135.665 -135.999 64.9279 -28.2365 63.3097C106.466 61.2869 204.949 112.488 297.427 -4.07337C371.409 -97.3224 397.28 -142.084 400.967 -152.809" stroke="#1D5855" stroke-opacity="0.2" stroke-width="0.632111"/>
<path d="M-2370.1 -1577.48C-2134.63 -1418.38 -1508.54 -1246.29 -887.939 -1830.76C-112.19 -2561.35 164.758 -3394.52 1331.81 -3242.35C2265.46 -3120.61 2658.9 -3009.04 2738.91 -2968.48" stroke="#85A3A1" stroke-width="5"/>
<path d="M-2413.28 -1621.97C-2177.81 -1462.87 -1551.72 -1290.78 -931.119 -1875.26C-155.37 -2605.84 121.579 -3439.01 1288.63 -3286.84C2222.28 -3165.1 2615.72 -3053.54 2695.73 -3012.97" stroke="#85A3A1" stroke-opacity="0.8" stroke-width="5"/>
<path d="M-2456.46 -1666.47C-2220.99 -1507.36 -1594.9 -1335.28 -974.299 -1919.75C-198.55 -2650.34 78.3989 -3483.5 1245.45 -3331.33C2179.1 -3209.59 2572.54 -3098.03 2652.55 -3057.46" stroke="#85A3A1" stroke-opacity="0.6" stroke-width="5"/>
<path d="M-2499.64 -1710.96C-2264.17 -1551.86 -1638.08 -1379.77 -1017.48 -1964.24C-241.732 -2694.83 35.2173 -3527.99 1202.27 -3375.82C2135.92 -3254.08 2529.35 -3142.52 2609.37 -3101.96" stroke="#85A3A1" stroke-opacity="0.4" stroke-width="5"/>
<path d="M-2542.82 -1755.45C-2307.35 -1596.35 -1681.26 -1424.26 -1060.66 -2008.73C-284.911 -2739.32 -7.96238 -3572.49 1159.09 -3420.31C2092.74 -3298.57 2486.17 -3187.01 2566.19 -3146.45" stroke="#85A3A1" stroke-opacity="0.2" stroke-width="5"/>
<path d="M-2586 -1799.94C-2350.53 -1640.84 -1724.44 -1468.75 -1103.84 -2053.22C-328.091 -2783.81 -51.1421 -3616.98 1115.91 -3464.8C2049.56 -3343.06 2442.99 -3231.5 2523.01 -3190.94" stroke="#85A3A1" stroke-opacity="0.1" stroke-width="5"/>
</g>
<defs>
<linearGradient id="paint0_linear_463_11185" x1="441.26" y1="179.24" x2="30.441" y2="405.132" gradientUnits="userSpaceOnUse">
<stop stop-color="#05471C"/>
<stop offset="1" stop-color="#0E8B40"/>
</linearGradient>
<linearGradient id="paint1_linear_463_11185" x1="311.26" y1="-82.7603" x2="-99.559" y2="143.132" gradientUnits="userSpaceOnUse">
<stop stop-color="#05471C"/>
<stop offset="1" stop-color="#0E8B40"/>
</linearGradient>
<clipPath id="clip0_463_11185">
<rect width="343" height="343" rx="20" fill="white"/>
</clipPath>
</defs>
</svg>
