<svg width="44" height="44" viewBox="0 0 44 44" fill="none" xmlns="http://www.w3.org/2000/svg">
<rect width="44" height="44" rx="6" fill="#0E8B40"/>
<path fillRule="evenodd" clipRule="evenodd" d="M25.7334 17.412C25.7334 16.0476 24.6203 14.9414 23.2477 14.9414H20.4857C19.113 14.9414 18 16.0477 18 17.412V18.5101C18 18.7283 18.087 18.9376 18.2424 19.0927C18.3984 19.2471 18.609 19.3336 18.8286 19.3336H24.905C25.1245 19.3336 25.3352 19.2471 25.4912 19.0927C25.6466 18.9376 25.7336 18.7283 25.7336 18.5101L25.7334 17.412ZM21.8666 10C20.6527 10 19.657 11.0404 19.657 12.3334C19.657 13.6263 20.6527 14.6667 21.8666 14.6667C23.0805 14.6667 24.0762 13.6263 24.0762 12.3334C24.0762 11.0404 23.0805 10 21.8666 10Z" fill="white"/>
<path fillRule="evenodd" clipRule="evenodd" d="M17.7334 32.078C17.7334 30.7137 16.6203 29.6074 15.2477 29.6074H12.4857C11.113 29.6074 10 30.7137 10 32.078V33.1761C10 33.3943 10.087 33.6036 10.2424 33.7587C10.3984 33.9132 10.609 33.9996 10.8286 33.9996H16.905C17.1245 33.9996 17.3352 33.9132 17.4912 33.7587C17.6466 33.6036 17.7336 33.3943 17.7336 33.1761L17.7334 32.078ZM13.8666 24.666C12.6527 24.666 11.657 25.7064 11.657 26.9994C11.657 28.2923 12.6527 29.3327 13.8666 29.3327C15.0805 29.3327 16.0762 28.2923 16.0762 26.9994C16.0762 25.7064 15.0805 24.666 13.8666 24.666Z" fill="white"/>
<path fillRule="evenodd" clipRule="evenodd" d="M33.4673 32.078C33.4673 30.7137 32.3542 29.6074 30.9816 29.6074H28.2196C26.8469 29.6074 25.7339 30.7137 25.7339 32.078V33.1761C25.7339 33.3943 25.8209 33.6036 25.9763 33.7587C26.1323 33.9132 26.3429 33.9996 26.5625 33.9996H32.6389C32.8584 33.9996 33.069 33.9132 33.2251 33.7587C33.3804 33.6036 33.4675 33.3943 33.4675 33.1761L33.4673 32.078ZM29.6005 24.666C28.3866 24.666 27.3909 25.7064 27.3909 26.9994C27.3909 28.2923 28.3866 29.3327 29.6005 29.3327C30.8144 29.3327 31.8101 28.2923 31.8101 26.9994C31.8101 25.7064 30.8144 24.666 29.6005 24.666Z" fill="white"/>
<path d="M22.0005 18.9346V22.001" stroke="white" stroke-width="1.4"/>
<path d="M14 25.9991V22.999C14 22.4467 14.4477 21.999 15 21.999H28.3337C28.886 21.999 29.3337 22.4467 29.3337 22.999V25.9991" stroke="white" stroke-width="1.4"/>
</svg>
