<svg width="44" height="44" viewBox="0 0 44 44" fill="none" xmlns="http://www.w3.org/2000/svg">
<path d="M0 6C0 2.68629 2.68629 0 6 0H38C41.3137 0 44 2.68629 44 6V38C44 41.3137 41.3137 44 38 44H6C2.68629 44 0 41.3137 0 38V6Z" fill="#0E8B40"/>
<path fill-rule="evenodd" clipRule="evenodd" d="M23.8095 23.3492C23.8095 23.0948 23.5964 22.8888 23.3333 22.8888H20.4762C20.2131 22.8888 20 23.0948 20 23.3492V28.873C20 29.1273 20.2131 29.3333 20.4762 29.3333H23.3333C23.5964 29.3333 23.8095 29.1273 23.8095 28.873V23.3492ZM28.5714 22.4285C28.5714 22.1742 28.3583 21.9682 28.0952 21.9682H25.2381C24.975 21.9682 24.7619 22.1742 24.7619 22.4285V28.873C24.7619 29.1273 24.975 29.3333 25.2381 29.3333H28.0952C28.3583 29.3333 28.5714 29.1273 28.5714 28.873V22.4285ZM33.3333 20.5873C33.3333 20.3329 33.1202 20.1269 32.8571 20.1269H30C29.7369 20.1269 29.5238 20.3329 29.5238 20.5873V28.873C29.5238 29.1273 29.7369 29.3333 30 29.3333H32.8571C33.1202 29.3333 33.3333 29.1273 33.3333 28.873V20.5873ZM30.4594 17.0348C27.8725 18.8404 25.02 19.9037 21.8688 20.1281C21.6069 20.1477 21.4105 20.3686 21.4295 20.6218C21.4498 20.875 21.6783 21.0649 21.9402 21.0465C25.2402 20.8105 28.232 19.7092 30.9474 17.83C30.9463 18.2834 30.9474 18.7472 30.957 18.8093C30.9927 19.0613 31.2332 19.2362 31.4939 19.2017C31.7546 19.1672 31.9355 18.9347 31.8998 18.6827C31.8831 18.5653 31.9046 16.9094 31.9046 16.9094C31.9069 16.7183 31.7855 16.5445 31.601 16.4755L29.6962 15.7597C29.451 15.6676 29.1748 15.785 29.0796 16.0221C28.9844 16.258 29.107 16.525 29.351 16.617L30.4594 17.0348ZM25.2309 14.1429H25.2381C25.8333 14.1429 26.3595 14.4685 26.3595 14.9357C26.3595 15.4018 25.8333 15.7286 25.2381 15.7286C24.6428 15.7286 24.1166 15.4018 24.1166 14.9357C24.1166 14.6814 23.9024 14.4754 23.6404 14.4754C23.3774 14.4754 23.1643 14.6814 23.1643 14.9357C23.1643 15.724 23.8321 16.4226 24.7619 16.6033V16.9048C24.7619 17.1591 24.975 17.3651 25.2381 17.3651C25.5012 17.3651 25.7143 17.1591 25.7143 16.9048V16.6033C26.644 16.4226 27.3119 15.724 27.3119 14.9357C27.3119 14.0209 26.4119 13.2245 25.2452 13.2222H25.2381C24.6429 13.2222 24.1167 12.8965 24.1167 12.4293C24.1167 11.9633 24.6429 11.6364 25.2381 11.6364C25.8333 11.6364 26.3595 11.9633 26.3595 12.4293C26.3595 12.6836 26.5738 12.8896 26.8357 12.8896C27.0988 12.8896 27.3119 12.6836 27.3119 12.4293C27.3119 11.641 26.644 10.9425 25.7143 10.7618V10.4603C25.7143 10.206 25.5012 10 25.2381 10C24.975 10 24.7619 10.206 24.7619 10.4603V10.7618C23.8321 10.9425 23.1643 11.641 23.1643 12.4293C23.1643 13.3442 24.0643 14.1406 25.2309 14.1429Z" fill="white"/>
<path fill-rule="evenodd" clipRule="evenodd" d="M17.7332 32.0788C17.7332 30.7145 16.6201 29.6083 15.2476 29.6083H12.4856C11.113 29.6083 10 30.7146 10 32.0788V33.1768C10 33.3951 10.087 33.6044 10.2424 33.7595C10.3984 33.9139 10.609 34.0004 10.8286 34.0004H16.9048C17.1244 34.0004 17.335 33.9139 17.491 33.7595C17.6464 33.6044 17.7334 33.3951 17.7334 33.1768L17.7332 32.0788ZM13.8665 24.667C12.6526 24.667 11.657 25.7074 11.657 27.0003C11.657 28.2932 12.6526 29.3336 13.8665 29.3336C15.0804 29.3336 16.076 28.2932 16.076 27.0003C16.076 25.7074 15.0804 24.667 13.8665 24.667Z" fill="white"/>
</svg>
