<svg width="36" height="48" viewBox="0 0 36 48" fill="none" xmlns="http://www.w3.org/2000/svg">
<path d="M17.6607 47.3673C17.5259 47.2427 17.2738 47.0037 16.9203 46.6586C16.3355 46.0877 15.684 45.4307 14.9823 44.6966C12.9781 42.5999 10.9752 40.3082 9.10472 37.8936C5.80039 33.6279 3.28409 29.463 1.8408 25.5465C0.958351 23.1518 0.5 20.9023 0.5 18.8125C0.5 8.09879 8.04276 0.5 18 0.5C27.9572 0.5 35.5 8.09879 35.5 18.8125C35.5 20.9023 35.0417 23.1518 34.1592 25.5465C32.7159 29.463 30.1996 33.6279 26.8953 37.8936C25.0248 40.3082 23.0219 42.5999 21.0177 44.6966C20.316 45.4307 19.6645 46.0877 19.0797 46.6586C18.7262 47.0037 18.4741 47.2427 18.3393 47.3673C18.1477 47.5442 17.8523 47.5442 17.6607 47.3673Z" fill="rgba(245, 153, 14, 1)" stroke="#F44D61"/>
<path d="M18 26C12.4772 26 8 21.5228 8 16C8 10.4772 12.4772 6 18 6C23.5228 6 28 10.4772 28 16C28 21.5228 23.5228 26 18 26Z" fill="white"/>
</svg>
