<svg width="18" height="24" viewBox="0 0 18 24" fill="none" xmlns="http://www.w3.org/2000/svg">
<path d="M9.33928 23.8673C9.14771 24.0442 8.85229 24.0442 8.66072 23.8673C8.59102 23.8029 8.46318 23.6817 8.28549 23.5082C7.99095 23.2206 7.66318 22.8901 7.31043 22.521C6.3031 21.4672 5.29584 20.3148 4.35472 19.0999C2.69338 16.9552 1.41934 14.8501 0.685822 12.8597C0.237016 11.6418 3e-08 10.4874 0 9.40625C-1.7e-07 3.9195 3.87528 0 9 0C14.1247 0 18 3.9195 18 9.40625C18 10.4874 17.763 11.6418 17.3142 12.8597C16.5807 14.8501 15.3066 16.9552 13.6453 19.0999C12.7042 20.3148 11.6969 21.4672 10.6896 22.521C10.3368 22.8901 10.009 23.2206 9.71451 23.5082C9.53682 23.6817 9.40898 23.8029 9.33928 23.8673Z" fill="#A7A7A7"/>
<path d="M9 13C6.23858 13 4 10.7614 4 8C4 5.23858 6.23858 3 9 3C11.7614 3 14 5.23858 14 8C14 10.7614 11.7614 13 9 13Z" fill="white"/>
</svg>
