<?xml version="1.0" encoding="utf-8"?>
<!-- Generator: Adobe Illustrator 21.0.0, SVG Export Plug-In . SVG Version: 6.00 Build 0)  -->
<svg version="1.1" id="Layer_1" xmlns="http://www.w3.org/2000/svg" xmlns:xlink="http://www.w3.org/1999/xlink" x="0px" y="0px"
	 viewBox="0 0 100 100" style="enable-background:new 0 0 100 100;" xml:space="preserve">
<style type="text/css">
	.st0{fill:green;}
</style>
<path class="st0" d="M50,0C29.4,0,12.7,16.9,12.5,37.8c0.1,7.3,2.2,14.2,5.9,19.9l28.7,40.1c0.8,1.5,1.9,2.2,2.9,2.2l0,0
	c1.1,0,2.1-0.7,2.9-2.2l28.6-40.1c3.7-5.8,5.9-12.6,5.9-19.9C87.3,16.9,70.6,0,50,0z M50,53.9c-9.1,0-16.4-7.3-16.4-16.4
	S40.9,21.1,50,21.1s16.4,7.3,16.4,16.4S59.1,53.9,50,53.9z"/>
</svg>
