<svg width="93" height="92" viewBox="0 0 93 92" fill="none" xmlns="http://www.w3.org/2000/svg">
<path d="M52.5689 61.4772C66.7351 61.4772 78.2198 49.9925 78.2198 35.7757C78.2198 21.5589 66.6845 10.0742 52.5689 10.0742C38.4027 10.0742 26.918 21.5589 26.918 35.7757C26.918 49.9925 38.4027 61.4772 52.5689 61.4772Z" fill="#F3F9F5"/>
<path d="M76.5489 18.928C77.6946 18.928 78.6233 17.9993 78.6233 16.8536C78.6233 15.708 77.6946 14.7793 76.5489 14.7793C75.4033 14.7793 74.4746 15.708 74.4746 16.8536C74.4746 17.9993 75.4033 18.928 76.5489 18.928Z" fill="#EAEEF9"/>
<path d="M79.5826 10.8332C80.365 10.8332 80.9993 10.199 80.9993 9.41662C80.9993 8.63424 80.365 8 79.5826 8C78.8003 8 78.166 8.63424 78.166 9.41662C78.166 10.199 78.8003 10.8332 79.5826 10.8332Z" fill="#E7F3EC"/>
<path d="M28.2819 18.8772C29.0642 18.8772 29.6985 18.2429 29.6985 17.4606C29.6985 16.6782 29.0642 16.0439 28.2819 16.0439C27.4995 16.0439 26.8652 16.6782 26.8652 17.4606C26.8652 18.2429 27.4995 18.8772 28.2819 18.8772Z" fill="#EAEEF9"/>
<path d="M19.6309 46.1992C21.0838 46.1992 22.2617 45.0214 22.2617 43.5684C22.2617 42.1154 21.0838 40.9375 19.6309 40.9375C18.1779 40.9375 17 42.1154 17 43.5684C17 45.0214 18.1779 46.1992 19.6309 46.1992Z" fill="#E7F3EC"/>
<g filter="url(#filter0_d_525_22078)">
<path d="M70.0209 22.9249L70.4257 55.5072C70.4257 56.6202 69.515 57.4803 68.4019 57.4803H36.6292C35.5162 57.4803 34.6055 56.5696 34.6055 55.5072V13.6157C34.6055 12.5027 35.5162 11.6426 36.6292 11.6426H59.6493L70.0209 22.9249Z" fill="url(#paint0_linear_525_22078)"/>
</g>
<path d="M50.0885 50.9549H43.8655C43.6125 50.9549 43.4102 50.7019 43.4102 50.3983C43.4102 50.0948 43.6125 49.8418 43.8655 49.8418H50.0885C50.3415 49.8418 50.5438 50.0948 50.5438 50.3983C50.5438 50.7525 50.3415 50.9549 50.0885 50.9549Z" fill="#9FD1B3"/>
<path d="M46.5493 50.9549H39.7698C39.5168 50.9549 39.3145 50.7019 39.3145 50.3983C39.3145 50.0948 39.5168 49.8418 39.7698 49.8418H46.5493C46.8023 49.8418 47.0047 50.0948 47.0047 50.3983C47.0047 50.7525 46.8023 50.9549 46.5493 50.9549Z" fill="#D5DDEA"/>
<path d="M55.2008 18.4727H39.9722C39.618 18.4727 39.3145 18.1691 39.3145 17.8149C39.3145 17.4608 39.618 17.1572 39.9722 17.1572H55.2008C55.555 17.1572 55.8585 17.4608 55.8585 17.8149C55.8585 18.1691 55.555 18.4727 55.2008 18.4727Z" fill="#9FD1B3"/>
<path d="M45.841 22.1162H39.9722C39.618 22.1162 39.3145 21.8127 39.3145 21.4585C39.3145 21.1043 39.618 20.8008 39.9722 20.8008H45.7904C46.1446 20.8008 46.4481 21.1043 46.4481 21.4585C46.4481 21.8127 46.1446 22.1162 45.841 22.1162Z" fill="#9FD1B3"/>
<path d="M59.6504 11.6436V20.6492C59.6504 21.914 60.7634 22.9259 62.0283 22.9259H70.0221" fill="#9FD1B3"/>
<path d="M65.4975 42.1992H47.9435H46.0088H40.1574C39.9215 42.1992 39.6855 42.4357 39.6855 42.7667C39.6855 43.0504 39.8743 43.3341 40.1574 43.3341H46.0088H47.9435H65.4975C65.7334 43.3341 65.9694 43.0977 65.9694 42.7667C65.9222 42.4357 65.7334 42.1992 65.4975 42.1992Z" fill="#9FD1B3"/>
<path d="M65.4503 38.084H58.9383H56.7205H40.1574C39.9215 38.084 39.6855 38.3204 39.6855 38.6514C39.6855 38.9352 39.8743 39.2189 40.1574 39.2189H56.7205H58.9383H65.4503C65.6862 39.2189 65.9222 38.9825 65.9222 38.6514C65.875 38.3204 65.6862 38.084 65.4503 38.084Z" fill="#9FD1B3"/>
<path d="M65.5919 33.9209H63.8931H62.1943H40.1574C39.9215 33.9209 39.6855 34.1573 39.6855 34.4884C39.6855 34.7721 39.8743 35.0558 40.1574 35.0558H62.1943H64.0818H65.5447C65.7806 35.0558 66.0166 34.8194 66.0166 34.4884C66.0637 34.2046 65.8278 33.9209 65.5919 33.9209Z" fill="#9FD1B3"/>
<path d="M47.0941 51.3703H40.1574C39.9215 51.3703 39.6855 51.1338 39.6855 50.8028C39.6855 50.5191 39.8743 50.2354 40.1574 50.2354H47.0941C47.33 50.2354 47.566 50.4718 47.566 50.8028C47.566 51.1811 47.33 51.3703 47.0941 51.3703Z" fill="#E3EAF2"/>
<path d="M65.7806 29.8057H60.2596H58.8911H40.1574C39.9215 29.8057 39.6855 30.0421 39.6855 30.3731C39.6855 30.6569 39.8743 30.9406 40.1574 30.9406H58.8911H60.2596H65.7334C66.0637 30.9406 66.2525 30.7041 66.2525 30.3731C66.2525 30.0894 66.0637 29.8057 65.7806 29.8057Z" fill="#9FD1B3"/>
<path d="M40.5359 53.8777H29.3995C28.1726 53.8777 27.1816 52.8846 27.1816 51.6551V36.1918C27.1816 31.8886 30.6736 28.4365 34.9205 28.4365C39.1674 28.4365 42.6594 31.9359 42.6594 36.1918V51.7024C42.7066 52.8846 41.7156 53.8777 40.5359 53.8777ZM31.6173 49.4799H38.318V36.1918C38.318 34.3476 36.808 32.8343 34.9677 32.8343C33.1274 32.8343 31.6173 34.3476 31.6173 36.1918V49.4799Z" fill="#6EB98C"/>
<g filter="url(#filter1_d_525_22078)">
<path d="M45.1113 58.0856H24.9619C23.5935 58.0856 22.4609 56.9507 22.4609 55.5793V42.1967C22.4609 40.8254 23.5935 39.6904 24.9619 39.6904H45.1113C46.4797 39.6904 47.6122 40.8254 47.6122 42.1967V55.5793C47.6122 56.9507 46.4797 58.0856 45.1113 58.0856Z" fill="#CFE8D9"/>
</g>
<path d="M37.5612 46.8299C37.5612 47.823 36.9949 48.6742 36.1927 49.0998V51.8425C36.1927 52.5045 35.6736 53.0247 35.013 53.0247C34.3524 53.0247 33.8333 52.5045 33.8333 51.8425V49.0998C33.0311 48.6742 32.4648 47.823 32.4648 46.8299C32.4648 45.4113 33.5974 44.2764 35.013 44.2764C36.4287 44.2764 37.5612 45.4113 37.5612 46.8299Z" fill="#6EB98C"/>
<defs>
<filter id="filter0_d_525_22078" x="12.6055" y="0.642578" width="79.8203" height="89.8379" filterUnits="userSpaceOnUse" color-interpolation-filters="sRGB">
<feFlood flood-opacity="0" result="BackgroundImageFix"/>
<feColorMatrix in="SourceAlpha" type="matrix" values="0 0 0 0 0 0 0 0 0 0 0 0 0 0 0 0 0 0 127 0" result="hardAlpha"/>
<feOffset dy="11"/>
<feGaussianBlur stdDeviation="11"/>
<feColorMatrix type="matrix" values="0 0 0 0 0.243137 0 0 0 0 0.635294 0 0 0 0 0.4 0 0 0 0.12 0"/>
<feBlend mode="normal" in2="BackgroundImageFix" result="effect1_dropShadow_525_22078"/>
<feBlend mode="normal" in="SourceGraphic" in2="effect1_dropShadow_525_22078" result="shape"/>
</filter>
<filter id="filter1_d_525_22078" x="0.460938" y="28.6904" width="69.1504" height="62.3955" filterUnits="userSpaceOnUse" color-interpolation-filters="sRGB">
<feFlood flood-opacity="0" result="BackgroundImageFix"/>
<feColorMatrix in="SourceAlpha" type="matrix" values="0 0 0 0 0 0 0 0 0 0 0 0 0 0 0 0 0 0 127 0" result="hardAlpha"/>
<feOffset dy="11"/>
<feGaussianBlur stdDeviation="11"/>
<feColorMatrix type="matrix" values="0 0 0 0 0.397708 0 0 0 0 0.47749 0 0 0 0 0.575 0 0 0 0.27 0"/>
<feBlend mode="normal" in2="BackgroundImageFix" result="effect1_dropShadow_525_22078"/>
<feBlend mode="normal" in="SourceGraphic" in2="effect1_dropShadow_525_22078" result="shape"/>
</filter>
<linearGradient id="paint0_linear_525_22078" x1="52.5039" y1="10.5823" x2="52.5039" y2="57.9745" gradientUnits="userSpaceOnUse">
<stop stop-color="#FDFEFF"/>
<stop offset="0.9964" stop-color="#ECF0F5"/>
</linearGradient>
</defs>
</svg>
