<svg width="201" height="190" viewBox="0 0 201 190" fill="none" xmlns="http://www.w3.org/2000/svg">
<path d="M111.751 167C153.87 167 188.017 132.853 188.017 90.5831C188.017 48.3133 153.719 14.1665 111.751 14.1665C69.6312 14.1665 35.4844 48.3133 35.4844 90.5831C35.4844 132.853 69.6312 167 111.751 167Z" fill="#FF9900" fillOpacity="0.05"/>
<path d="M183.05 40.4922C186.456 40.4922 189.218 37.7309 189.218 34.3247C189.218 30.9185 186.456 28.1572 183.05 28.1572C179.644 28.1572 176.883 30.9185 176.883 34.3247C176.883 37.7309 179.644 40.4922 183.05 40.4922Z" fill="#FF9900" fillOpacity="0.2"/>
<path d="M192.079 16.4239C194.405 16.4239 196.291 14.5381 196.291 12.2119C196.291 9.88575 194.405 8 192.079 8C189.753 8 187.867 9.88575 187.867 12.2119C187.867 14.5381 189.753 16.4239 192.079 16.4239Z" fill="#FF9900" fillOpacity="0.2"/>
<path d="M39.5479 40.3423C41.8741 40.3423 43.7598 38.4566 43.7598 36.1304C43.7598 33.8042 41.8741 31.9185 39.5479 31.9185C37.2217 31.9185 35.3359 33.8042 35.3359 36.1304C35.3359 38.4566 37.2217 40.3423 39.5479 40.3423Z" fill="#FF9900" fillOpacity="0.2"/>
<path d="M13.8222 121.571C18.1422 121.571 21.6443 118.069 21.6443 113.748C21.6443 109.428 18.1422 105.926 13.8222 105.926C9.5021 105.926 6 109.428 6 113.748C6 118.069 9.5021 121.571 13.8222 121.571Z" fill="#FF9900" fillOpacity="0.2"/>
<g filter="url(#filter0_d_4994_53657)">
<path d="M163.65 52.3756L164.853 149.25C164.853 152.56 162.146 155.117 158.836 155.117H64.3686C61.0592 155.117 58.3516 152.409 58.3516 149.25V24.6972C58.3516 21.3878 61.0592 18.8306 64.3686 18.8306H132.813L163.65 52.3756Z" fill="url(#paint0_linear_4994_53657)"/>
</g>
<path d="M104.38 135.713H85.8773C85.1251 135.713 84.5234 134.961 84.5234 134.058C84.5234 133.155 85.1251 132.403 85.8773 132.403H104.38C105.132 132.403 105.734 133.155 105.734 134.058C105.734 135.111 105.132 135.713 104.38 135.713Z" fill="#FF9900" fillOpacity="0.2"/>
<path d="M93.8469 135.713H73.6898C72.9376 135.713 72.3359 134.961 72.3359 134.058C72.3359 133.155 72.9376 132.403 73.6898 132.403H93.8469C94.599 132.403 95.2007 133.155 95.2007 134.058C95.2007 135.111 94.599 135.713 93.8469 135.713Z" fill="#D5DDEA"/>
<path d="M119.57 39.1376H74.2915C73.2385 39.1376 72.3359 38.2351 72.3359 37.1821C72.3359 36.1291 73.2385 35.2266 74.2915 35.2266H119.57C120.623 35.2266 121.525 36.1291 121.525 37.1821C121.525 38.2351 120.623 39.1376 119.57 39.1376Z" fill="#FF9900" fillOpacity="0.2"/>
<path d="M91.7409 49.9687H74.2915C73.2385 49.9687 72.3359 49.0661 72.3359 48.0132C72.3359 46.9602 73.2385 46.0576 74.2915 46.0576H91.5905C92.6435 46.0576 93.546 46.9602 93.546 48.0132C93.546 49.0661 92.6435 49.9687 91.7409 49.9687Z" fill="#FF9900" fillOpacity="0.2"/>
<path d="M132.812 18.8311V45.6069C132.812 49.3676 136.122 52.3761 139.883 52.3761H163.65" fill="#FDC066"/>
<path d="M150.198 109.68H98.0059H92.2535H74.8561C74.1546 109.68 73.4531 110.383 73.4531 111.367C73.4531 112.211 74.0143 113.055 74.8561 113.055H92.2535H98.0059H150.198C150.9 113.055 151.601 112.352 151.601 111.367C151.461 110.383 150.9 109.68 150.198 109.68Z" fill="#FF9900" fillOpacity="0.2"/>
<path d="M150.058 97.4473H130.696H124.102H74.8561C74.1546 97.4473 73.4531 98.1503 73.4531 99.1345C73.4531 99.9781 74.0143 100.822 74.8561 100.822H124.102H130.696H150.058C150.759 100.822 151.461 100.119 151.461 99.1345C151.32 98.1503 150.759 97.4473 150.058 97.4473Z" fill="#FF9900" fillOpacity="0.2"/>
<path d="M150.479 85.0762H145.428H140.377H74.8561C74.1546 85.0762 73.4531 85.7792 73.4531 86.7634C73.4531 87.607 74.0143 88.4506 74.8561 88.4506H140.377H145.989H150.338C151.04 88.4506 151.741 87.7476 151.741 86.7634C151.882 85.9198 151.18 85.0762 150.479 85.0762Z" fill="#FF9900" fillOpacity="0.2"/>
<path d="M95.4805 136.957H74.8561C74.1546 136.957 73.4531 136.254 73.4531 135.27C73.4531 134.427 74.0143 133.583 74.8561 133.583H95.4805C96.182 133.583 96.8835 134.286 96.8835 135.27C96.8835 136.395 96.182 136.957 95.4805 136.957Z" fill="#E3EAF2"/>
<path d="M151.04 72.8433H134.625H130.556H74.8561C74.1546 72.8433 73.4531 73.5463 73.4531 74.5305C73.4531 75.3741 74.0143 76.2176 74.8561 76.2176H130.556H134.625H150.9C151.882 76.2176 152.443 75.5147 152.443 74.5305C152.443 73.6869 151.882 72.8433 151.04 72.8433Z" fill="#FF9900" fillOpacity="0.2"/>
<path d="M75.9787 144.41H42.8676C39.2198 144.41 36.2734 141.457 36.2734 137.801V91.8254C36.2734 79.0309 46.6557 68.7671 59.2829 68.7671C71.91 68.7671 82.2923 79.1715 82.2923 91.8254V137.942C82.4326 141.457 79.4863 144.41 75.9787 144.41ZM49.4618 131.334H69.3846V91.8254C69.3846 86.342 64.8949 81.8428 59.4232 81.8428C53.9514 81.8428 49.4618 86.342 49.4618 91.8254V131.334Z" fill="#FDC066"/>
<g filter="url(#filter1_d_4994_53657)">
<path d="M89.5869 156.922H29.6782C25.6094 156.922 22.2422 153.548 22.2422 149.47V109.681C22.2422 105.603 25.6094 102.229 29.6782 102.229H89.5869C93.6556 102.229 97.0229 105.603 97.0229 109.681V149.47C97.0229 153.548 93.6556 156.922 89.5869 156.922Z" fill="#FCE8CB"/>
</g>
<path d="M67.1369 123.459C67.1369 126.412 65.4533 128.942 63.0682 130.208V138.363C63.0682 140.331 61.5249 141.878 59.5607 141.878C57.5964 141.878 56.0531 140.331 56.0531 138.363V130.208C53.668 128.942 51.9844 126.412 51.9844 123.459C51.9844 119.241 55.3516 115.867 59.5607 115.867C63.7697 115.867 67.1369 119.241 67.1369 123.459Z" fill="#FDC066"/>
<defs>
<filter id="filter0_d_4994_53657" x="36.3516" y="7.83057" width="150.5" height="180.286" filterUnits="userSpaceOnUse" color-interpolation-filters="sRGB">
<feFlood flood-opacity="0" result="BackgroundImageFix"/>
<feColorMatrix in="SourceAlpha" type="matrix" values="0 0 0 0 0 0 0 0 0 0 0 0 0 0 0 0 0 0 127 0" result="hardAlpha"/>
<feOffset dy="11"/>
<feGaussianBlur stdDeviation="11"/>
<feColorMatrix type="matrix" values="0 0 0 0 0.397708 0 0 0 0 0.47749 0 0 0 0 0.575 0 0 0 0.27 0"/>
<feBlend mode="normal" in2="BackgroundImageFix" result="effect1_dropShadow_4994_53657"/>
<feBlend mode="normal" in="SourceGraphic" in2="effect1_dropShadow_4994_53657" result="shape"/>
</filter>
<filter id="filter1_d_4994_53657" x="0.242188" y="91.229" width="118.781" height="98.6934" filterUnits="userSpaceOnUse" color-interpolation-filters="sRGB">
<feFlood flood-opacity="0" result="BackgroundImageFix"/>
<feColorMatrix in="SourceAlpha" type="matrix" values="0 0 0 0 0 0 0 0 0 0 0 0 0 0 0 0 0 0 127 0" result="hardAlpha"/>
<feOffset dy="11"/>
<feGaussianBlur stdDeviation="11"/>
<feColorMatrix type="matrix" values="0 0 0 0 0.397708 0 0 0 0 0.47749 0 0 0 0 0.575 0 0 0 0.27 0"/>
<feBlend mode="normal" in2="BackgroundImageFix" result="effect1_dropShadow_4994_53657"/>
<feBlend mode="normal" in="SourceGraphic" in2="effect1_dropShadow_4994_53657" result="shape"/>
</filter>
<linearGradient id="paint0_linear_4994_53657" x1="111.568" y1="15.6781" x2="111.568" y2="156.586" gradientUnits="userSpaceOnUse">
<stop stopColor="#FDFEFF"/>
<stop offset="0.9964" stopColor="#ECF0F5"/>
</linearGradient>
</defs>
</svg>
